<?xml version="1.0" encoding="utf-8"?>
<!DOCTYPE svg PUBLIC "-//W3C//DTD SVG 20010904//EN" "http://www.w3.org/TR/2001/REC-SVG-20010904/DTD/svg10.dtd">
<svg version="1.0" xmlns="http://www.w3.org/2000/svg" width="200px" height="200px" viewBox="0 0 200 200" preserveAspectRatio="xMidYMid meet">
 <g fill="#ff6300">
  <path d="M77.5 164.3 c-0.9 -2 -0.7 -5.5 0.3 -6.4 0.4 -0.4 5.5 -1 11.5 -1.4 8.7 -0.6 10.7 -0.4 10.7 0.7 0 1.7 -4.6 3.6 -8.9 3.6 -2.2 0.1 -4.3 0.9 -6 2.6 -3.1 3 -6.6 3.4 -7.6 0.9z"/>
  <path d="M73 161 c-0.8 -0.5 -3.8 -1.2 -6.7 -1.6 -3.4 -0.4 -5.8 -1.4 -7.2 -2.8 l-2 -2.2 2.5 -2.9 c1.7 -2 2.7 -2.6 3 -1.7 0.4 0.8 2.7 1.2 6.5 1.2 l5.9 0 0 5.5 c0 3 -0.1 5.5 -0.2 5.5 -0.2 0 -1 -0.5 -1.8 -1z"/>
  <path d="M118 149.7 c0 -2.2 0.8 -4.1 2.3 -5.5 2.5 -2.4 10.6 -6.7 14.3 -7.6 1.5 -0.4 2.6 -1.6 3 -3.4 0.4 -1.5 1.4 -3.6 2.4 -4.7 1 -1.1 2 -3.2 2.4 -4.7 0.5 -2.2 1.2 -2.8 3.5 -2.8 5.1 0 5.9 -2.3 4.9 -13 -0.4 -5.2 -0.6 -10 -0.3 -10.7 0.2 -0.7 1.8 -1.3 3.5 -1.3 2.1 0 2.9 0.4 2.4 1.2 -0.4 0.6 -0.6 4.1 -0.5 7.7 0.2 4.9 0.7 7.1 2.2 8.7 2.9 3.1 2.3 5.7 -2 9.4 -2.2 1.8 -4.1 4.2 -4.3 5.3 -0.2 1.4 -1.4 2.4 -3.6 2.9 -3.1 0.8 -4.1 1.9 -4.6 5 -0.2 2 -4.3 5.8 -6.1 5.8 -0.9 0 -3.8 2 -6.4 4.5 -2.7 2.5 -5.8 4.5 -7 4.5 -1.2 0 -3.1 0.5 -4.2 1 -1.7 1 -1.9 0.7 -1.9 -2.3z"/>
  <path d="M56.7 139.9 c-3.3 -3.3 -3.4 -7.2 -0.1 -7.7 2.4 -0.3 4.4 3.2 4.4 7.8 0 3.6 -0.7 3.6 -4.3 -0.1z"/>
  <path d="M59.8 122.9 c-2.9 -1.7 -2.2 -4.7 1.3 -5.4 3.5 -0.8 4.7 -3 3 -5.6 -1 -1.7 -0.8 -1.9 2.4 -1.9 4.1 0 5.5 2.3 5.5 9.1 0 3.9 0 3.9 -3.9 3.9 -2.2 0 -4.5 0.2 -5.3 0.5 -0.7 0.2 -2.1 0 -3 -0.6z"/>
  <path d="M59.7 100 c-2.1 -2.4 -6.4 -2.6 -8.9 -0.3 -1.8 1.6 -2 1.5 -4.1 -0.5 l-2.2 -2.2 4.9 -4.4 c3.7 -3.5 4.6 -4.9 4.1 -6.5 -1.1 -3.4 3.8 -2.7 6.9 1 2.2 2.5 2.6 4.1 2.6 9 0 6.3 -0.6 7 -3.3 3.9z"/>
  <path d="M153.3 90.3 c-2.9 -0.6 -8 -8.1 -8.8 -13 -1.2 -7 -1.4 -7.3 -5.1 -7.3 -3.2 0 -3.4 -0.2 -3.4 -3.4 0 -1.9 0.3 -4.1 0.6 -5 0.8 -2 4.4 -2.1 4.4 -0.2 0 2.2 2.8 4.6 5.3 4.6 1.3 0 3.7 1.3 5.4 2.8 2.4 2.2 3 3.5 2.6 5.5 -0.4 1.9 0.2 3.2 2.1 5 2.1 1.9 2.6 3.4 2.6 7.1 0 4.9 -0.2 5 -5.7 3.9z"/>
  <path d="M57.4 79.8 c-0.4 -0.6 -0.2 -1.4 0.4 -1.6 0.7 -0.2 1.2 -2.5 1.2 -5.8 0 -4.7 0.2 -5.4 2 -5.4 1.1 0 3.7 -1.7 5.8 -3.8 4.7 -4.7 11.2 -6.5 11.2 -3 0 1.1 -1.1 2.9 -2.5 4 -1.8 1.4 -2.5 2.9 -2.5 5.4 0 2.5 -1 4.7 -3.2 7.4 -2.9 3.5 -3.8 4 -7.5 4 -2.3 0 -4.5 -0.5 -4.9 -1.2z"/>
  <path d="M88.3 54.6 c0.4 -1 0.7 -2.6 0.7 -3.7 0 -1.2 0.7 -1.9 1.8 -1.9 3.1 0 5.2 -3.3 5.2 -7.9 0 -5.1 2.1 -6.3 5.4 -3.2 2.9 2.8 9.9 2.9 11.8 0.3 1 -1.4 2.2 -1.8 5.1 -1.4 3.6 0.4 3.7 0.5 3.7 4.6 0 6 2.2 8.6 7.1 8.6 2.6 0 4.2 0.5 4.5 1.5 0.4 0.8 1.2 1.5 2 1.5 0.8 0 1.4 0.7 1.4 1.5 0 2.8 -13 1.3 -13.7 -1.5 -0.4 -1.5 -1.2 -1.7 -4.5 -1.2 -3 0.4 -4.4 0.1 -5.2 -1 -1 -1.4 -1.6 -1.4 -5.1 0.4 -2.2 1.2 -6.2 2.4 -9 2.9 -2.7 0.4 -6.5 1.1 -8.4 1.5 -3 0.6 -3.3 0.4 -2.8 -1z"/>
 </g>
 <g fill="#ff7800">
  <path d="M76.9 164.1 c-0.9 -0.9 -2.6 -2.4 -3.9 -3.4 -1.6 -1.3 -2.1 -2.6 -1.7 -4.4 0.4 -2.3 0.3 -2.5 -2.7 -1.9 -5.8 1.2 -6.8 1.1 -8.1 -0.9 -1.2 -1.7 -1.1 -2.3 0.6 -4.4 1.5 -1.9 2.2 -2.2 2.8 -1.2 0.7 1 1.5 1 4 -0.3 2.4 -1.3 3.1 -2.3 3.1 -4.7 l0 -3 5.8 0.3 5.7 0.3 0.3 5.1 c0.3 4.5 0 5.2 -2.3 6.4 -1.4 0.7 -2.5 1.7 -2.5 2.2 0 1.2 2.8 1 3.5 -0.3 0.5 -0.7 3.8 -0.8 10 -0.3 6.4 0.4 9.4 0.3 9.9 -0.5 0.9 -1.4 9.6 -1.5 9.6 0 0 0.6 -1.2 2.1 -2.7 3.3 -2.7 2.1 -9.2 3.2 -22.3 3.8 -4.6 0.3 -5.5 0.6 -5.8 2.3 -0.6 2.9 -1.5 3.4 -3.3 1.6z"/>
  <path d="M116 151.3 c0 -2.1 0.9 -5.3 2 -7.1 1.1 -1.8 2 -4.7 2 -6.5 0 -1.8 0.5 -3.8 1.2 -4.5 1.8 -1.8 7.5 -1.5 8.6 0.4 1.2 2.1 4.2 1.5 5.6 -1.1 0.5 -1.1 1.8 -3.2 2.8 -4.7 1.7 -2.6 1.7 -3 0.3 -5.2 -1.1 -1.6 -1.5 -4.1 -1.3 -7.8 l0.3 -5.3 4.1 -0.3 c2.8 -0.2 4.7 0.2 5.8 1.3 1.5 1.5 1.6 1.4 1.7 -1.2 0.1 -1.5 0 -5.6 -0.1 -9 -0.2 -5.7 0 -6.4 2.1 -7.1 2.3 -0.9 2.3 -0.9 -0.4 -1.6 -1.5 -0.3 -2.7 -1.3 -2.7 -2 0 -0.8 -1.1 -2.8 -2.5 -4.4 -1.5 -1.8 -2.8 -4.9 -3.1 -7.6 l-0.7 -4.6 -7.1 0 c-9 0 -10.9 -1.2 -10.4 -6.5 0.3 -3.9 0.4 -4 4.4 -4.3 2.5 -0.2 4.9 -1.1 5.9 -2.2 1.6 -1.8 1.4 -1.9 -4.2 -2.5 -3.2 -0.4 -6.5 -1.4 -7.5 -2.2 -1.1 -1 -1.8 -1.1 -2.3 -0.4 -0.9 1.5 -10.8 1.4 -12.3 -0.1 -0.9 -0.9 -1.5 -0.9 -2.4 0 -0.7 0.7 -3 1.2 -5.2 1.2 -2.6 0 -5.6 0.9 -8.1 2.5 -2.2 1.3 -5.3 2.5 -7 2.5 -3.4 0 -9.5 3.3 -9.6 5.2 0 0.7 0 3.2 0.1 5.6 0.1 4 0 4.3 -3 4.9 -2.4 0.4 -3.6 1.4 -4.6 3.9 -1.2 2.8 -1.9 3.4 -4.6 3.4 -3.1 0 -3.1 0 -1.2 2.1 2.6 2.9 3.4 14.6 0.9 15.5 -2.3 0.9 -3.2 -0.4 -3.8 -5.4 -0.3 -3.1 -1.4 -5.3 -3.6 -7.6 -1.7 -1.7 -3.1 -3.8 -3.1 -4.6 0 -2.3 6.2 -7.1 8.3 -6.4 2.9 0.9 8.7 -6.2 8 -9.9 -0.8 -4.1 4.8 -9 12 -10.5 3.5 -0.7 6.4 -2 8.1 -3.6 1.8 -1.9 3.6 -2.6 6.5 -2.6 3.8 0 13.3 -3.9 14.6 -6 1.2 -1.9 4.5 -1 5.4 1.3 0.8 2 1.5 2.3 4.1 1.9 2.2 -0.3 3.8 0.1 5.3 1.6 2.2 1.9 6.3 3 14 3.7 4.7 0.5 5.7 1.3 3.6 2.8 -0.9 0.7 -1.8 2.6 -2.1 4.2 -0.3 1.7 -0.9 3.8 -1.3 4.8 -0.7 1.7 -0.6 1.8 1.4 0.5 2 -1.1 2.4 -1.1 4 0.9 1 1.2 2.1 4.2 2.4 6.6 0.8 5.5 6 13.7 8.8 13.7 1.2 0 2.3 1 2.9 2.6 1.4 3.5 1.3 4.4 -0.5 4.4 -0.8 0 -1.5 0.6 -1.5 1.3 0 0.8 -0.9 2.2 -2 3.2 -1.8 1.7 -1.9 2 -0.5 4.1 1.7 2.6 2 6.4 0.5 6.4 -1.5 0 -1.2 3.2 0.5 5.4 2 2.6 1.9 2.9 -1.1 6.5 -1.8 2.2 -3.5 3.1 -5.5 3.1 -2.3 0 -3 0.5 -3.5 2.8 -0.4 1.5 -1.4 3.6 -2.4 4.7 -1 1.1 -2 3.2 -2.4 4.7 -0.4 1.8 -1.5 3 -3 3.4 -6.3 1.5 -16.6 8.2 -16.6 10.8 0 0.6 -1.2 1.9 -2.5 2.9 l-2.5 1.8 0 -3.8z"/>
  <path d="M63 145.1 c0 -0.5 -0.9 -1.2 -1.9 -1.6 -1 -0.3 -2.5 -1.9 -3.1 -3.6 -0.7 -1.7 -1.9 -3.7 -2.7 -4.4 -0.7 -0.7 -1 -2.1 -0.7 -2.9 1.9 -4.8 10.4 3.2 10.4 9.8 0 2 -0.4 3.6 -1 3.6 -0.5 0 -1 -0.4 -1 -0.9z"/>
  <path d="M60.2 123.4 c-1.9 -1.9 -2 -2.2 -0.6 -2.8 0.8 -0.3 3.4 -0.6 5.6 -0.6 3.9 0 4 -0.1 3.3 -2.7 -0.6 -2.6 -4.9 -7.2 -6.7 -7.3 -0.5 0 -0.8 -0.7 -0.8 -1.5 0 -2.3 6 -1.8 9.2 0.8 3.1 2.6 4.8 6.5 4.8 11.3 0 3.9 -0.4 4.1 -7.5 4.6 -4.1 0.3 -5.4 0 -7.3 -1.8z"/>
 </g>
 <g fill="#ffaf00">
  <path d="M75.3 162.5 c-2.4 -1.7 -3.1 -5.9 -1.3 -7 1.2 -0.7 1.4 -5.2 0.3 -5.8 -0.5 -0.3 -3.2 0.7 -6.1 2.1 -4.5 2.1 -5.5 2.3 -6.3 1.1 -0.5 -0.8 -0.6 -2.3 -0.3 -3.4 1.4 -4.4 0.6 -7.5 -3 -11.9 -4.4 -5.4 -4.5 -6.6 -0.6 -6.6 3.7 0 5.6 -3 4 -6.1 -0.7 -1.1 -1 -2.2 -0.8 -2.4 0.2 -0.2 2.6 -0.5 5.3 -0.7 3 -0.3 5 -0.9 4.9 -1.6 -0.1 -0.7 -0.2 -1.9 -0.2 -2.8 -0.3 -2 -6.2 -7.4 -8.3 -7.4 -1.3 0 -1.8 -1.2 -2.1 -5.2 -0.2 -2.9 0 -5.9 0.5 -6.5 1.6 -2.1 -0.2 -7.8 -3.3 -10.8 -3.3 -3.2 -3.8 -5.6 -1.4 -7.6 1.2 -1 2.2 -1 4.5 -0.2 2.8 1.1 3 1 4.4 -2.3 0.8 -2.1 2.1 -3.4 3.2 -3.4 3.4 0 4.5 -1.4 3.3 -4.4 -2 -5.3 3.8 -11.6 10.7 -11.6 1.5 0 4.6 -1.2 6.8 -2.5 2.4 -1.5 5.5 -2.5 7.8 -2.5 2.2 0 5.1 -0.8 6.6 -1.9 1.5 -1.1 3.4 -2.1 4.2 -2.3 0.8 -0.2 2 -1.1 2.7 -2 0.7 -1 1.7 -1.8 2.3 -1.8 1.5 0 1 3.2 -0.8 4.5 -0.9 0.7 -1.3 1.7 -0.9 2.3 1 1.7 5.1 1.5 6.6 -0.3 1.7 -2 4.2 -1.9 7.1 0.4 3.2 2.4 13.8 3.8 15 1.9 0.6 -0.8 0.7 0.1 0.3 2.2 -1 5.6 -3.5 8.5 -8 8.8 -5 0.4 -6.5 1.9 -4 3.8 2.7 2 9.5 1.8 11.9 -0.3 1.8 -1.7 1.9 -1.7 3.2 0 0.7 0.9 1.5 3.8 1.9 6.3 0.3 2.7 1.6 5.8 3.1 7.6 1.4 1.6 2.5 3.6 2.5 4.3 0 0.7 1.6 1.9 3.6 2.5 1.9 0.7 3.8 1.8 4.1 2.6 0.6 1.6 -2 4.4 -4.2 4.4 -2.3 0 -3 2.8 -1.6 6.7 1 2.8 1 4.1 0 6.5 -1 2.5 -1 3.4 0.5 6 1.7 2.8 1.7 3 0 4.9 -2.6 2.9 -4 2.3 -6.4 -2.5 -2 -4.3 -4.3 -6.2 -6.1 -5 -1.4 0.8 -1.1 4.8 0.6 7 1.7 2.2 2 9 0.4 10 -0.6 0.3 -1.7 2.2 -2.5 4.1 -0.8 1.8 -2.5 3.8 -3.7 4.3 -1.2 0.6 -3.2 1.7 -4.4 2.6 -2.1 1.5 -2.3 1.5 -3.7 -2.1 -1.4 -3.2 -1.8 -3.5 -3.1 -2.5 -0.8 0.7 -1.5 2.6 -1.5 4.3 0 2.9 -4.4 13.2 -6 14.2 -0.5 0.3 -3.3 0.6 -6.4 0.6 -3.5 0.1 -6 0.7 -6.8 1.6 -0.9 1.1 -2.3 1.3 -5.4 0.8 -2.7 -0.4 -5 -0.1 -6.3 0.7 -1.7 1 -2.3 0.9 -4.1 -0.7 -1.6 -1.4 -2.3 -1.6 -3.2 -0.7 -0.7 0.7 -2 1.2 -3 1.2 -1.1 0 -2.3 1.2 -3 3 -1.2 2.9 -1.4 3 -3.5 1.5z m4.5 -17 c-0.2 -1.3 -1.2 -2.1 -3 -2.3 -2.4 -0.3 -2.8 0 -2.8 2 0 1.3 0.5 2.9 1.1 3.5 1.7 1.7 5 -0.7 4.7 -3.2z m23.4 -8 c4.8 -2.2 10.7 -8.7 11.5 -12.5 0.4 -2.4 1.1 -3 3.1 -3 1.4 0 3.8 -1.2 5.4 -2.7 2.4 -2.3 2.8 -3.5 2.8 -7.9 0 -3.4 -0.5 -5.6 -1.5 -6.4 -1.1 -0.9 -1.5 -3.4 -1.5 -9.7 l0 -8.4 4.8 0.3 c4.2 0.3 4.7 0.6 5 2.8 0.9 8.3 1.2 9 4 9 1.6 0 3.3 0.5 3.8 1 0.8 0.8 1.4 0.7 2.3 -0.3 0.9 -1.2 0.6 -1.6 -1.9 -2 -2.8 -0.6 -3 -0.9 -3 -5.2 0 -3.6 0.4 -4.5 1.8 -4.6 0.9 -0.1 0.1 -0.4 -1.8 -0.8 -3.4 -0.6 -3.5 -0.7 -4 -6.1 l-0.5 -5.5 -4.2 -0.6 c-5.2 -0.7 -6.9 -2.1 -7.7 -6.4 -0.8 -4 -3.8 -6.5 -7.9 -6.5 -1.8 0 -3.6 -1 -5.1 -2.7 l-2.4 -2.7 -3.6 3.2 c-2 1.8 -4.3 3.2 -5.1 3.2 -0.7 0 -2.7 1.7 -4.4 3.9 -2.4 3 -3.9 3.9 -7.1 4.4 -2.2 0.3 -5.4 1.7 -7.1 3.1 -1.7 1.4 -3.9 2.6 -4.9 2.6 -3.3 0 -5 1.2 -5 3.5 0 1.3 -0.4 2.7 -1 3 -0.5 0.3 -1 3.9 -1 7.8 0 4.2 -0.6 8.3 -1.4 9.9 -1.4 2.6 -1.3 2.8 2 4.8 2 1.1 3.8 2 4.3 2 1.3 0 5.1 9 5.1 12.3 0 2.9 -0.5 3.5 -3.8 5 -2.1 0.9 -4.8 1.7 -6 1.7 -1.9 0 -2 0.3 -1.2 2.6 0.6 1.4 1 4 1 5.9 0 1.9 0.5 3.7 1 4 0.6 0.3 1 0.1 1 -0.4 0 -0.6 0.6 -1.1 1.4 -1.1 0.8 0 2.9 -0.8 4.8 -1.7 1.8 -0.9 4.5 -2.2 6 -3 1.4 -0.7 4.2 -1.3 6.2 -1.3 l3.6 0 0 4.8 c0 2.6 -0.4 5.4 -1 6.2 -0.6 0.9 -0.5 1.9 0.2 2.8 0.9 1 1.9 0.5 5.2 -2.6 2.3 -2.2 5.8 -4.7 7.8 -5.7z"/>
 </g>
 <g fill="#ffc758">
  <path d="M88.2 149.4 c-2.5 -1.7 -2.8 -5 -1 -10.1 1.5 -4.1 0.7 -4.9 -2.9 -3.1 -1.5 0.8 -4.3 2.2 -6.1 3.1 -1.9 0.9 -4 1.7 -4.8 1.7 -0.8 0 -1.4 0.5 -1.4 1 0 1.6 -5.8 1.2 -8.5 -0.6 -2.9 -1.9 -3.2 -3.9 -0.9 -4.8 1.1 -0.4 1.4 -1.2 0.9 -2.4 -0.4 -0.9 -0.8 -3.6 -1 -5.9 -0.3 -3.9 -0.1 -4.3 1.9 -4.3 1.8 0 7.6 -2.2 9.4 -3.5 0.6 -0.5 -3.2 -7.5 -4 -7.5 -0.5 0 -0.6 -0.5 -0.3 -1 0.4 -0.6 0.3 -1 -0.2 -0.8 -0.4 0.1 -2.5 -0.9 -4.6 -2.1 -4.2 -2.6 -4.8 -5.7 -2.2 -10.7 2.3 -4.4 1.9 -9.9 -0.7 -11.6 l-2.3 -1.5 3.3 -2.9 c1.7 -1.6 3.2 -3.8 3.2 -5 0 -2.2 1.7 -3.4 5 -3.4 1 0 3.2 -1.2 4.9 -2.6 1.7 -1.4 4.9 -2.8 7.1 -3.1 3.2 -0.5 4.7 -1.4 7.1 -4.4 1.7 -2.2 3.7 -3.9 4.4 -3.9 0.7 0 3.7 -2 6.6 -4.5 2.9 -2.5 5.6 -4.5 5.9 -4.5 0.3 0 1.9 1.8 3.6 4 2.2 3.1 3.6 4 5.9 4 5 0 8.2 3.4 8.9 9.2 0.2 1.4 2.4 3 4.7 3.2 8.8 1 10.6 2.9 7.7 7.5 -2.1 3.4 -0.3 5.2 4.9 4.9 4.7 -0.3 4.8 -0.2 5.1 2.8 0.3 2.9 0 3.2 -3.2 3.8 -4.8 0.9 -4.6 3.2 0.4 4.6 4.9 1.3 5.2 3.5 1.2 7.3 -3.1 3 -6.3 3.5 -8.2 1.2 -0.7 -0.8 -2.5 -1.5 -4.1 -1.5 -2.9 0 -3.2 -0.7 -4.1 -9 -0.2 -1.4 -1 -2.6 -2 -2.8 -1.5 -0.3 -1.8 0.4 -1.8 5 0 5.9 1.2 7.8 4.7 7.8 1.9 0 2.3 0.5 2.3 3 0 2.2 -0.5 3 -1.8 3 -1.5 0 -1.9 0.9 -2.1 5.3 -0.3 6.2 -3.7 10.7 -8.2 10.7 -2.1 0 -2.8 0.6 -3.2 3 -0.8 3.8 -6.7 10.3 -11.5 12.5 -2 1 -5.8 3.7 -8.4 6.1 -5.2 4.8 -6.3 5.2 -9.6 2.8z m14 -13.9 c5.6 -2.8 10 -8.5 10.7 -13.8 l0.6 -4.2 4.5 -0.1 c4.7 -0.1 4.8 -0.2 3.7 -4.4 -0.3 -1.4 -0.9 -6 -1.2 -10.2 l-0.7 -7.7 -5.1 -0.3 -5.2 -0.3 0 -4.5 0 -4.5 11.3 0 11.2 0 0 -4.1 c0 -4.9 -0.8 -5.4 -8.6 -5.4 -3.9 0 -5.4 0.4 -5.4 1.4 0 1.8 -2.2 2.6 -6.9 2.6 -4.5 0 -6.1 -1.4 -6.1 -5.5 0 -4.2 1.6 -5.5 6.6 -5.5 3.4 0 4.3 -0.4 4.7 -2.1 0.5 -1.9 0.4 -2 -1.8 -0.5 -1.4 0.9 -4 1.6 -6 1.6 -3.1 0 -3.6 -0.4 -4.1 -2.9 l-0.6 -2.8 -3.3 1.6 c-5.9 2.9 -7.3 5.7 -8.2 16.7 l-0.8 9.9 -4.7 0.3 c-5.6 0.4 -6.3 -0.9 -5.3 -9.9 l0.7 -5.9 -2.9 1.4 c-1.5 0.9 -4 1.8 -5.6 2.1 -1.5 0.3 -2.7 1.1 -2.7 1.9 0 0.7 -0.7 1.9 -1.5 2.6 -0.8 0.7 -1.5 2.5 -1.5 4.1 0 2.7 0.3 2.9 4.1 2.9 l4 0 -0.3 4.8 c-0.3 4.6 -0.4 4.7 -3.8 5 -3 0.3 -5.4 2.2 -5.4 4.2 0 0.3 1.3 0.7 2.9 1 2 0.4 3.9 2 6.4 5.5 2.9 4.1 3.5 5.9 3.6 10 0 4.2 -0.3 5 -2 5.3 -1.1 0.1 -3.7 1.1 -5.7 2 -3.2 1.5 -3.8 2.2 -3.8 5 0 3.8 0 3.8 6.4 1.3 5.3 -2 8.6 -5.1 8.6 -8.2 0 -1.1 0.7 -1.9 1.6 -1.9 0.9 0 3.2 -0.9 5 -2.1 2.1 -1.2 4.6 -1.9 6.6 -1.7 3 0.3 3.3 0.6 3.6 4.1 0.3 3 -0.3 4.5 -3.2 8.1 -2.3 2.7 -3.6 5.4 -3.6 7.1 l0 2.8 2.5 -2.3 c1.4 -1.3 4.4 -3.4 6.7 -4.5z"/>
  <path d="M89.7 118.3 c-0.4 -0.3 -0.7 -2.6 -0.7 -4.9 0 -3.8 0.3 -4.4 2.4 -5 1.3 -0.3 3.5 -0.4 4.7 -0.2 2.1 0.3 2.4 0.9 2.7 5.6 l0.3 5.2 -4.4 0 c-2.4 0 -4.7 -0.3 -5 -0.7z"/>
  <path d="M93.2 98.3 l0.3 -4.8 4.8 -0.3 4.7 -0.3 0 5 0 5.1 -5.1 0 -5 0 0.3 -4.7z"/>
 </g>
 <g fill="#ffffb3">
  <path d="M88.6 146.8 c-1.4 -2 -1.4 -2.5 -0.1 -4.5 0.8 -1.2 1.5 -3.7 1.5 -5.4 0 -2.2 1.1 -4.6 3.6 -7.5 4.2 -5.2 3.7 -7.4 -1 -4.4 -1.9 1.1 -4.1 2 -5 2 -0.9 0 -1.6 0.8 -1.6 1.9 0 3.3 -3.6 6.6 -9.6 8.5 -3.3 1.1 -6.3 2.3 -6.8 2.8 -1.4 1.1 -5.4 1 -6.1 -0.2 -0.4 -0.6 -0.1 -1.7 0.5 -2.6 0.9 -0.9 1 -3.1 0.6 -6.4 -0.6 -4.4 -0.5 -5 1.2 -5 1 0 2.3 -0.5 2.9 -1.1 0.6 -0.6 2.6 -1.4 4.5 -1.8 4.2 -0.9 4.1 -3.3 -0.5 -9.8 -2.3 -3.3 -4.3 -5 -6.2 -5.3 -4.2 -0.7 -5.4 -3.4 -3.3 -7.1 2 -3.4 2.4 -11.9 0.8 -14.9 -0.8 -1.4 -0.4 -2.5 1.5 -4.8 1.4 -1.7 2.5 -3.4 2.5 -4 0 -1.2 2.4 -2.2 5 -2.2 1 0 3.2 -1.2 4.9 -2.6 2.1 -1.8 3.7 -2.3 5.1 -1.9 2 0.6 2.1 1.3 1.9 8.6 -0.3 8.1 0.1 9.5 2.4 8.6 1 -0.4 1.6 -3.3 2.1 -10.2 0.7 -10.3 2.7 -14.8 7 -16.1 1.2 -0.3 3.5 -2.2 5.3 -4.2 2.6 -3 3.6 -3.5 5 -2.6 3.1 1.9 3.9 4.1 2.1 6.1 -3.1 3.3 -0.7 4.6 3.9 2.1 3.5 -1.9 4.5 -2 6.7 -1 2.9 1.3 3.4 4.3 1.1 6.2 -1.9 1.6 -2 5 0 5 0.7 0 1.8 -0.8 2.3 -1.7 0.9 -1.5 1.2 -1.5 3.4 -0.1 1.3 0.8 4.2 1.9 6.6 2.3 3.2 0.5 4.2 1.1 4.2 2.6 0 1 -0.4 1.9 -1 1.9 -0.5 0 -1 2.2 -1 5 0 3.8 0.4 5.2 1.9 5.9 1 0.6 2.2 2.2 2.5 3.6 0.4 1.4 2 3.2 3.9 4.1 4.3 2.2 4.3 2.1 2.2 4.4 -2.3 2.5 -2.6 2.5 -8.5 -0.2 -4.5 -2 -4.8 -2.5 -5.3 -6.5 -0.5 -4.9 -0.5 -4.8 -3.2 -5.7 -4.2 -1.2 -5 0.6 -4.7 11 0.2 7.8 0.7 10.4 2.3 13.1 l2.1 3.4 -2.3 3.4 c-2.7 3.9 -3.5 4.2 -6.5 2 -2.6 -1.8 -3.4 -1.1 -3.4 3.1 0 4.3 -5.2 11.1 -10.6 13.8 -2.3 1.2 -6.2 4 -8.7 6.4 -2.6 2.3 -5.1 4.2 -5.6 4.2 -0.6 0 -1.7 -1 -2.5 -2.2z m3 -39.7 c2.5 -1.1 2.5 -1.3 1.9 -7.6 -0.6 -5.5 -0.5 -6.6 0.9 -7.1 0.9 -0.4 1.6 -1.8 1.6 -3.4 0 -1.6 1.3 -4.4 3.3 -6.8 2.5 -3.2 3.9 -4.1 6.3 -4.1 7.2 -0.2 12.3 -4 7.4 -5.6 -2.8 -0.9 -5.4 1.3 -3.9 3.1 0.9 1.1 0.6 1.4 -1.5 1.4 -2.3 0 -2.6 -0.4 -2.6 -3.6 0 -3.6 0 -3.7 -3.6 -3.1 -5.5 0.9 -6.4 2.2 -6.4 9.1 0 3.3 -0.5 7.8 -1.1 9.9 -1 3.7 -1 3.7 -6.4 3.7 -4.3 0 -5.6 -0.4 -6.4 -1.9 -0.6 -1 -2.9 -2.6 -5.1 -3.5 -4.9 -2 -5 -2 -5 -0.1 0 0.8 0.7 1.5 1.5 1.5 0.8 0 1.5 0.9 1.5 2 0 1.1 0.5 2 1 2 1.2 0 1.3 10 0.1 11.9 -0.6 0.9 0.1 2.8 2 5.6 2.9 4.3 4.6 5.5 7.9 5.5 1 0 2.2 0.8 2.6 1.8 0.6 1.2 1 0 1.2 -3.9 0.3 -4.9 0.6 -5.8 2.8 -6.8z m4.4 7 c0 -1.1 -0.4 -2.2 -0.8 -2.5 -1.4 -0.9 -3.5 1.2 -2.9 2.8 0.9 2.3 3.7 2 3.7 -0.3z m8 -1.2 c0 -1.7 0.9 -4.2 2 -5.6 1.1 -1.4 2 -4.1 2 -5.9 l0 -3.4 5.5 0 c3 0 5.5 -0.4 5.5 -1 0 -0.5 -1.2 -1 -2.7 -1 -5.2 0 -7.3 -1.1 -7.3 -3.6 0 -3 -0.8 -3 -4.1 0 -2.5 2.1 -2.7 3.1 -3.1 11.2 -0.3 4.9 -0.8 9.7 -1.2 10.7 -0.6 1.3 -0.3 1.7 1.3 1.7 1.7 0 2.1 -0.6 2.1 -3.1z m-4 -15 c0 -1.4 -0.5 -1.9 -1.7 -1.7 -2.6 0.5 -2.9 3.8 -0.4 3.8 1.5 0 2.1 -0.6 2.1 -2.1z m-27.2 -3.2 c0.2 -1.2 -0.3 -1.7 -1.7 -1.7 -1.2 0 -2.1 0.6 -2.1 1.3 0 3.1 3.2 3.4 3.8 0.4z m46.2 -4.7 c0 -1.5 -0.7 -2 -2.9 -2 -3.1 0 -4.7 1.3 -3.6 3 0.3 0.6 1.9 1 3.6 1 2.2 0 2.9 -0.5 2.9 -2z m2 -4.8 c0 -1.7 -5.1 -5.2 -7.5 -5.2 -2 0 -2.5 0.5 -2.5 2.4 0 1.9 0.6 2.6 2.8 2.9 5 0.7 7.2 0.7 7.2 -0.1z"/>
  <path d="M141.1 87.7 c-1.3 -1.6 -0.5 -2.7 2 -2.7 2.4 0 3.5 2 1.8 3.1 -1.9 1.2 -2.5 1.1 -3.8 -0.4z"/>
 </g>
 <g fill="#ffffc4">
  <path d="M84.8 121.5 c-0.7 -1.6 -1.9 -2.5 -3.5 -2.5 -2.4 0 -3.5 -1 -10.5 -9.5 l-4 -4.9 2.3 -1 c1.3 -0.5 2.6 -1.1 2.8 -1.3 0.2 -0.1 0.5 -2.3 0.7 -4.8 0.4 -4.6 0.1 -5 -4 -4.5 -1.7 0.2 -1.8 -0.4 -1.4 -4.5 0.3 -2.6 1.1 -5.2 1.7 -5.8 1.6 -1.6 11.8 1.8 14.6 4.9 5.2 5.6 8 2.1 8.4 -10.6 0.1 -4 0.7 -7 1.6 -7.9 0.9 -1 4.8 -1.7 11.2 -2.2 8.2 -0.5 10 -0.4 11 0.9 1.7 2.1 -0.1 4.2 -3.8 4.2 -3.5 0 -4.6 1.7 -2.5 3.8 1.3 1.4 2.1 1.4 4.6 0.5 2.9 -1.1 3.4 -0.9 7.3 2.7 2.3 2.2 5.4 4.2 7 4.6 3.4 0.7 7.7 6.2 7.7 9.7 0 3.7 -1.3 3.4 -3.3 -0.8 -0.9 -1.9 -2.2 -3.5 -2.9 -3.6 -0.7 -0.1 -5 -0.3 -9.5 -0.5 -7.7 -0.3 -8.3 -0.1 -8.3 1.7 0 2 1.3 2.4 6.3 2 3.1 -0.3 4.7 2.6 4.7 8.4 0 4.2 -1.2 5 -3.5 2.5 -1.1 -1.2 -3.1 -2 -5.2 -2 -3.1 0 -3.3 0.2 -3.3 3.4 0 1.9 -0.9 4.5 -2.1 6 l-2 2.6 2.7 2.3 c3.8 3.3 2.7 6.2 -1.9 5.2 -3 -0.6 -5.5 -0.7 -11.7 -0.4 -1.3 0 -3.5 0.9 -4.8 2 -3.3 2.6 -5 2.4 -6.4 -0.6z m13.1 -11.3 c1.4 -4.8 0.7 -7 -0.8 -2.9 -0.5 1.4 -1.9 2.8 -3 3.2 -2.3 0.7 -2.9 5 -0.8 5.8 1.8 0.7 3.2 -1.2 4.6 -6.1z m-10.1 0.3 c-0.1 -0.1 -2.1 0 -4.3 0.5 -4 0.7 -3.4 1.6 1.5 2.2 2.1 0.3 4 -1.6 2.8 -2.7z m11.7 -12.5 c0 -1.3 -0.6 -2.5 -1.2 -2.7 -1.6 -0.6 -2.7 2.1 -1.9 4.3 0.9 2.3 3.1 1.1 3.1 -1.6z m-11.6 -2.1 l4.6 -0.6 -4.7 -0.2 c-3.4 -0.1 -5.5 -0.8 -7.7 -2.7 l-3.1 -2.6 0 3.6 c0 4 2.5 6.2 4.9 4.3 0.7 -0.6 3.4 -1.4 6 -1.8z m16.5 -8.3 c2.7 -2.3 3.7 -3.9 3.3 -5 -0.9 -2.4 -1.8 -1.9 -5.4 2.6 -5.3 6.5 -4.2 7.8 2.1 2.4z m-3.3 -11.9 l2 -3.9 -2.3 0.7 c-3.3 1 -4.8 3.3 -4.8 7.4 0.1 3.4 0.1 3.5 1.6 1.6 0.9 -1.1 2.5 -3.7 3.5 -5.8z"/>
 </g>
 <g fill="#ffffd5">
  <path d="M85.2 118 c-0.8 -1.3 -2.3 -2 -4.1 -2 -3.7 0 -10.7 -7.6 -8.9 -9.7 1.4 -1.7 3.3 -1.6 4.8 0.2 1.8 2.1 4.3 1.9 10 -1 3.3 -1.7 4.8 -3 4.4 -3.9 -1 -2.5 -3.4 -2.6 -7.4 -0.3 -3.8 2.1 -4.1 2.1 -6.7 0.5 -2.1 -1.2 -2.9 -2.7 -3.3 -5.5 -0.4 -3.3 -0.9 -3.8 -3.2 -4.1 -1.6 -0.2 -2.8 -1 -2.8 -1.7 0 -2.4 2.3 -6.5 3.5 -6.5 2.2 0 8.9 3.2 11.8 5.6 1.6 1.3 4 2.4 5.3 2.4 3.2 0 4.4 -3.2 4.4 -11.9 0 -8.8 1.1 -10.3 8.1 -10.8 8.3 -0.6 8.7 0.2 3.8 8.3 -2.3 3.8 -5.3 8.2 -6.8 9.7 -2.3 2.5 -2.6 3.7 -2.8 10.6 -0.2 5.9 -0.7 8.7 -2.4 11.5 -1.1 2 -1.8 4.3 -1.5 5.2 0.8 2.1 -1.1 5.4 -3.2 5.4 -0.9 0 -2.3 -0.9 -3 -2z"/>
  <path d="M97 117.1 c0 -0.5 0.9 -2.8 2 -5.2 1.1 -2.4 2 -6.5 2 -9.1 0 -2.7 0.4 -4.8 0.8 -4.8 1.3 0 8.2 6.7 8.2 7.9 0 1.7 -10 12.1 -11.6 12.1 -0.8 0 -1.4 -0.4 -1.4 -0.9z"/>
  <path d="M118 100 c-0.8 -0.5 -2.7 -1 -4.2 -1 -4.8 0 -3.3 -4.3 1.9 -5.4 2.7 -0.6 3.4 -0.3 4.8 1.8 1 1.4 1.5 3.3 1.1 4.1 -0.6 1.7 -1.5 1.9 -3.6 0.5z"/>
  <path d="M117.5 87.2 c-5.1 -0.8 -6.2 -1.3 -7.3 -3.7 -1.5 -3.4 -0.6 -5.2 3 -6 2.5 -0.6 3.7 -0.1 7.6 3.2 2.5 2.2 4.7 4.4 4.9 5 0.4 1.1 -4.7 2.1 -8.2 1.5z"/>
 </g>
</svg>