<?xml version="1.0" encoding="utf-8"?>
<!DOCTYPE svg PUBLIC "-//W3C//DTD SVG 20010904//EN" "http://www.w3.org/TR/2001/REC-SVG-20010904/DTD/svg10.dtd">
<svg version="1.0" xmlns="http://www.w3.org/2000/svg" width="200px" height="200px" viewBox="0 0 200 200" preserveAspectRatio="xMidYMid meet">
 <g fill="#ff6300">
  <path d="M88.5 180.4 c-4.5 -2.1 -6.4 -3.8 -6.5 -5.6 0 -1.2 7.8 -1 8.5 0.2 0.3 0.6 1.6 1 2.9 1 2.3 0 4.6 1.7 4.6 3.5 0 0.5 -1.1 1.5 -2.4 2.1 -2 0.9 -3.3 0.7 -7.1 -1.2z"/>
  <path d="M114 178.8 c0 -1.3 0.4 -2.8 0.8 -3.5 1.3 -2 8.2 -6.3 10.2 -6.3 1.8 0 1.8 0.2 0.3 4.6 -1.5 4.5 -2.5 5.3 -8.5 6.8 -2.4 0.6 -2.8 0.3 -2.8 -1.6z"/>
  <path d="M130 162.8 c0 -3.4 0.3 -3.8 2.5 -3.8 3.1 0 3.2 1.1 0 4.7 l-2.4 2.8 -0.1 -3.7z"/>
  <path d="M63 157.7 c-1.9 -2 -4.3 -3.7 -5.4 -3.7 -1.1 0 -2.7 -0.6 -3.5 -1.4 -0.9 -0.8 -3.6 -2.5 -6.1 -3.8 -2.5 -1.4 -8 -4.3 -12.3 -6.6 -4.2 -2.3 -8.6 -4.2 -9.7 -4.2 -1.7 0 -7 -5.6 -7 -7.3 0 -0.4 1.7 -0.7 3.8 -0.7 2.7 0 5.1 0.9 8 3 2.3 1.7 4.2 3.5 4.2 4 0 0.6 0.6 1 1.3 1 0.6 0 5 2 9.7 4.4 4.7 2.4 10.1 4.8 12.1 5.5 5.4 1.7 9.1 6.1 8.7 10.2 l-0.3 3.3 -3.5 -3.7z"/>
  <path d="M155 136.7 c0 -3.5 5.9 -8.7 9.8 -8.7 1.8 0 3.2 0.5 3.2 1 0 0.6 -0.4 1 -1 1 -0.5 0 -1.6 1.3 -2.5 3 -0.9 1.7 -3.1 3.6 -5.1 4.5 -4.6 1.9 -4.4 1.9 -4.4 -0.8z"/>
  <path d="M12.5 122.6 c-0.9 -1.3 -1.9 -4 -2.2 -6 -0.5 -3.1 -0.3 -3.6 1.4 -3.6 1.4 0 2.3 1.1 3.1 3.9 2.3 7.4 0.9 10.7 -2.3 5.7z"/>
  <path d="M16.1 96.3 c2 -5.4 4.9 -7.1 4.9 -2.9 0 3.9 -1.1 5.6 -3.6 5.6 -2.1 0 -2.3 -0.2 -1.3 -2.7z"/>
  <path d="M181.7 82.3 c-0.4 -0.3 -0.7 -1.7 -0.7 -3 0 -2.2 0.3 -2.4 3.3 -1.8 3.7 0.9 5 2.4 3.5 4.2 -1.1 1.4 -5 1.8 -6.1 0.6z"/>
  <path d="M52.9 60.3 c1.8 -3.1 3.5 -4.9 5.8 -6.1 3 -1.6 3.3 -1.5 3.3 1.1 0 3.1 -4 6.7 -7.3 6.7 -2.4 0 -2.6 -0.3 -1.8 -1.7z"/>
  <path d="M148 57.5 c0 -3 0.3 -3 4.1 -0.8 3.8 2.3 3.7 3.3 -0.6 3.3 -3.1 0 -3.5 -0.3 -3.5 -2.5z"/>
  <path d="M134.7 40.3 c-1.4 -2.1 -3.1 -5.9 -3.7 -8.5 -1.1 -4.2 -1.6 -4.8 -6.1 -6.6 -3 -1.3 -5.3 -3 -6 -4.6 -1.4 -2.9 -7.3 -5.6 -12.7 -5.6 -6.3 0 -11.2 -1.2 -11.2 -2.6 0 -0.8 0.7 -1.4 1.5 -1.4 0.7 0 1.8 -0.8 2.3 -1.7 0.9 -1.5 1.8 -1.5 11.2 -0.3 9.8 1.3 10.3 1.5 11.2 4.2 0.9 2.7 1.5 3 6.3 3.3 1.1 0 3.5 1 5.2 2 3.5 2.1 3.8 3.3 3.4 11.6 -0.2 3.2 0.2 4.9 1.4 5.9 2.4 2 3.6 4.6 2.9 6.4 -1 2.6 -3 1.8 -5.7 -2.1z"/>
  <path d="M70 28.3 c0.1 -2.1 1.1 -3.5 4 -5.5 2.2 -1.5 4.2 -3.8 4.5 -5 0.4 -1.6 1.8 -2.7 4.1 -3.4 3.3 -1.1 3.4 -1 3.4 1.7 0 3.5 -6.7 10.9 -9.9 10.9 -1.4 0 -2.1 0.6 -2.1 2 0 1.3 -0.7 2 -2 2 -1.5 0 -2 -0.7 -2 -2.7z"/>
 </g>
 <g fill="#ff9400">
  <path d="M96.5 181.2 c-1.1 -0.2 -2.6 -0.9 -3.2 -1.4 -0.9 -0.7 -1.7 -0.7 -2.7 0.1 -1.2 1 -1.7 0.8 -2.6 -0.9 -0.7 -1.4 -1.7 -1.9 -3 -1.5 -1.3 0.4 -2 -0.2 -2.8 -2.5 l-1.1 -3 4.5 0 c3 0 4.6 0.5 5 1.5 0.4 0.8 1.8 1.5 3.4 1.5 3.2 0 5.3 2.1 4.8 4.7 -0.2 1.2 -1 1.7 -2.3 1.5z"/>
  <path d="M106 179.9 c0 -1 1.2 -2.1 3.1 -2.8 1.7 -0.6 4.3 -2.2 5.7 -3.6 9 -8.5 13.8 -13.6 16.9 -18.2 3.3 -4.9 3.9 -5.3 7.4 -5.3 2.2 0 3.9 0.5 3.9 1 0 0.6 -0.4 1 -0.9 1 -0.5 0 -2.8 2.6 -5.2 5.8 -5.8 7.8 -10.4 12.7 -19.3 20.9 -2.9 2.7 -4.3 3.3 -7.6 3.1 -3.1 -0.1 -4 -0.5 -4 -1.9z"/>
  <path d="M64.3 158.1 c-3.9 -3.9 -7.8 -7.1 -8.5 -7.1 -2.4 0 -23 -10.9 -27.6 -14.5 -2.4 -1.9 -5.2 -3.5 -6.2 -3.5 -2.3 0 -3.2 -1.3 -2.4 -3.4 0.5 -1.3 1.4 -1.5 4.3 -1 4.8 0.9 6.8 2 11.8 6.5 2.4 2.2 4.9 3.9 5.6 3.9 0.8 0 3.4 1.4 5.8 3 2.4 1.7 6.7 3.7 9.4 4.5 7.1 2.1 15.8 10.9 15.3 15.6 l-0.3 3.2 -7.2 -7.2z"/>
  <path d="M146 143.6 c0 -3.1 0.6 -4 5.5 -7.6 3 -2.2 5.5 -4.5 5.5 -5 0 -0.9 3 -3.1 11.1 -8.3 1.5 -1 4.1 -1.7 5.6 -1.5 l2.8 0.3 -2.2 2 c-1.3 1.1 -3.5 3 -5 4.2 -1.6 1.2 -5.4 4.3 -8.5 7 -3.1 2.6 -7.7 6.5 -10.2 8.6 l-4.6 3.8 0 -3.5z"/>
  <path d="M15.4 124.9 c-1.5 -0.5 -2.7 -2.4 -3.7 -5.6 -2.2 -7.1 -2 -9.5 0.5 -9.1 2.4 0.4 6 8.8 5.6 12.9 -0.3 2.3 -0.6 2.5 -2.4 1.8z"/>
  <path d="M184 103.5 c0 -3.6 0.3 -4.5 1.8 -4.5 2 0 2.6 4.3 1.1 7.2 -1.7 3.1 -2.9 1.9 -2.9 -2.7z"/>
  <path d="M15 101.5 c0 -3.7 3.6 -10.2 6 -10.8 2.8 -0.7 2.7 2.8 -0.2 8.8 -2.5 5.1 -5.8 6.3 -5.8 2z"/>
  <path d="M24.1 83.3 c3.4 -4.6 7.9 -5.9 7.9 -2.3 0 2.3 -2.8 4 -6.6 4 -2.4 0 -2.5 -0.2 -1.3 -1.7z"/>
  <path d="M181.2 83.4 c-1.4 -0.9 -2.2 -2.6 -2.2 -4.4 0 -2.4 0.3 -2.7 2.3 -2.2 1.2 0.3 2.6 1.1 3 1.9 0.4 0.7 1.7 1.3 2.8 1.3 1.8 0 1.9 0.1 0.3 2.5 -1.9 2.9 -3.1 3.1 -6.2 0.9z"/>
  <path d="M36.9 74.8 c0.9 -1.8 2.8 -3.9 4.2 -4.5 2.2 -1.2 2.4 -1 2.7 1.3 0.5 3.4 -2.4 6.4 -5.9 6.4 l-2.9 0 1.9 -3.2z"/>
  <path d="M159.2 65.5 c-1.3 -1.6 -3 -2.5 -4.8 -2.5 -4.4 0 -9.4 -3.5 -9.4 -6.5 0 -1.9 0.4 -2.3 1.8 -1.9 1.6 0.6 13 5.7 16.1 7.3 0.8 0.4 1.8 2 2.2 3.4 0.6 2.4 0.4 2.7 -1.6 2.7 -1.3 0 -3.2 -1.1 -4.3 -2.5z"/>
  <path d="M50.7 62.7 c1.5 -1.8 4.8 -5 7.3 -7.1 l4.5 -3.9 0.3 2.8 c0.5 4.1 -6.9 11.5 -11.6 11.5 l-3.4 0 2.9 -3.3z"/>
  <path d="M134.5 42 c-1.5 -1.6 -3.5 -5.1 -4.4 -7.7 -1.4 -4.1 -2.3 -5.2 -6.5 -7.5 -2.8 -1.4 -5.3 -3.5 -5.7 -4.6 -0.4 -1.1 -2.3 -2.7 -4.1 -3.5 -6.6 -3 -25.6 -2.8 -26.6 0.3 -0.3 0.7 -1.7 2.7 -3.3 4.5 -1.6 1.8 -2.9 4.4 -2.9 5.9 0 2.3 -0.4 2.6 -3.4 2.6 -1.9 0 -3.6 0.5 -3.8 1.2 -0.7 2 -3.8 0 -3.8 -2.4 0 -3.3 2.3 -7.3 4.1 -7.3 1.6 0 8.9 -6.8 8.9 -8.4 0 -1.8 7.6 -3.5 16.6 -3.5 5.9 -0.1 9.6 -0.6 10.7 -1.4 1.3 -1.1 1.7 -1 2.9 0.6 0.7 1 2.7 2.4 4.4 3.1 1.7 0.7 3.7 2.4 4.3 3.7 0.7 1.6 3 3.3 6 4.6 4.6 1.9 5 2.3 6.1 6.8 0.6 2.7 2.4 6.5 3.9 8.6 2.8 3.7 3.1 7.4 0.7 7.4 -0.7 0 -2.5 -1.3 -4.1 -3z"/>
 </g>
 <g fill="#ffae00">
  <path d="M96.3 180.4 c-2.2 -1.6 -4 -2.3 -5.2 -1.9 -1.4 0.4 -2.3 0 -3.1 -1.5 -0.8 -1.5 -1.8 -2 -3.1 -1.7 -1.4 0.4 -2.4 -0.3 -3.5 -2.6 -2.2 -4.2 -2.1 -4.2 -3.7 -2.8 -1.1 0.9 -2 0.6 -4.1 -1 -1.4 -1.1 -2.6 -2.6 -2.6 -3.4 0 -0.7 -2.7 -4.3 -6.1 -7.9 -4.9 -5.2 -7.1 -6.8 -11.2 -8.1 -2.9 -0.8 -7.2 -2.8 -9.6 -4.5 -2.4 -1.6 -5 -3 -5.7 -3 -0.7 0 -3.6 -2 -6.4 -4.5 -2.8 -2.5 -6.3 -4.7 -7.8 -5.1 -4.8 -1 -5.1 -1.2 -4.5 -3.3 0.4 -1.5 -0.1 -2.3 -1.9 -3.1 -1.7 -0.8 -3.2 -3.2 -5.2 -8.6 -2.6 -7.1 -2.9 -10.4 -0.8 -10.4 0.6 0 2.7 -3.6 4.7 -7.9 2.4 -5.1 4.6 -8.3 6.1 -9 2.6 -1.1 3.1 -3 1.3 -4.8 -1.2 -1.2 3.5 -5.2 8.7 -7.2 1.7 -0.7 5.1 -3.3 7.5 -5.8 2.4 -2.5 6.6 -6.2 9.4 -8.3 2.7 -2.1 6.7 -5.6 8.8 -7.9 2.1 -2.2 4.2 -4.1 4.7 -4.1 2.1 0 0.8 5.7 -2 9 -1.7 1.9 -3 3.9 -3 4.5 0 0.7 -1.1 2.2 -2.5 3.5 -1.4 1.3 -2.5 3.4 -2.5 4.7 0 1.6 -1.2 3 -4 4.8 -2.5 1.6 -4 3.3 -4 4.5 0 1.6 -0.7 2 -3.5 2 -2.8 0 -3.5 -0.4 -3.5 -2 0 -1.8 -0.2 -1.8 -3.6 0.5 -1.9 1.3 -4.4 2.7 -5.5 3 -1.3 0.5 -1.9 1.6 -1.9 3.8 0 1.8 -1.3 5.8 -2.9 9.1 l-2.9 5.8 3.9 1.7 c3.5 1.5 3.9 1.9 3.9 5.4 0 3.3 -0.3 3.8 -2.9 4.3 -3.2 0.7 -4.7 4.3 -2.7 6.8 2.1 2.7 17.1 9.5 22.3 10.2 l5.2 0.6 0.3 -4.8 c0.3 -4.9 0.3 -4.9 4.2 -5.2 4.7 -0.4 8.6 2.7 8.6 6.9 0 1.6 1.4 4.6 3.3 7.1 1.8 2.4 5.2 7.1 7.5 10.5 3.7 5.5 10.5 11.6 18.3 16.5 2.5 1.6 2.8 1.6 6.2 -0.8 2 -1.3 4.9 -2.4 6.4 -2.4 1.5 -0.1 4.8 -1.1 7.3 -2.3 3.5 -1.7 5.2 -3.5 7.7 -8.1 1.9 -3.3 7.7 -10.3 13.5 -16.3 11.6 -11.7 13.2 -14.2 12.9 -19.7 -0.1 -2.3 0.3 -4.3 1.1 -4.7 1.8 -1.2 10.6 -1.1 11.3 0.1 0.3 0.5 0.8 3.8 1.2 7.3 l0.6 6.4 3.3 -2.1 c2.4 -1.5 3.3 -2.8 3.4 -4.9 0 -3.3 4 -7.7 6.9 -7.7 3.7 0 6.4 -6.7 4.7 -11.7 -1.1 -3.5 -2.4 -2.8 -2.8 1.5 l-0.3 3.7 -5.2 0.3 -5.3 0.3 0 -4.5 0 -4.6 5 0 c2.8 0 5 -0.3 5 -0.6 0 -0.3 -0.8 -1.9 -1.7 -3.5 -2.2 -3.8 -7.6 -6.4 -10.2 -4.9 -3.2 1.7 -10.9 1.2 -15.2 -1 -3.7 -1.9 -4 -2.4 -3.7 -5.8 0.3 -3.5 0.5 -3.7 4.1 -4 2 -0.2 3.7 -0.8 3.7 -1.3 0 -1.4 -6.6 -7 -11.3 -9.7 -5.1 -2.9 -6.3 -4.4 -8.3 -11.2 -0.8 -3 -3.7 -9.4 -6.2 -14.3 -4.3 -8.1 -6.9 -10.7 -9.7 -9.7 -0.5 0.1 -2.8 0.6 -5 0.9 l-4 0.6 -0.6 6.5 c-0.4 3.6 -1.3 8.3 -2.2 10.5 -1.3 3.5 -1.9 4 -5 4.3 -5.1 0.5 -6.7 -2.3 -6.7 -11.8 0 -9.5 -0.9 -15 -2.4 -15 -1.8 0 -7.4 6.7 -7.8 9.3 -0.3 1.9 -0.9 2.2 -4.6 2.2 -2.3 0 -4.2 0.3 -4.2 0.8 0 0.4 -0.9 0.7 -2 0.7 -2 0 -2.6 -2.1 -2.2 -7.5 0.5 -6.6 2.4 -8.3 4.4 -4 1.5 3.2 2.8 3.2 2.8 -0.1 0 -1.5 1.4 -4.3 3 -6.3 1.7 -2 3.5 -4.1 4 -4.7 1.2 -1.6 11.9 -2.7 17.8 -1.9 3.8 0.5 5.1 0.3 6.1 -0.9 1.8 -2.2 3.4 -2 4.9 0.4 0.7 1.2 2.4 2.5 3.8 3 1.3 0.5 2.8 1.9 3.2 3.1 0.5 1.1 3 3.3 5.8 4.7 4.2 2.3 5.1 3.4 6.5 7.5 0.9 2.6 2.8 6 4.2 7.5 1.8 1.8 2.7 3.9 2.7 5.9 0 1.9 1 4.3 2.5 6.1 3.3 4 11.3 9.2 13.9 9.2 3 0 6.3 2.5 9.1 7 1.8 2.8 3.6 4.2 6.5 5.1 2.2 0.7 4 1.6 4 2 0 0.4 0.8 1 1.9 1.4 1 0.3 3.3 2 5.2 3.7 2.7 2.6 3.3 4.1 3.8 8.7 0.7 8.1 0.4 16.4 -0.9 21.1 -1.1 4.2 -8.8 12.8 -15 16.7 -8.2 5.3 -11 7.4 -11 8.3 0 0.6 -2.1 2.5 -4.7 4.4 -2.7 1.9 -6.6 5.8 -8.8 8.6 -2.2 2.8 -5 5.3 -6.2 5.6 -1.2 0.3 -3.7 2.9 -5.7 5.7 -3.1 4.6 -7.8 9.7 -16.7 18.2 -2.9 2.7 -8.1 4.8 -14.4 5.8 -3.3 0.5 -4.5 0.2 -7.2 -1.9z"/>
  <path d="M88 99.5 c0 -3.3 0.2 -3.5 3.5 -3.5 3.3 0 3.5 0.2 3.5 3.5 0 3.3 -0.2 3.5 -3.5 3.5 -3.3 0 -3.5 -0.2 -3.5 -3.5z"/>
 </g>
 <g fill="#ffffb3">
  <path d="M91.5 168.9 c-7.5 -4.1 -15.5 -11 -19.7 -17.2 -2.3 -3.4 -5.9 -8.4 -8 -11.2 -2.5 -3.3 -3.6 -5.6 -3.2 -7 0.3 -1.4 -0.3 -2.9 -2.1 -4.5 -3.3 -3.1 -4.8 -1.6 -4.3 4.5 l0.3 4.6 -5.5 -0.7 c-9.7 -1.1 -13.6 -2.3 -21.2 -6.4 -8.7 -4.7 -10.1 -6.8 -8.5 -12.7 0.9 -3.3 1.6 -4.2 3.9 -4.7 1.5 -0.3 2.8 -0.9 2.8 -1.3 0 -0.5 -2.7 -1.9 -6 -3.2 -3.3 -1.3 -6 -3 -6 -3.6 0 -0.7 1.2 -2 2.6 -3 3 -1.9 8.7 -13.9 7.9 -16.5 -0.4 -1.3 0.3 -2.1 2.6 -3 1.7 -0.8 4.5 -2.5 6.1 -3.8 2.6 -2.2 5.7 -3 8.3 -2.1 1.4 0.5 8.5 -3.8 8.5 -5.1 0 -0.5 -0.5 -1 -1.2 -1 -0.7 0 0.4 -1.7 2.3 -3.7 1.9 -2.1 4.1 -5 4.8 -6.4 0.7 -1.4 2.8 -4.3 4.8 -6.4 5.7 -6.2 10.4 -16 11 -22.7 0.6 -6.4 1.5 -7.2 3.7 -3 2 3.9 4.2 5.6 5.1 4.2 0.4 -0.7 0.2 -1.7 -0.4 -2.3 -1.7 -1.7 -1.4 -4 0.6 -3.3 1.1 0.4 2.5 -0.4 4.2 -2.4 2 -2.3 3.5 -3.1 6.6 -3.3 3.6 -0.2 4 0 4.6 2.8 0.4 1.7 0.7 6.9 0.8 11.6 0.1 7 0.5 9.1 2 11 1.9 2.3 2 2.3 2.6 0.4 0.4 -1.1 1.3 -3.5 2.1 -5.3 0.8 -1.8 1.4 -5.6 1.4 -8.5 0 -6.6 1 -8.2 4.4 -7.3 1.6 0.4 3.8 0 5.6 -0.9 2.6 -1.4 3.3 -1.4 6.7 0 3.3 1.3 4.5 2.8 8.5 10.3 2.5 4.8 5.4 11.2 6.2 14.3 1.9 6.3 4 9.1 9.4 11.8 2 1 4.8 3.1 6.1 4.5 1.4 1.5 3.6 2.6 5 2.6 1.4 0 3.3 0.5 4.1 1 1.2 0.7 0.8 1.2 -1.8 2.3 -3.5 1.5 -3.3 2.7 0.5 2.7 1.4 0 3.4 0.5 4.6 1.2 2.1 1.1 2.1 1.1 0.2 1.9 -1.1 0.4 -5 0.5 -8.6 0.2 -8.4 -0.7 -9.7 0.8 -3.4 3.9 4.1 2 4.9 2.1 7.8 0.9 6.8 -2.9 14 -0.5 17.6 5.9 1.2 2.2 2.6 4 3 4 1.9 0 3.3 6.1 2.6 10.7 -0.8 5.9 -2.9 9.3 -5.6 9.3 -3.1 0 -7.2 4.6 -6.5 7.4 0.5 1.9 -0.3 2.8 -4.3 5.4 -2.7 1.8 -5.8 3.2 -7 3.2 -2.7 0 -4.5 -3.4 -3.2 -5.9 1.1 -2 0.4 -8.8 -1.1 -9.7 -0.5 -0.3 -2 -0.3 -3.3 0 -2.2 0.6 -2.3 0.9 -1.4 3 1.7 3.7 -2.4 10.3 -13.8 21.9 -5.9 6 -11.7 13 -13.6 16.3 -2.5 4.6 -4.2 6.4 -7.6 8 -2.5 1.2 -5 3 -5.8 4 -1.2 1.7 -1.5 1.7 -2.9 0.2 -1.5 -1.5 -2 -1.4 -6.2 1.3 -2.5 1.6 -4.8 2.9 -5.2 2.9 -0.3 0 -2.3 -1 -4.5 -2.1z m7.5 -22.9 c8.5 -0.6 11.6 -1.6 13.9 -4.4 0.7 -0.8 2.7 -1.8 4.4 -2.2 1.7 -0.3 4.9 -2.5 7.3 -4.9 3.4 -3.6 5 -4.4 9.3 -5 3.3 -0.4 5.9 -1.5 7.1 -2.8 1.9 -2 5.7 -10.5 4.9 -11 -2.4 -1.9 -10 -4.9 -13.6 -5.4 -4.4 -0.6 -4.5 -0.5 -3.4 1.5 1.4 2.6 1.4 8 0 12.1 -1.2 3.5 -3.6 4.4 -10.9 4.5 -4.3 0.1 -4.5 0 -5.2 -3.4 -0.3 -1.9 -1.2 -5.4 -1.9 -7.7 -1.1 -3.6 -1.1 -5 0.3 -9 0.9 -2.7 1.9 -5.9 2.2 -7.3 0.3 -1.7 2 -3.4 4.7 -4.9 3.7 -2.1 5 -2.3 12.1 -1.8 4.5 0.4 9.8 1.5 12.5 2.7 2.5 1.1 5.9 2 7.6 2 2.2 0 4.2 1.2 7.7 4.8 3.9 3.9 4.9 5.6 5.5 9.7 0.7 4.9 0.7 4.9 2 2.4 1.2 -2.2 1.2 -3.4 0 -8 -1.8 -6.7 -1.9 -12.6 -0.2 -13.2 2.5 -0.8 -5.7 -4.8 -8.8 -4.3 -1.6 0.3 -7.4 1.1 -12.8 1.8 -9.2 1.1 -9.9 1 -12.5 -0.9 -1.9 -1.4 -2.8 -3.1 -3 -5.6 -0.3 -3.7 -0.3 -3.7 3.5 -3.7 4.4 0 6.3 -1.4 6.3 -4.6 0 -2.5 1.6 -4.1 4.8 -4.6 2.2 -0.3 2.1 -0.6 -2.3 -5.7 -2.5 -3 -5.5 -7 -6.5 -9.1 -1.9 -3.7 -6.1 -7.5 -11.6 -10.3 -1.6 -0.8 -3.6 -2.8 -4.3 -4.4 -1.3 -2.8 -1.3 -2.8 -2.2 -0.6 -0.6 1.7 -1.7 2.3 -3.7 2.3 -1.5 0 -3.3 0.5 -4 1.2 -1.5 1.5 -1.6 6 -0.1 7.5 0.6 0.6 1.7 3.5 2.4 6.5 1 4.4 1.5 5.2 3.1 5 2.8 -0.5 2.8 -0.9 1 -3.7 -1.2 -1.7 -1.6 -4.1 -1.4 -7.3 0.3 -4.6 0.4 -4.7 3.9 -5 3.1 -0.3 3.7 0.1 5.4 3.1 1.3 2.5 1.7 4.7 1.3 8.6 -0.3 2.8 -0.1 5.4 0.3 5.7 0.5 0.3 0.9 2.4 0.9 4.7 0 4.2 -0.1 4.3 -4.9 6 -7.7 2.7 -11.2 2.3 -16.8 -2.2 -2.7 -2.1 -6.5 -5.7 -8.4 -7.9 -1.9 -2.2 -4.8 -4.6 -6.4 -5.4 -4.1 -1.8 -5.4 -3.7 -5.5 -7.8 0 -4.3 -1.8 -11 -2.9 -11 -1.4 0 -3.9 3.4 -6 8.2 -1.1 2.5 -3.5 6.4 -5.4 8.5 -1.9 2.1 -4.3 5.6 -5.5 7.8 -2.5 5 -4.8 7.1 -10.9 10.1 -2.8 1.3 -4 2.3 -2.9 2.3 2.2 0.1 8.6 3.7 10.3 5.9 1.1 1.3 1.5 1.3 3.8 -0.2 1.5 -1 3.6 -3.3 4.7 -5.2 2.4 -4.1 4.5 -5.4 8.7 -5.4 3.1 0 3.1 0.1 3.1 5.1 0 3.4 -0.6 6 -1.9 7.7 -1 1.5 -2.1 3.6 -2.5 4.7 -1.3 4.2 -7.2 6.6 -18.4 7.7 -5.8 0.5 -12.1 0.7 -13.9 0.3 -4.1 -0.7 -9.3 -5.9 -9.3 -9.1 0 -4.2 -1.7 -2.6 -5.8 5.5 l-4 7.9 11.9 0.7 11.9 0.8 0 3.3 c0 3 -0.4 3.4 -3.7 4.3 -2.1 0.6 -5.1 1.1 -6.8 1.2 -1.6 0 -3.9 0.4 -5 0.9 -1.8 0.8 -1.7 0.9 0.8 0.9 1.7 0.1 4.3 1.5 7 4 l4.2 3.9 3.5 -1.8 c2.1 -1.1 4.2 -3.3 5.2 -5.3 0.9 -1.9 3.4 -4.8 5.4 -6.4 3.5 -2.6 4.5 -2.8 14.5 -3.1 10.2 -0.4 11.2 -0.2 16.3 2.4 3.1 1.5 5.7 3.5 5.9 4.3 0.3 1 0.5 0.7 0.6 -0.7 0.1 -2.1 0.5 -2.3 4.9 -2 l4.7 0.3 0.3 8.8 0.3 8.7 -3.6 0 c-3.1 0 -3.5 -0.3 -3.5 -2.7 -0.1 -1.6 -0.7 -3.9 -1.5 -5.3 -1.4 -2.4 -1.4 -2.4 -1.5 2.3 l0 4.7 -3.9 0 c-3.2 0 -4.4 -0.6 -6.5 -3.1 -1.4 -1.7 -2.6 -3.6 -2.6 -4.2 0 -0.6 -1.7 0.6 -3.8 2.6 -3 2.9 -4.6 3.7 -7.5 3.7 -5.8 0 -5.4 0.7 7.1 12.4 6.2 5.8 8.7 7.6 10 7.1 0.9 -0.4 5.5 -1.1 10.2 -1.5z m74.8 -46.7 c0.2 -0.8 -0.6 -1.3 -2.2 -1.3 -1.7 0 -2.6 0.5 -2.6 1.6 0 1.9 4.1 1.6 4.8 -0.3z"/>
  <path d="M86 100.7 c0 -2.4 0.5 -4.8 1.2 -5.5 1.6 -1.6 8.5 -1.5 9.1 0.1 0.3 0.7 0.6 0.5 0.6 -0.5 0.1 -1.4 1 -1.8 3.6 -1.8 3.3 0 3.5 0.2 3.5 3.5 0 3.3 -0.2 3.5 -3.4 3.5 -2.8 0 -3.5 0.4 -4 2.5 -0.6 2.2 -1.1 2.5 -5.6 2.5 l-5 0 0 -4.3z"/>
  <path d="M87.7 81.4 c-0.4 -0.4 -0.7 -2.7 -0.7 -5.1 l0 -4.3 4 0 c3.3 0 4.1 0.4 4.6 2.4 1.2 5 0.2 7.1 -3.6 7.4 -2 0.2 -3.9 0 -4.3 -0.4z"/>
 </g>
 <g fill="#ffffc3">
  <path d="M84.4 150.7 c-4.9 -2.8 -18.6 -16.8 -19.5 -19.9 -1.5 -5.4 -1.3 -5.8 3.4 -5.8 3.7 0 4.8 -0.6 8.2 -4 4 -4.1 9.5 -5.6 9.5 -2.6 0 1.7 4.8 7.6 6.1 7.6 1 0 1.2 -4.3 0.3 -7.6 -0.3 -1.2 -2.8 -3.2 -6 -4.8 -4.9 -2.5 -6.4 -2.8 -13.3 -2.5 -6.7 0.4 -8.3 0.8 -11.5 3.2 -2 1.6 -4.5 4.5 -5.4 6.4 -1.1 2.4 -3.2 4.3 -6.4 5.9 -2.6 1.3 -5.2 2.4 -5.7 2.4 -0.6 0 -3.3 -2 -6.1 -4.5 -3.8 -3.4 -5.9 -4.5 -8.3 -4.5 -3.2 0 -7.7 -2.3 -7.7 -4 0 -0.5 2.5 -1.6 5.6 -2.5 4.2 -1.2 5.4 -2 5 -3.1 -0.3 -0.9 -0.6 -1.8 -0.6 -2 0 -0.9 -3.9 -0.4 -4.5 0.6 -1 1.6 -2.8 1.2 -6 -1.4 -2.3 -1.8 -2.7 -2.7 -1.8 -3.7 0.6 -0.8 3 -5.1 5.3 -9.7 3.1 -6.1 4.8 -8.4 6.6 -8.8 3.4 -0.9 5.4 0.2 5.4 2.9 0 2.8 3.9 7.3 7.3 8.6 1.5 0.6 6.1 0.6 11.5 0.1 9.6 -0.9 15.6 -3.5 16.8 -7.5 0.4 -1.1 1.5 -3.2 2.6 -4.8 1.1 -1.5 1.8 -3.7 1.6 -5 -0.3 -2.2 -0.3 -2.2 -2.8 0.5 -1.4 1.4 -3.5 3.9 -4.7 5.5 -1.1 1.6 -3.8 3.8 -5.8 4.8 l-3.7 2 -2.1 -2.6 c-1.2 -1.4 -3.9 -3.6 -6.1 -4.9 -3.3 -2 -4.3 -2.2 -6.7 -1.3 -1.6 0.7 -2.9 0.7 -2.9 0.2 0 -0.5 0.7 -0.9 1.6 -0.9 1.2 0 1.4 -0.7 0.9 -3 -0.6 -2.9 -0.4 -3.2 4.7 -5.5 6 -2.7 8.7 -5.2 11.3 -10.5 1 -1.9 3.3 -5.2 5.2 -7.3 1.8 -2.1 4.4 -6.1 5.7 -9.1 2.3 -5.1 6.5 -9.6 9.2 -9.6 2.2 0 4.4 4.4 5 10.1 0.7 6.9 2 9.6 5.1 10.4 1.3 0.3 4.9 3.2 7.9 6.4 3 3.3 7.2 7.1 9.4 8.6 l3.8 2.6 5.1 -1.8 c2.8 -1 5.1 -2.2 5.1 -2.8 0 -3.1 -5.6 -4.8 -6.6 -2 -0.8 2.1 -5.1 1.9 -6.2 -0.3 -0.5 -0.9 -1.3 -3.5 -1.6 -5.7 -0.4 -2.2 -1.4 -5 -2.2 -6.3 -1.9 -2.9 -2.2 -11.6 -0.5 -13.6 0.7 -0.8 2.7 -1.6 4.4 -1.8 2.4 -0.2 3.3 -0.8 3.5 -2.5 0.2 -1.2 1 -2.4 1.8 -2.7 1.9 -0.7 6.1 2 6.9 4.5 0.4 1.1 2.1 2.7 3.8 3.6 5.9 3 9.6 6.4 12.5 11.6 1.6 2.9 5.9 8.2 9.6 12 3.6 3.7 6.6 7 6.6 7.2 0 0.3 -2.4 0.5 -5.3 0.5 -5.7 0 -7.7 1.2 -7.7 4.5 0 3.1 -1.9 4.5 -6.4 4.5 l-4.1 0.1 2.8 2.4 c2.3 2.1 3.4 2.3 8 1.9 2.8 -0.3 6.8 -1 8.7 -1.5 6.8 -1.7 12.3 -1.1 17.2 2 6 3.8 6.4 4.7 3.1 6.8 -1.5 0.9 -2.9 1.8 -3.1 1.9 -0.5 0.3 1.7 8.6 3 11.1 2.1 4.1 -2.6 13.7 -6.4 13.1 -1.8 -0.2 -2.4 -1.3 -3.4 -6.3 -1 -5 -1.9 -6.6 -5.8 -10.3 -2.9 -2.7 -5.3 -4.2 -6.2 -3.8 -0.8 0.3 -4.1 -0.5 -7.2 -1.8 -3.1 -1.3 -8 -2.7 -10.9 -3.1 -4.4 -0.6 -5.9 -0.3 -9.3 1.6 -2.6 1.5 -4.3 3.2 -4.6 4.9 -0.3 1.4 -1.1 4.1 -1.8 6.1 -0.9 2.4 -1 4.3 -0.3 6 0.5 1.3 1.3 4 1.6 5.9 0.7 3.6 1 3.7 6.8 2.5 3.2 -0.7 5 -6.8 2.9 -10 -5.6 -8.5 4.5 -10.9 18.6 -4.3 6.4 3 6.9 5.6 2.8 14.2 -3.3 7.1 -4.7 8 -12.4 8.4 -1.9 0.2 -4 1.5 -6.5 4.2 -2 2.2 -5.2 4.5 -7.1 5.1 -1.9 0.7 -4.4 2 -5.5 3 -3.1 2.7 -7.1 3.9 -13.6 3.9 -3.3 0 -7.6 0.7 -9.6 1.5 -4.2 1.8 -5.1 1.8 -7.9 0.2z m7.1 -6.3 c2.6 -1 3.5 -2 3.1 -3 -0.3 -0.9 -0.6 -2 -0.6 -2.4 0 -0.5 -1.9 -1 -4.2 -1.2 l-4.3 -0.3 -0.6 -5 c-1 -8.7 -2.5 -10.3 -5.3 -6 -1 1.4 -3 2.7 -5.1 3.1 -1.9 0.3 -3.5 0.9 -3.5 1.2 0 1.2 14.4 15.2 15.6 15.2 0.6 0 2.8 -0.7 4.9 -1.6z m18.8 -2.9 c2 -1.4 5.7 -3.4 8.2 -4.5 2.5 -1.1 4.5 -2.1 4.5 -2.2 0 -0.2 -2.6 -0.3 -5.7 -0.3 l-5.8 0 -0.5 -6.7 c-0.7 -9.5 -3 -11.5 -3 -2.6 0 3.6 -0.7 8.5 -1.5 10.8 -1.6 4.6 -1.9 8 -0.7 8 0.4 0 2.4 -1.1 4.5 -2.5z m29.4 -16.5 c0.5 0 4.4 -8.2 4.1 -8.5 -1.4 -1.2 -9.1 -4.5 -10.5 -4.5 -1.5 0 -1.8 0.9 -1.8 5.3 0 2.8 -0.3 6.4 -0.8 7.9 l-0.7 2.7 4.7 -1.4 c2.7 -0.8 4.9 -1.5 5 -1.5z m-36.7 -3.5 c0 -4.1 -0.4 -5.7 -1.5 -6.2 -2.5 -0.9 -2.8 0.2 -1.1 3.6 0.9 1.6 1.6 4.1 1.6 5.6 0 1.4 0.2 2.5 0.5 2.5 0.3 0 0.5 -2.5 0.5 -5.5z m-56.3 -0.8 c1.2 -0.7 3.1 -2.4 4.3 -3.9 2 -2.6 2 -2.8 0.3 -2.8 -1 0 -4.2 0.8 -7 1.8 l-5.2 1.8 2.2 2.2 c2.5 2.5 2.5 2.5 5.4 0.9z m63.2 -17.2 c0.5 -3.1 1.5 -4.5 4.8 -7 3.7 -2.6 4.2 -3.5 4.2 -7.1 0.1 -5.8 3.5 -8.7 10.9 -9.4 5.5 -0.5 5.6 -0.6 6.3 -4 0.4 -1.8 1.4 -3.9 2.2 -4.5 1.3 -0.9 1.2 -1.7 -1.1 -5.4 -3.5 -5.7 -14.9 -17.9 -12.7 -13.6 0.8 1.7 1.5 5.3 1.6 8 0 2.8 0.2 7.5 0.5 10.6 0.5 5.3 0.5 5.6 -2.3 6.8 -1.5 0.8 -5.9 1.6 -9.8 1.8 -6.5 0.4 -7.3 0.2 -11.5 -2.6 l-4.5 -3.1 -0.3 3.7 c-0.5 5.2 -1.7 6.3 -7.3 6.3 -3.8 0 -5.1 -0.4 -5.9 -1.9 -1.4 -2.7 -1.3 -9.4 0.2 -10.9 1.6 -1.6 9 -1.5 10.8 0.1 0.8 0.6 -0.3 -0.7 -2.5 -3 -2.8 -3.1 -4.7 -4.3 -6.7 -4.3 -3.5 0 -4.9 -2.9 -5.7 -11.8 -0.3 -3.4 -1 -6.3 -1.6 -6.5 -0.5 -0.1 -2.6 2.8 -4.5 6.5 -1.9 3.7 -4.5 7.7 -5.6 9 -1.2 1.3 -3.1 4.2 -4.3 6.5 -1.2 2.4 -3.5 6.4 -5.1 8.9 -3.1 5 -3.1 6.4 0.1 6.4 1 0 1.9 0.6 1.9 1.3 0.1 0.6 1.6 -0.5 3.3 -2.5 2.7 -3 3.2 -4.3 2.9 -7.3 -0.2 -1.9 0.1 -4.2 0.8 -5 1.8 -2.2 7.3 -1.8 10.5 0.7 2.6 2 2.7 2.4 2.3 9 -0.3 3.7 -1 7.3 -1.5 8 -0.6 0.7 -1.4 2.7 -1.7 4.3 -0.5 2.3 -2 3.8 -6 6.3 -5.2 3.1 -6.1 3.2 -18.8 3.9 l-13.5 0.6 -4.2 -3.8 c-4.5 -4.1 -5.1 -4 -7.4 1.7 l-1.6 3.7 14.2 0.3 14.2 0.3 0.3 3.2 0.3 3.2 3.2 -1.9 c4.4 -2.7 25.1 -2.9 30 -0.3 2.2 1.2 5.1 1.6 9.4 1.4 4.3 -0.1 6.5 0.2 7.5 1.2 1.1 1.3 1.4 1.1 2.2 -1.2 0.4 -1.4 1.1 -4.4 1.5 -6.6z m-65.9 6.4 c1 -0.6 0.2 -0.8 -2.4 -0.7 -2.2 0.2 -4.1 0.9 -4.4 1.6 -0.3 0.9 0.4 1.1 2.5 0.6 1.5 -0.4 3.5 -1.1 4.3 -1.5z m117.3 -15.1 c1.8 -1.2 -1.3 -3 -3.8 -2.2 -1.1 0.3 -4.6 0.8 -7.7 1.1 -7.6 0.7 -7.5 3.3 0.1 3.3 1.5 0 4.2 1.3 6.1 2.9 l3.5 2.9 0.3 -3.6 c0.2 -2 0.9 -4 1.5 -4.4z m-69 -18.3 c-0.3 -0.8 -0.9 -1.5 -1.4 -1.5 -1 0 -1.2 2.4 -0.3 3.3 1.1 1.1 2.4 -0.3 1.7 -1.8z m28.7 -17.3 c0 -0.9 -0.9 -3 -2 -4.7 -1.6 -2.5 -2 -2.7 -2.6 -1.1 -0.4 1 0.1 3.2 1.2 5.1 1.8 3.4 3.4 3.8 3.4 0.7z m-10.9 -8.3 c-0.9 -2.3 -1 -2.3 -1 -0.2 -0.1 1.2 0.2 3 0.6 4 0.6 1.5 0.8 1.5 1.1 0.2 0.1 -0.8 -0.2 -2.6 -0.7 -4z"/>
  <path d="M87.3 106.3 c-1.6 -0.6 -1.8 -9.6 -0.3 -12.3 1.9 -3.5 12.5 -5.3 18.5 -3 2.4 0.9 2.6 1.4 2.3 5.7 l-0.3 4.8 -4.3 0.6 c-2.5 0.3 -5 1.4 -6.2 2.7 -2 2.1 -6.6 2.8 -9.7 1.5z m6 -5.6 c0.3 -0.8 0.1 -2 -0.3 -2.7 -0.7 -1.1 -1.1 -1.1 -2.4 -0.1 -0.9 0.8 -1.6 2 -1.6 2.7 0 1.8 3.6 1.8 4.3 0.1z"/>
 </g>
 <g fill="#ffffd6">
  <path d="M76 142.4 c-6 -5.8 -8 -8.4 -8.5 -11.2 -0.4 -2 -0.8 -3.9 -0.8 -4.2 -0.1 -0.2 1.6 -0.5 3.7 -0.6 3.2 -0.1 4.4 -0.7 6.9 -3.7 5.3 -6.7 9.4 -4.1 10.6 6.8 0.4 3.6 1.1 5.1 2.3 5.3 2.3 0.5 4 -5.7 3.6 -13.3 l-0.3 -6 -5 -2.7 c-4.4 -2.4 -6.1 -2.8 -13.8 -2.8 -10.4 0 -12.7 0.9 -18.8 7.8 -2.4 2.7 -6.3 5.9 -8.6 7.2 l-4.1 2.4 -4.6 -4.2 c-2.5 -2.3 -6 -4.5 -7.6 -4.9 -3.8 -0.7 -4.9 -2.3 -1.7 -2.3 1.4 0 5.8 -1.1 9.9 -2.5 4 -1.4 8.8 -2.5 10.6 -2.5 2.6 0 3.3 -0.4 3 -1.7 -0.3 -1.5 -1.6 -1.9 -7.5 -2.1 -4 -0.2 -8.2 0.2 -9.3 0.8 -1.6 0.8 -2.5 0.8 -3.5 0 -0.8 -0.7 -2.8 -0.9 -4.9 -0.5 -2.7 0.6 -3.7 0.3 -4.1 -0.8 -0.9 -2.2 3.2 -12.8 6 -15.6 l2.4 -2.5 5.6 5.3 5.7 5.4 10.6 -0.8 c9.5 -0.6 11.2 -1 15.9 -3.8 3.9 -2.4 5.4 -3.9 5.9 -6.2 0.3 -1.6 1 -3.5 1.5 -4 0.4 -0.6 1.1 -2.9 1.5 -5.1 0.5 -3.6 0.3 -4.3 -2.1 -6.3 -3.5 -2.7 -6 -1.3 -4.3 2.3 1.2 2.8 0.2 5 -4.9 10.7 -3.9 4.3 -7.2 5.1 -8 1.9 -0.3 -1.1 -1.3 -2 -2.3 -2 -0.9 0 -2.5 -0.9 -3.5 -2 -1.7 -1.9 -1.6 -2.2 2.8 -9.2 2.4 -4 5.2 -8.9 6.2 -10.8 0.9 -1.9 2.8 -4.6 4 -6 1.3 -1.4 3.8 -5.3 5.5 -8.7 1.7 -3.5 4.2 -7 5.5 -7.9 2.4 -1.6 2.7 -1.5 4.5 0.1 1.5 1.4 2 3.1 2 7 0 2.9 0.7 6.9 1.5 8.9 1.3 3 2 3.6 4.4 3.6 2.3 0 4 1.2 7.8 5.4 7.2 7.9 12.3 11 17.3 10.2 8.8 -1.4 11.2 -4.5 6.8 -8.6 -2.2 -2 -2.2 -2.1 -0.4 -5 2 -3.5 1.6 -5.3 -2.5 -11.8 -4.1 -6.4 -5.5 -11.2 -3.8 -12.3 1 -0.6 2.6 0.3 5.4 3.1 2.2 2.2 6.6 6.4 9.8 9.3 3.3 2.8 6.6 6.5 7.4 8.2 0.9 1.6 3.3 5.2 5.4 7.9 2.2 2.7 3.9 5.3 3.9 5.7 0 0.5 -1.3 0.9 -3 0.9 -3.1 0 -5 2.2 -5 5.9 0 2.7 -1.6 3.5 -6.6 3.2 -3.2 -0.1 -4.8 0.4 -7.3 2.4 -3.2 2.7 -4 5.8 -1.9 7.1 0.7 0.4 1.8 -0.2 2.6 -1.4 1.7 -2.6 4.4 -2.8 7.7 -0.6 2 1.3 3.5 1.4 11.2 0.4 17.8 -2.3 17 -2.3 20.8 0 4.3 2.7 4.4 4.4 0.5 6 -1.6 0.7 -3 1.4 -3 1.6 0 0.2 0.9 2.1 2 4.1 2.5 4.7 3.5 11.5 2.1 14.2 -1.7 3 -2.8 2.6 -4.2 -1.6 -0.7 -2.1 -1.8 -4.7 -2.5 -5.8 -2 -3.1 -11.2 -9.7 -12.4 -9 -0.6 0.4 -3.3 -0.3 -6 -1.4 -2.7 -1.2 -8.2 -2.4 -12.2 -2.7 -7.2 -0.6 -7.4 -0.6 -11.8 2.8 -3.2 2.4 -4.5 4.2 -4.6 5.9 0 1.4 -0.6 4 -1.4 5.8 -1.1 2.8 -1.1 3.6 0.1 5.5 0.7 1.1 1.6 5 1.9 8.6 0.4 5.6 0.8 6.5 2.5 6.8 3.2 0.4 10.3 -6.2 11.5 -10.8 0.9 -3.2 0.8 -4.6 -0.5 -7.1 -0.9 -1.7 -1.4 -3.8 -1.1 -4.6 1.6 -4 21.6 2.3 21.6 6.8 0 1.1 -1.1 4.2 -2.5 6.9 -2.3 4.6 -2.9 5.1 -8.3 6.6 -4.2 1.2 -6.8 2.8 -10 6 -2.4 2.4 -4.8 4.4 -5.5 4.4 -0.6 0 -3.7 1.6 -6.9 3.5 -5.2 3.3 -6.3 3.6 -12.5 3.4 -4.7 -0.1 -7.9 0.4 -10 1.5 -5.9 3 -7.9 2.2 -16.3 -6z m26 -1.8 c0 -1.8 0.7 -5.3 1.5 -7.6 2.1 -5.8 2 -16.4 -0.1 -18.5 -0.9 -0.9 -2.6 -1.5 -3.8 -1.3 -1.6 0.2 -2 0.9 -1.8 2.8 1.2 10.2 1.3 16 0.3 17.9 -0.9 1.5 -0.9 3.2 -0.1 6.1 1.4 5.1 4 5.5 4 0.6z m-7.6 -39.1 c1.8 -1.7 3.9 -2.5 6.2 -2.5 2.2 0 3.7 -0.6 4.1 -1.6 1.1 -2.9 -2 -4 -9.9 -3.5 -4.2 0.3 -7.9 8.1 -4.5 9.4 0.6 0.3 1.2 0.6 1.3 0.6 0.1 0.1 1.3 -1 2.8 -2.4z m0 -22.7 c0.8 -1.3 0.6 -2.2 -0.8 -3.7 -2.3 -2.5 -3.9 -2.6 -5.6 -0.6 -1 1.2 -1 2.1 -0.1 4.1 1.3 2.9 4.7 3 6.5 0.2z"/>
  <path d="M109.5 66.3 c-1 -4.6 -1.3 -5.6 -3 -10.3 -1.4 -3.7 -1.5 -5.2 -0.5 -8.2 1.8 -6.3 6.8 -4.2 7.7 3.2 0.2 2.5 1.1 6.2 1.9 8.2 0.9 2.5 1 3.9 0.3 4.4 -0.6 0.3 -1.4 1.7 -1.9 3 -1.3 3.2 -3.8 3 -4.5 -0.3z"/>
 </g>
</svg>