<?xml version="1.0" encoding="utf-8"?>
<!DOCTYPE svg PUBLIC "-//W3C//DTD SVG 20010904//EN" "http://www.w3.org/TR/2001/REC-SVG-20010904/DTD/svg10.dtd">
<svg version="1.0" xmlns="http://www.w3.org/2000/svg" width="200px" height="200px" viewBox="0 0 200 200" preserveAspectRatio="xMidYMid meet">
 <g fill="#ffaf00">
  <path d="M83.4 166.7 c-0.3 -0.9 -1.7 -2.3 -3.1 -3.2 -2.1 -1.4 -2.7 -1.5 -3.4 -0.4 -0.6 1 -0.9 1.1 -0.9 0.2 0 -0.7 -0.7 -1.3 -1.5 -1.3 -0.8 0 -1.5 0.5 -1.5 1.1 0 0.6 -0.7 1.7 -1.5 2.5 -1.3 1.4 -1.8 1.2 -4 -1.5 -1.4 -1.6 -3.5 -3.3 -4.5 -3.6 -1.4 -0.5 -2 -1.5 -2 -3.8 l0 -3.2 -5.2 0.3 c-5.4 0.3 -9.4 -1.1 -11.1 -3.9 -0.7 -1.1 -0.2 -2.7 1.9 -5.8 l2.8 -4.3 -2.7 -2.2 c-3.1 -2.5 -4.9 -7.5 -3.5 -9.9 0.6 -1.1 2.2 -1.7 4.3 -1.7 3.9 0 4.1 -0.4 2.3 -4.4 -0.8 -1.7 -2.3 -2.9 -4 -3.3 -3.2 -0.6 -3.3 -1 -1.3 -3.6 0.7 -1.1 1.1 -2.5 0.8 -3.3 -0.4 -1.1 0.5 -1.4 3.4 -1.4 l3.9 0 -0.4 -11.2 c-0.2 -7.2 -0.8 -11.8 -1.7 -12.8 -1.3 -1.6 -2.3 -5.2 -3.1 -11 -0.4 -2.8 0 -4.1 2 -6.1 1.4 -1.5 2.2 -2.9 1.9 -3.3 -1.5 -1.5 8 -8.6 11.5 -8.6 2.6 0 4.2 -2 4.2 -5 0 -1.5 0.9 -3.5 2 -4.5 1.8 -1.7 2.2 -1.7 5.2 -0.1 3.3 1.6 3.3 1.6 6 -1.5 2.5 -2.9 2.9 -3.1 7.6 -2.4 4.4 0.6 5.3 0.4 6.9 -1.4 1.4 -1.7 2.9 -2.1 8 -2.1 3.4 0 6.5 -0.5 6.8 -1 0.9 -1.5 13.7 -1.2 15.8 0.4 0.9 0.7 1.7 2.3 1.7 3.5 0 1.7 0.6 2.1 2.9 2.1 2.2 0 3 0.6 3.5 2.4 0.9 3.5 3.3 5.6 6.5 5.6 3.4 0 11.7 7.8 10.1 9.4 -0.5 0.5 -1 2 -1 3.2 0 1.3 -0.5 2.6 -1 2.9 -1.7 1.1 -0.2 2.2 3.8 2.9 4.6 0.7 5.6 2.3 7.6 11.9 1 5.1 2.2 7.7 4.4 10 3.7 4 4.7 10 2.2 13.7 -0.9 1.4 -2 4 -2.3 5.8 -0.4 1.9 -1.6 4.6 -2.7 6.1 -1.1 1.6 -1.7 3.1 -1.3 3.5 0.3 0.3 -0.1 0.6 -1.1 0.6 -1.5 0 -1.5 0.2 -0.1 3 0.8 1.6 1.5 4.7 1.5 6.9 0 4.9 -2.6 7.1 -8.3 7.1 -3.3 0 -4 -0.4 -5.2 -3.2 l-1.4 -3.3 -0.1 3.7 c0 2 -0.4 4.8 -0.9 6.2 -0.7 1.7 -0.7 2.6 0.2 2.9 2.3 0.8 -2.3 4.4 -7.8 6.2 -2.9 0.9 -5.9 2.3 -6.6 3.1 -0.7 0.9 -3.1 1.4 -6.5 1.4 -4.5 0 -5.4 0.3 -5.4 1.8 -0.1 4 -2.4 5.2 -9.7 5.2 -4.6 0 -7.4 0.5 -8.1 1.3 -0.8 0.9 -3 1.2 -7.2 0.9 -3.9 -0.3 -6.5 0 -7.5 0.8 -1.2 1 -1.6 0.9 -2.1 -0.3z m9.6 -25.3 c7.5 -3.2 10.6 -5.6 11.4 -9 0.6 -2.1 1.2 -2.4 5.1 -2.4 2.4 0 4.7 -0.4 5 -1 0.3 -0.5 2.1 -1 3.9 -1 3.7 0 5.6 -1.5 5.6 -4.4 0 -1.1 0.7 -2.8 1.7 -3.8 0.9 -1.1 1.1 -1.8 0.5 -1.8 -1.8 0 -1.5 -7.9 0.3 -9.6 0.9 -0.9 1.5 -3.4 1.5 -5.9 l0 -4.4 -5.2 -0.3 -5.3 -0.3 -0.3 -4.1 c-0.3 -3.6 0 -4.2 2 -4.8 6.4 -1.7 9.8 -0.1 9.8 4.5 0 2.5 0.4 2.7 5.2 3.1 5.7 0.6 7.8 2.4 7.8 6.9 0 1.4 0.6 3.1 1.3 3.7 0.9 0.8 1.1 -0.1 0.9 -4.4 -0.4 -5.2 -0.3 -5.4 2.2 -5.4 3 0 3.2 -0.8 1.1 -3.6 -0.8 -1 -1.5 -2.5 -1.5 -3.3 0 -0.8 -1.7 -4 -3.7 -7.1 -2.8 -4.3 -4.8 -6.3 -8.5 -8 -3.8 -1.8 -5 -3 -5.5 -5.2 -0.5 -2.4 -1 -2.8 -4.2 -2.8 -5.7 0 -6.3 -0.9 -5.9 -8 0.2 -5.1 0 -6.5 -1.4 -7.4 -1.3 -0.8 -2.3 -0.8 -3.5 0.1 -1 0.7 -4.5 2.7 -7.8 4.4 -7.9 4.1 -9.5 5.6 -9.5 9 0 1.5 -0.4 3.1 -1 3.4 -0.5 0.3 -1 2.4 -1 4.6 l0 4 -4.2 -0.3 -4.3 -0.3 -0.3 -8.7 c-0.2 -7.9 -0.5 -8.8 -2.2 -8.8 -1 0 -2.5 0.8 -3.2 1.8 -0.7 1 -3.4 2.6 -6 3.5 -6.8 2.6 -9.4 5.7 -10.1 11.9 -0.4 3.1 -1.3 5.5 -2.2 6 -0.8 0.5 -1.5 1.7 -1.5 2.6 0 0.9 -0.7 2.6 -1.5 3.6 -2 2.7 -1.9 3.1 1 4.4 2.1 1 2.5 1.8 2.5 5.4 0 2.6 0.8 5.5 2 7.3 1.3 1.9 2 4.7 2 7.8 0 4.4 -0.2 4.7 -2.5 4.7 -3.2 0 -10.5 2.2 -10.5 3.2 0 0.5 0.5 0.8 1 0.8 0.6 0 1 2.5 1 5.5 0 4.1 0.4 5.5 1.4 5.5 0.8 0 1.8 -0.4 2.1 -1 0.3 -0.5 1.6 -1 2.7 -1 2.6 0 6.8 -3.7 6.8 -6.1 0 -3 10.3 -4.2 11.4 -1.3 0.9 2.4 0.7 7.2 -0.3 7.8 -1.6 1 -0.4 12.6 1.5 14.7 1.7 1.9 1.8 1.9 3.8 0 1.2 -1.1 5 -3.2 8.6 -4.7z m54.9 -31.5 c-2.2 -1.4 -3.3 -1 -1.9 0.6 0.7 0.8 1.7 1.2 2.2 0.9 0.6 -0.4 0.5 -1 -0.3 -1.5z"/>
  <path d="M93 97 l0 -4 5 0 5 0 0 4 0 4 -5 0 -5 0 0 -4z"/>
  <path d="M116.6 78.4 c-0.3 -0.9 -0.6 -3.1 -0.6 -5 l0 -3.4 5.5 0 5.5 0 0 3.4 c0 5.7 -0.8 6.6 -5.5 6.6 -3 0 -4.5 -0.5 -4.9 -1.6z"/>
 </g>
 <g fill="#ffffb2">
  <path d="M76.8 148.3 c-2.9 -3.2 -4.2 -6.3 -2.7 -6.3 0.6 0 0.7 -0.4 0.4 -1 -0.3 -0.5 -0.2 -1 0.4 -1 0.7 0 0.7 -0.8 0.1 -2.6 -1.4 -3.6 -1.2 -6.5 0.4 -8.3 0.8 -0.9 1.2 -2.2 0.8 -2.8 -1.1 -1.7 -5.2 -0.4 -5.2 1.6 0 2.2 -4.1 6.1 -6.3 6.1 -1.7 0 -2.7 0.4 -7.5 2.9 -3.9 2 -5.7 0.1 -5.8 -6.6 -0.1 -3.2 -0.5 -7.4 -0.9 -9.3 -0.6 -3.4 -0.5 -3.5 3.4 -4.8 2.2 -0.6 5.2 -1.2 6.6 -1.2 3.1 0 3.3 -2.3 0.5 -6.5 -1.2 -1.8 -2 -4.7 -2 -7.2 0 -3.7 -0.4 -4.5 -2.9 -5.8 -4.2 -2.1 -4.4 -2.9 -1.9 -7.7 1.2 -2.4 2.1 -4.8 2 -5.5 -0.2 -0.6 0.7 -1.8 1.8 -2.6 1.4 -1 2.2 -3 2.7 -6.6 0.7 -6.1 3.4 -9.2 10 -11.7 2.5 -1 5.6 -2.8 6.9 -4.1 2.3 -2.3 6.7 -3 9.1 -1.5 0.7 0.5 1.3 4 1.5 9.2 0.2 5.6 0.7 8.5 1.6 8.8 0.8 0.2 1.2 -0.9 1.2 -3.7 0 -2.2 0.5 -4.3 1.1 -4.7 0.6 -0.3 0.9 -1.7 0.6 -3 -0.5 -2.9 1.9 -5.2 9.3 -8.9 3 -1.5 7.1 -4.1 9.1 -5.6 3.7 -2.9 6.9 -3.8 6.9 -1.9 0 0.5 1.7 2.5 3.8 4.5 2 1.9 3.1 3.5 2.4 3.5 -0.7 0 -1.1 0.4 -0.8 0.9 0.3 0.5 -0.1 1.4 -0.9 2.1 -1.8 1.5 -2 5.7 -0.2 6.3 0.6 0.2 1.9 -0.2 2.8 -1 2.4 -2 4.7 -0.6 5.9 3.7 0.8 3.1 1.8 4.1 5.8 6 3.7 1.7 5.8 3.7 8.5 8 2 3.1 3.7 6.2 3.7 6.9 0 0.6 1.2 3 2.7 5.2 3.1 4.7 2.4 7.2 -2.1 7.7 -4.4 0.5 -3.3 5.2 1.7 7.1 3.2 1.3 3.4 4.3 0.4 7.4 -1 1 -1.5 2.2 -1.2 2.7 0.4 0.6 -0.3 1 -1.4 1 -2.7 0 -10.1 -8.8 -10.1 -12.1 0 -3.4 -2 -5.8 -5 -6.1 -2.3 -0.3 -2.5 0 -2.6 4.5 0 3 -0.7 5.6 -1.7 6.8 -2.1 2.4 -2.1 2.7 -0.2 4.5 2.1 2.1 1.9 4.7 -0.5 6.9 -1.1 1 -2 2.8 -2 4 0 3 -1.9 4.5 -5.7 4.5 -2.2 0 -3.6 0.6 -4 1.6 -0.5 1.3 -1.5 1.5 -4.9 1 -4 -0.5 -4.4 -0.4 -5 1.8 -0.8 3.5 -4 5.9 -11.6 9.1 -3.7 1.5 -7.5 3.6 -8.4 4.6 -2.6 2.9 -7.5 2.4 -10.6 -0.8z m20 -27.8 c0.7 -1.4 2.3 -3 3.7 -3.5 1.5 -0.6 3.2 -2.4 4 -4.4 2.4 -5.7 5.7 -7.6 13.6 -7.6 3.8 0 6.9 -0.4 6.9 -0.8 0 -1.1 -6.7 -7.2 -7.9 -7.2 -0.5 0 -1.1 -0.8 -1.4 -1.9 -0.3 -1.3 -1.7 -1.9 -5.1 -2.3 -6.3 -0.7 -7.6 -2.1 -7.6 -7.8 0 -6 3.5 -10 8.6 -10 2.7 0 3.4 -0.4 3.4 -2 0 -1.5 0.7 -2 2.6 -2 1.4 0 2.4 -0.3 2.2 -0.7 -0.2 -0.5 -1.4 -2.9 -2.7 -5.6 -2 -4.3 -2.5 -4.7 -4.9 -4.1 -6.1 1.3 -8.4 2.8 -10.9 7.3 -1.5 2.5 -3.3 5 -4 5.4 -0.8 0.5 -1.3 2.8 -1.3 5.7 l0 5 -4.5 0 c-3.9 0 -4.6 -0.4 -6 -2.9 -1 -2 -3.6 -4 -8.5 -6.3 -8.4 -4.1 -9.5 -3.5 -9.1 4.7 0.1 3.7 -0.4 6.7 -1.7 9.4 -3.6 7.4 -0.3 22.1 5.3 23.5 1.4 0.4 2.5 1.3 2.5 2.1 0 0.8 0.3 1.5 0.7 1.5 1.4 0 4.3 -3.4 4.3 -5 0 -2.6 2.1 -4 6.1 -4 4.7 0 6.1 1.8 5.8 7.4 -0.2 3.3 0.2 5.1 1.6 6.6 2.3 2.6 2.9 2.5 4.3 -0.5z m29.2 -26.3 c0 -1.6 -2.2 -3 -4.1 -2.5 -2 0.5 -2.4 1.5 -1.2 2.6 0.9 1 5.3 0.9 5.3 -0.1z m4.4 -5.9 c-1 -1.6 -2.4 -4 -3.2 -5.5 -0.9 -1.9 -2.1 -2.8 -3.7 -2.8 -1.3 0 -3.1 -0.3 -4 -0.6 -1.3 -0.5 -1.2 0 0.5 2.9 1.4 2.3 3.4 4 5.5 4.7 1.8 0.6 3.9 1.8 4.5 2.6 2.1 2.4 2.3 1.6 0.4 -1.3z m-7.4 -11.7 c0 -0.2 0.3 -1.1 0.6 -2 0.5 -1.2 0 -1.6 -2 -1.6 -2.8 0 -2.9 0.1 -2 2.4 0.5 1.4 3.4 2.4 3.4 1.2z"/>
  <path d="M92 100.7 c0 -1.9 0.3 -4.9 0.6 -6.6 0.6 -2.9 0.9 -3.1 5 -3.1 l4.3 0 0.6 4.4 c1.1 7.3 0.7 8.1 -5.3 8.4 l-5.2 0.3 0 -3.4z m8 -3.7 c0 -0.5 -0.9 -1 -2 -1 -1.1 0 -2 0.5 -2 1 0 0.6 0.9 1 2 1 1.1 0 2 -0.4 2 -1z"/>
  <path d="M66.7 99.3 c-0.4 -0.3 -0.7 -2.1 -0.7 -4 l0 -3.3 8.4 0 c10.7 0 11.6 0.4 11.6 4.6 l0 3.4 -9.3 0 c-5.2 0 -9.7 -0.3 -10 -0.7z"/>
  <path d="M142.5 72.2 c-1.6 -0.8 -3.6 -1.8 -4.4 -2.2 -0.8 -0.3 -1.7 -1.2 -1.9 -1.8 -0.5 -1.5 8.6 3 9.3 4.6 0.2 0.6 0.3 1.2 0.2 1.1 -0.1 0 -1.5 -0.8 -3.2 -1.7z"/>
  <path d="M65 59.6 c2.8 -1.7 5 -2.1 3.5 -0.7 -0.6 0.5 -2.1 1.2 -3.5 1.5 l-2.5 0.7 2.5 -1.5z"/>
 </g>
 <g fill="#ff6300">
  <path d="M70.8 167.3 c-2 -0.5 -3.6 -4.5 -1.9 -5.1 0.6 -0.2 1.1 -1 1.1 -1.7 0 -0.7 1.3 -1.8 2.9 -2.3 2.6 -0.9 3.3 -0.7 5.4 1.4 1.3 1.3 3.8 2.9 5.6 3.5 3.5 1.2 3.8 2.1 1.6 3.9 -1.2 1 -1.6 0.9 -2.1 -0.3 -0.3 -0.9 -1.7 -2.3 -3 -3.2 -2.3 -1.5 -2.5 -1.4 -5.1 1.3 -1.6 1.7 -3.5 2.7 -4.5 2.5z"/>
  <path d="M94.8 166.3 c-1 -0.2 -1.8 -1.1 -1.8 -1.8 0 -1.9 3.5 -2.8 6 -1.5 1.7 0.9 1.9 1.4 0.9 2.6 -1.2 1.4 -2 1.5 -5.1 0.7z"/>
  <path d="M111 163.1 c0 -0.6 0.5 -1.3 1 -1.6 0.6 -0.4 0.8 -1 0.5 -1.5 -0.3 -0.4 0.2 -1 1 -1.4 0.8 -0.3 1.5 -1.7 1.5 -3.1 0 -2.8 2.5 -4.4 4.3 -2.6 1.6 1.6 6.2 1.4 7.7 -0.4 0.6 -0.8 2.2 -1.7 3.3 -2.1 1.2 -0.3 3 -1.3 3.9 -2.2 1.4 -1.2 2 -1.2 3.3 -0.2 2.8 2.3 1.3 4.6 -5.1 7.4 -1.7 0.8 -4.4 3 -6 5 -2.8 3.4 -3.2 3.6 -9.1 3.6 -3.5 0 -6.3 -0.4 -6.3 -0.9z"/>
  <path d="M62 160.2 c-0.8 -0.3 -2.5 -1.6 -3.7 -2.9 -1.4 -1.4 -3.3 -2.3 -5.2 -2.3 -5 0 -11.2 -6.6 -8.1 -8.5 0.5 -0.3 0.7 0 0.4 0.9 -0.7 1.8 2.7 2.9 9.3 3 4.9 0.1 6.3 -1 6.6 -5 0.2 -2.7 0.7 -3 3.8 -2.5 0.6 0 0.8 2 0.4 5.4 -1.2 10 -1.9 12.4 -3.5 11.9z"/>
  <path d="M141.4 149.2 c-2.1 -1.3 -2.5 -4.9 -0.9 -7.8 0.8 -1.6 1.5 -4.7 1.5 -7 0 -4.5 2 -8.1 3.9 -6.9 0.7 0.4 2.1 2.7 3.1 5.1 2.1 4.9 1.9 4.8 5.4 3.5 2.9 -1.2 2.9 -3.3 -0.2 -10.2 -2.2 -4.9 -1.9 -6.6 1.3 -6.9 3.6 -0.4 4.7 0 4.2 1.4 -0.3 0.8 0.2 2.5 1.2 3.8 1 1.3 2.1 3.9 2.5 5.9 0.6 3.4 0.4 3.8 -3.9 7 -2.7 2 -4.8 4.5 -5.1 6.1 -0.5 2.2 -1.3 2.8 -4.8 3.3 -2.2 0.4 -4.8 1.3 -5.6 2.1 -0.9 0.7 -2 1 -2.6 0.6z"/>
  <path d="M44.5 136 c-1.3 -2.1 -2.3 -7 -1.5 -7 1.3 0 4 4.2 4 6.2 0 2 -1.5 2.4 -2.5 0.8z"/>
  <path d="M43 117.3 c0 -0.5 0.7 -1.6 1.5 -2.6 0.7 -1.1 1.1 -2.5 0.8 -3.3 -0.3 -1 0.2 -1.4 2 -1.4 3.4 0 4.6 -1.9 4.8 -7.4 0.2 -3.2 0.6 -4.3 1.2 -3.7 1.6 1.6 4.7 12.5 3.9 13.3 -0.4 0.4 -2.9 0.8 -5.7 1 -4.3 0.3 -5 0.6 -5.3 2.6 -0.3 1.9 -3.2 3.3 -3.2 1.5z"/>
  <path d="M160.8 113.9 c-2.2 -1.2 -2.3 -5.5 -0.2 -6.3 3.5 -1.3 4.4 -0.7 3.7 2.7 -0.7 4.1 -1.4 4.8 -3.5 3.6z"/>
  <path d="M160.6 96.1 c-2 -2.1 -3.2 -4.9 -4.2 -9.8 -1.9 -9.3 -3 -11.1 -7.3 -11.9 -2 -0.4 -4.5 -1.3 -5.6 -2 -1.1 -0.8 -2.7 -1.4 -3.6 -1.4 -1.9 0 -4.5 -2.7 -3.5 -3.7 0.4 -0.4 2.2 -0.6 4 -0.5 2.2 0.2 3.8 -0.4 5.1 -1.8 2.4 -2.7 3.5 -2.5 3.5 0.5 0 3.2 3.3 6.5 6.5 6.5 1.5 0 2.5 0.6 2.5 1.4 0 0.8 1.5 2.6 3.2 4 2.8 2.1 3.4 3.5 4.4 9.3 1.8 10.1 1.7 12.3 -0.4 12.3 -1 0 -3.1 -1.3 -4.6 -2.9z"/>
  <path d="M38.6 86.6 c-1.6 -2.5 -1.5 -2.6 2.9 -6.7 2.5 -2.3 4.5 -4.9 4.5 -5.9 0 -1.9 4.7 -6.7 5.7 -5.7 0.3 0.4 0.1 1.8 -0.6 3.1 -1 1.7 -1 2.9 -0.2 4.4 1.6 3 1.5 12 -0.1 10.4 -1.8 -1.8 -5.9 -1.4 -8.3 0.8 l-2.2 2.1 -1.7 -2.5z"/>
  <path d="M59 60.1 c-2.1 -0.6 -2.2 -0.8 -0.7 -1.4 1 -0.3 1.7 -1.7 1.7 -3.1 0 -1.8 0.7 -2.6 2.7 -3.1 1.5 -0.3 4.2 -2.3 6 -4.3 3 -3.3 3.4 -3.5 4.3 -1.9 0.6 0.9 1.8 1.7 2.5 1.7 0.8 0 1.5 0.5 1.5 1 0 0.6 -1 0.8 -2.4 0.4 -2.9 -0.7 -4.1 0.9 -3.8 5.2 0.2 2.7 -0.2 3.4 -3.2 4.8 -3.6 1.7 -4.7 1.8 -8.6 0.7z"/>
  <path d="M137.8 54.9 c-1 -0.5 -1.8 -1.3 -1.8 -1.7 0 -1.3 6.9 -0.1 8.1 1.4 0.9 1.1 0.6 1.4 -1.7 1.4 -1.6 0 -3.7 -0.5 -4.6 -1.1z"/>
  <path d="M125.2 48.8 c-0.7 -0.7 -1.2 -2.1 -1.2 -3.1 0 -1.1 -0.8 -2.6 -1.7 -3.3 -2.3 -1.7 -8.3 -1.7 -10.6 0.1 -1.3 0.9 -3.5 1.2 -7.3 0.8 -4.3 -0.5 -5.8 -0.2 -7.3 1.1 -1.3 1.2 -2.7 1.5 -4.2 1.1 -2.1 -0.7 -2.1 -0.8 -0.3 -1.8 1 -0.6 2.2 -1.5 2.6 -2 0.3 -0.6 2.1 -1.5 4 -2.1 3 -1 3.3 -1.5 3.8 -6.1 0.5 -4.8 0.6 -5 3.8 -5.3 2.6 -0.3 3.9 0.3 5.8 2.3 1.9 2.1 3.3 2.6 6.2 2.4 2 -0.1 5 0.3 6.5 1 1.6 0.6 3.4 1.1 4.2 1.1 0.7 0 1.5 1.5 1.8 3.3 0.3 1.7 0.9 4.8 1.5 6.8 0.8 3.2 0.7 3.6 -0.8 3.2 -1 -0.3 -2.1 0 -2.4 0.6 -0.9 1.4 -2.9 1.4 -4.4 -0.1z"/>
 </g>
 <g fill="#ffffc9">
  <path d="M90.5 124.9 c-4.8 -4.2 -6 -6.6 -4.4 -8.6 1.8 -2.1 1.9 -4 0.3 -5.4 -1.7 -1.4 -4.4 0.4 -4.4 3.1 0 2.1 -7.7 9.3 -9 8.5 -0.4 -0.3 -1.1 -1.9 -1.5 -3.5 -0.5 -2.1 -1.4 -3.2 -3.1 -3.6 -3.2 -0.8 -6.4 -7 -6.4 -12.5 0 -2.2 -0.7 -5.6 -1.6 -7.5 -1.6 -3.3 -1.6 -3.6 0.3 -5.7 3.2 -3.6 4.3 -7.4 3.6 -12.2 -0.7 -5.5 1.5 -9.5 5.3 -9.5 4.5 0 17.2 6.8 18.9 10.1 2.4 4.5 4.4 3.8 4.2 -1.7 -0.1 -3.1 0.3 -4.9 1.3 -5.7 0.9 -0.7 2.8 -3.3 4.3 -5.8 2.8 -5 3.4 -5.3 11.5 -7.5 7.5 -2 7.7 -1.9 9.7 3.1 0.9 2.5 2.8 5.3 4.1 6.2 3.6 2.3 3.1 4.9 -1.2 6 -4 0.9 -4.7 2.1 -2.2 3.7 1.3 0.8 2.3 0.8 3.8 -0.2 2.9 -1.8 3.9 -1.5 5.2 1.6 0.7 1.5 3.3 5.9 5.7 9.7 5.7 8.8 9.2 16.3 8.1 17 -0.5 0.3 -1.8 -0.8 -3 -2.5 -1.2 -1.6 -2.7 -3 -3.4 -3 -0.8 0 -3.5 -1.7 -6.2 -3.9 -2.7 -2.1 -6.5 -4.5 -8.4 -5.4 -3.2 -1.3 -5.6 -4.6 -7.4 -9.9 -0.8 -2.5 -2.9 -2.2 -6 0.8 -4.7 4.8 -2.9 8.3 4.9 9.2 2.5 0.2 5 1.1 5.6 1.8 0.6 0.8 0.8 1.4 0.4 1.4 -0.5 0 1 1.3 3.3 3 4.9 3.5 6.2 5.7 6.2 10.6 0 3.3 -0.2 3.6 -2.2 2.9 -1.3 -0.4 -4.5 -0.9 -7.3 -1.2 -5.9 -0.6 -9.6 1.7 -12 7.3 -0.8 1.9 -2.5 3.8 -3.8 4.3 -1.3 0.5 -3.4 2.6 -4.5 4.5 -2.6 4.4 -4.1 4.5 -8.7 0.5z m9.5 -11.4 c1.1 -0.3 2 -1 2 -1.5 0 -0.5 0.3 -1.5 0.6 -2.4 1 -2.7 -1.4 -1.8 -5.6 2 -2.3 2.1 -4 4.5 -4 5.8 0 2 0.1 1.9 2.5 -0.6 1.3 -1.4 3.4 -2.9 4.5 -3.3z m-22 -8.5 c0 -0.5 -2.2 -1 -5 -1 -2.7 0 -5 0.5 -5 1 0 0.6 2.3 1 5 1 2.8 0 5 -0.4 5 -1z m21.5 -5.1 c1.1 -1.6 -0.4 -5.9 -2 -5.9 -0.8 0 -1.5 0.6 -1.5 1.3 0 0.6 -0.3 2.2 -0.6 3.5 -0.5 1.7 -0.2 2.2 1.4 2.2 1.2 0 2.4 -0.5 2.7 -1.1z m-17.5 -3.9 c-2 -1.3 -13.3 -1.3 -12.5 0 0.3 0.6 3.6 1 7.3 1 4.7 0 6.3 -0.3 5.2 -1z m7.1 -7.8 c-2.1 -0.2 -4 -1.5 -6.2 -4.3 -1.7 -2.2 -4 -4.4 -5 -5 -1.7 -0.9 -1.9 -0.6 -1.9 3.6 0 3.8 0.3 4.5 1.9 4.5 1.1 0 4.1 1.1 6.8 2.5 4.5 2.3 4.9 2.3 6.1 0.7 1.2 -1.5 1 -1.7 -1.7 -2z m22.7 -18.2 c4.3 -2.6 4 -5.6 -0.3 -5.2 -3.9 0.4 -5.6 2.2 -4.9 5 0.8 2.7 1.1 2.7 5.2 0.2z"/>
 </g>
 <g fill="#ffffd8">
  <path d="M91.2 122 c-3.2 -3 -2.8 -7.2 0.9 -11.5 1.8 -2 4.8 -4.4 6.8 -5.4 2 -0.9 4.6 -2.3 5.8 -3.1 1.9 -1.2 2.4 -1.2 4.2 0.4 2.7 2.5 2.7 3.2 -0.9 7.3 -1.6 1.8 -3 4 -3 4.7 0 0.8 -1.3 1.9 -2.8 2.5 -1.6 0.7 -3.6 2.5 -4.6 4.1 -2 3.5 -3.4 3.7 -6.4 1z"/>
  <path d="M66.6 110.1 c-1.2 -1.3 -1.6 -3.2 -1.4 -6.2 0.3 -3.8 0.6 -4.3 2.3 -4 1.1 0.1 4.7 0.6 8 1 5.7 0.6 6 0.7 6.3 3.5 0.5 3.9 -3.1 6.9 -6.4 5.4 -1.6 -0.8 -2.8 -0.6 -4.6 0.6 -2.3 1.5 -2.6 1.5 -4.2 -0.3z"/>
  <path d="M116.8 104.3 c0 -0.5 -0.2 -1.2 -0.3 -1.8 -0.2 -0.5 -0.3 -1.5 -0.4 -2.2 0 -0.6 -1.3 -2.5 -2.7 -4.2 l-2.6 -3.1 2.5 0 c1.3 0 3.7 1.2 5.4 2.8 1.6 1.5 3.7 3.2 4.5 3.7 2.7 1.7 0.5 5.5 -3.2 5.5 -1.6 0 -3.1 -0.3 -3.2 -0.7z"/>
  <path d="M87.5 98.8 c0 -2.8 -0.6 -3.6 -5 -6 -2.7 -1.5 -6.1 -2.6 -7.5 -2.5 -2.4 0.2 -2.5 0 -2.2 -4.8 0.3 -4 -0.1 -5.6 -1.8 -7.8 -2.3 -2.9 -2.1 -5.7 0.5 -5.7 3.4 0 10.8 4.5 14.2 8.7 3.7 4.5 5.5 5 10.4 2.9 1 -0.5 2.8 0.2 4.8 1.9 3.8 3.2 4 5 0.6 4.1 -3.4 -0.9 -6.4 0.9 -8.1 4.7 -1.2 2.9 -4.7 7.7 -5.6 7.7 -0.2 0 -0.3 -1.4 -0.3 -3.2z"/>
  <path d="M131.9 93.7 c-1.3 -1.3 -4 -3.3 -6.1 -4.5 -4.1 -2.5 -4.7 -3.7 -3.8 -7.2 1.4 -5.6 4.5 -2.9 13.3 11.7 1.4 2.3 -1.1 2.2 -3.4 0z"/>
  <path d="M103.7 74.8 c-0.4 -1.8 -0.9 -4.7 -1.2 -6.3 -0.9 -4.2 1.8 -6.5 8.8 -7.2 l5.5 -0.6 2.1 4.1 2 4 -3.7 2.4 c-6.1 4.1 -10.9 6.8 -12 6.8 -0.5 0 -1.2 -1.5 -1.5 -3.2z"/>
 </g>
</svg>