<?xml version="1.0" encoding="utf-8"?>
<!DOCTYPE svg PUBLIC "-//W3C//DTD SVG 20010904//EN" "http://www.w3.org/TR/2001/REC-SVG-20010904/DTD/svg10.dtd">
<svg version="1.0" xmlns="http://www.w3.org/2000/svg" width="200px" height="200px" viewBox="0 0 200 200" preserveAspectRatio="xMidYMid meet">
 <g fill="#ff6601">
  <path d="M105.75 116.60 c-1.55 -1.10 -2.70 -3.25 -2.40 -4.60 0.40 -2 -0.90 -3.15 -4.25 -3.75 -1.90 -0.35 -2.90 -0.80 -3.30 -1.50 -0.30 -0.55 -0.90 -1.20 -1.30 -1.45 -2.60 -1.65 -3 -2.60 -3 -7.15 0 -4.45 0.70 -6.60 2.15 -6.65 0.35 -0.05 1.30 -0.95 2.10 -2 1.20 -1.55 1.85 -1.95 3.15 -2 l1.60 0 0 2.65 c-0.05 3.10 -0.70 6.35 -1.50 6.85 -0.35 0.20 -0.15 0.65 0.50 1.25 0.55 0.50 1 1.20 1 1.55 0 0.35 0.45 0.90 1 1.20 0.55 0.30 1 0.70 1 0.95 0 0.60 3.90 4.55 4.45 4.55 1 0 1.55 2 1.55 5.60 0 4.30 -0.95 5.80 -2.75 4.50z"/>
  <path d="M111.90 112.90 c-1.15 -0.80 -1.40 -1.35 -1.40 -3.15 0 -2.70 1.45 -4.80 2.65 -3.80 0.45 0.35 0.95 1.05 1.10 1.55 0.15 0.50 0.75 1 1.25 1.15 1.75 0.45 1.20 2.40 -1.25 4.45 -0.95 0.75 -1.10 0.75 -2.35 -0.20z"/>
  <path d="M111.35 102.80 c-0.15 -0.40 -0.90 -1 -1.70 -1.40 -1.25 -0.60 -1.40 -0.95 -1.55 -3.60 -0.10 -1.65 0.10 -3.60 0.45 -4.40 0.70 -1.75 2.60 -2.65 3.95 -1.90 0.50 0.25 1.25 0.35 1.65 0.20 1.10 -0.40 2.35 2 2.35 4.50 0 2.95 -0.60 4.40 -2.20 5.25 -0.70 0.40 -1.30 1 -1.30 1.40 0 0.85 -1.30 0.85 -1.65 -0.05z"/>
  <path d="M103.10 91.40 c-1 -1 -0.75 -3.80 0.40 -4.40 1.10 -0.60 2.60 0.15 5.10 2.45 1.05 0.95 1.25 1.40 0.85 1.90 -0.70 0.80 -5.55 0.85 -6.35 0.05z"/>
 </g>
 <g fill="#ffa700">
  <path d="M106 116.05 c0 -0.55 0.25 -1.15 0.50 -1.30 1.20 -0.75 0.30 -6.75 -1.05 -6.75 -0.60 0 -4.65 -4.10 -4.55 -4.65 0.05 -0.20 -0.45 -0.60 -1.10 -0.90 -0.65 -0.35 -1.10 -0.85 -0.95 -1.20 0.10 -0.35 -0.45 -1.20 -1.30 -1.80 -1.85 -1.35 -1.90 -2 -0.35 -3.70 1.25 -1.35 2.15 -5.35 1.60 -7.15 -0.25 -0.80 0.10 -1 2.80 -1.45 3.70 -0.60 4.15 -0.45 3.15 0.95 -0.55 0.80 -0.60 1.25 -0.15 1.75 0.65 0.80 2.50 0.85 3.25 0.10 0.40 -0.40 0.95 -0.30 1.95 0.40 0.75 0.50 1.55 0.85 1.70 0.80 0.15 0 0.55 0.10 0.95 0.35 0.80 0.45 0.30 1.50 -0.70 1.50 -1 0 -2.05 2.35 -2 4.45 0 1.35 0.30 1.85 1.50 2.55 1.30 0.70 1.50 1.15 1.65 3.30 0.10 1.35 0.35 2.65 0.60 2.90 0.25 0.25 0.05 0.95 -0.50 1.70 -1.30 1.65 -1.25 2.35 0.30 3.50 1.30 0.90 1.30 0.95 0.45 2.25 -1.70 2.65 -7.75 4.50 -7.75 2.40z m-0.35 -14.90 c0.10 -0.25 0.05 -1.50 -0.10 -2.90 -0.30 -2.40 -0.35 -2.50 -2.15 -2.80 -1.65 -0.25 -1.85 -0.15 -2.15 0.95 -0.15 0.70 -0.05 1.50 0.20 1.75 0.30 0.30 0.55 1.05 0.55 1.65 0 0.60 0.30 1.25 0.65 1.35 0.95 0.40 2.75 0.40 3 0z"/>
 </g>
 <g fill="#ffffbf">
  <path d="M102.25 103 c-0.55 -0.20 -1.15 -0.30 -1.35 -0.20 -0.45 0.30 -1.05 -1.65 -0.70 -2.25 0.15 -0.25 -0.05 -0.70 -0.45 -1.05 -0.90 -0.75 -0.95 -1.90 -0.15 -4.50 0.75 -2.30 1.55 -2.80 3.05 -1.75 0.75 0.55 1.20 0.60 1.70 0.15 1.10 -0.90 3.15 1.35 2.90 3.20 -0.10 0.80 0 2.05 0.30 2.75 0.75 2.05 -0.40 3.90 -2.55 4 -0.95 0 -2.20 -0.10 -2.75 -0.35z"/>
 </g>
</svg>