<?xml version="1.0" encoding="utf-8"?>
<!DOCTYPE svg PUBLIC "-//W3C//DTD SVG 20010904//EN" "http://www.w3.org/TR/2001/REC-SVG-20010904/DTD/svg10.dtd">
<svg version="1.0" xmlns="http://www.w3.org/2000/svg" width="200px" height="200px" viewBox="0 0 200 200" preserveAspectRatio="xMidYMid meet">
 <g fill="#ffffb2">
  <path d="M80.2 173.5 c-3.7 -2.7 -14.2 -16.4 -14.2 -18.6 0 -1.1 -0.4 -2.7 -1 -3.7 -0.5 -0.9 -2.1 -4.3 -3.5 -7.5 -1.4 -3.2 -3.2 -6 -4 -6.3 -0.8 -0.4 -1.5 -1.9 -1.5 -3.4 0 -1.6 -0.4 -3.2 -1 -3.5 -0.5 -0.3 -1 0 -1 0.8 0 2.3 -5.4 4 -10.4 3.3 -2.4 -0.4 -6.3 -2 -8.8 -3.5 -2.4 -1.6 -6.1 -3.4 -8.1 -4 -2.5 -0.9 -3.4 -1.7 -3 -2.7 0.4 -1 -0.5 -1.9 -2.7 -2.7 -3.2 -1.2 -3.2 -1.3 -2.7 -6.7 0.2 -3 0.8 -6.3 1.2 -7.2 0.4 -1.1 0.3 -1.8 -0.3 -1.8 -0.6 0 -2.3 -0.5 -3.7 -1 l-2.6 -1 2 -2.6 c1.2 -1.5 2.1 -4 2.1 -5.6 0 -4.5 2.6 -9.8 4.8 -9.8 2.7 0 4.8 -2.6 3.4 -4.3 -1.4 -1.7 -0.9 -4.6 0.9 -5.8 0.8 -0.5 2.9 -0.9 4.7 -0.9 2.2 0 4.1 -0.8 5.6 -2.5 2.4 -2.6 8.8 -3.6 10.1 -1.5 1.1 1.8 3.4 1 3.7 -1.2 0.2 -1.4 1.5 -2.9 3.3 -3.7 1.7 -0.8 5.2 -2.9 7.9 -4.8 2.6 -1.8 5.4 -3.3 6.1 -3.3 0.7 0 2.6 -1.2 4.3 -2.7 4.1 -3.7 7.4 -12.3 6.8 -17.6 -0.6 -4.8 2 -7.6 7.2 -7.7 2.2 0 3.2 -0.5 3.2 -1.5 0 -3.5 3.8 -5.5 10.4 -5.5 7.4 0 7.6 0.2 7.7 8.8 0 3.1 0.4 7.5 0.8 9.7 0.8 3.6 0.9 3.4 1 -3.1 0.1 -9.2 1.3 -10.9 7.2 -10.2 2.4 0.3 6.8 1.5 9.6 2.8 4.6 1.9 5.6 2.9 7.8 7.6 1.4 3 4.9 8.9 7.8 13.2 2.9 4.3 5.9 9.2 6.8 10.9 1.1 2 2.7 3.3 4.7 3.8 1.7 0.3 3.6 1.3 4.3 2.2 0.7 0.8 2.3 1.9 3.6 2.4 1.5 0.6 2.3 1.7 2.3 3.3 0 1.3 0.7 2.6 1.5 3 1 0.3 1.5 1.9 1.5 4.4 0 3.7 0.2 3.9 4.2 4.8 3.5 0.8 4.3 1.4 5 4 0.4 1.7 1.7 3.9 2.8 4.9 1.7 1.5 2 3 1.9 8.9 0 3.9 -0.6 8.9 -1.2 11.1 -1.1 3.6 -1.6 4 -6.2 5 -4 0.8 -5.5 1.7 -8 5.1 -3.2 4.3 -12.2 9.4 -16.5 9.4 -5.7 0 -6.9 -1 -7.6 -5.9 -0.7 -4.3 -0.8 -4.4 -1.7 -2.1 -2.5 6.3 -13 26.6 -14.3 27.6 -0.8 0.6 -1.4 1.6 -1.4 2.3 0 0.6 -0.4 1.1 -1 1.1 -0.5 0 -1 0.6 -1 1.3 0 0.6 -1.6 2.2 -3.5 3.5 -1.9 1.2 -3.5 2.9 -3.5 3.7 0 1.7 -5 4.5 -8 4.5 -1.1 0 -2 0.7 -2 1.5 0 1.1 -1.1 1.5 -4.2 1.5 -2.4 0 -7.2 0.3 -10.8 0.6 -5.2 0.4 -7 0.2 -8.8 -1.1z m25.4 -26.6 c4.9 -1.3 7.4 -3.9 7.4 -7.9 0 -3.2 6.2 -8.3 10.9 -9 3.1 -0.5 3.6 -1 5.2 -6 2.3 -6.8 2.3 -7 0.2 -7 -1 0 -2.7 -0.7 -3.7 -1.5 -2.6 -2 -7.5 -1.9 -9.8 0.2 -1.3 1.2 -1.8 3.1 -1.8 7.4 l0 5.8 -4.4 0.6 c-6.7 1 -8.1 0.5 -8.4 -3.5 -0.2 -1.9 -0.8 -3.9 -1.3 -4.5 -1.2 -1.2 -1.2 -11.5 0.1 -11.5 0.5 0 1.2 -1.1 1.6 -2.5 0.3 -1.4 2 -3.7 3.7 -5.1 3 -2.6 3.2 -2.6 14.1 -1.9 6.1 0.4 11.5 1.1 12.1 1.6 0.5 0.5 2.6 0.9 4.7 0.9 3.1 0 4.4 0.7 7.8 4.2 3.4 3.6 4 4.9 4 8.4 0 2.4 0.4 4.5 0.9 4.8 1.7 1.1 5.5 -6.8 6 -12.4 0.5 -4.7 0.9 -5.5 2.9 -5.8 1.2 -0.2 2.2 -0.6 2.2 -0.9 0 -0.2 -1 -1.3 -2.2 -2.3 -2.9 -2.3 -18 -3.9 -20.2 -2.1 -0.8 0.7 -3.7 1.1 -6.8 0.9 l-5.3 -0.3 -0.3 -4.2 c-0.3 -4.2 -0.3 -4.3 3 -4.3 1.8 0 4.2 -0.7 5.2 -1.5 1.1 -0.8 3 -1.5 4.2 -1.5 1.6 0 2.4 -0.7 2.6 -2.2 0.3 -2 1 -2.3 5.6 -2.6 2.8 -0.2 5.2 -0.7 5.2 -1.1 0 -1.3 -2.3 -2.9 -5.3 -3.6 -2.9 -0.8 -4.7 -3.1 -4.7 -6.4 0 -1.2 -3.6 -5.6 -8.9 -10.9 -7.3 -7.3 -9 -8.6 -9.4 -7.1 -0.4 1.4 -1.4 1.9 -3.7 1.9 -5.5 0 -7.9 5.1 -4.5 9.6 0.8 1 1.5 3.1 1.5 4.6 0 4 1 5.8 3.1 5.8 1.7 0 1.8 -0.6 1.2 -7.5 l-0.6 -7.5 4.2 0 c3.5 0 4.3 0.4 5.1 2.6 1.6 4 1.3 11.4 -0.5 12 -1 0.4 -1.5 2 -1.5 4.9 0 6 -1.5 6.9 -10.2 6.3 -7.6 -0.6 -10.8 -2.6 -10.8 -7 0 -2.4 -10.1 -12.8 -12.3 -12.8 -1 0 -1.7 -0.8 -1.7 -1.9 0 -1.1 -0.5 -2.3 -1.1 -2.6 -0.6 -0.4 -0.9 -3.9 -0.8 -8.8 0.1 -4.8 -0.2 -8.2 -0.8 -8.4 -1.2 -0.4 -7.3 6.2 -7.3 8 0 1.8 -5 8.6 -10 13.8 -2.5 2.5 -5.3 5.8 -6.3 7.3 -1 1.5 -3.2 2.9 -4.8 3.3 -1.6 0.3 -2.9 0.9 -2.9 1.2 0 1.3 2.4 3.1 4.2 3.1 0.9 0 2.2 0.9 2.8 2 1.1 2.1 4 2.8 4 1 0 -0.6 1.1 -1.6 2.5 -2.2 1.4 -0.6 2.5 -1.6 2.5 -2.1 0 -2.3 3.4 -4.7 6.7 -4.7 3.3 0 3.3 0.1 3.3 4.5 0 3.8 -0.4 4.7 -2.4 5.6 -1.3 0.6 -2.7 2 -2.9 3 -0.3 1.3 -1.4 1.9 -3.1 1.9 -1.4 0 -3.4 0.8 -4.5 1.9 -1.4 1.4 -4.6 2.1 -13.6 3.1 -11 1.2 -12.1 1.1 -15.2 -0.6 -3.9 -2.1 -4.8 -3.4 -5.8 -8.7 -0.7 -3.6 -0.8 -3.7 -2.5 -2.2 -1.7 1.5 -4.9 8.1 -6.4 13.2 -0.6 2 -0.3 2.2 4.1 2.5 4.8 0.3 4.8 0.3 5.1 4.1 0.2 2.8 -0.1 3.9 -1.4 4.4 -1 0.3 -2.5 1.4 -3.5 2.4 -1.7 1.7 -1.7 1.8 0.4 2.5 1.2 0.3 3.8 2.2 5.8 4.1 3.2 3 3.7 3.2 4.9 1.8 0.8 -0.9 2.6 -2.3 4.2 -3.1 1.5 -0.8 2.8 -2.3 2.8 -3.3 0 -1 2.2 -3.9 5 -6.5 l4.9 -4.6 9.8 0 c9.6 0 9.8 0 13 3.2 3.1 3 3.3 3.6 3.3 10.1 l0 6.8 -3.7 -0.3 c-3.2 -0.2 -4.1 -0.9 -5.3 -3.5 -2.1 -4.5 -3.7 -4.8 -7.6 -1.3 -1.9 1.6 -3.8 3 -4.3 3 -2 0 0.6 5.9 4.4 10.1 2.3 2.5 4.8 5.6 5.5 7 2.1 4 5.2 6.9 7.6 6.9 1.2 0 5.1 1.3 8.6 3 7 3.3 8 3.5 14.4 1.9z"/>
  <path d="M87 100 c0 -1.1 -0.4 -2 -1 -2 -0.5 0 -1 -1.6 -1 -3.5 0 -3.4 0.1 -3.5 3.9 -3.5 6 0 7.1 0.8 7.1 4.7 0 4.3 -1.9 6.3 -5.9 6.3 -2.4 0 -3.1 -0.4 -3.1 -2z"/>
 </g>
 <g fill="#ffffd7">
  <path d="M91.2 148.7 c-1.2 -1.4 -2.4 -1.8 -10.4 -3.3 -3.9 -0.8 -6.4 -2.8 -8.5 -6.8 -0.8 -1.5 -3.2 -4.7 -5.4 -7.1 -5.2 -5.6 -8.7 -16.5 -5.4 -16.5 0.8 0 3.2 -1.6 5.4 -3.5 6.1 -5.5 9.8 -4.6 13.8 3.5 2.2 4.4 2.3 4.4 2.4 1.5 0.2 -5.5 -0.2 -7 -3.4 -10.2 -2.9 -3.1 -3.5 -3.3 -9.9 -3.3 -6.8 0 -6.9 0.1 -11.8 4.6 -2.8 2.6 -5 5.5 -5 6.5 0 1 -1.3 2.5 -2.8 3.3 -1.6 0.8 -3.4 2.2 -4.1 3 -2.3 2.7 -7.4 2 -10.7 -1.5 -1.6 -1.7 -4.4 -3.7 -6.1 -4.4 -2.3 -1 -3.3 -2.1 -3.3 -3.6 0 -2.2 3.4 -6.1 6.5 -7.2 2.8 -1.1 0.5 -2.9 -2.9 -2.3 -1.7 0.3 -3.7 0.2 -4.5 -0.3 -2 -1.3 -1 -8.5 2.2 -15.5 2.5 -5.5 2.7 -5.6 6.7 -5.6 3 0 4.2 0.5 4.6 1.8 1.4 4.1 3 6.4 5.9 8.2 2.8 1.8 3.7 1.8 12.8 0.7 5.3 -0.7 10.2 -1.8 10.9 -2.5 0.9 -0.9 0.5 -1.2 -2 -1.2 -2.2 0 -3.2 -0.5 -3.2 -1.5 0 -0.8 -1.4 -1.8 -3.2 -2.3 -2.9 -0.7 -3.3 -1.3 -3.6 -4.4 -0.2 -2.5 0.2 -4.1 1.4 -5 1.6 -1.3 2.5 -2.2 11.1 -11.3 5.4 -5.8 10.3 -12.4 10.3 -14.2 0 -0.7 1.6 -3.1 3.6 -5.3 2.6 -2.8 4.4 -4 6.4 -4 4.4 0 5.2 1.9 4.4 10.3 -0.4 5.1 -0.3 7.6 0.5 8.1 0.6 0.4 1.1 1.6 1.1 2.6 0 1.2 0.9 2.2 2.4 2.6 3 0.7 11.6 9.8 11.6 12.2 0 3.5 2.9 6.1 7.5 6.8 5.3 0.7 7.5 -0.6 7.5 -4.5 0 -1.6 -0.3 -2.1 -0.8 -1.4 -0.4 0.7 -2.2 1.5 -3.8 1.9 -3.8 0.7 -6.4 -1.5 -6.4 -5.7 0 -1.6 -0.7 -4 -1.5 -5.3 -1 -1.4 -1.7 -5.1 -1.8 -9.2 l-0.2 -6.9 5 0 c4.4 0 5 -0.3 5.3 -2.3 0.3 -1.6 1 -2.2 2.8 -2.2 1.8 0 4.8 2.4 10.9 8.6 4.6 4.7 8.8 8.3 9.2 8.1 0.4 -0.3 0.9 1.1 1.1 3 0.3 4.9 1.7 7 5.2 7.8 2.8 0.6 3 0.9 3 5.5 l0 4.9 -4.2 0.3 c-3.6 0.2 -4.4 0.7 -4.6 2.6 -0.2 1.5 -1 2.2 -2.6 2.2 -1.2 0 -3.1 0.7 -4.2 1.5 -1 0.8 -3.9 1.5 -6.3 1.5 -4.2 0 -4.3 0.1 -2.5 1.5 2.3 1.7 6 1.9 7 0.4 0.5 -0.9 4 -1 11.9 -0.6 9.4 0.5 11.8 1 14.8 2.9 2.7 1.7 3.6 3 3.7 5.1 0 1.5 -0.5 2.7 -1.2 2.7 -0.9 0 -0.8 0.4 0.2 1.1 1.1 0.7 0.7 0.9 -1.8 0.7 -3.3 -0.3 -3.4 -0.3 -3.6 4.2 -0.1 2.9 -1.2 6.3 -3 9.3 -2.7 4.5 -3.1 4.8 -6.5 4.5 -3.5 -0.3 -3.6 -0.4 -3.9 -4.9 -0.2 -3.8 -1 -5.3 -4.3 -8.7 -3.3 -3.5 -4.6 -4.2 -7.7 -4.2 -2.1 0 -4.2 -0.4 -4.7 -0.9 -0.6 -0.5 -4.6 -1.2 -9.1 -1.5 -7.7 -0.7 -8.3 -0.6 -11.1 1.8 -1.7 1.4 -3.4 3.7 -3.7 5.1 -0.4 1.4 -1.1 2.5 -1.6 2.5 -1.2 0 -1.4 4.3 -0.2 5.4 0.4 0.4 1.2 3.9 1.7 7.8 l1 7.1 2.8 -3.9 c2.1 -3.2 2.7 -5.1 2.7 -9.5 0 -7.3 1.7 -8.9 9.4 -8.9 3.2 0 7 0.6 8.4 1.4 1.5 0.8 3.5 1.7 4.4 2 2.1 0.6 1.7 4.2 -1.1 12.6 -1.6 5 -2.1 5.5 -5.2 6 -4.8 0.7 -10.9 5.8 -10.9 9.1 0 1.5 -0.9 3.7 -1.9 5 -1.7 2.2 -2.8 2.4 -11.8 2.7 -7.8 0.3 -10.2 0.1 -11.1 -1.1z m0.7 -53.8 c-0.8 -0.5 -2.1 -0.8 -2.9 -0.8 -1 0.1 -0.9 0.3 0.3 0.6 1.3 0.3 1.6 1 1.1 2.6 -0.6 2 -0.6 2 1.1 0.3 1.5 -1.5 1.6 -1.9 0.4 -2.7z m-16.4 -10 c1.1 -1.7 0 -2 -2.1 -0.4 -1.7 1.3 -1.7 1.4 -0.2 1.5 0.9 0 2 -0.5 2.3 -1.1z m5.5 -6.6 c0 -1.4 -0.2 -1.4 -2 0.2 -1.1 1 -2 2.2 -2 2.7 0 0.5 0.9 0.4 2 -0.2 1.1 -0.6 2 -1.8 2 -2.7z m46 -10 c0 -1.9 -3.1 -8.5 -3.7 -7.9 -0.3 0.2 -0.1 3 0.2 6 0.6 4.7 1 5.4 2.1 4.5 0.8 -0.6 1.4 -1.8 1.4 -2.6z"/>
 </g>
 <g fill="#ffb200">
  <path d="M87.3 185.2 c-0.9 -1.3 -1.4 -1.4 -2.4 -0.5 -1 1 -1.5 0.8 -2.4 -1 -0.6 -1.2 -2.3 -2.8 -3.7 -3.5 -1.9 -0.9 -2.9 -2.3 -3.4 -4.7 -0.5 -2.7 -1 -3.4 -2.7 -3.2 -1.8 0.2 -2.3 -0.8 -3.8 -7.1 -1.1 -4.8 -2.3 -7.8 -3.6 -8.7 -1.1 -0.8 -2.6 -2.8 -3.3 -4.5 -0.7 -1.6 -1.8 -3 -2.5 -3 -0.7 0 -1.8 -0.7 -2.5 -1.5 -1.4 -1.7 -16.8 -9.5 -18.7 -9.5 -0.7 0 -1.8 -1.2 -2.5 -2.7 -0.9 -1.8 -3 -3.2 -6.8 -4.7 -6.5 -2.4 -7.1 -3 -5.7 -6.1 1.1 -2.2 1.2 -2.2 5.7 -0.7 2.5 0.8 5.8 2.4 7.4 3.5 4.6 3.3 9.6 4.6 12.3 3.4 1.9 -0.9 2.3 -1.8 2.3 -5.8 0 -5.1 2 -8.3 4.9 -7.7 1.2 0.3 1.5 1.3 1.3 4.9 -0.2 3.1 0.1 4.9 1.1 5.8 0.9 0.7 1.3 2.1 0.9 3.3 -0.3 1.3 0.1 2.4 1.2 3 0.9 0.5 2.8 3.5 4.2 6.6 1.4 3.1 2.9 6.5 3.4 7.4 0.6 1 1 2.7 1 3.9 0 2.3 10.8 16.1 14.6 18.5 2.1 1.4 2.8 1.5 6.9 0.1 2.6 -0.9 4.7 -1.2 5 -0.6 1 1.5 5.5 1.1 5.5 -0.6 0 -0.8 0.9 -1.5 2 -1.5 3 0 8 -2.8 8 -4.5 0 -0.8 1.6 -2.5 3.5 -3.7 1.9 -1.3 3.5 -2.9 3.5 -3.5 0 -0.7 0.5 -1.3 1.1 -1.3 0.5 0 0.7 -0.5 0.4 -1 -0.3 -0.6 0.1 -1.3 1 -1.6 1.5 -0.6 7.9 -11.8 8 -13.9 0 -0.5 0.8 -1.8 1.7 -2.9 2.6 -2.9 6.8 -14.9 5.6 -16.3 -1.3 -1.7 -0.1 -3.3 2.5 -3.3 2.3 0 3.7 3 5.2 11.2 0.5 2.4 1.3 3.8 2.6 4.1 3.1 0.8 12.1 -4.3 15.4 -8.7 2.5 -3.3 4 -4.3 8 -5.1 4.6 -1 5.1 -1.4 6.2 -5 2 -6.7 1.6 -11.4 -1.2 -14.7 -1.4 -1.6 -2.5 -3.8 -2.5 -4.9 0 -3.9 -8.4 -5.1 -13.5 -2 -3.7 2.2 -7.8 1 -7.3 -2.3 0.2 -1.7 1.2 -2.2 5.2 -2.6 5.7 -0.6 8.3 -3.2 5.4 -5.4 -1 -0.7 -1.8 -2.3 -1.8 -3.5 0 -1.3 -0.9 -2.5 -2.3 -3 -1.3 -0.5 -2.9 -1.6 -3.6 -2.4 -0.7 -0.9 -2.6 -1.9 -4.3 -2.2 -2 -0.5 -3.6 -1.8 -4.7 -3.8 -0.9 -1.7 -3.9 -6.6 -6.8 -10.9 -2.9 -4.3 -6.4 -10.2 -7.8 -13.2 -2.5 -5.4 -5.3 -7.4 -14.2 -10 -3 -1 -4.3 1.8 -3.8 8.5 0.2 2.9 -0.1 6.2 -0.7 7.2 -0.8 1.5 -0.5 2 1.1 2.4 2.2 0.6 3 4.5 0.9 4 -0.7 -0.1 -1.4 0.8 -1.6 2.1 -0.4 2.7 -2.2 2.9 -2.2 0.2 0 -1.2 -0.5 -1.7 -1.3 -1.4 -0.7 0.2 -2.3 -0.6 -3.6 -2 -1.7 -1.8 -2.1 -3 -1.5 -4.8 0.8 -2.4 0.7 -17 -0.2 -20 -0.4 -1.2 -1.5 -1.8 -3.5 -1.8 -3.6 0 -7.2 1.7 -6.4 3.1 0.4 0.5 0.1 0.9 -0.4 0.9 -0.6 0 -1.1 0.7 -1.1 1.5 0 0.8 -0.3 1.5 -0.7 1.6 -0.5 0 -2.7 0.2 -4.9 0.4 -2.3 0.2 -5.1 0.6 -6.3 1 -3 0.9 -2.6 -0.7 0.9 -3 1.6 -1.1 3.6 -3.8 4.4 -6 2.5 -6.4 7.7 -8.7 20.4 -9.3 9.2 -0.4 10.9 -0.2 14.7 1.7 3.3 1.6 4.5 2.9 5 5.2 0.4 1.7 2.3 4.9 4.2 7 2 2.2 4.9 6.7 6.5 10.1 1.6 3.3 4.2 7.6 5.9 9.5 1.6 1.9 3.2 4.8 3.6 6.4 0.8 4 6.8 8.3 18 13 2.5 1 2.9 1.6 2.1 2.7 -1.5 1.8 0.6 5.6 4 7.2 1.4 0.6 4.2 2.4 6.2 4 2 1.6 4.8 3.2 6.2 3.5 3.1 0.8 4.3 3.1 2.3 4.2 -1.1 0.6 -1.5 3.5 -1.6 11.6 -0.1 5.9 -0.6 11 -1.1 11.3 -0.4 0.3 -0.8 1.3 -0.8 2.3 0 3.5 -2.5 7.1 -5.8 8.2 -1.8 0.6 -3.8 2.2 -4.4 3.5 -0.6 1.3 -2.3 2.6 -3.9 2.9 -1.5 0.4 -4.5 2 -6.5 3.6 -2 1.6 -4 2.9 -4.4 2.9 -0.4 0 -2.1 1.4 -3.9 3 -1.7 1.7 -4.9 3.7 -7.1 4.6 -2.6 1.1 -4.8 3 -6.6 5.7 -1.4 2.3 -4.4 5.3 -6.5 6.7 -2.1 1.3 -3.9 3 -3.9 3.8 0 0.8 -1.1 2.7 -2.5 4.4 -1.4 1.6 -2.5 3.5 -2.5 4.3 0 0.7 -1.5 2.4 -3.4 3.9 -1.9 1.4 -3.7 3.5 -4.1 4.5 -0.3 1 -1.7 2.2 -3.1 2.5 -1.4 0.4 -3.6 1.8 -4.9 3.2 -2.1 2.2 -3.3 2.6 -10.7 2.9 -7.1 0.4 -8.5 0.2 -9.5 -1.3z"/>
  <path d="M129.1 129.3 c2 -4 2.9 -7.3 2.9 -10.6 0 -3.5 0.4 -4.7 1.3 -4.4 3.4 1.1 -2.6 20.7 -6.4 20.7 -0.4 0 0.6 -2.6 2.2 -5.7z"/>
  <path d="M144.8 122.4 c-0.5 -0.4 -0.8 -1.9 -0.8 -3.3 0.1 -2.3 0.2 -2.4 1.1 -0.8 1.1 1.9 0.9 5.3 -0.3 4.1z"/>
  <path d="M19 121.1 c-3 -0.8 -5.5 -5.6 -6.3 -12.2 -0.8 -5.9 1.4 -8.6 5.7 -6.9 1.5 0.5 4.3 1 6.2 1 4.1 0 4.5 2 0.9 4.4 -1.4 0.9 -2.3 2.1 -2 2.6 0.3 0.4 -0.1 1 -0.7 1.2 -0.8 0.3 -1.3 2.3 -1.2 5.6 0 2.9 0 5.2 0 5.1 -0.1 -0.1 -1.2 -0.4 -2.6 -0.8z"/>
  <path d="M48.6 116.6 c0.6 -1.6 3.4 -2.9 4.3 -2 0.6 0.6 -2.7 3.4 -4.1 3.4 -0.4 0 -0.5 -0.6 -0.2 -1.4z"/>
  <path d="M25.3 111.4 c-0.4 -1 0.6 -2.6 2.6 -4.4 2.9 -2.7 3.1 -2.7 3.1 -0.8 0 1.1 -1.1 3.1 -2.5 4.4 -2.2 2 -2.7 2.1 -3.2 0.8z"/>
  <path d="M158 108.8 c0 -1.9 0.2 -2 1 -0.8 1.3 1.9 1.3 3 0 3 -0.5 0 -1 -1 -1 -2.2z"/>
  <path d="M162.3 108.3 c-0.7 -0.2 -1.3 -1.2 -1.3 -2 0 -0.9 -0.6 -1.3 -1.5 -0.9 -0.9 0.3 -1.5 0 -1.5 -0.8 0 -0.7 1.4 -1.6 3.1 -2 4.7 -0.9 5.6 -0.7 3.5 0.9 -1.7 1.3 -1.8 1.5 -0.3 1.5 1.9 0 2 0.2 1.1 2.4 -0.6 1.7 -1.1 1.8 -3.1 0.9z"/>
  <path d="M24.5 101 c-1.5 -0.7 -0.9 -0.9 2.5 -0.9 3.3 -0.1 4.1 0.2 3 0.9 -1.8 1.2 -2.8 1.2 -5.5 0z"/>
  <path d="M85.3 98.3 c-0.7 -0.2 -1.3 -0.9 -1.3 -1.3 0 -1.9 4.5 -5 7.2 -5 2.5 0 2.8 0.3 2.8 3.5 0 2.4 -0.5 3.5 -1.5 3.5 -1.8 0 -2 -1.6 -0.2 -2.3 1.5 -0.7 -1.1 -2.7 -3.3 -2.6 -1 0.1 -0.9 0.3 0.3 0.6 1.1 0.3 1.6 1 1.3 2 -0.3 0.8 -0.6 1.7 -0.6 1.9 0 0.5 -3.2 0.4 -4.7 -0.3z"/>
  <path d="M17 94.8 c0 -4.2 2 -8.2 4.4 -8.6 1.6 -0.3 1.8 0 1.2 2.4 -2.2 8.5 -5.6 12.3 -5.6 6.2z"/>
  <path d="M150 94.4 l-2.5 -1.5 2.5 0.5 c1.4 0.3 4 0.6 5.8 0.6 1.7 0 3.2 0.5 3.2 1 0 1.5 -6.2 1.1 -9 -0.6z"/>
  <path d="M150.8 83.3 c1.2 -0.2 3.2 -0.2 4.5 0 1.2 0.2 0.2 0.4 -2.3 0.4 -2.5 0 -3.5 -0.2 -2.2 -0.4z"/>
  <path d="M30.5 80 c1 -1.1 2.3 -2 2.8 -2 0.6 0 0.2 0.9 -0.8 2 -1 1.1 -2.3 2 -2.8 2 -0.6 0 -0.2 -0.9 0.8 -2z"/>
  <path d="M49 78.6 c0 -0.7 0.6 -1.8 1.3 -2.5 1 -1.2 0.8 -1.3 -0.8 -0.6 -4.5 1.7 -5.2 1.6 -5.8 -0.4 -0.4 -1.6 -1.3 -2.1 -3.6 -2.1 -1.7 0 -3.1 -0.4 -3.1 -0.8 0 -1.5 2.4 -3.2 4.4 -3.2 1.2 0 3.4 -0.7 4.9 -1.5 1.5 -0.8 4.5 -1.7 6.5 -2.1 2 -0.4 5.1 -1.7 6.9 -3 2.8 -2.1 5.3 -3.1 5.3 -2.1 0 0.9 -7.8 8.7 -8.6 8.7 -1.6 0 -3.3 2.2 -2.7 3.6 0.2 0.7 1.1 1 2 0.7 1.1 -0.4 1.4 0 1.1 1.7 -0.2 1.5 -1.4 2.6 -4 3.5 -2.9 0.9 -3.8 1 -3.8 0.1z"/>
  <path d="M25.5 78 c-1.9 -0.7 -1.9 -0.7 0.3 -1.9 1.3 -0.7 3 -1.1 3.9 -0.9 1.3 0.3 1.2 0.5 -0.3 1.9 -1.2 1.1 -2.6 1.4 -3.9 0.9z"/>
  <path d="M142.6 69.8 c-0.9 -1.2 -1.6 -2.6 -1.6 -3.1 0 -0.5 -1.4 -2.9 -3.2 -5.5 l-3.2 -4.6 4.2 3.4 c2.4 1.9 4.5 4.5 4.8 5.9 0.3 1.4 0.8 3.4 1.1 4.4 0.6 2.3 -0.3 2.1 -2.1 -0.5z"/>
 </g>
 <g fill="#ffffcd">
  <path d="M88.2 148 c-3.4 -1.6 -6.9 -2.7 -7.8 -2.3 -1.8 0.7 -5.9 -2.9 -8.1 -7.1 -0.8 -1.5 -3.3 -4.9 -5.6 -7.3 -5.2 -5.7 -8.6 -16.3 -5.2 -16.3 0.9 0 3.5 -1.8 5.9 -4 2.4 -2.2 4.9 -4 5.7 -4 2 0.1 5.5 3.3 6.3 5.7 0.4 1.2 1.3 2.7 2.1 3.3 1.3 1.1 1.5 0.6 1.5 -2.7 0 -3.1 -0.7 -4.6 -3.3 -7.1 -3 -3 -3.8 -3.2 -10 -3.2 -6.7 0 -6.9 0.1 -11.7 4.6 -2.8 2.6 -5 5.5 -5 6.5 0 1 -1.3 2.5 -2.8 3.3 -1.6 0.8 -3.4 2.2 -4.1 3 -2.3 2.7 -7.4 2 -10.7 -1.5 -1.6 -1.7 -4.4 -3.7 -6.2 -4.4 -4.6 -2 -5.1 -4.1 -1.4 -7.4 1.6 -1.6 3.8 -3.1 4.7 -3.4 2.6 -1.1 0.6 -3 -2.5 -2.4 -4.3 0.9 -7 -0.2 -7 -2.8 0 -3.1 5.5 -16.5 7.7 -18.6 3.3 -3.2 9.1 -2.9 9.1 0.4 0 1.2 0.2 3.1 0.5 4.2 0.3 1.1 0.6 2.3 0.6 2.7 0.1 0.3 1.6 1.5 3.4 2.7 3.1 1.9 3.8 1.9 13 0.8 5.3 -0.7 10.2 -1.8 10.9 -2.5 0.9 -0.9 0.5 -1.2 -2 -1.2 -2.1 0 -3.5 -0.6 -4.2 -2 -0.6 -1.1 -1.9 -2 -2.9 -2 -1 0 -2.4 -0.7 -3.1 -1.5 -0.7 -0.8 -2.5 -1.5 -4.1 -1.5 -6 0 -2.2 -5 5.3 -7.1 2.2 -0.5 4.5 -2.1 5.5 -3.6 1 -1.5 3.8 -4.7 6.3 -7.2 5.1 -5.3 10 -12 10 -13.9 0 -2.2 8.1 -10.2 10.4 -10.2 3.6 0 4.8 3.3 4 11.4 -0.4 5 -0.3 7.5 0.5 8 0.6 0.4 1.1 1.6 1.1 2.7 0 1.1 0.7 1.9 1.7 1.9 2.2 0 12.3 10.4 12.3 12.7 0 3.6 2.8 6.2 7.5 6.9 4.8 0.7 7.5 -0.5 7.5 -3.3 0 -1.2 -0.8 -1.3 -3.9 -0.8 -4.6 0.8 -7.1 -1.2 -7.1 -5.6 0 -1.6 -0.7 -4 -1.5 -5.3 -2.1 -3.1 -2.3 -9.3 -0.4 -13.4 1.2 -2.8 1.8 -3.2 4.9 -3 3.2 0.3 3.5 0 3.8 -2.5 0.2 -1.9 0.9 -2.7 2.2 -2.7 2.6 0 22 19.5 22 22.1 0 3.4 1.8 5.7 5 6.4 2.1 0.5 3.9 1.9 5.5 4.6 1.4 2.1 2.5 4.3 2.5 4.8 0 0.6 -3 1.1 -6.7 1.3 -6.2 0.3 -6.8 0.5 -7.1 2.6 -0.2 1.5 -1 2.2 -2.6 2.2 -1.2 0 -3.1 0.7 -4.2 1.5 -1 0.8 -3.4 1.5 -5.2 1.5 -2.2 0 -3.2 0.4 -3 1.3 0.7 1.8 3.7 2.1 6.4 0.6 1.7 -0.9 5.3 -1 12.9 -0.6 8.7 0.6 11.1 1.1 13.8 2.9 6.8 4.8 6.5 6.7 -1.6 9.2 -1.5 0.5 -1.6 0.9 -0.7 2.6 1.6 3 -4.5 15.1 -8.3 16.4 -4 1.5 -7.1 -1.7 -6.3 -6.5 0.5 -3.1 0.1 -4 -3.5 -7.7 -3.2 -3.4 -4.5 -4.1 -6.5 -3.6 -1.4 0.4 -3.3 0 -4.7 -0.8 -1.2 -0.8 -5.9 -1.8 -10.4 -2.1 -7.7 -0.6 -8.4 -0.5 -11.2 1.8 -1.6 1.4 -3.2 3.6 -3.5 5 -0.4 1.4 -1.1 2.5 -1.6 2.5 -1.3 0 -1.3 4.7 0 5.5 0.6 0.3 1 2.1 1 4 0 4 1 4.8 4.5 3.9 2.8 -0.7 3.4 -4 1.3 -7.4 -1.1 -1.7 -0.8 -2.4 1.7 -5 2.6 -2.7 3.5 -3 8.8 -3 3.2 0 7.1 0.6 8.5 1.4 1.5 0.8 3.5 1.7 4.4 2 2 0.6 1.8 3.4 -0.7 11.6 -2.2 6.9 -4.7 9.9 -6.9 8.1 -2.2 -1.8 -9.6 4.3 -9.6 7.9 0 4 -2.5 6.6 -7.4 7.9 -7.7 1.9 -13.5 1.4 -20.4 -1.9z m21.3 -2.4 c2.7 -1.2 3.5 -2.1 3.5 -4.1 0 -3.6 7.4 -10.7 11.9 -11.5 3.1 -0.5 3.7 -1.1 5.3 -5.5 2.3 -6.3 2.3 -7.5 0 -7.5 -1 0 -2.7 -0.7 -3.8 -1.5 -2.3 -1.8 -9.8 -2 -11.2 -0.2 -0.5 0.6 -1.1 4.1 -1.4 7.7 -0.3 5.3 -0.9 7.3 -3.2 10.3 -2.3 2.9 -3.5 3.7 -5.5 3.5 -2.5 -0.3 -2.6 -0.7 -3.1 -7.3 -0.3 -3.8 -1.1 -8 -1.8 -9.2 -1.8 -3.2 -1.5 -7.1 0.8 -10 1.1 -1.4 2 -3.2 2 -3.9 0 -1.8 7 -6.4 9.7 -6.4 1.6 0 2.3 -0.6 2.3 -1.9 0 -1.1 2 -3.6 4.5 -5.7 3.6 -2.9 5.3 -3.6 8.7 -3.6 2.3 0.1 5.1 -0.6 6.2 -1.4 1.1 -0.8 2.8 -1.4 3.8 -1.4 1 0 1.8 -0.9 2 -2.2 0.2 -1.9 1 -2.4 4.6 -2.6 5.4 -0.4 5.7 -3.1 0.8 -6 -2.6 -1.5 -3.7 -3 -4.2 -5.6 -0.5 -2.7 -2.7 -5.8 -9.1 -12.3 -9.2 -9.4 -12.3 -10.1 -6.9 -1.6 4 6.4 5.5 14.2 3.2 17.5 -0.9 1.2 -1.3 3.2 -1 4.7 0.4 1.9 -0.1 3.2 -2 5 -2.3 2.1 -3.1 2.3 -8.3 1.7 -6.3 -0.7 -9.7 -3.1 -10.8 -7.4 -0.8 -3.4 -8.3 -11.2 -10.7 -11.2 -3 0 -6.1 -8.5 -5.5 -15.5 0.5 -6 0.1 -8.5 -1.1 -8.5 -1.7 0 -7.2 5.8 -8.5 9 -1.3 3.1 -8.2 11.9 -14.9 19 -1.4 1.4 -3.5 4 -4.8 5.8 -2.1 2.8 -2.2 3.4 -1 4.2 0.8 0.5 2.5 1 3.8 1 1.3 0 2.2 0.6 2.2 1.5 0 0.8 0.9 1.5 2 1.5 2.5 0 11.2 -8.9 10.5 -10.8 -0.8 -2.1 1.3 -5.2 3.5 -5.2 3.4 0 4.3 3.5 2.5 9 -0.9 2.8 -2.2 5.3 -2.9 5.7 -0.7 0.5 -1.8 1.8 -2.5 3 -0.6 1.3 -2.4 2.6 -3.9 2.9 -1.5 0.4 -4.3 1.5 -6.2 2.5 -2.3 1.1 -7.2 2 -14.2 2.4 l-10.7 0.7 -4.1 -3.2 c-2.2 -1.7 -4 -4 -4 -5 0 -5.9 -5.9 -1.1 -8 6.6 -1.4 4.9 -0.8 6.4 2.1 5.7 1.1 -0.3 3.1 0 4.4 0.7 1.6 0.8 4.6 1.1 8.9 0.8 6.9 -0.6 10.3 0.6 8.7 3 -1 1.7 -7.2 3.1 -13.3 3.2 -3.5 0 -5.4 0.6 -7.5 2.4 l-2.8 2.4 3.5 1.5 c1.9 0.8 4.5 2.6 5.7 4.1 1.3 1.4 2.7 2.6 3.2 2.6 2 0 8.5 -5.1 8.7 -6.8 0.2 -0.9 2.6 -3.8 5.4 -6.3 4.2 -3.9 5.9 -4.7 10.3 -5.3 10.3 -1.2 11.9 -0.9 16.5 3.5 2.3 2.2 4.2 4.4 4.2 4.9 0 0.6 1.8 1 4 1 3.3 0 4.2 0.4 4.9 2.2 1.1 3 0.5 17.2 -0.8 19.7 -1.5 2.7 -1.4 12.4 0.1 13.9 1.7 1.7 11.1 1.5 15.3 -0.2z m-21.5 -5.7 c-0.5 -4 -0.4 -7.1 0.6 -15.7 0.4 -4.2 0.3 -6.7 -0.4 -7.4 -0.8 -0.8 -1.2 -0.7 -1.5 0.3 -0.3 0.8 -1 3.4 -1.8 5.9 -0.7 2.5 -1.6 4.9 -2.1 5.5 -1.5 1.7 -4.1 -2.3 -4.4 -6.7 -0.2 -5.3 -1.9 -9.7 -4 -10.5 -0.9 -0.3 -2.7 0.6 -4.7 2.4 -1.8 1.7 -4 3.3 -5 3.6 -1.6 0.6 -1.7 0.9 -0.2 3.6 0.8 1.7 1.5 3.8 1.5 4.9 0 1 1.2 2.9 2.6 4.3 1.4 1.3 3.7 4.3 5.1 6.7 2.5 4.2 3.1 4.6 6.5 4.3 1 -0.1 2.8 0.5 4 1.3 3.2 2.3 4.4 1.5 3.8 -2.5z m66.1 -25 c2.5 -5.1 2.4 -6.1 -1.1 -8.4 -3.8 -2.5 -3.7 -5.9 0.1 -6.3 1.4 -0.2 3.1 0.4 3.9 1.2 1.5 1.9 5 2.1 5 0.4 0 -0.7 -1.1 -2.1 -2.5 -3 -2.9 -2.2 -21.8 -3.8 -22.9 -1.9 -0.9 1.3 -7 1.5 -9.5 0.1 -1.8 -0.9 -6.1 1.1 -6.1 3 0 0.8 6.3 1.9 13.5 2.3 3.3 0.2 5 1.1 9.3 5.2 4.9 4.5 5.3 5.2 4.7 8.2 -1.2 6.8 1.9 6.3 5.6 -0.8z m-78.6 -30 c1.1 -1.7 0 -2 -2.1 -0.4 -1.7 1.3 -1.7 1.4 -0.2 1.5 0.9 0 2 -0.5 2.3 -1.1z m5.5 -6.6 c0 -1.4 -0.2 -1.4 -2 0.2 -1.1 1 -2 2.2 -2 2.7 0 0.5 0.9 0.4 2 -0.2 1.1 -0.6 2 -1.8 2 -2.7z m38.4 -4.9 c2.1 -2 2 -5.8 -0.1 -9 -1.3 -2.1 -1.4 -3 -0.5 -4.5 2 -3.1 1.4 -4.8 -2 -5.7 -1.8 -0.5 -3.7 -0.7 -4.2 -0.4 -1.2 0.6 0 8.6 1.9 12.2 0.8 1.6 1.5 4 1.5 5.3 0 2 0.7 3.7 1.6 3.7 0.1 0 1 -0.7 1.8 -1.6z m6.9 -6.4 c-0.1 -3.2 -1.7 -5.9 -2.8 -4.8 -0.3 0.3 -0.3 2.4 0.1 4.7 0.8 4.9 3 5 2.7 0.1z"/>
  <path d="M93.3 99.3 c-2.3 -0.4 -3.3 -2.3 -1.3 -2.3 1.8 0 1 -1.9 -1.1 -2.5 -2.4 -0.8 -4.2 1.1 -3.4 3.4 0.4 0.9 0 1.1 -1.1 0.7 -0.8 -0.3 -1.8 -0.6 -2 -0.6 -1.2 0 -0.1 -2.2 2.3 -4.5 3 -2.7 4.3 -3 7.1 -1.6 0.9 0.5 3.5 1.3 5.6 1.8 4.5 0.9 5.4 2.3 3.1 4.7 -1.6 1.5 -4.4 1.8 -9.2 0.9z"/>
  <path d="M89.8 86.5 c-0.3 -0.3 -0.1 -2.2 0.3 -4.3 0.5 -2 1.1 -4.9 1.4 -6.4 0.4 -2.2 1.1 -2.8 3 -2.8 2 0 2.5 0.5 2.5 2.4 0 1.4 0.5 2.8 1 3.1 1.9 1.2 1 4.1 -2 6.3 -2.8 2.1 -5.1 2.7 -6.2 1.7z"/>
 </g>
 <g fill="#ffffc1">
  <path d="M88.2 148 c-3.4 -1.6 -6.9 -2.7 -7.8 -2.3 -1.8 0.7 -5.9 -2.9 -8.1 -7.1 -0.8 -1.5 -3.3 -4.9 -5.6 -7.3 -5.2 -5.7 -8.6 -16.3 -5.2 -16.3 0.9 0 3.5 -1.8 5.9 -4 2.4 -2.2 4.9 -4 5.7 -4 2 0.1 5.5 3.3 6.3 5.7 0.4 1.2 1.3 2.7 2.1 3.3 1.3 1.1 1.5 0.6 1.5 -2.7 0 -3.1 -0.7 -4.6 -3.3 -7.1 -3 -3 -3.8 -3.2 -10 -3.2 -6.7 0 -6.9 0.1 -11.7 4.6 -2.8 2.6 -5 5.5 -5 6.5 0 1 -1.3 2.5 -2.8 3.3 -1.6 0.8 -3.4 2.2 -4.1 3 -2.3 2.7 -7.4 2 -10.7 -1.5 -1.6 -1.7 -4.4 -3.7 -6.2 -4.4 -3.9 -1.7 -5 -4.1 -3 -6.2 1.4 -1.3 1.5 -1.2 1.1 0.9 -0.4 2 0.1 2.7 2.8 3.8 1.7 0.8 4.7 2.9 6.5 4.7 3.7 3.6 5.5 4.1 7.4 1.7 0.8 -0.8 2.8 -2.1 4.7 -2.9 2.1 -0.9 3.1 -1.9 2.7 -2.8 -0.8 -2.2 9.4 -11.7 12.7 -11.7 1.4 0 4.7 -0.3 7.2 -0.6 4.2 -0.6 4.7 -0.4 9.1 3.6 4.2 3.9 4.6 4.7 4.6 8.9 0 2.6 -0.4 5.1 -0.9 5.6 -0.5 0.6 -1.1 2.1 -1.3 3.4 -0.1 1.4 -0.9 2.7 -1.7 2.9 -1.1 0.4 -1.3 -0.3 -0.8 -3.1 0.4 -2.4 0 -4.7 -1.3 -7.2 -3.8 -7.5 -6.3 -8.3 -10.3 -3.5 -1.4 1.7 -3.7 3.4 -5.2 4 -2.5 0.9 -2.5 1.1 -1 3.9 0.8 1.7 1.5 3.7 1.5 4.6 0 0.8 1.9 3.9 4.3 6.9 2.3 2.9 5.5 7 7 9 2 2.6 3.4 3.5 4.6 3.1 1 -0.3 4.8 0.8 8.4 2.5 7.3 3.3 14 3.8 21.2 1.7 3.5 -1.1 4 -1.7 4.7 -5.2 1 -4.7 8.1 -12 10.7 -10.9 3.6 1.5 4.4 0.8 6.5 -5.6 1.1 -3.6 2 -7.3 1.8 -8.1 -0.4 -2.3 -8.1 -5.4 -13.5 -5.4 -3.9 0 -5.3 0.5 -6.8 2.3 -1.5 1.9 -1.6 2.8 -0.8 4.4 1.3 2.4 0.2 9.8 -1.6 10.4 -0.7 0.3 -1.6 1.7 -1.9 3 -0.5 1.9 -1.2 2.5 -2.9 2.2 -2 -0.3 -2.2 -1 -2.7 -7.5 -0.3 -4 -1.1 -7.8 -1.7 -8.5 -1.9 -1.8 -1.6 -5.3 0.7 -7.3 1.1 -1 2 -2.4 2 -3.1 0 -0.7 1.2 -2.5 2.7 -3.9 2.5 -2.3 3.6 -2.5 11.3 -2.5 5.5 0 9.5 0.5 11.3 1.5 1.5 0.8 4 1.2 5.5 0.9 2.2 -0.4 3.5 0.3 7.6 4.5 4.7 4.8 4.9 5.1 3.6 8 -1 2.5 -1 3.4 0 4.6 2.1 2.6 4.8 1.7 7.3 -2.2 4.3 -7.1 4.9 -9.2 3.5 -12.4 -0.7 -1.6 -1.9 -2.9 -2.5 -2.9 -0.7 0 -1.3 -0.4 -1.3 -1 0 -0.5 0.4 -1 0.9 -1 0.6 0 1.3 0.5 1.6 1 0.7 1.1 4.5 1.3 6.9 0.4 2.6 -1 1.8 -3 -2.3 -5.8 -3.7 -2.6 -4.3 -2.7 -14.2 -2.3 -5.7 0.2 -11.6 0.8 -13.1 1.2 -2 0.5 -3.4 0.1 -5.7 -1.6 -3.8 -2.8 -2.6 -4.9 3 -4.9 2.1 0 4.1 -0.4 4.4 -1 0.3 -0.5 1.7 -1 3.1 -1 1.7 0 2.7 -0.8 3.4 -2.5 1 -2.7 1.2 -2.8 8.3 -2.5 4.8 0.2 5.9 -0.8 3.2 -3 -0.8 -0.7 -1.5 -1.8 -1.5 -2.5 0 -0.8 -1.7 -2.2 -3.7 -3.2 -3.1 -1.4 -3.9 -2.5 -4.4 -5.3 -0.4 -2.8 -2.5 -5.5 -9.7 -12.8 -5.1 -5.1 -9.9 -9.2 -10.7 -9.2 -1 0 -1.5 1 -1.5 3 0 3.2 -0.6 3.4 -5.9 2.4 -4.4 -0.9 -3.9 -2.5 0.7 -2.2 3.4 0.3 3.7 0.1 4 -2.5 0.2 -1.9 0.9 -2.7 2.2 -2.7 2.6 0 22 19.5 22 22.1 0 3.4 1.8 5.7 5 6.4 2.1 0.5 3.9 1.9 5.5 4.6 1.4 2.1 2.5 4.3 2.5 4.8 0 0.6 -3 1.1 -6.7 1.3 -6.2 0.3 -6.8 0.5 -7.1 2.6 -0.2 1.5 -1 2.2 -2.6 2.2 -1.2 0 -3.1 0.7 -4.2 1.5 -1 0.8 -3.4 1.5 -5.2 1.5 -2.2 0 -3.2 0.4 -3 1.3 0.7 1.8 3.7 2.1 6.4 0.6 1.7 -0.9 5.3 -1 12.9 -0.6 8.7 0.6 11.1 1.1 13.8 2.9 6.8 4.8 6.5 6.7 -1.6 9.2 -1.5 0.5 -1.6 0.9 -0.7 2.6 1.6 3 -4.5 15.1 -8.3 16.4 -4 1.5 -7.1 -1.7 -6.3 -6.5 0.5 -3.1 0.1 -4 -3.5 -7.7 -3.2 -3.4 -4.5 -4.1 -6.5 -3.6 -1.4 0.4 -3.3 0 -4.7 -0.8 -1.2 -0.8 -5.9 -1.8 -10.4 -2.1 -7.7 -0.6 -8.4 -0.5 -11.2 1.8 -1.6 1.4 -3.2 3.6 -3.5 5 -0.4 1.4 -1.1 2.5 -1.6 2.5 -1.3 0 -1.3 4.7 0 5.5 0.6 0.3 1 2.1 1 4 0 4 0.6 4.5 4.3 3.8 3 -0.6 3.7 -3.8 1.5 -7.3 -1.1 -1.7 -0.8 -2.4 1.7 -5 2.6 -2.7 3.5 -3 8.8 -3 3.2 0 7.1 0.6 8.5 1.4 1.5 0.8 3.5 1.7 4.4 2 2 0.6 1.8 3.4 -0.7 11.6 -2.2 6.9 -4.7 9.9 -6.9 8.1 -2.2 -1.8 -9.6 4.3 -9.6 7.9 0 4 -2.5 6.6 -7.4 7.9 -7.7 1.9 -13.5 1.4 -20.4 -1.9z"/>
  <path d="M89.7 140.3 c-0.4 -0.3 -0.7 -2.6 -0.7 -5 0 -3.2 0.4 -4.3 1.5 -4.3 1.1 0 1.5 1.2 1.5 5 0 4.6 -0.7 6 -2.3 4.3z"/>
  <path d="M91 123.8 c0 -4.2 -0.5 -7.1 -1.6 -8.7 -1.9 -2.6 -0.8 -4.5 2.2 -3.9 1.7 0.3 1.9 1.4 1.9 9.2 0 6.3 -0.4 9.1 -1.2 9.4 -1 0.3 -1.3 -1.3 -1.3 -6z"/>
  <path d="M29.5 105.7 c0.4 -0.8 1.6 -1.7 2.7 -2 3.1 -0.8 1.1 -3 -2.2 -2.4 -4.3 0.9 -7 -0.2 -7 -2.8 0 -3.1 5.5 -16.5 7.7 -18.6 3.3 -3.2 9.1 -2.9 9.1 0.4 0 1.2 0.2 3.1 0.5 4.2 0.3 1.1 0.6 2.3 0.6 2.7 0.1 0.3 1.6 1.5 3.4 2.7 3.1 1.9 3.8 1.9 13 0.8 5.3 -0.7 10.2 -1.8 10.9 -2.5 0.9 -0.9 0.5 -1.2 -2 -1.2 -2.1 0 -3.5 -0.6 -4.2 -2 -0.6 -1.1 -1.9 -2 -2.9 -2 -1 0 -2.4 -0.7 -3.1 -1.5 -1.7 -2.1 -3.6 -1.9 -6.1 0.6 -2.1 2.1 -4 2.2 -4.6 0.2 -0.2 -0.6 0.5 -1.4 1.5 -1.7 1.1 -0.4 2.2 -1.5 2.5 -2.6 0.5 -1.8 2.3 -2.9 9.9 -5.9 1.5 -0.5 3.8 -2.8 5.2 -4.9 1.3 -2.1 3.9 -5.1 5.6 -6.6 3.6 -3 9 -10.4 9 -12.4 0 -2.2 8.1 -10.2 10.4 -10.2 3.6 0 4.8 3.3 4 11.4 -0.4 5 -0.3 7.5 0.5 8 0.6 0.4 1.1 1.6 1.1 2.7 0 1.1 0.7 1.9 1.7 1.9 2.2 0 12.3 10.4 12.3 12.7 0 3.6 2.8 6.2 7.5 6.9 4.8 0.7 7.5 -0.5 7.5 -3.3 0 -1.2 -0.8 -1.3 -3.9 -0.8 -4.7 0.8 -7.1 -1.2 -7.1 -5.9 0 -1.7 -0.5 -3.7 -1.1 -4.3 -1.7 -1.7 -2.8 -8.1 -1.9 -11.1 0.7 -2.4 0.8 -2.1 0.9 1.8 0.1 2.5 0.7 5.7 1.5 7.1 0.7 1.4 1.6 4.3 2 6.3 0.8 4.3 2.7 5.4 6.3 3.7 2.3 -1.1 2.5 -1.6 1.9 -5.2 -0.3 -2.2 -1.2 -4.9 -1.9 -6 -1 -1.7 -0.9 -2.2 0.7 -3.5 2.9 -2.1 4.5 -1.7 5.6 1.2 1.8 4.6 1.2 10 -1.1 11.6 -1.9 1.2 -2 1.6 -0.8 3.6 2.3 3.7 0.2 5.6 -6.6 6 -4.8 0.3 -6.1 -0.1 -8.1 -1.9 -1.3 -1.2 -2.4 -3.2 -2.4 -4.3 0 -2.8 -9.2 -12.6 -11.8 -12.6 -1.2 0 -2.2 -0.8 -2.5 -2.3 -0.3 -1.2 -1.1 -3.7 -1.8 -5.4 -1.1 -2.7 -1.1 -4.1 -0.1 -8 1.2 -4.2 1.1 -4.8 -0.7 -6.6 -1.9 -1.9 -1.9 -1.9 -5.4 0.7 -1.9 1.5 -4.3 4.4 -5.3 6.4 -2 4.3 -3.9 6.9 -9.5 13.2 -8.5 9.6 -13.9 16.1 -13.9 16.8 0 1.5 2.4 3.2 4.6 3.2 1.4 0 2.5 0.8 2.9 2 0.7 2.2 1.3 2.4 4.7 1.1 3.2 -1.2 11.8 -10.2 11.8 -12.3 0 -2 1.5 -2.4 2.5 -0.8 1.2 1.9 -0.6 7 -3.6 10.3 -1.6 1.7 -2.9 3.5 -2.9 3.9 0 0.4 -1.2 1 -2.7 1.4 -1.6 0.4 -3.9 1.3 -5.2 2.1 -1.3 0.8 -7 2 -12.7 2.5 l-10.5 1.1 -3.6 -3 c-2.3 -1.8 -4.1 -4.3 -4.6 -6.4 -1.3 -5.3 -2.3 -5.6 -6.1 -1.6 -3.4 3.7 -6.6 11.1 -6.6 15.5 0 2.3 0.2 2.4 4.3 1.8 3.2 -0.5 4.7 -0.3 5.6 0.7 0.8 1.1 2.9 1.3 8.1 0.9 4.6 -0.3 7 -0.1 7 0.6 0 1.4 -2 1.9 -11 2.7 -4.1 0.4 -8.1 1.2 -8.8 1.8 -0.9 0.7 -1.1 0.6 -0.7 -0.6z m46 -20.8 c1.1 -1.7 0 -2 -2.1 -0.4 -1.7 1.3 -1.7 1.4 -0.2 1.5 0.9 0 2 -0.5 2.3 -1.1z m5.5 -6.6 c0 -1.4 -0.2 -1.4 -2 0.2 -1.1 1 -2 2.2 -2 2.7 0 0.5 0.9 0.4 2 -0.2 1.1 -0.6 2 -1.8 2 -2.7z m45.3 -11.3 c-0.1 -3.2 -1.7 -5.9 -2.8 -4.8 -0.3 0.3 -0.3 2.4 0.1 4.7 0.8 4.9 3 5 2.7 0.1z"/>
  <path d="M85.6 97.2 c-0.3 -0.5 0.1 -1.5 0.9 -2.2 1.6 -1.4 2 -0.3 0.6 1.9 -0.5 0.8 -1.1 0.9 -1.5 0.3z"/>
  <path d="M92 97.1 c1.6 -1.1 1.5 -1.3 -1.5 -2.9 -2 -1.1 -2 -1.1 0.1 -1.2 1.1 0 2.4 0.4 3 0.9 0.5 0.5 2.5 1.1 4.4 1.3 5.5 0.5 4.1 2.3 -2 2.6 -3.8 0.2 -5 -0.1 -4 -0.7z"/>
  <path d="M93.5 80 c-1.7 -1.9 -1.5 -5 0.4 -5 0.7 0 2.3 6 1.6 6.8 -0.1 0.1 -1 -0.7 -2 -1.8z"/>
  <path d="M64 60.5 c1.3 -1.4 2.7 -2.5 3.2 -2.5 0.5 0 -0.3 1.1 -1.8 2.5 -1.5 1.4 -2.9 2.5 -3.2 2.5 -0.3 0 0.5 -1.1 1.8 -2.5z"/>
 </g>
 <g fill="#ffab00">
  <path d="M97.3 187.3 c-4.7 -0.9 -2 -4.3 3.2 -4.3 1.4 0 2.9 -0.9 3.5 -1.9 0.5 -1.1 2.6 -2.5 4.5 -3.2 1.9 -0.7 3.7 -2.1 4.1 -3.1 0.3 -1 2.1 -3 4 -4.4 1.9 -1.5 3.4 -3.2 3.4 -3.9 0 -1.9 4.9 -7.5 6.6 -7.5 2 0 1.8 4.6 -0.4 6.7 -1 1 -2.3 3 -3 4.5 -0.6 1.5 -2.2 3.4 -3.6 4.3 -1.4 0.9 -3 3.1 -3.5 4.8 -0.9 2.5 -2.3 3.8 -6.9 6 -5.7 2.6 -7.3 2.9 -11.9 2z"/>
  <path d="M79.2 183.1 c-1.7 -1.7 -3.2 -3.6 -3.2 -4.3 0 -0.7 -0.3 -2.3 -0.6 -3.5 -0.7 -2.7 2 -3.3 3.4 -0.7 0.5 0.8 1.9 2.1 3.2 2.7 3.3 1.7 4.7 4.3 3.4 6.4 -1.6 2.6 -2.7 2.5 -6.2 -0.6z"/>
  <path d="M64.8 156 c-1.4 -1.6 -2.9 -3.8 -3.3 -4.9 -0.3 -1.2 -1.2 -2.1 -1.9 -2.1 -0.7 0 -2.8 -1.2 -4.7 -2.6 -3 -2.2 -6.3 -4 -15.9 -8.3 -1.4 -0.6 -5 -2.9 -8 -5.1 -3 -2.2 -6 -4 -6.6 -4 -1.5 0 -2.6 -2.8 -1.4 -3.5 1.2 -0.8 13.1 3.3 15.3 5.3 1 0.9 1.5 2.2 1.3 2.9 -0.3 0.7 0.1 1.3 0.9 1.3 0.8 0 4.4 1.6 8.1 3.5 3.6 1.9 7.2 3.5 8 3.5 0.8 0 3.1 2.5 5.2 5.6 6.8 10.3 8.1 13.9 3 8.4z"/>
  <path d="M127.7 158.3 c-1.4 -1.4 -0.6 -3.4 1.8 -4.5 1.4 -0.6 3.9 -3.3 5.5 -5.9 2.2 -3.3 4.3 -5.2 7 -6.3 2.2 -0.9 5.4 -2.9 7.1 -4.6 1.8 -1.6 3.5 -3 4 -3 0.4 0 2 -1.1 3.6 -2.4 1.5 -1.3 4.2 -2.6 5.8 -2.9 1.7 -0.3 4 -0.8 5.3 -1.2 1.6 -0.5 2.2 -0.3 2.2 0.8 0 0.9 -1.2 1.8 -2.9 2.2 -1.7 0.3 -4.7 2.5 -6.8 4.8 -2 2.3 -5.8 5.1 -8.3 6.3 -2.5 1.2 -5.6 3.3 -6.9 4.8 -1.4 1.4 -3.3 2.6 -4.2 2.6 -1 0 -2.4 1.1 -3.1 2.4 -0.7 1.4 -3 3.6 -5.1 5 -4.2 2.9 -4.1 2.9 -5 1.9z"/>
  <path d="M15 118 c-1.6 -2.2 -2 -4.1 -1.8 -7.7 l0.3 -4.8 2.1 4 c2.5 4.7 4 11.5 2.5 11.5 -0.5 0 -1.9 -1.3 -3.1 -3z"/>
  <path d="M180.3 113.3 c-1.8 -0.7 -1.6 -4.3 0.2 -4.3 1.8 0 3.1 2.8 1.9 3.9 -0.5 0.5 -1.5 0.6 -2.1 0.4z"/>
  <path d="M17.3 92.5 c0.4 -2.1 1.4 -4.6 2.3 -5.4 1.5 -1.5 1.6 -1.4 1 0.4 -0.4 1.1 -1 3.2 -1.3 4.8 -0.9 4.4 -2.7 4.6 -2 0.2z"/>
  <path d="M181.2 90.3 c-1.2 -0.2 -3 -1.6 -3.9 -2.9 -1.7 -2.6 -1 -4.5 0.9 -2.6 0.7 0.7 2.2 1.2 3.5 1.2 1.2 0 2.7 0.8 3.2 1.9 1 1.7 0.5 3.3 -0.8 3 -0.3 -0.1 -1.6 -0.4 -2.9 -0.6z"/>
  <path d="M37 72.2 c0 -1.4 2.3 -3.2 4.2 -3.2 1.7 0 1.7 0.1 -0.2 2 -2 2 -4 2.6 -4 1.2z"/>
  <path d="M160 71.1 c-0.5 -1.1 -1 -2.2 -1 -2.5 0 -1 2.7 -0.6 5.3 0.7 2 1.1 2.3 1.7 1.5 2.5 -1.8 1.8 -4.6 1.4 -5.8 -0.7z"/>
  <path d="M47.6 66.9 c0.2 -0.4 2.3 -1 4.6 -1.4 2.3 -0.4 6.4 -2.3 9.1 -4.1 5.3 -3.7 7.8 -4.5 4.9 -1.6 -2.5 2.5 -12.1 7 -15.9 7.5 -1.8 0.2 -3 0 -2.7 -0.4z"/>
  <path d="M142 54.2 c0 -0.5 -1.1 -1.4 -2.5 -2 -1.7 -0.8 -3.7 -3.6 -5.9 -8.2 -1.9 -3.9 -5 -8.8 -6.9 -10.9 -1.9 -2.1 -3.8 -5.2 -4.2 -6.9 -1 -4.8 -6.3 -7.1 -16.1 -6.8 -10.3 0.3 -16.4 2 -16.4 4.6 0 1.1 -0.8 2.7 -1.9 3.7 -1 1 -2.4 2.8 -3 4.1 -1 1.9 -1.5 2.1 -2.7 1.1 -1.3 -1 -1.2 -1.4 0.5 -3 1 -1 2.2 -3.2 2.6 -4.8 0.7 -3.5 6.7 -7.4 12.8 -8.5 2.1 -0.4 4.1 -1.4 4.4 -2.2 0.7 -1.8 5.6 -1.8 14.2 0.2 6.3 1.4 6.9 1.7 7.5 4.5 0.3 1.6 1.2 2.9 2 2.9 0.7 0 1.6 1 2 2.3 0.3 1.3 1.8 3.7 3.3 5.4 4.7 5.3 5.1 5.9 6.3 10.3 0.6 2.3 2.4 6.3 4.1 8.9 3.3 5.5 3.5 6.1 1.4 6.1 -0.8 0 -1.5 -0.4 -1.5 -0.8z"/>
 </g>
 <g fill="#ff7100">
  <path d="M106 184.4 c0 -1.6 1.2 -2.7 4.6 -4.3 2.5 -1.2 4.9 -2 5.2 -1.6 0.3 0.3 -0.2 2 -1 3.9 -1.3 2.7 -2.3 3.4 -5.2 3.8 -3.2 0.3 -3.6 0.1 -3.6 -1.8z"/>
  <path d="M79.2 183.1 c-1.7 -1.7 -3.2 -3.8 -3.2 -4.8 0.1 -1.7 0.2 -1.6 1.6 0.2 0.8 1.1 2.3 1.9 3.2 1.7 1.9 -0.3 4.6 3.3 3.7 4.8 -1 1.5 -1.8 1.2 -5.3 -1.9z"/>
  <path d="M55.3 146.8 c-3.8 -2.7 -4.3 -4.2 -1 -3.3 2.8 0.9 5 3 4.6 4.4 -0.3 0.7 -1.7 0.2 -3.6 -1.1z"/>
  <path d="M139 148.2 c0 -1.7 4.6 -5.1 6.8 -4.9 2.1 0.1 2.1 0.1 -0.5 2.9 -2.5 2.6 -6.3 3.8 -6.3 2z"/>
  <path d="M151 140.6 c0 -2 7.6 -7.4 8.7 -6.2 1 0.9 -2.7 5 -5.7 6.2 -2.4 1.1 -3 1.1 -3 0z"/>
  <path d="M31.8 133.4 c-4.6 -2.9 -4.8 -4.1 -0.8 -4.2 2.2 0 3.5 0.6 4.7 2.4 2.4 3.7 0.4 4.6 -3.9 1.8z"/>
  <path d="M14.2 117 c-0.7 -1.1 -1.2 -2.5 -1.2 -3.2 0.1 -0.7 0.8 0 1.6 1.5 1.8 3.3 1.4 4.6 -0.4 1.7z"/>
  <path d="M182.8 88.4 c-3.3 -1.7 -3.5 -2.4 -0.8 -2.4 1 0 2.4 0.9 3 2 1.3 2.4 1.3 2.3 -2.2 0.4z"/>
  <path d="M62.4 60.5 c2.1 -1.6 3.2 -1.3 2.1 0.4 -0.3 0.6 -1.4 1.1 -2.3 1.1 -1.5 -0.1 -1.5 -0.2 0.2 -1.5z"/>
  <path d="M141 50.9 c-1.9 -1.7 -3.4 -3.4 -3.2 -4 0.1 -0.5 -0.2 -0.9 -0.6 -0.9 -0.4 0 -1.4 -1.7 -2.1 -3.7 -1.4 -3.8 -1.9 -4.6 -6.3 -9.5 -1.5 -1.6 -3.2 -4.6 -3.9 -6.7 -1.3 -4.2 -3.6 -7.1 -5.6 -7.1 -0.7 0 -1.7 -0.8 -2 -1.7 -0.4 -1 -1.1 -2.1 -1.7 -2.5 -1 -0.7 4 -0.2 7 0.7 0.6 0.2 1.4 1.7 1.7 3.4 0.5 2.5 1.2 3.1 3.2 3.1 1.6 0 2.5 0.6 2.5 1.6 0 0.8 1.4 2.9 3.1 4.6 3.4 3.5 4.9 6.6 4.9 10.6 0 2.7 1.3 5.8 5.1 11.9 2.5 4 2.3 4 -2.1 0.2z"/>
  <path d="M82.9 29.9 c1 -1 2.2 -3.2 2.6 -4.9 0.4 -1.6 1.5 -3.5 2.6 -4 2.6 -1.4 2.5 0.4 -0.1 3.7 -1.1 1.4 -2 3.4 -2 4.3 0 1.1 -1 2 -2.5 2.3 -2.6 0.4 -2.6 0.4 -0.6 -1.4z"/>
  <path d="M104.8 16.3 c-4.5 -0.7 -2.3 -3.3 2.7 -3.3 4.6 0 6.8 1.6 4.4 3.1 -1.4 0.9 -2.4 0.9 -7.1 0.2z"/>
 </g>
 <g fill="#ff6300">
  <path d="M108.2 184.8 c0.3 -0.7 1.7 -1.4 3.2 -1.6 2 -0.3 2.7 0 2.4 1 -0.3 0.7 -1.7 1.4 -3.2 1.6 -2 0.3 -2.7 0 -2.4 -1z"/>
  <path d="M140.2 147.8 c0.3 -0.7 1.3 -1.5 2.2 -1.6 1.2 -0.3 1.7 0.1 1.4 1 -0.3 0.7 -1.3 1.5 -2.2 1.6 -1.2 0.3 -1.7 -0.1 -1.4 -1z"/>
  <path d="M30.4 132.6 c-1 -0.8 -1.6 -1.7 -1.3 -2 0.3 -0.3 1.4 0.1 2.5 0.8 1 0.8 1.6 1.7 1.3 2 -0.3 0.3 -1.4 -0.1 -2.5 -0.8z"/>
  <path d="M134 36.5 c-0.6 -1.9 -2.4 -4.5 -4 -5.7 -1.5 -1.3 -3.1 -3.8 -3.5 -5.6 -0.7 -3.3 -0.6 -3.3 2.6 -3 2.9 0.3 3.4 0.8 4 3.6 0.4 1.8 1.4 4.1 2.3 5.1 2.4 2.7 3.3 9.1 1.3 9.1 -0.9 0 -2 -1.5 -2.7 -3.5z"/>
  <path d="M105.3 13.3 c1.5 -0.2 3.7 -0.2 5 0 1.2 0.2 0 0.4 -2.8 0.4 -2.7 0 -3.8 -0.2 -2.2 -0.4z"/>
 </g>
</svg>