<?xml version="1.0" encoding="utf-8"?>
<!DOCTYPE svg PUBLIC "-//W3C//DTD SVG 20010904//EN" "http://www.w3.org/TR/2001/REC-SVG-20010904/DTD/svg10.dtd">
<svg version="1.0" xmlns="http://www.w3.org/2000/svg" width="200px" height="200px" viewBox="0 0 200 200" preserveAspectRatio="xMidYMid meet">
 <g fill="#ffffd8">
  <path d="M86 146.5 c-1.9 -0.7 -4.8 -1.4 -6.3 -1.4 -4.1 -0.1 -7.5 -2.3 -13.4 -8.3 -5.8 -5.9 -7.8 -11.3 -7.1 -19.3 0.2 -3.5 0 -4.4 -1 -4 -0.8 0.3 -1.5 0.5 -1.8 0.5 -0.2 0 -1.3 1.8 -2.4 3.9 -2.7 5.4 -6.4 8.1 -11.1 8.1 -3.3 0 -4.6 -0.8 -9.4 -5.5 -5.5 -5.3 -5.6 -5.6 -5.4 -10.5 0.2 -2.7 0 -5.3 -0.4 -5.6 -1.2 -1.3 -0.7 -14.4 0.7 -17.7 2.4 -5.6 5.9 -8 12.4 -8.5 5.7 -0.4 5.9 -0.4 7.1 2.6 1.5 3.5 4.8 6.8 5.8 5.8 0.4 -0.3 0.1 -1.2 -0.5 -1.8 -0.7 -0.7 -1.2 -3.1 -1.2 -5.3 0 -3.7 0.7 -4.9 5.7 -10.5 3.2 -3.5 5.7 -7.1 5.8 -8.1 0 -2.7 7 -10.6 11.1 -12.5 1.9 -0.9 5.4 -3.9 7.6 -6.6 4.5 -5.3 8.8 -7.2 15.3 -6.6 l4 0.3 0.6 7 c0.4 3.9 1.8 9.9 3.2 13.5 l2.6 6.5 0.1 -6.7 c0 -5.8 0.3 -6.9 2.3 -8.5 1.3 -1 2.9 -2.8 3.6 -4.1 0.9 -1.7 2.1 -2.2 5 -2.2 3.4 0 4.2 0.6 8.6 6 2.6 3.3 5.4 6 6 6 1.4 0 2.5 4.4 2.5 9.7 0 2.4 1.1 4.8 3.5 8.1 2.8 3.6 3.5 5.4 3.3 8.1 -0.3 3 -0.8 3.6 -3.5 4.3 -5.9 1.5 -4.7 2.8 2.4 2.8 5.9 0 7.6 0.4 11.4 2.8 7.7 5 7.5 4.4 5.2 20.2 -1.1 7 -1.7 8 -5.5 8 -4.9 0 -9.7 -3 -13.9 -8.7 -3.3 -4.5 -4.5 -5.3 -7.1 -5.3 l-3.2 0 2.7 2.8 c3 3.2 3.4 6.7 1.6 15.4 -1.4 6.3 -2.2 7.5 -5.9 8.3 -4.4 1 -11 7.6 -11 11.1 0 1.6 -0.4 3.5 -0.9 4.3 -1.9 3 -22.6 4.1 -29.1 1.6z"/>
 </g>
 <g fill="#ffffb4">
  <path d="M77.5 161.8 c-4.7 -5 -10.1 -11.7 -12.1 -14.9 -1.9 -3.3 -4.1 -6 -4.7 -6 -0.7 -0.1 -2.8 -0.2 -4.7 -0.4 -4.9 -0.3 -17.1 -4.8 -21.6 -7.9 -2.1 -1.4 -4.5 -2.6 -5.4 -2.6 -1.8 -0.1 -5.9 -3 -4.2 -3 1.9 0 0.3 -2.6 -2.5 -4.1 -2.4 -1.3 -2.5 -1.6 -1.9 -7.5 0.5 -4.8 0.3 -6.8 -1.1 -9.1 -1.6 -2.9 -1.6 -3.1 0.6 -5.4 1.6 -1.7 2.1 -3.2 1.7 -5.1 -0.3 -1.5 -0.1 -3 0.4 -3.3 0.6 -0.3 1 -1.5 1 -2.6 0 -1.1 1 -2.3 2.3 -2.8 1.2 -0.5 2.9 -2.1 3.6 -3.5 0.8 -1.4 2 -2.6 2.7 -2.6 0.6 0 1.4 -0.9 1.7 -1.9 0.3 -1.3 1.7 -2.2 4.2 -2.7 2 -0.3 4.7 -1.6 5.9 -2.8 1.2 -1.1 4.6 -3.4 7.6 -4.9 6.4 -3.2 9.1 -5.5 14.4 -11.9 2.1 -2.6 4.3 -4.5 4.9 -4.1 0.5 0.3 0.7 0.1 0.3 -0.5 -0.3 -0.6 0.4 -1.9 1.7 -2.9 1.2 -1 3.1 -3.7 4.1 -6 1 -2.3 2.2 -4 2.6 -3.8 0.5 0.3 1.1 -1.9 1.5 -4.7 0.8 -6 2.5 -7.7 7.3 -7.8 2.4 0 4.2 -0.9 6.4 -3 2.5 -2.6 3.7 -3 8.4 -3 4.6 0 5.6 0.3 7 2.5 1.4 2.2 2.3 2.5 7.4 2.5 9 0 10.5 1 14.5 9.1 2 4.1 3.5 8.8 3.5 10.8 0 8.9 1.3 13.9 4.1 17.1 1.6 1.7 3.6 4.4 4.3 5.9 0.8 1.5 3.3 4.3 5.5 6.3 2.3 2 4.1 4.3 4.1 5.2 0 0.9 0.8 1.6 1.9 1.6 2.6 0 6.7 2.2 8.8 4.9 1 1.2 3.4 2.9 5.3 3.9 4.5 2.2 8 8.9 8 15.3 0 4.6 -0.1 4.7 -3.6 5.6 -3.8 0.8 -4.4 1.5 -6.4 6.9 -0.8 2.3 -2.4 3.6 -6.5 5.4 -3 1.3 -5.5 2.8 -5.5 3.2 0 1.6 -6.3 0.7 -8.8 -1.3 l-2.7 -2.1 -0.6 5.7 c-0.5 4.5 -1.3 6.2 -3.6 8.5 -1.9 1.9 -3.6 5.1 -4.7 8.9 -1.6 5.6 -2 6.2 -7.1 9.1 -3 1.7 -6.4 4.5 -7.6 6.1 -1.1 1.6 -4.1 3.9 -6.5 5.1 -2.4 1.1 -4.4 2.4 -4.4 2.8 0 0.5 -5.2 0.8 -11.5 0.8 l-11.4 0.1 -8.6 -9.1z m28.9 -17.7 c5.3 -0.9 6.6 -2.1 6.6 -6.5 0 -3.5 6.6 -10.1 11 -11.1 3.8 -0.8 4.6 -2 6 -9 l1.2 -5.9 -3.7 -3.4 c-3.4 -3.2 -4 -3.3 -8.6 -2.7 -4.1 0.6 -5 0.4 -5.6 -1 -1.5 -4 0.8 -5 11.8 -5 5.7 -0.1 11.1 0.2 12 0.7 0.9 0.4 3.2 2.9 5.1 5.6 2 2.6 5 5.6 6.9 6.5 3.2 1.5 3.5 1.5 4.7 0 0.6 -0.9 1.2 -3.4 1.2 -5.4 0 -2.1 0.5 -5 1.2 -6.3 1.4 -3.1 -0.4 -5.4 -7 -9.3 -3.9 -2.3 -5 -2.5 -10.5 -1.8 -11.6 1.4 -14.2 1.2 -14.2 -0.9 0 -1 0.9 -2.4 2 -3 1.1 -0.6 3.6 -2.1 5.6 -3.3 1.9 -1.3 4.2 -2.3 5.1 -2.3 3 0 2.8 -1.7 -0.8 -6.4 -4.1 -5.4 -6.2 -10.5 -4.6 -11.5 1.4 -0.8 0.3 -6.1 -1.3 -6.1 -0.6 0 -3.4 -2.7 -6 -6 -2.6 -3.3 -5.2 -6 -5.6 -6 -0.5 0 -1.4 1 -2 2.2 -0.7 1.3 -2.3 3.1 -3.6 4.2 -2.3 1.7 -2.4 2.5 -2.2 10 0.1 4.4 -0.1 9 -0.5 10.1 -0.6 1.7 -0.1 2.4 2.8 3.8 4.2 1.9 4.7 3.7 1.2 3.7 -3.6 0 -6.9 -5 -11.6 -17.3 -2.9 -7.7 -4 -12.3 -4 -16.2 0 -6.1 -0.7 -6.9 -5.1 -6 -3.2 0.7 -14.7 11.4 -20.9 19.5 -1.9 2.5 -6.7 8 -10.7 12.3 -4 4.3 -7.3 8.4 -7.3 9.1 0 0.7 0.9 2.1 2 3.1 1.9 1.7 4.3 1.7 9.7 0 1.7 -0.5 2.5 -0.3 2.9 1 1.2 3 -2 4.7 -11 5.8 -9.6 1.1 -11.2 0.5 -13.7 -5.5 -1.1 -2.6 -1.6 -2.9 -4.3 -2.4 -8 1.6 -13.9 15.3 -8.9 20.8 1.4 1.6 1.5 2.3 0.3 5.8 l-1.3 3.9 5.7 5.5 c3.1 3.1 6.1 5.6 6.5 5.6 1.8 0 6.3 -4.4 8.1 -8.1 1.1 -2.1 2.5 -3.9 3.1 -3.9 0.6 0 3.7 -2.5 6.9 -5.6 5 -4.7 6.3 -5.5 9.1 -5.2 4.5 0.4 4.6 2 0.4 5.9 -2 1.9 -4.8 5.4 -6.2 7.8 -2.4 4.1 -2.5 4.7 -1.4 9.6 1 4.5 2.1 6.2 7.4 11.2 5.7 5.5 10.1 8.2 11.4 7 0.2 -0.3 2.8 0.3 5.6 1.3 5.6 2 11.4 2.3 19.1 1.1z"/>
 </g>
 <g fill="#ffb100">
  <path d="M104.2 182.9 c-1.3 -0.5 -3.7 -0.7 -5.3 -0.4 -2 0.4 -3.1 0.1 -3.5 -0.9 -0.7 -1.9 -3.6 -3 -4.4 -1.7 -1 1.7 -7.6 -5.1 -9.1 -9.3 -0.8 -2.1 -2.1 -4.1 -2.9 -4.4 -2.1 -0.8 -4.8 -4.3 -5.5 -7.2 -0.7 -2.7 -6.4 -9.4 -11 -12.7 -6.7 -5 -22.4 -11.3 -28 -11.3 -1.5 0 -3.8 -0.9 -5.2 -2 -1.4 -1.1 -3.1 -2 -3.8 -2 -1.9 0 -2.7 -3 -1 -3.6 0.7 -0.3 1.1 -1.2 0.8 -2 -0.6 -1.7 0.2 -1.8 3 -0.2 1.2 0.7 2.8 1.3 3.5 1.4 0.7 0.1 3.4 1.6 6 3.2 2.6 1.6 5.8 3.3 7.2 3.7 1.4 0.4 4 1.6 5.9 2.6 2.6 1.4 3.8 1.6 4.8 0.8 0.7 -0.6 1 -1.5 0.7 -2 -0.3 -0.5 0.1 -0.9 0.8 -0.9 2.8 0 8.2 5.1 12.1 11.2 4.6 7.5 19.4 22.8 22 22.8 1 0 3.4 -0.7 5.4 -1.5 3.2 -1.4 3.8 -1.4 5.3 0 1.8 1.7 4 2 4 0.6 0 -0.5 2 -1.8 4.4 -2.9 2.4 -1.2 5.4 -3.5 6.5 -5.1 1.2 -1.6 4.6 -4.4 7.6 -6.1 5.1 -2.9 5.5 -3.5 7.1 -9.1 1.1 -3.8 2.8 -7 4.7 -8.9 2.1 -2 2.9 -3.8 2.8 -5.7 -0.6 -11.2 -0.8 -10.7 2.7 -11.7 1.5 -0.5 2.2 -0.3 2.2 0.7 0 0.7 1.8 2.5 4 4 2.2 1.4 4 2.3 4 1.9 0 -0.4 2.5 -1.9 5.5 -3.2 4.1 -1.8 5.7 -3.1 6.5 -5.4 2 -5.4 2.6 -6.1 6.4 -6.9 4.3 -1.1 4.5 -2.5 1.4 -8.7 -1.5 -3 -3.5 -5.1 -5.8 -6.2 -1.9 -1 -4.3 -2.7 -5.3 -3.9 -2.3 -2.8 -6.7 -5.1 -8.4 -4.5 -1.2 0.5 -3.7 -2.7 -2.8 -3.6 0.3 -0.3 -1.3 -1.9 -3.5 -3.7 -2.2 -1.8 -4.9 -5 -6 -7.1 -1.1 -2.1 -2.6 -4.3 -3.2 -4.7 -2.9 -1.8 -3.8 -4.4 -4.3 -12.5 -0.4 -7 -1.1 -9.7 -4 -15.7 -3.7 -7.5 -5.7 -9.1 -11.5 -9.1 -2.3 0 -3.1 0.6 -3.6 2.4 -0.8 3.2 -3.4 4.3 -3.4 1.5 0 -3.1 -4.9 -8.9 -7.5 -8.9 -1.3 0 -3.7 1.4 -5.3 3 -1.9 1.9 -5.1 3.5 -8.4 4.4 -3.7 0.9 -5.4 1.9 -5.7 3.2 -0.2 1.1 -1 2.8 -1.8 3.9 -1.4 1.9 -1.5 1.7 -0.9 -2 0.3 -2.2 0.6 -5 0.6 -6.3 0 -1.3 0.4 -2.1 0.9 -1.7 0.6 0.3 1.5 -0.3 2.1 -1.4 0.6 -1.1 1.6 -1.8 2.4 -1.5 0.9 0.3 1.9 -0.9 3 -3.7 0.9 -2.3 1.9 -3.9 2.3 -3.6 0.3 0.4 1.8 0 3.4 -0.8 1.5 -0.8 3.9 -1.5 5.4 -1.5 1.4 0 2.5 -0.3 2.5 -0.8 0 -1.3 5.5 -3.2 10.3 -3.6 2.6 -0.2 4.7 0.1 4.7 0.5 0 0.5 1.1 0.9 2.5 0.9 1.8 0 2.9 0.8 3.7 2.5 0.7 1.5 1.7 2.4 2.5 2.1 0.7 -0.3 1.3 0.1 1.3 1 0 0.9 1.8 3.3 3.9 5.4 3.9 3.7 4 3.9 4.5 12.4 0.3 4.9 0 9.9 -0.5 11.4 -1 2.5 0.4 10.8 2 12.2 0.3 0.3 1.2 1.7 1.9 3.1 1.2 2.2 6.2 8.1 13.5 15.6 1.2 1.3 2.7 2.3 3.3 2.3 0.7 0 2.5 0.7 4 1.5 1.6 0.8 4.6 1.8 6.6 2.1 4.5 0.8 11.5 7.8 15 14.8 1.2 2.5 2.6 4.6 3.1 4.6 0.5 0 -0.2 0.9 -1.6 2 -1.4 1.1 -2.8 3.3 -3.2 5 -0.4 1.7 -1.5 3.2 -2.7 3.6 -1.1 0.3 -2.6 2.1 -3.4 3.9 -0.8 2.1 -2.3 3.5 -3.9 3.9 -1.4 0.4 -2.5 1.3 -2.5 2.1 0 0.8 -0.5 1.5 -1.1 1.5 -0.6 0 -2 1.1 -3.1 2.5 -1.1 1.4 -2.5 2.5 -3.1 2.5 -0.7 0 -3.9 1.3 -7.3 2.9 -7.3 3.4 -12.9 8.8 -15.6 14.7 -1 2.4 -2.5 4.9 -3.2 5.7 -0.8 0.8 -2.1 3.7 -3 6.6 -0.8 2.9 -2.8 6.5 -4.6 8.2 -1.6 1.7 -3 3.6 -3 4.3 0 2.8 -6.5 8.3 -11.2 9.5 -5.4 1.3 -5.5 1.3 -8.6 0z"/>
  <path d="M22.5 123 c-0.3 -0.5 -1.5 -1 -2.5 -1 -2.5 0 -4 -4.8 -3.9 -12.9 0.1 -5.4 0.4 -6.4 2 -6.8 1 -0.3 1.9 -1 1.9 -1.7 0 -0.6 1 0.5 2.2 2.4 1.5 2.5 2.1 5 2 8.5 -0.3 13.2 -0.4 13.6 -1.7 11.5z"/>
  <path d="M21.7 95.8 c-0.8 -2.7 1.8 -8.8 3.6 -8.8 0.8 0 2.2 -1 3 -2.2 1.1 -1.6 1 -0.6 -0.5 3.2 -4.1 10.7 -5.1 12 -6.1 7.8z"/>
  <path d="M33 79 c0 -0.6 1.2 -1.5 2.6 -2 4.2 -1.6 5.1 -1.1 1.6 1 -3.7 2.3 -4.2 2.4 -4.2 1z"/>
  <path d="M44.2 72.8 c0.8 -0.7 3.9 -2.6 7 -4.1 3.1 -1.6 7.6 -4.9 10 -7.5 2.3 -2.5 6.4 -6.8 9 -9.5 2.6 -2.7 4.9 -5.4 5.2 -6 0.3 -0.8 0.5 -0.7 0.5 0.2 0.1 0.7 -1.6 3 -3.6 5 -2.1 2 -4.9 5.9 -6.3 8.6 -1.4 2.8 -3.8 5.6 -5.4 6.5 -1.7 0.9 -3.7 2.9 -4.6 4.6 -0.9 1.6 -2.5 3.1 -3.4 3.2 -1.1 0.2 -1.6 0 -1.2 -0.6 1.2 -1.9 -1.3 -2.3 -4.3 -0.7 -3.6 1.8 -4.7 1.9 -2.9 0.3z"/>
  <path d="M77.1 41.6 c0.7 -1.5 1.5 -2.3 1.7 -1.6 0.3 0.7 -0.3 1.9 -1.3 2.8 -1.5 1.6 -1.6 1.5 -0.4 -1.2z"/>
 </g>
 <g fill="#ff6400">
  <path d="M106 183 c0 -0.5 0.9 -1 2 -1 1.1 0 2 0.5 2 1 0 0.6 -0.9 1 -2 1 -1.1 0 -2 -0.4 -2 -1z"/>
  <path d="M113 181.6 c0.1 -1.9 3.6 -5.5 6.5 -6.6 1.5 -0.6 2.9 -1.9 3.2 -3 0.3 -1.1 0.9 -2 1.4 -2 1.2 0 1.2 0.4 -1.3 5.9 -1.8 4.3 -2.6 5.1 -6 5.9 -2.7 0.7 -3.8 0.7 -3.8 -0.2z"/>
  <path d="M88.7 179.6 c-1.8 -1.4 -2.2 -3.2 -0.8 -4 1.2 -0.8 4.1 2.8 3.3 4.1 -0.5 0.8 -1.2 0.8 -2.5 -0.1z"/>
  <path d="M124.5 169 c-0.3 -0.6 0.2 -1.3 1.2 -1.7 1 -0.4 2.1 -1.1 2.5 -1.7 0.4 -0.6 1 -0.8 1.3 -0.4 0.7 0.7 -2.5 4.8 -3.7 4.8 -0.4 0 -1 -0.5 -1.3 -1z"/>
  <path d="M135.8 151.4 c-0.4 -0.5 0.3 -2.1 1.3 -3.4 1.5 -1.8 1.8 -1.9 1.1 -0.5 -0.5 1.1 -1.1 2.7 -1.4 3.5 -0.2 0.8 -0.7 1 -1 0.4z"/>
  <path d="M29.5 133 c-1.8 -2 -1.7 -2 0.9 -2 3.1 0 6.6 1.6 6.6 3 0 1.8 -5.7 1 -7.5 -1z"/>
  <path d="M157 130.6 c0 -0.9 0.8 -1.6 2 -1.6 1 0 2.3 -0.8 2.9 -1.7 0.7 -1.3 1.3 -1.5 2.1 -0.7 1.2 1.2 -1.2 3.8 -4.7 4.8 -1.7 0.6 -2.3 0.3 -2.3 -0.8z"/>
  <path d="M17.1 118.9 c-0.6 -1.8 -1.1 -3.9 -1 -4.8 0.1 -0.9 0.7 0.4 1.5 2.8 1.6 5.1 1.2 6.8 -0.5 2z"/>
  <path d="M168 86 c-1.2 -0.8 -1.1 -1 0.7 -1 1.2 0 2.5 0.5 2.8 1 0.8 1.3 -1.5 1.3 -3.5 0z"/>
  <path d="M51.9 68.6 c2.3 -1.4 4.5 -2.6 4.8 -2.6 1.3 0 -4.4 3.8 -6.7 4.4 -1.5 0.4 -0.7 -0.3 1.9 -1.8z"/>
  <path d="M62 61.3 c0 -0.5 2.3 -3.3 5.1 -6.3 l5.1 -5.5 -4.8 6.3 c-4.6 6.1 -5.4 6.9 -5.4 5.5z"/>
  <path d="M135.2 42.3 c-0.6 -0.2 -1 -0.9 -0.6 -1.4 0.3 -0.5 0 -0.9 -0.7 -0.9 -0.6 0 -0.9 -0.8 -0.6 -2 0.3 -1.1 0.1 -2.2 -0.3 -2.5 -0.4 -0.3 -0.6 -1.4 -0.3 -2.5 0.4 -1.4 -0.7 -3.1 -3.6 -5.9 -2.3 -2.2 -4.1 -4.6 -4.1 -5.4 0 -0.9 -1.9 -3.1 -4.2 -5.1 l-4.3 -3.6 3.3 0 c2.4 0 3.5 0.6 4.3 2.4 0.9 2 1.7 2.3 5.4 2 5.9 -0.4 7.8 1.2 7.6 6.7 -0.2 8.4 -0.5 18.9 -0.6 18.8 0 0 -0.6 -0.3 -1.3 -0.6z"/>
  <path d="M81 30.9 c0 -1.6 0.4 -2.8 0.9 -2.4 0.6 0.3 1.5 -0.3 2.1 -1.4 0.6 -1.1 1.6 -1.8 2.4 -1.5 0.9 0.3 1.9 -0.9 3 -3.7 0.9 -2.3 1.9 -3.9 2.3 -3.6 0.3 0.4 1.4 0.2 2.5 -0.4 1.8 -1 1.8 -0.9 0.8 1.1 -0.6 1.2 -1.8 2.4 -2.6 2.7 -0.8 0.3 -2.1 1.7 -2.9 3.2 -1.5 2.9 -6.8 9.1 -7.8 9.1 -0.4 0 -0.7 -1.4 -0.7 -3.1z"/>
  <path d="M104 14.3 c0.8 -0.3 2.3 -1.2 3.2 -2 1.1 -1 2.7 -1.3 4.8 -0.8 5 1.1 2.9 3 -3.6 3.2 -3.2 0.1 -5.2 -0.1 -4.4 -0.4z"/>
 </g>
</svg>