<?xml version="1.0" encoding="utf-8"?>
<!DOCTYPE svg PUBLIC "-//W3C//DTD SVG 20010904//EN" "http://www.w3.org/TR/2001/REC-SVG-20010904/DTD/svg10.dtd">
<svg version="1.0" xmlns="http://www.w3.org/2000/svg" width="200px" height="200px" viewBox="0 0 200 200" preserveAspectRatio="xMidYMid meet">
 <g fill="#8a8993">
  <path d="M138 167.9 l-2.5 -2 2.3 -1.6 c3 -2.1 3.1 -7.8 0.1 -8.6 -2.2 -0.6 -2.2 -2.8 0 -3.5 0.7 -0.2 1.5 0.6 1.8 1.7 0.5 1.8 1.2 2.2 4.2 1.9 3.3 -0.3 3.6 -0.6 4.1 -3.8 0.7 -4.9 4.8 -5.4 9 -1.1 2.7 2.6 3 3.6 3 8.9 l0 6 -6.2 0.4 c-3.5 0.2 -7.9 1.1 -9.8 2 -3.4 1.6 -3.7 1.5 -6 -0.3z"/>
  <path d="M114.2 164.1 c-0.8 -0.4 -1.2 -1.7 -1 -2.7 0.2 -1.4 1.3 -2 4.1 -2.2 3.7 -0.3 3.8 -0.2 3.5 2.5 -0.2 2.1 -0.9 2.9 -2.8 3.1 -1.4 0.1 -3.1 -0.2 -3.8 -0.7z"/>
  <path d="M46 160 l-2.3 -1.7 2.1 -1.9 c2.8 -2.3 2.8 -4 0.1 -4.7 -1.2 -0.3 -1.9 -1.1 -1.7 -1.8 0.7 -2.2 2.9 -2.2 3.5 0 0.7 2.7 2.9 2.7 4.3 0 0.9 -1.5 1.9 -1.9 4.3 -1.7 3.1 0.3 3.2 0.4 3.5 6.1 0.3 5.7 0.3 5.7 -2.5 5.7 -1.6 0 -4.2 0.4 -5.9 0.9 -2.4 0.7 -3.6 0.5 -5.4 -0.9z"/>
  <path d="M19.5 125 c-2.2 -4.2 -1.9 -5.5 2.1 -10 5.6 -6.2 8.3 -5.1 11.8 4.8 1.5 4.1 1.5 4.2 -0.9 5.8 -1.3 0.9 -3.3 1.3 -4.4 0.9 -1 -0.3 -2.2 -0.1 -2.6 0.5 -1.2 2 -4.5 1 -6 -2z"/>
  <path d="M96 106.5 c0 -0.9 -0.7 -1.8 -1.5 -2.1 -1.6 -0.7 -2.1 -4 -0.6 -4.6 0.5 -0.1 1.1 -1 1.3 -1.8 0.2 -1 -0.8 -1.6 -3.2 -2 -3.2 -0.5 -3.5 -0.8 -3.5 -4 l0 -3.5 13.5 0 13.5 0 0.3 5.2 c0.2 2.9 0.9 5.6 1.7 6.3 1.9 1.6 1.9 3.6 0 4.4 -0.8 0.3 -1.5 1.2 -1.5 2.1 0 1.2 -1.7 1.5 -10 1.5 -8.3 0 -10 -0.3 -10 -1.5z"/>
  <path d="M173.7 73.2 c-2.1 -2.3 -2.1 -4.2 -0.3 -6.7 2.1 -2.9 4.8 -0.3 4.4 4.3 -0.4 4.2 -1.8 5 -4.1 2.4z"/>
  <path d="M66 58.6 c0 -0.8 -0.6 -1.6 -1.4 -1.9 -2.1 -0.8 -2.6 -4.5 -0.7 -6.8 2.3 -2.8 9.5 -3.7 12 -1.5 3.3 3 3.2 6.3 -0.1 9.1 -3.3 2.8 -9.8 3.5 -9.8 1.1z"/>
  <path d="M126.8 44.5 c-3.3 -3.8 -3.6 -7 -0.9 -8.5 1.2 -0.6 2.1 -2.3 2.3 -4.3 0.4 -4.5 3.1 -4.3 3.8 0.3 0.4 3.1 0.9 3.6 4 4 4.9 0.7 5.4 4.8 1.1 9 -3.8 3.9 -6.9 3.7 -10.3 -0.5z"/>
  <path d="M25.2 34.7 c-4.5 -4.6 -5.1 -6.1 -2.7 -7.1 1.1 -0.4 1.5 -2 1.5 -5.5 0 -2.7 0.5 -5.3 1.1 -5.6 0.5 -0.4 2.7 1.1 4.8 3.4 2.3 2.4 4.7 4.1 6 4.1 1.3 0 3.7 1.4 5.4 3.1 l3.1 3.2 -2.2 1.5 c-1.2 0.8 -2.2 2.1 -2.2 3 0 2.3 -3.1 4.1 -7 4.2 -2.9 0 -4.4 -0.8 -7.8 -4.3z"/>
 </g>
 <g fill="#7d7d86">
  <path d="M139.5 169.4 c-0.9 -1.4 -1.5 -2.7 -1.3 -2.8 4.2 -2.4 8.9 -3.6 14.8 -3.6 l7 0 0 2.9 0 2.8 -8.2 0.5 c-4.9 0.3 -8.4 1 -8.6 1.6 -0.6 1.9 -1.8 1.4 -3.7 -1.4z"/>
  <path d="M117.7 165.1 c-2.6 -0.6 -2.7 -0.7 -1.2 -2.8 1.8 -2.6 4.5 -3.1 4.5 -0.9 0 0.8 0.3 2.1 0.6 3 0.6 1.7 0.5 1.7 -3.9 0.7z"/>
  <path d="M47.5 161.4 c-0.9 -1.4 -1.4 -2.8 -1.1 -3.1 0.3 -0.3 3.4 -0.8 7 -1 6.6 -0.6 6.6 -0.6 6.6 2.1 0 2.4 -0.3 2.6 -4.5 2.6 -2.5 0 -4.5 0.5 -4.5 1 0 1.8 -1.7 1 -3.5 -1.6z"/>
  <path d="M21 126.5 c0 -0.8 0.9 -1.9 2.1 -2.5 2.6 -1.5 7.9 -0.3 7.9 1.7 0 1.1 -0.7 1.4 -2.4 0.9 -1.4 -0.3 -2.8 -0.2 -3.1 0.4 -1 1.5 -4.5 1.2 -4.5 -0.5z"/>
  <path d="M96 107.6 c0 -1.3 -0.9 -3 -2.1 -3.7 l-2.1 -1.4 2.1 -2.4 2.1 -2.4 0 3.6 0 3.7 10 0 10 0 0 2.5 0 2.5 -10 0 c-9.9 0 -10 0 -10 -2.4z"/>
  <path d="M115.3 104.3 c-1.2 -0.4 -1.9 -6.3 -0.8 -6.3 1.1 0 5.5 3.3 5.5 4.1 0 1.2 -3.3 2.7 -4.7 2.2z"/>
  <path d="M112.5 94 c-0.8 -1.4 0.3 -3 2.1 -3 0.8 0 1.4 0.9 1.4 2 0 2.1 -2.4 2.8 -3.5 1z"/>
  <path d="M66 58.9 c0 -2.1 0.4 -2.6 1.8 -2.2 1.1 0.2 3.2 -0.6 4.9 -2.1 3.8 -3.2 4.7 -3.2 6 -0.3 0.9 2 0.7 2.6 -2.5 4.6 -2 1.3 -5.1 2.5 -6.9 2.6 -3 0.2 -3.3 -0.1 -3.3 -2.6z"/>
  <path d="M125.7 46.2 c-2 -2.1 -2.3 -8.2 -0.5 -8.2 1.6 0 6.8 5.1 6.8 6.7 0 0.7 0.7 1.3 1.5 1.3 0.8 0 1.5 0.5 1.5 1 0 1.8 -7.6 1.1 -9.3 -0.8z"/>
  <path d="M25.7 38.2 c-0.9 -1 -1.7 -2.6 -1.7 -3.4 0 -0.9 -1 -2.3 -2.2 -3.2 -2.3 -1.5 -2.3 -1.6 -0.3 -3.1 1.8 -1.4 2.2 -1.2 6.7 3.2 3.7 3.7 5.1 4.4 6 3.5 0.7 -0.7 2.3 -1.2 3.6 -1.2 2 0 2.3 0.4 2 2.8 -0.3 2.6 -0.6 2.7 -6.4 3 -4.8 0.2 -6.3 -0.1 -7.7 -1.6z"/>
 </g>
 <g fill="#6c6973">
  <path d="M140.8 171.4 c-0.5 -0.4 -0.8 -1.5 -0.8 -2.4 0 -2.2 3.8 -3 13.1 -3 6.7 0 6.9 0.1 6.9 2.5 0 2.4 -0.3 2.5 -5.7 2.5 -3.2 0 -7.4 0.3 -9.3 0.6 -1.9 0.3 -3.8 0.2 -4.2 -0.2z"/>
  <path d="M48.7 163.4 c-0.4 -0.4 -0.7 -1.6 -0.7 -2.6 0 -1.5 0.9 -1.8 6.1 -1.8 5.7 0 6 0.1 5.7 2.3 -0.3 1.9 -1 2.2 -5.3 2.5 -2.8 0.2 -5.4 0 -5.8 -0.4z"/>
  <path d="M26.4 125.5 c-1.7 -1.3 -1.5 -1.4 3.1 -1.4 4.6 0 4.8 0.1 3.1 1.4 -1.1 0.8 -2.5 1.5 -3.1 1.5 -0.6 0 -2 -0.7 -3.1 -1.5z"/>
  <path d="M96.7 111.4 c-0.4 -0.4 -0.7 -1.6 -0.7 -2.6 0 -1.6 1 -1.8 10.1 -1.8 9.8 0 10 0 9.7 2.3 -0.3 2.1 -0.8 2.2 -9.3 2.5 -5 0.1 -9.4 0 -9.8 -0.4z"/>
  <path d="M92.7 103.3 c-0.7 -1.1 1 -4 1.8 -3.1 0.4 0.4 0.3 1.4 -0.3 2.4 -0.5 0.9 -1.2 1.2 -1.5 0.7z"/>
  <path d="M116.2 102.8 c-1.9 -1.9 -1.4 -3 1.1 -2.6 1.2 0.2 2.2 0.9 2.2 1.7 0 1.9 -1.8 2.4 -3.3 0.9z"/>
  <path d="M124.7 47.3 c-0.4 -0.3 -0.7 -2.4 -0.7 -4.7 l0 -4 3.5 3.4 c1.9 1.9 3.5 4 3.5 4.7 0 1.3 -5.1 1.9 -6.3 0.6z"/>
  <path d="M24.7 39.3 c-0.4 -0.3 -0.7 -1.9 -0.7 -3.3 0 -1.7 -0.8 -3.3 -2.2 -4.3 -1.8 -1.2 -2 -1.8 -1.1 -2.7 0.9 -1 2.2 -0.2 5.7 3.6 2.5 2.7 4.6 5.5 4.6 6.1 0 1.3 -5.1 1.8 -6.3 0.6z"/>
  <path d="M35 38.8 c0 -0.8 0.5 -1.9 1.2 -2.6 2 -2 4 -1.4 3.6 1.1 -0.3 2.5 -4.8 3.9 -4.8 1.5z"/>
 </g>
 <g fill="#5d5762">
  <path d="M140.5 171 c-1.2 -2 0.5 -2.5 10.2 -2.8 8.8 -0.4 9.5 -0.3 9.1 1.5 -0.3 1.6 -1.5 1.8 -9.5 2.1 -5.9 0.2 -9.4 -0.1 -9.8 -0.8z"/>
  <path d="M48.7 163.4 c-1.7 -1.8 -0.3 -2.4 5.4 -2.4 4.4 0 6 0.3 5.7 1.3 -0.5 1.3 -9.9 2.3 -11.1 1.1z"/>
  <path d="M96.7 111.4 c-1.9 -1.9 0.1 -2.4 9.4 -2.4 7.6 0 10 0.3 9.7 1.3 -0.5 1.3 -17.8 2.3 -19.1 1.1z"/>
  <path d="M124.7 47.3 c-0.4 -0.3 -0.7 -2 -0.7 -3.6 l0 -3 2.5 2.3 c1.4 1.3 2.5 2.9 2.5 3.7 0 1.3 -3.1 1.8 -4.3 0.6z"/>
  <path d="M24.7 39.3 c-0.4 -0.3 -0.7 -2 -0.7 -3.6 l0 -3 2.5 2.3 c1.4 1.3 2.5 2.9 2.5 3.7 0 1.3 -3.1 1.8 -4.3 0.6z"/>
 </g>
</svg>