<?xml version="1.0" encoding="utf-8"?>
<!DOCTYPE svg PUBLIC "-//W3C//DTD SVG 20010904//EN" "http://www.w3.org/TR/2001/REC-SVG-20010904/DTD/svg10.dtd">
<svg version="1.0" xmlns="http://www.w3.org/2000/svg" width="200px" height="200px" viewBox="0 0 200 200" preserveAspectRatio="xMidYMid meet">
 <g fill="#ff6300">
  <path d="M82.2 186.1 c0.3 -2.4 0.7 -2.6 5.6 -2.9 3.9 -0.2 5.2 0 5.2 1.1 0 1.7 -3.4 3.4 -7.8 4 -3 0.3 -3.3 0.2 -3 -2.2z"/>
  <path d="M118 182.4 c0 -2.8 1.7 -3.4 9.3 -3.4 l6.1 0 -2.8 2.9 c-2.4 2.5 -3.5 2.9 -7.7 2.8 -4.3 -0.2 -4.9 -0.5 -4.9 -2.3z"/>
  <path d="M36.5 181.4 c-1.1 -0.8 -2.5 -1.2 -3.1 -1 -0.6 0.2 -2.4 -0.9 -4 -2.5 l-2.8 -2.9 5.1 0 c5.7 0 7.6 1.5 7.1 5.4 -0.3 2.3 -0.5 2.3 -2.3 1z"/>
  <path d="M18 155.6 c0 -0.7 -0.6 -1.9 -1.4 -2.5 -0.8 -0.7 -1.3 -3.2 -1.3 -6.6 0 -4.5 0.3 -5.5 1.6 -5.5 3.1 0 4.1 2.3 4.1 9.2 0 5.4 -0.3 6.8 -1.5 6.8 -0.8 0 -1.5 -0.6 -1.5 -1.4z"/>
  <path d="M175 147.3 c0 -7.6 0.6 -9.3 3.4 -9.3 1.8 0 2.1 0.6 2.3 4.9 0.1 4.2 -0.3 5.3 -2.8 7.7 l-2.9 2.8 0 -6.1z"/>
  <path d="M187.7 76.3 c-0.4 -0.3 -0.7 -2.2 -0.7 -4.1 0 -3.5 0 -3.5 2.1 -1.6 1.2 1 2.3 1.8 2.5 1.7 0.2 -0.2 0.4 -0.1 0.4 0.2 0 0.3 0 1.4 0 2.5 0 2 -2.8 2.8 -4.3 1.3z"/>
  <path d="M31.5 38 c0.2 -2.9 3.4 -5.7 7.3 -6.5 3.1 -0.6 3.2 -0.5 3.2 2.4 0 2.7 -0.4 3.2 -3 3.8 -1.7 0.3 -3.3 1 -3.6 1.4 -1.1 1.8 -4.1 0.9 -3.9 -1.1z"/>
  <path d="M146.9 20 c-2.5 -2.8 -3.1 -3 -10.2 -3 -8.4 0 -10.7 -0.6 -10.7 -2.6 0 -1.5 -2.2 -1.6 -21.2 -1.4 -8.3 0.1 -9.8 -0.1 -9.8 -1.4 0 -0.9 0.6 -1.6 1.4 -1.6 0.7 0 1.9 -0.6 2.5 -1.4 0.9 -1.1 3.9 -1.3 13.1 -1.2 10.9 0.2 12.2 0.4 14.4 2.5 2 1.9 3 2.2 5.8 1.5 1.8 -0.4 6 -0.6 9.3 -0.5 4.9 0.1 6.4 0.6 8.7 2.8 1.5 1.4 2.5 3 2.2 3.5 -0.3 0.5 0.2 2 1 3.3 1.6 2.4 1.6 2.5 -1.1 2.5 -1.8 -0.1 -3.7 -1.1 -5.4 -3z"/>
  <path d="M71 16.4 c0 -1.5 5.5 -4.7 8.2 -4.8 2.5 -0.1 2.8 0.2 2.6 2.4 -0.3 2.3 -0.8 2.5 -5.5 2.8 -2.9 0.2 -5.3 0 -5.3 -0.4z"/>
 </g>
 <g fill="#ff7000">
  <path d="M71 186.9 c0 -2.8 2.8 -3.7 12.7 -4.5 6.9 -0.5 9.2 -0.4 9.8 0.6 1 1.7 -2 3.9 -4.4 3.3 -1.1 -0.3 -3 0.2 -4.4 1.1 -1.6 1.1 -4.3 1.6 -8.1 1.5 -4.7 -0.2 -5.6 -0.5 -5.6 -2z"/>
  <path d="M43.4 184.9 c-0.3 -0.5 -0.9 -0.7 -1.4 -0.4 -0.5 0.3 -2.7 -1 -4.8 -3 -2.2 -1.9 -4.8 -3.5 -5.9 -3.5 -2.1 0 -7.3 -4.9 -7.6 -7.1 -0.2 -0.8 -1.3 -3.1 -2.5 -5.1 -1.6 -2.6 -2.4 -5.9 -2.9 -11.7 -0.3 -4.9 -1.1 -8.5 -1.9 -9.2 -2 -1.6 -1.8 -5.9 0.2 -5.9 3.4 0 5.3 4.1 5.4 11.5 0 5.3 0.5 7.7 2 10 1.1 1.7 2 3.7 2 4.6 0 1.9 7.4 8.9 9.3 8.9 0.8 0 2.5 0.9 3.8 2.1 1.3 1.1 3.4 2.9 4.7 4 1.2 1 2.7 1.9 3.2 1.9 0.6 0 1 0.6 1 1.4 0 1.6 -3.7 2.8 -4.6 1.5z"/>
  <path d="M114 183.2 c0 -2.3 5 -5.2 9 -5.2 1.7 0 4.3 -0.9 5.7 -2 1.4 -1.1 3.9 -2 5.5 -2 1.6 0 4.8 -1 7.1 -2.2 8.6 -4.4 9.6 -4.8 12.6 -4.8 1.7 0 3.1 0.4 3.1 0.8 0 1.4 -3.9 4.5 -5.8 4.7 -1 0 -3.4 1.1 -5.4 2.3 -1.9 1.2 -4.9 2.2 -6.6 2.2 -1.8 0 -4.3 1 -6 2.5 -1.9 1.6 -4.3 2.5 -6.3 2.5 -1.9 0.1 -4.5 0.7 -5.9 1.5 -3.6 2 -7 1.9 -7 -0.3z"/>
  <path d="M166 159 c0 -2.2 1.2 -4.7 4 -8.2 2.8 -3.6 4 -6 4 -8.3 0 -4.1 3 -9.6 5 -9.3 2.2 0.4 2.4 4.2 0.5 7.8 -1 1.8 -1.4 4.2 -1.1 5.6 0.5 1.8 -0.5 3.6 -5 8.6 -3.1 3.5 -6 6.5 -6.5 6.6 -0.5 0.2 -0.9 -1.1 -0.9 -2.8z"/>
  <path d="M14.4 125.6 c-0.8 -4.4 0.4 -9.6 2.2 -9.6 1.1 0 1.4 1.6 1.4 6.5 0 5 -0.3 6.5 -1.5 6.5 -0.8 0 -1.7 -1.4 -2.1 -3.4z"/>
  <path d="M19.2 94.5 c-0.1 -2.9 0.2 -3.5 1.8 -3.5 1.6 0 2 0.7 2 3.5 0 2.7 -0.4 3.5 -1.8 3.5 -1.4 0 -1.9 -0.8 -2 -3.5z"/>
  <path d="M186.7 77.3 c-0.4 -0.3 -0.7 -2.7 -0.7 -5.2 l0.1 -4.6 2.9 3.5 c3.4 3.9 3.7 5.5 1.4 6.4 -2 0.8 -2.9 0.8 -3.7 -0.1z"/>
  <path d="M18.5 72 c-1.1 -1.8 0.2 -5.4 2.5 -6.8 2 -1.2 2.1 -1.1 1.8 3 -0.2 3 -0.8 4.4 -2 4.6 -0.9 0.2 -1.9 -0.2 -2.3 -0.8z"/>
  <path d="M23.2 58 c-0.8 -1.3 -0.8 -2 -0.1 -2 0.5 0 0.7 -0.4 0.4 -1 -0.3 -0.5 0.1 -1 0.9 -1 1.1 0 1.6 0.9 1.6 3 0 3.5 -1 3.8 -2.8 1z"/>
  <path d="M178 49.5 c0 -3.2 -0.2 -3.5 -3 -3.5 -4.3 0 -8 -2.7 -8 -5.7 0 -3.9 3.6 -2.4 11.7 5.2 3.8 3.4 4.4 7.5 1.3 7.5 -1.6 0 -2 -0.7 -2 -3.5z"/>
  <path d="M31.9 37.8 c0.5 -1.3 2.1 -2.6 3.9 -3 1.8 -0.5 3.1 -1.4 2.9 -2.1 -0.1 -0.6 0.8 -1.3 2.1 -1.5 1.6 -0.2 2.2 0.2 2.2 1.5 -0.1 2.4 -2.4 5.3 -4.3 5.3 -0.9 0 -1.9 0.5 -2.2 1 -0.3 0.6 -1.7 1 -3 1 -2.1 0 -2.3 -0.3 -1.6 -2.2z"/>
  <path d="M156.5 28 c-1 -1.1 -2.4 -2 -3.2 -2 -0.7 0 -3.3 -1.8 -5.7 -4 -4.3 -3.9 -4.4 -4 -12.1 -4 -6.2 0 -8.3 -0.4 -10.6 -2.1 -2.7 -1.9 -4.3 -2.1 -17.9 -2 -12.2 0.1 -15 -0.1 -15 -1.3 0 -1.9 3.2 -2.6 11.8 -2.6 3.9 0 7.2 -0.4 7.2 -0.9 0 -1.7 3.3 -2.1 5.6 -0.6 1.3 0.8 3.9 1.5 5.9 1.5 2.1 0 4.8 0.9 6.5 2.1 2.3 1.8 3.8 2.1 8.1 1.7 7.3 -0.7 10.3 0.3 15.4 5.7 2.5 2.5 4.9 4.4 5.4 4 1.4 -0.8 4 2.2 3.7 4.2 -0.4 2.6 -2.9 2.7 -5.1 0.3z"/>
  <path d="M58.5 20 c-0.3 -0.5 -0.1 -1 0.5 -1 0.7 0 1 -0.7 0.6 -1.5 -0.6 -1.7 0.9 -2.1 10.7 -2.9 3.7 -0.3 7.7 -1.2 9 -2.1 3 -2.1 6.7 -2 6.7 0.3 0 2.2 -4.2 4.8 -9.2 5.7 -2.1 0.4 -3.8 1.1 -3.8 1.6 0 0.5 -1.6 0.9 -3.5 0.9 -2.1 0 -3.5 -0.5 -3.5 -1.2 0 -0.9 -0.3 -0.9 -1.2 0 -1.5 1.5 -5.4 1.6 -6.3 0.2z"/>
 </g>
 <g fill="#ff8400">
  <path d="M68.9 187.2 c-1.4 -1.6 -1.2 -1.9 2.4 -3.6 2.7 -1.3 5.2 -1.7 8.3 -1.3 2.6 0.3 4.4 0 4.4 -0.6 0 -1 8.6 -0.5 9.7 0.6 0.3 0.4 0.3 1.3 -0.1 2.2 -0.4 1.2 -1.4 1.4 -4.1 0.9 -2.6 -0.5 -4.1 -0.2 -5.4 1 -1.4 1.2 -2.4 1.4 -4.3 0.7 -1.6 -0.6 -3.1 -0.5 -4.8 0.5 -3.3 1.8 -4.3 1.7 -6.1 -0.4z"/>
  <path d="M46 185.3 c-2.3 -0.4 -7.6 -3.9 -10.8 -7 -0.7 -0.7 -2 -1.3 -2.7 -1.3 -2.6 0 -7.4 -5.1 -10.4 -11.2 -2.5 -4.9 -3.1 -7.4 -3.1 -12.6 0 -4.9 -0.5 -7 -2 -8.9 -2.5 -3.2 -2.5 -4.9 -0.3 -5.8 1.2 -0.4 2.5 0.2 4 2 2 2.2 2.3 3.8 2.3 10.2 0 5.7 0.4 8.1 1.9 10.1 1 1.5 2.1 3.7 2.5 4.9 0.8 2.5 6.1 7.3 8.1 7.3 0.8 0 1.8 0.6 2.2 1.3 1.1 1.7 8.6 6.7 10.1 6.7 0.7 0 1.2 1.1 1.2 2.5 0 1.4 -0.1 2.4 -0.2 2.4 -0.2 -0.1 -1.4 -0.4 -2.8 -0.6z"/>
  <path d="M107 182.8 c0 -1.4 0.9 -1.8 3.8 -1.8 2.1 0 4.8 -0.9 6.2 -2 1.4 -1.1 3.8 -2 5.3 -2 1.5 0 4.5 -0.9 6.7 -2 2.2 -1.1 5 -2 6.2 -2 1.3 0 3.8 -0.9 5.6 -2 1.8 -1.1 3.9 -2 4.8 -2 0.8 0 1.7 -0.7 2 -1.5 0.7 -1.6 10.4 -2.2 10.4 -0.6 0 1.1 -2.8 3.5 -4.6 3.7 -0.7 0.1 -4.1 1.6 -7.5 3.3 -3.4 1.7 -7.4 3.1 -8.9 3.1 -1.5 0 -3.9 0.9 -5.3 2 -1.4 1.1 -4 2 -5.7 2 -1.8 0 -4.8 0.9 -6.6 2 -4.2 2.7 -12.4 2.5 -12.4 -0.2z"/>
  <path d="M164.3 160.1 c0.3 -2.5 1.9 -5.7 4.6 -9.1 3.2 -4 4.1 -6 4.1 -9 0 -2.1 0.6 -4.3 1.4 -4.9 0.8 -0.7 1.7 -2.3 2 -3.6 0.5 -1.9 1.3 -2.5 3.2 -2.5 2.1 0 2.4 0.3 1.5 1.3 -0.6 0.8 -0.8 1.7 -0.5 2 0.4 0.3 -0.3 2.2 -1.5 4.2 -1.1 2 -2.1 5.1 -2.1 6.9 0 2.4 -1.1 4.8 -4 8.4 -2.2 2.7 -4 5.4 -4 5.9 0 0.9 -3.6 4.3 -4.6 4.3 -0.4 0 -0.4 -1.8 -0.1 -3.9z"/>
  <path d="M17 131.5 c0 -0.9 -0.5 -1.3 -1.1 -1 -0.7 0.5 -1 -2.4 -0.8 -9.4 0.2 -9 0.5 -10.1 2.1 -10.1 1.6 0 1.8 1 1.8 10.4 0 5.9 -0.4 10.8 -1 11.1 -0.5 0.3 -1 -0.1 -1 -1z"/>
  <path d="M186 102 c0 -4.3 1.3 -5 3.4 -1.7 0.8 1.2 0.8 2.2 0 3.4 -2.1 3.3 -3.4 2.6 -3.4 -1.7z"/>
  <path d="M19.2 92.4 c-0.2 -4.7 0.1 -7.3 0.7 -7 0.5 0.4 1.2 0.2 1.6 -0.4 1.5 -2.4 2.5 -0.6 2.5 4.8 0 7.3 -0.8 10.2 -2.9 10.2 -1.3 0 -1.7 -1.3 -1.9 -7.6z"/>
  <path d="M186.2 77.8 c-1.2 -1.2 -1.7 -10.8 -0.6 -10.8 1.1 0 3.3 3.4 3.4 5.2 0 0.9 0.8 2.1 1.7 2.6 1.5 0.9 1.5 1.1 0.1 2.6 -2 1.9 -3 2 -4.6 0.4z"/>
  <path d="M19.1 72.6 c-0.9 -1 -0.6 -2.3 1.1 -5.5 1.2 -2.2 2.5 -4.1 3 -4.1 0.4 0 0.8 1.8 0.8 4 0 2.2 -0.4 4 -1 4 -0.5 0 -1 0.7 -1 1.5 0 1.9 -1.4 1.9 -2.9 0.1z"/>
  <path d="M23.3 55.8 c-0.2 -4.1 0.2 -5.6 1.7 -7 2 -1.9 2 -1.8 2 5.2 0 6 -0.2 7 -1.7 7 -1.5 0 -1.8 -1 -2 -5.2z"/>
  <path d="M176.9 51.2 c-0.7 -2 -2.1 -3.4 -4.2 -4.1 -4.3 -1.5 -6.7 -4 -6.7 -6.8 0 -3 1.3 -2.9 5.4 0.2 1.8 1.4 3.7 2.5 4.2 2.5 1.8 0.1 5.5 5 5.7 7.7 0.3 4 -3 4.4 -4.4 0.5z"/>
  <path d="M38.6 33.5 c0.9 -1.4 2.5 -2.5 3.5 -2.5 1.4 0 1.9 0.7 1.9 2.5 0 2.2 -0.4 2.5 -3.5 2.5 l-3.5 0 1.6 -2.5z"/>
  <path d="M154 27.7 c-1.9 -1.1 -5.5 -3.6 -7.9 -5.4 -4 -3 -5 -3.3 -11.4 -3.3 -4.9 0 -7.6 -0.5 -8.7 -1.5 -2.6 -2.3 -9.7 -3 -27.7 -2.7 -13.1 0.2 -16.3 0.6 -16.3 1.7 0 0.7 -1.6 1.9 -3.5 2.6 -2.6 1 -3.5 1.9 -3.5 3.6 0 2.1 -0.5 2.3 -4.4 2.3 -3.6 0 -4.6 -0.4 -5.1 -2 -0.4 -1.4 -1.5 -2 -3.4 -2 -4 0 -4.3 -0.9 -1.3 -3.5 2.3 -1.9 3.8 -2.3 9.2 -2.1 5.2 0.1 7.3 -0.4 10.1 -2.2 3.3 -2 4.9 -2.2 16.7 -2.2 10.3 0 13.4 -0.3 14.6 -1.5 1.9 -1.9 3.3 -1.9 5.2 0 0.9 0.8 3.2 1.5 5.2 1.5 2.1 0 4.8 0.9 6.2 2 2 1.6 4.1 2 10.6 2 7.7 0 8.2 0.1 11 3.1 1.6 1.7 4.6 3.9 6.6 5 2.1 1 4.2 2.7 4.7 3.8 2 3.7 -1.5 4.1 -6.9 0.8z"/>
 </g>
 <g fill="#ff9e00">
  <path d="M50 187.1 c0 -0.5 -1.9 -1.6 -4.2 -2.6 -2.4 -0.9 -6.1 -3.1 -8.3 -4.9 -2.2 -1.8 -5 -3.6 -6.2 -4 -2.4 -0.8 -7.3 -6 -7.3 -7.9 0 -0.7 -0.9 -2.3 -2 -3.7 -1.5 -2 -2 -4.1 -2 -10.2 0 -6.8 -0.3 -8 -2.6 -10.8 -2.5 -3 -2.6 -3.1 -0.8 -4.5 1.6 -1.1 2.2 -1 4.6 0.7 2.7 1.9 2.8 2.3 2.8 10.3 0 7 0.4 9.2 2.5 13.1 1.4 2.6 2.5 5.8 2.5 7 0 2.1 0.5 2.4 3.4 2.4 3.5 0 8.6 3.2 8.6 5.5 0 0.7 1.7 1.6 3.7 2 5.8 1.1 7.3 2.2 7.3 5.5 0 1.7 -0.4 3 -1 3 -0.5 0 -1 -0.4 -1 -0.9z"/>
  <path d="M68.3 186.5 c-1.8 -1.9 -1.6 -2.5 0.6 -2.5 1 0 2.4 -0.6 3 -1.4 0.7 -0.8 4.6 -1.6 10.7 -2 10.1 -0.8 12.4 -0.1 12.4 3.4 0 1.5 -0.6 1.8 -3.1 1.5 -1.8 -0.3 -3.4 -0.7 -3.7 -1 -0.3 -0.3 -1.6 0.2 -3 1.1 -1.9 1.3 -2.9 1.4 -5.2 0.4 -2.4 -1 -3.3 -0.9 -5.2 0.4 -2.7 2 -4.9 2 -6.5 0.1z"/>
  <path d="M107 182.3 c0 -2 0.5 -2.3 3.8 -2.3 2 0 5.1 -0.9 6.7 -2 1.7 -1.1 4.4 -2 6 -2 1.7 0 4.4 -0.9 6 -2 1.7 -1.1 4.2 -2 5.7 -2 2.6 0 13 -4.8 13.6 -6.2 0.2 -0.5 2.4 -0.8 4.8 -0.8 4.8 0 6.9 -1.6 10.8 -8.7 1.2 -2.1 3.1 -4.2 4.3 -4.8 2.2 -0.9 3.3 -4.3 3.3 -10 0 -1.8 0.7 -3.8 1.5 -4.5 0.8 -0.7 1.5 -2.3 1.5 -3.5 0 -2.1 3.1 -7.1 5.5 -8.7 3.7 -2.7 5.3 2 1.9 5.9 -1.3 1.5 -2.6 4 -2.9 5.4 -0.4 1.5 -1.3 3.3 -2.1 4 -0.8 0.6 -1.4 2.8 -1.4 4.9 0 2.9 -0.9 5 -4 8.9 -2.2 2.8 -4 5.4 -4 5.9 0 0.5 -1.7 2.8 -3.8 5.1 -2.5 2.8 -4.4 4 -5.4 3.6 -0.9 -0.4 -1.9 -0.2 -2.2 0.3 -0.3 0.6 -1.6 0.8 -2.7 0.5 -1.4 -0.4 -2.5 0 -3.1 1.1 -0.5 0.9 -1.5 1.6 -2.3 1.6 -0.8 0 -2.9 0.9 -4.7 2 -1.8 1.1 -4.3 2 -5.6 2 -1.2 0 -4 0.9 -6.2 2 -2.2 1.1 -5.1 2 -6.6 2 -1.4 0 -3.8 0.8 -5.2 1.9 -1.6 1.1 -4.9 2 -8 2.2 -4.8 0.4 -5.2 0.2 -5.2 -1.8z"/>
  <path d="M16.6 129.8 c-0.3 -1.8 -0.7 -7 -0.8 -11.5 -0.3 -8 -0.2 -8.3 1.9 -8.3 2.3 0 2.3 0.2 2.3 11.5 0 9.4 -0.3 11.5 -1.5 11.5 -0.8 0 -1.6 -1.3 -1.9 -3.2z"/>
  <path d="M184 102 c0 -5.8 0.1 -6 2.6 -6 1.4 0 2.3 0.4 1.9 1 -0.3 0.6 -0.3 1.6 0.2 2.3 1 1.6 1 3.9 0 5.4 -0.5 0.7 -0.6 1.7 -0.2 2.3 0.4 0.6 -0.4 1 -1.9 1 -2.5 0 -2.6 -0.2 -2.6 -6z"/>
  <path d="M19.6 97.8 c0.3 -1.8 0.7 -5.1 0.8 -7.3 0.1 -2.2 0.6 -4.8 1 -5.7 1.7 -3.8 2.6 -1.4 2.6 7.2 0 8.9 0 9 -2.5 9 -2.3 0 -2.5 -0.3 -1.9 -3.2z"/>
  <path d="M185.2 78.8 c-0.7 -0.7 -1.2 -3.6 -1.2 -6.5 0 -2.9 -0.4 -5.3 -1 -5.3 -0.5 0 -1 -1.4 -1 -3 0 -2.7 0.2 -2.9 1.9 -1.8 1.1 0.7 1.7 1.6 1.5 2 -0.3 0.4 0.2 1.8 1 3 0.9 1.2 1.6 3.3 1.6 4.5 0 1.3 0.8 2.8 1.9 3.4 1.7 1.1 1.7 1.4 0.2 3.1 -1.8 2.1 -3.2 2.3 -4.9 0.6z"/>
  <path d="M161 73.5 c0 -3.3 0.2 -3.5 3.5 -3.5 3.3 0 3.5 0.2 3.5 3.5 0 3.3 -0.2 3.5 -3.5 3.5 -3.3 0 -3.5 -0.2 -3.5 -3.5z"/>
  <path d="M18.8 72.4 c-1 -0.9 2.5 -7.3 4 -7.4 0.9 0 1.2 1.2 1 3.8 -0.2 2.8 -0.8 3.8 -2.3 4 -1.2 0.2 -2.4 0 -2.7 -0.4z"/>
  <path d="M23.9 55.3 c0.3 -4.9 1.7 -8.3 3.5 -8.3 0.3 0 0.6 3.2 0.6 7 0 6.6 -0.1 7 -2.2 7 -2.2 0 -2.3 -0.3 -1.9 -5.7z"/>
  <path d="M177.3 53.8 c-0.6 -0.7 -1.2 -2 -1.5 -2.8 -0.2 -0.8 -2.2 -2.4 -4.4 -3.5 -2.3 -1.2 -4.5 -3.3 -5.4 -5.2 -0.8 -1.8 -2.1 -3.3 -2.7 -3.3 -0.8 0 -1.3 -1.3 -1.3 -3 0 -2.8 0.2 -2.9 2 -1.8 1.1 0.7 2 1.8 2 2.5 0 0.7 0.6 1.3 1.3 1.3 0.7 0 1.8 0.9 2.5 2 0.6 1.1 2.9 2.8 4.9 3.7 4.4 2.2 8 7.8 6.2 9.9 -1.4 1.7 -2.4 1.8 -3.6 0.2z"/>
  <path d="M27 45.1 c0 -0.5 0.6 -1.6 1.3 -2.3 0.7 -0.7 2.3 -2.8 3.6 -4.5 1.2 -1.8 3.1 -3.3 4.2 -3.3 1.1 0 2.2 -0.7 2.5 -1.5 0.4 -0.8 1 -1.2 1.5 -0.9 0.5 0.3 0.9 0 0.9 -0.5 0 -0.6 0.5 -1.1 1 -1.1 0.6 0 1 1.1 1 2.5 0 1.6 -0.6 2.5 -1.5 2.5 -0.8 0 -1.5 0.9 -1.5 2 0 1.1 -0.4 2 -1 2 -0.5 0 -1.9 0.8 -2.9 1.8 -4 3.6 -5.1 4.2 -7.1 4.2 -1.1 0 -2 -0.4 -2 -0.9z"/>
  <path d="M155.5 29.1 c-0.3 -0.6 -1.5 -1.1 -2.6 -1.1 -1 0 -3.7 -1.7 -6 -3.7 -3.9 -3.6 -4.5 -3.7 -13 -4.3 -7 -0.4 -9.1 -0.9 -10.2 -2.3 -1.2 -1.7 -2.9 -1.9 -20.1 -1.8 -16.9 0.1 -19 0.3 -20.5 2 -0.9 1 -3.6 2.4 -6.1 3.2 -2.5 0.7 -4.7 1.6 -5 2 -0.9 1.2 -14 2.2 -14 1.1 0 -0.6 0.5 -1.4 1 -1.7 0.8 -0.5 0.7 -1.1 -0.1 -2.1 -0.8 -1 -0.8 -1.4 0 -1.4 0.6 0 2 -0.9 3.1 -2 2.4 -2.4 4.4 -1.7 6 2.1 1.5 3.6 4 3.8 4 0.4 0 -1.4 0.6 -2.5 1.4 -2.5 0.7 0 3 -1.1 5 -2.5 3.5 -2.4 4.4 -2.5 17.5 -2.5 11.1 0 14.1 -0.3 15.1 -1.5 1.6 -1.9 4.4 -1.9 5.9 -0.1 0.6 0.7 3.2 1.6 5.7 1.9 2.4 0.2 5.3 1.2 6.3 2.1 1.3 1.1 3.7 1.6 8.7 1.6 6.5 0 7.4 0.3 12.2 3.8 2.9 2 6.6 4.6 8.4 5.7 1.8 1.1 3.2 2.5 3 3 -0.2 1.4 -4.9 1.8 -5.7 0.6z"/>
 </g>
 <g fill="#ffae00">
  <path d="M49.1 185.9 c-1.7 -1.6 -4 -2.9 -5 -2.9 -1.1 0 -4.1 -1.8 -6.6 -4 -2.5 -2.2 -5.4 -4 -6.4 -4 -2.3 0 -4 -2.1 -7.4 -8.8 -2.3 -4.6 -2.7 -6.7 -2.7 -13.7 0 -8.2 -0.1 -8.4 -3.1 -10.6 -2.5 -1.8 -2.8 -2.4 -1.6 -3 1.2 -0.7 1.4 -2.9 1 -12.6 -0.2 -6.5 -0.9 -12.8 -1.5 -14.1 -1 -1.8 -0.8 -2.8 1.1 -5.3 1.3 -1.8 2.4 -4.2 2.4 -5.5 0 -1.4 0.3 -2.7 0.8 -3 0.5 -0.3 0.9 -3 0.9 -6.1 0 -6.5 1.8 -12.3 3.8 -12.3 1.9 0 1.4 22.7 -0.5 23.8 -0.9 0.5 -0.1 1.2 2.2 2.1 1.9 0.7 3.5 1.7 3.5 2.2 0 0.5 0.7 0.9 1.6 0.9 1.2 0 1.4 0.9 1.2 4.3 -0.3 3.7 -0.6 4.2 -2.9 4.5 -1.8 0.2 -2.9 1 -3.2 2.5 -0.3 1.2 -1.5 4.8 -2.7 7.9 -2.1 5.2 -2.1 5.8 -0.7 7.3 0.9 0.9 1.9 3.2 2.2 5.3 0.3 2 1 4.4 1.6 5.2 0.5 0.8 1.2 2.3 1.6 3.3 0.7 2.2 5.5 4.8 7 3.9 0.6 -0.4 1.4 -1.9 1.8 -3.4 0.4 -1.5 1.3 -3.2 2.1 -3.9 0.8 -0.6 1.4 -1.5 1.4 -2 0 -0.5 0.8 -2.7 1.8 -4.9 1.7 -4 1.8 -4.1 6.2 -3.8 l4.5 0.3 0.3 6.3 c0.2 4.5 -0.1 6.7 -1.2 7.8 -2 2 -3.3 8.7 -1.7 9.2 0.6 0.2 1.1 1.2 1.1 2.2 0 1 0.5 2.2 1 2.5 0.6 0.4 1.7 2.1 2.4 3.9 2.3 5.5 5.9 6.6 21.8 6.6 8.5 0 13.8 -0.4 13.8 -1 0 -0.5 0.8 -1 1.8 -1 0.9 0 3.4 -1.4 5.5 -3.1 2.9 -2.4 4.6 -3 7.5 -2.8 2 0.1 6.7 0.1 10.3 0 6.5 -0.1 6.6 -0.2 13 -5.7 3.5 -3.1 8 -6.4 9.9 -7.4 4.7 -2.4 8.3 -6.5 11 -12.3 1.2 -2.6 2.6 -5 3.1 -5.3 1.5 -0.9 1 -11.8 -0.6 -14 -0.8 -1.1 -1.4 -4.1 -1.5 -7.2 l0 -5.3 4.8 0.3 c4.5 0.3 4.8 0.5 7.4 5.3 1.6 2.8 2.8 6.6 2.8 8.6 0 2.3 0.6 3.9 1.5 4.3 0.8 0.3 1.5 1.2 1.5 2.1 0 0.8 0.7 1.5 1.5 1.5 0.7 0 1.9 0.8 2.4 1.8 0.8 1.3 1 0.8 1.1 -2.5 0 -2.8 0.5 -4.3 1.3 -4.3 0.9 0 0.9 -0.2 -0.1 -0.9 -0.9 -0.5 -1.2 -2.8 -1 -7.6 0.3 -6.6 0.4 -6.9 3.3 -7.8 1.7 -0.6 3.3 -1.5 3.7 -2.1 1.6 -2.3 0.8 -12.7 -1.2 -16.8 -1.1 -2.3 -2 -5 -2 -6 0 -1.1 -0.7 -3.3 -1.6 -4.9 l-1.5 -3.1 -6.8 0.7 c-4.1 0.4 -7.6 0.3 -8.7 -0.3 -1.1 -0.6 -2.7 -1.3 -3.6 -1.6 -1.2 -0.4 -1.8 -1.6 -1.8 -3.5 0 -5.5 0.7 -6.1 6.9 -6.1 l5.8 0 -0.4 -3.3 c-1.1 -10 -1.5 -11.7 -2.7 -11.7 -0.6 0 -3.1 -1.4 -5.4 -3.1 -3.4 -2.5 -4.2 -3.7 -4.2 -6.3 0 -1.8 -1.2 -5.1 -2.8 -7.7 -2.3 -3.5 -4.4 -5.2 -10.4 -8.2 -4.3 -2.1 -9.1 -3.7 -11 -3.7 -3.5 0 -8.8 1.9 -8.8 3.3 0 0.4 -2 0.7 -4.5 0.7 -5.4 0 -6.5 1.5 -6.6 9.2 0 3.9 -0.8 6.5 -2.8 9.8 -2.3 3.8 -3.3 4.5 -6.3 4.8 -5.3 0.4 -6.8 -3.2 -6.8 -15.9 0 -8.7 -0.2 -9.9 -1.9 -10.9 -2.6 -1.4 -5.1 -1.3 -8.2 0.4 -1.5 0.8 -5.9 1.7 -9.8 2.1 l-7.1 0.7 -0.1 -2.8 c-0.1 -2.9 -0.1 -2.9 -0.8 -0.4 -0.5 2 -1.4 2.6 -4.4 2.8 -2.7 0.2 -3.7 -0.1 -3.7 -1.1 0 -1.9 2.4 -3.9 3.5 -2.9 0.5 0.4 0.5 0.1 0.1 -0.6 -0.4 -0.7 -1.2 -1 -1.7 -0.7 -2.1 1.3 -0.6 -1.1 1.7 -2.8 3 -2.2 5.1 -1.6 6.4 1.8 1.1 3 3.6 3.3 4.3 0.5 0.3 -1.3 1.7 -2.2 3.7 -2.6 1.7 -0.4 3.7 -1.5 4.3 -2.5 1.1 -1.7 2.6 -1.9 15.3 -1.9 11.4 0 14.4 -0.3 15.4 -1.5 1.6 -1.9 4.4 -1.9 6 0 0.7 0.9 2.9 1.5 5.1 1.5 2.6 0 4.1 0.6 4.8 1.7 0.8 1.4 2.8 1.9 9.9 2.3 8.6 0.6 9.2 0.7 13.1 4.3 2.3 2 4.9 3.7 5.9 3.7 1.9 0.1 5.6 2.6 5.8 4 0.1 0.6 0.2 1.6 0.3 2.3 0.3 2.1 10.5 12.6 13.4 13.6 1.5 0.6 3 1.9 3.4 2.8 0.3 1 1.2 2.5 2 3.5 0.8 0.9 1 1.9 0.5 2.2 -1.3 0.8 -0.3 5.7 1.7 8.1 2.9 3.4 4.6 7.6 4.3 10.4 -0.2 1.6 0.4 3.3 1.2 4 1 0.8 1.4 2.2 1 3.6 -1.1 4.3 -1.7 22.8 -1.1 31.2 0.4 4.1 0.1 5.6 -1.4 6.8 -0.9 0.9 -2.1 3.6 -2.4 5.8 -0.4 2.3 -1 4.4 -1.4 4.7 -2.1 1.6 -5.1 6.6 -5.1 8.5 0 1.2 -0.7 2.8 -1.5 3.5 -0.9 0.8 -1.5 2.9 -1.5 5.6 0 3.6 -0.7 5 -4 8.9 -2.2 2.5 -4 5 -4 5.6 0 0.5 -1.6 2.6 -3.5 4.8 -3 3.3 -4 3.8 -7.2 3.5 -2.1 -0.1 -4.3 0.2 -4.9 0.7 -2.8 2.3 -10.8 5.9 -13.2 5.9 -1.5 0 -4 0.9 -5.7 2 -1.6 1.1 -4.4 2 -6 2 -1.7 0 -4.2 0.8 -5.5 1.7 -2.1 1.5 -6.1 2.5 -15.1 3.7 -1.5 0.2 -3.7 0.7 -5 1.2 -3.9 1.3 -5.3 1.3 -6.6 0.2 -0.7 -0.6 -1.3 -0.7 -1.3 -0.3 0 0.5 -0.9 0 -2.1 -1 -1.9 -1.9 -2.1 -1.9 -5.5 0 -3 1.6 -3.8 1.6 -5.9 0.5 -2.1 -1.1 -2.7 -1.1 -4.2 0.2 -2.2 1.8 -6.3 3 -6.3 1.7 0 -0.5 -1.1 -1.2 -2.6 -1.5 -1.8 -0.5 -3.1 -0.1 -4.7 1.4 -3.3 3.1 -8.9 2.7 -12.6 -0.9z"/>
  <path d="M167.2 94.3 l0.3 -4.8 5 0 c4.9 0 5 0 5.3 3.3 0.5 4.6 -1.2 6.2 -6.5 6.2 l-4.4 0 0.3 -4.7z"/>
  <path d="M19.5 75.9 c-0.4 -0.6 -0.4 -1.3 -0.1 -1.6 0.3 -0.3 0.1 -1.2 -0.4 -1.8 -0.7 -0.9 -0.6 -1.6 0.5 -2.5 0.8 -0.7 1.5 -1.9 1.5 -2.7 0 -0.8 0.5 -2.4 1.2 -3.6 1.5 -2.7 1.8 -3.8 2.8 -11 0.9 -6.3 2.7 -9.8 6.5 -12.3 1.4 -0.9 2.5 -2.2 2.5 -3 0 -0.7 1.6 -2.1 3.5 -3 1.9 -0.9 3.5 -2.1 3.5 -2.6 0 -0.5 1.2 -0.8 2.8 -0.6 1.8 0.2 2.6 -0.1 2.4 -1 -0.1 -0.8 0.2 -1.1 0.8 -0.7 1.6 1 1.2 5.5 -0.5 5.5 -2.8 0 -6.7 4.6 -7.7 9.1 -0.5 2.4 -0.9 6.8 -0.8 9.8 0.1 3.6 -0.5 6.6 -1.7 8.8 -1.6 2.9 -2.2 3.3 -6 3.3 -4.1 0 -4.3 0.1 -4.3 2.9 0 4.6 -1.7 8.1 -3.9 8.1 -1.1 0 -2.3 -0.5 -2.6 -1.1z"/>
 </g>
 <g fill="#ffe886">
  <path d="M56.7 175.3 c-1.6 -0.8 -3.5 -3 -4.2 -4.7 -0.8 -1.8 -2.1 -3.8 -2.9 -4.5 -0.8 -0.7 -1.2 -1.9 -0.9 -2.7 0.3 -0.8 0 -1.4 -0.6 -1.4 -1.4 0 -1.4 -8.7 0 -12.9 0.6 -1.7 1.5 -3.1 2.1 -3.1 1.6 0 0.5 -7.5 -1.2 -7.8 -1.3 -0.2 -5 6.1 -5 8.7 0 0.5 -0.6 1.4 -1.4 2 -0.8 0.7 -1.7 2.4 -2.1 3.9 -0.8 3.3 -2.1 4.2 -6 4.2 -3.1 0 -10.2 -3.7 -9.1 -4.7 0.3 -0.4 0 -1.3 -0.8 -2.2 -0.8 -0.9 -1.7 -3.2 -2 -5.2 -0.7 -4.7 -1.6 -6.9 -2.8 -6.9 -1.7 0 -0.4 -10.4 1.9 -15.2 1.3 -2.6 2.3 -5.5 2.3 -6.3 0 -0.8 0.7 -1.6 1.5 -1.6 0.8 -0.1 2 -0.2 2.7 -0.3 1.8 -0.2 2.2 -2.6 0.4 -2.6 -0.9 0 -1.6 -0.4 -1.6 -0.9 0 -0.5 -1.8 -1.6 -4 -2.5 -3.1 -1.2 -4 -2.1 -4 -4 0 -1.4 0.8 -2.9 1.8 -3.5 1.4 -0.8 1.8 -2.7 2 -11.1 0.4 -9.5 0.2 -10.3 -1.9 -12.6 -2.1 -2.3 -2.2 -2.5 -0.5 -3.7 1 -0.7 2 -3.2 2.3 -5.7 1 -7.8 3.3 -9.9 6.8 -6.4 0.9 0.9 1.7 1.5 1.9 1.3 3.9 -5.7 4.5 -8.6 2.1 -9.5 -2.1 -0.8 -1.9 -5 0.4 -7.3 1.2 -1.2 1.7 -2.7 1.4 -4.5 -0.4 -2 0.3 -3.4 3.2 -6.3 2.1 -2.1 4.8 -3.8 5.9 -3.8 1.3 0 2 -0.5 1.8 -1.4 -0.3 -1.2 -0.1 -1.2 1.4 0 1 0.8 1.5 0.9 1.2 0.4 -0.4 -0.6 1.4 -2.2 4 -3.5 2.6 -1.4 5 -2.9 5.4 -3.5 0.4 -0.5 1.5 -1 2.5 -1 1 0 1.8 -0.7 1.8 -1.5 0.1 -3.8 4 -5.5 5.2 -2.3 1.2 3.4 2.5 4.4 3.9 3.2 0.8 -0.6 2.6 -0.9 4 -0.6 1.4 0.2 3.8 -0.2 5.3 -0.9 3.1 -1.6 11.4 -1.8 14.2 -0.4 1.7 1 1.9 2.2 1.9 10.9 0 9.6 1.9 16.9 4 15.6 2.5 -1.6 6 -10.1 6 -14.7 0 -7.2 1.2 -8.8 6.4 -8.8 3.1 0 4.6 -0.5 5 -1.6 0.3 -0.8 1 -1.3 1.5 -0.9 0.5 0.3 1.2 0.1 1.6 -0.5 0.3 -0.5 3.8 -1 7.7 -1 6.1 0 8 0.5 14.6 3.8 6 2.9 8.1 4.6 10.4 8.1 1.6 2.5 2.8 5.9 2.8 7.7 0 2.4 0.8 3.8 3.5 5.8 1.9 1.4 4.4 3 5.7 3.5 1.3 0.4 2.3 1.4 2.4 2.2 0 0.8 0.2 2.2 0.2 3.2 0.1 1 1 1.7 2.5 1.7 5.7 0.1 6.1 3.6 0.6 5.6 l-3.4 1.2 3.8 1.6 c7.3 3.2 4.1 5.6 -7.4 5.6 -5.1 0 -6.8 0.4 -7.3 1.5 -0.3 1 0.1 1.8 1.2 2.1 0.9 0.3 2.5 1 3.5 1.5 1.3 0.7 2.3 0.7 3.2 -0.1 0.7 -0.6 1.7 -1 2.1 -0.9 0.5 0.1 1.7 -0.1 2.7 -0.5 0.9 -0.5 2.5 -0.5 3.5 0 0.9 0.4 2 0.6 2.5 0.6 1.1 -0.3 4.7 6 4.7 8.4 0 1.1 0.9 3.9 2 6.2 1.5 3.2 2 6.1 2 12.9 0 4.8 -0.4 9.3 -0.8 9.9 -0.4 0.6 -2 1.5 -3.7 2.1 -2.5 0.8 -3 1.5 -3.3 4.7 -0.2 2.4 0.2 4.2 1.1 4.9 2.5 2 2.8 5.5 0.5 6.2 -1 0.4 -1.8 1.4 -1.7 2.3 0.5 5.3 0 6.2 -3.5 6.2 -2.1 0 -3.6 -0.6 -4 -1.6 -0.3 -0.8 -1 -1.3 -1.5 -1 -1.1 0.7 -3.3 -1.8 -2.4 -2.7 0.3 -0.4 -0.2 -0.9 -1.1 -1.3 -1.1 -0.4 -1.6 -1.8 -1.6 -4.3 -0.1 -4.3 -4.8 -13.4 -7.2 -13.9 -2.3 -0.4 -2.4 3.4 -0.3 6.2 1.7 2.2 2.2 19.1 0.6 20 -0.5 0.3 -1.9 2.7 -3.1 5.3 -2.7 5.8 -6.3 9.9 -11 12.3 -1.9 1 -6.4 4.3 -9.9 7.4 -6.4 5.5 -6.5 5.6 -12.8 5.6 -4.9 0 -6.3 0.3 -6.3 1.5 0 1.7 -4.5 2.1 -5.5 0.5 -0.4 -0.6 -1.1 -0.8 -1.6 -0.5 -0.5 0.4 -0.9 0.1 -0.9 -0.5 0 -0.6 -1.9 0.4 -4.2 2.3 -2.4 1.9 -4.9 3.2 -5.5 3 -0.7 -0.3 -1.3 0 -1.3 0.6 0 1.8 -33.8 1.3 -37.3 -0.6z m36 -5.3 c1.4 -1.1 3.4 -2 4.3 -2 1 0 2.3 -0.6 2.9 -1.4 0.7 -0.9 4.8 -1.6 11.9 -2 l10.7 -0.8 6.2 -5.9 c3.4 -3.2 6.9 -5.9 7.9 -5.9 2.1 0 11.4 -8.8 11.4 -10.8 0 -0.8 0.9 -2.5 2 -3.9 2.5 -3.3 2.9 -14.6 0.5 -16.9 -0.9 -1 -1.5 -3.4 -1.5 -6.4 0 -5.4 0.7 -6 7.1 -6 5.2 0 7.9 1.5 7.9 4.4 0 1.3 0.9 3.1 2 4.1 1.4 1.3 2 3.1 2 6 0 2.9 0.6 4.7 2 6 2.3 2.1 2.1 3 2.4 -10.5 l0.1 -8.5 3.5 -1.1 3.5 -1.2 0.1 -7.3 c0.1 -4.1 -0.1 -6.1 -0.3 -4.4 -0.6 3.7 -1.7 4.5 -7 4.5 -6.4 0 -7.3 -0.6 -7.3 -5.4 0 -5.3 1.3 -6.6 6.7 -6.6 4.2 0 4.3 -0.1 4.3 -3.3 0 -4.1 -3.3 -7.8 -5.2 -5.9 -0.7 0.7 -3.7 1.2 -6.8 1.2 -5.2 0 -5.9 -0.3 -8.8 -3.6 -2.2 -2.5 -3.2 -4.6 -3.2 -6.9 0 -4 0.5 -4.4 7 -5.2 l5.1 -0.6 -0.3 -5.6 c-0.3 -5.1 -0.5 -5.6 -2.8 -5.9 -1.4 -0.2 -3.1 -0.9 -3.8 -1.5 -2 -1.6 -5.2 -8.3 -5.2 -10.9 0 -2.9 -8.7 -11.8 -11.6 -11.8 -1.1 0 -2.9 -0.9 -3.9 -2 -2.3 -2.5 -10 -2.8 -12.6 -0.4 -0.9 0.8 -3.9 1.8 -6.6 2.2 l-4.8 0.7 -0.5 5.6 c-0.3 3.1 -1.2 7.1 -2.2 9 -0.9 1.9 -2.1 4.6 -2.7 6.1 -0.9 2.4 -1.6 2.8 -4.9 2.8 -3 0 -4.4 -0.7 -6.7 -3.3 -2.8 -3 -3 -3.8 -3.5 -13.7 l-0.5 -10.5 -3 -0.3 c-2.4 -0.2 -3.8 0.5 -7 3.8 -4.7 4.8 -9.1 5.4 -13.4 1.7 -2.2 -1.8 -3.6 -2.2 -7.4 -1.9 -3.2 0.3 -4.7 0.8 -4.7 1.8 0 0.8 -1.1 1.9 -2.5 2.4 -1.4 0.5 -2.5 1.4 -2.5 2 0 0.5 -0.7 1 -1.6 1 -0.9 0 -3.3 1.2 -5.4 2.7 -3.3 2.4 -3.9 3.4 -4.4 7.8 -0.3 2.7 -0.6 7.3 -0.6 10.1 0 3.5 -0.5 5.6 -1.6 6.5 -1.4 1.2 -1.4 1.4 0.1 2.5 1.2 0.9 1.5 2.4 1.3 6.1 l-0.3 4.8 -4.2 0.3 c-3.3 0.2 -4.4 -0.1 -5.7 -1.9 l-1.5 -2.3 -0.9 2.5 c-0.7 1.7 -0.6 2.6 0.4 3.2 1.7 1 2 20 0.4 24.1 -0.8 2.2 -0.7 2.6 0.8 2.7 0.9 0 3.7 0.1 6.2 0.2 l4.5 0.2 0.3 5.1 c0.3 4.8 0 5.4 -2.6 7.3 -1.6 1.1 -4.1 2.5 -5.6 3.1 -1.8 0.6 -2.6 1.7 -2.6 3.3 0 1.3 -0.9 3.2 -2 4.2 -2.6 2.3 -2.6 6.7 0 9 1.4 1.3 2 3.1 2 6 0 3.3 0.6 4.7 2.9 6.9 3.2 3.1 5.1 2.8 5.1 -0.9 0 -1.4 0.9 -2.9 2 -3.5 1.3 -0.7 2 -2.1 2 -3.9 0 -2.1 1.4 -4.1 5.5 -8 4.9 -4.6 5.9 -5.2 9.3 -4.9 l3.7 0.3 0.3 5.1 c0.2 3.6 -0.1 5.4 -1.3 6.4 -0.9 0.7 -1.5 2.9 -1.5 5.5 0 2.9 -0.6 4.7 -2 6 -1.1 1 -2 3 -2 4.5 0 1.5 0.9 3.5 2 4.5 1.1 1 2 2.7 2 3.9 0 1.1 1.2 3.3 2.7 4.8 l2.7 2.8 14.4 0 c12.9 0 14.7 -0.2 16.9 -2z m81.2 -75.4 c0.9 -1 0.9 -1.6 0.1 -2.1 -1.6 -1 -4 0.2 -4 2 0 1.9 2.4 2 3.9 0.1z"/>
  <path d="M89.2 106.8 c-1.6 -1.6 -1.5 -7 0.1 -9.2 0.9 -1.3 2.3 -1.7 5.2 -1.4 l4 0.3 0.3 4.9 c0.2 3.2 -0.1 5.2 -1 5.7 -1.9 1.3 -7.2 1.1 -8.6 -0.3z"/>
 </g>
 <g fill="#fff7a7">
  <path d="M55.7 172.2 c-1.5 -1.5 -2.7 -3.7 -2.7 -4.8 0 -1.2 -0.9 -2.9 -2 -3.9 -1.6 -1.4 -2 -3.1 -2 -7.5 0 -4.4 0.4 -6.1 2 -7.5 1.4 -1.3 2 -3.1 2 -6 0 -2.6 0.6 -4.8 1.5 -5.5 1.7 -1.4 2 -4.6 0.5 -5.5 -0.5 -0.3 -3.5 1.7 -6.5 4.6 -4.1 3.9 -5.5 5.9 -5.5 8 0 1.8 -0.7 3.2 -1.9 3.9 -1.1 0.5 -2.1 2.2 -2.3 3.7 -0.3 2.5 -0.8 2.8 -4.2 3.1 -5.5 0.5 -9.6 -3.5 -9.6 -9.3 0 -2.9 -0.6 -4.7 -2 -6 -2.9 -2.6 -2.9 -12.4 0 -15 1.1 -1 2 -2.9 2 -4.2 0 -1.6 0.8 -2.7 2.6 -3.3 4.4 -1.7 8.4 -5 8.4 -7 0 -3 -2.1 -3.5 -4.1 -0.9 l-1.8 2.4 -2.3 -2.1 c-1.3 -1.2 -3.3 -2.5 -4.5 -2.8 -3.2 -1 -3.7 -3.5 -1.1 -5.6 2 -1.6 2.3 -2.9 2.6 -10.7 0.3 -7.9 0.2 -9 -1.7 -10.7 -2.6 -2.4 -2.6 -3.6 -0.1 -8.1 1.1 -2 2 -4.6 2 -6 0 -2.6 2.1 -4.6 2.8 -2.7 0.7 2.1 4.2 1.3 5.2 -1.2 0.5 -1.3 1.4 -2.7 1.9 -3.1 1.6 -0.9 1.4 -5.2 -0.2 -5.8 -1.7 -0.6 -1.5 -4.6 0.2 -5.6 0.7 -0.5 1.5 -2.8 1.8 -5.2 0.3 -2.4 1.2 -4.8 2 -5.2 0.7 -0.5 1 -1.3 0.7 -1.9 -0.4 -0.6 -0.3 -0.8 0.3 -0.5 0.6 0.4 1.9 0 2.9 -0.8 1 -0.8 2.7 -1.5 3.7 -1.5 1 0 2 -0.7 2.3 -1.5 0.4 -0.8 1.2 -1.5 1.9 -1.5 0.6 0 2 -0.9 3 -2 1 -1.1 3 -2 4.5 -2 2.7 0 7 -3.6 7 -5.8 0 -1.7 1.7 -1.5 2.4 0.3 0.3 0.8 0.1 1.5 -0.4 1.5 -2 0 -0.9 1.8 3.1 5 l4.1 3.2 4.2 -4.1 c4.2 -4.1 4.4 -4.2 10.2 -3.9 l5.9 0.3 0.5 10.5 c0.5 10.2 0.6 10.6 3.8 14 3.2 3.4 3.4 3.4 4.8 1.6 0.7 -1.1 1.4 -2.7 1.4 -3.6 0 -0.8 0.7 -2.6 1.7 -3.9 0.9 -1.3 1.9 -5.2 2.2 -8.5 l0.6 -6.1 4.8 -0.7 c2.7 -0.4 5.7 -1.4 6.6 -2.2 1.3 -1.2 3.8 -1.6 9.3 -1.6 6.2 0 7.8 0.3 9.3 2 1 1.1 2.8 2 3.9 2 2.9 0 11.6 8.9 11.6 11.8 0 2.6 3.2 9.3 5.2 10.9 0.7 0.6 2.4 1.3 3.8 1.5 1.9 0.2 2.6 1 2.8 3.1 0.4 2.9 0.6 3.1 5.5 4.1 1.5 0.4 2.7 1.1 2.7 1.6 0 0.5 -1.2 1.2 -2.7 1.6 -4.8 1 -5.3 1.3 -4.7 2.9 0.3 0.8 1.6 1.5 2.8 1.5 1.1 0 2.8 0.4 3.6 1 2.1 1.3 0.2 1.8 -9.3 2.3 -4.3 0.2 -8.3 0.9 -8.8 1.4 -0.7 0.7 0 2.1 2.1 4.4 3.8 4.2 7.5 4.6 11.3 1.1 l2.7 -2.6 3.4 3.3 c2.5 2.5 3.5 4.3 3.9 7.7 0.2 2.5 1.2 5.3 2.1 6.3 1.4 1.5 1.6 3.6 1.4 11.6 l-0.3 9.7 -3.5 1.2 c-3.1 1 -3.5 1.6 -3.8 4.8 -0.2 2.2 0.5 5 1.7 7.4 2.1 3.8 2.1 3.9 0.2 5.4 -1.1 0.8 -2.1 2.4 -2.3 3.5 -0.5 3 -3.7 3 -6.9 -0.1 -2.2 -2.1 -2.9 -3.7 -2.9 -6.7 0 -2.7 -0.8 -4.8 -2.6 -6.9 -1.4 -1.7 -2.3 -3.7 -2 -4.4 0.7 -1.9 -3 -3.7 -6 -3 -2.8 0.7 -3.2 3.7 -0.9 6 1.1 1.1 1.5 3.8 1.5 10.9 0 7.9 -0.3 9.8 -2 12 -1.1 1.4 -2 3.1 -2 3.9 0 2 -9.3 10.8 -11.4 10.8 -1 0 -4.5 2.6 -7.9 5.9 -5.8 5.5 -6.5 5.9 -12 6.3 -3.7 0.3 -6.2 1 -7 2.1 -1.1 1.5 -1.5 1.5 -4.5 0 -3 -1.4 -3.4 -1.4 -5.1 0.1 -0.9 0.9 -2.4 1.6 -3.3 1.6 -0.8 0 -2.7 0.9 -4.1 2 -2.3 1.8 -4 2 -19.9 2 l-17.4 0 -2.7 -2.8z m37 -3.2 c1.4 -1.1 3.3 -2 4.3 -2 0.9 0 2.7 -0.9 4 -2 2 -1.7 3.7 -2 11.9 -2 l9.7 0 5.9 -6 c3.3 -3.3 6.7 -6 7.7 -6 2.4 0 10.8 -7.8 10.8 -10 0 -0.9 0.9 -2.9 2 -4.3 2.5 -3.2 2.9 -15 0.5 -17.3 -1.9 -1.9 -1.9 -8.1 -0.1 -10 1 -0.9 3.7 -1.4 8 -1.4 l6.6 0 0 3 c0 1.7 0.9 3.8 2.2 5 1.4 1.3 2.4 3.7 2.8 6.5 0.8 7.3 2.3 5.2 2.1 -3 -0.3 -8.5 0.7 -10.9 4.9 -12.3 2.4 -0.9 3 -1.7 3 -4.1 l0 -3 -7.2 -0.3 -7.3 -0.3 -0.3 -4.3 c-0.4 -5.6 1 -7.2 6.4 -7.2 4.3 0 4.4 0 4.4 -3.4 0 -1.9 -0.4 -3.8 -1 -4.1 -0.5 -0.3 -1 -1.6 -1 -2.8 0 -2.1 -0.1 -2.1 -1.3 0.3 -1.1 2.2 -2 2.5 -7.1 2.8 -5.8 0.3 -6 0.2 -9.7 -3.8 -2.9 -3.1 -3.9 -5 -3.9 -7.5 0 -4.1 1.8 -5.6 7.6 -6.3 l4.5 -0.5 -0.3 -4 c-0.2 -3.3 -0.8 -4.3 -3.3 -5.7 -3.2 -1.8 -8.4 -10.1 -8.5 -13.7 0 -2.3 -8.3 -10.3 -10.7 -10.3 -0.8 0 -2.6 -0.9 -4 -2 -3.4 -2.6 -9.2 -2.6 -12.6 0 -1.4 1.1 -3.3 2 -4.4 2 -5.3 0.1 -6.3 1 -6.3 6 0 3.2 -0.6 5.5 -2 7.3 -1.1 1.4 -2 3.4 -2 4.4 0 3.7 -2.9 6.3 -6.9 6.3 -3 0 -4.4 -0.7 -7.4 -3.8 l-3.6 -3.7 -0.3 -10 c-0.3 -9.8 -0.3 -10 -2.8 -10.3 -1.8 -0.2 -3.6 0.8 -6.5 3.8 -3.1 3.2 -4.6 4 -7.5 4 -2.4 0 -4.3 -0.7 -5.5 -2 -2.3 -2.6 -12.5 -3 -12.5 -0.5 0 0.8 -0.7 1.5 -1.5 1.5 -0.8 0 -1.9 0.9 -2.5 2 -0.6 1.1 -1.8 2 -2.7 2 -0.9 0 -3.1 1 -4.9 2.2 -3.2 2.2 -3.2 2.2 -3.6 12.1 -0.3 7.9 -0.7 10.2 -2.1 11.2 -1.7 1.2 -1.4 4.5 0.4 4.5 1 0 1.2 6 0.3 8.4 -0.7 1.8 -9.8 2.3 -10.9 0.6 -0.4 -0.6 -1.1 -0.8 -1.6 -0.5 -0.5 0.4 -0.3 1.5 0.6 2.8 1.7 2.4 2.2 21.1 0.6 23.6 -1.6 2.5 2.6 4.9 7.6 4.3 l4.3 -0.5 0 5 c0 5.5 -2.4 8.8 -7.6 10.2 -2 0.5 -3 1.6 -3.6 3.8 -0.4 1.7 -1.5 3.6 -2.3 4.3 -2.1 1.7 -1.9 5.7 0.5 8.7 1.1 1.5 2 4.1 2 6.1 0 2.3 0.8 4.4 2.2 5.9 2.7 2.9 3.8 2.9 3.8 0 0 -1.3 0.9 -3.2 1.9 -4.1 1.1 -1 2.1 -3 2.3 -4.5 0.2 -1.5 1.2 -3 2.6 -3.6 1.2 -0.5 2.2 -1.4 2.2 -1.9 0 -0.6 1.2 -2.3 2.7 -3.8 2.3 -2.4 3.5 -2.8 8 -2.8 l5.3 0 0 5.4 c0 3.5 -0.5 5.8 -1.5 6.6 -0.8 0.7 -1.5 2.9 -1.5 5 0 2.2 -0.8 4.8 -2 6.3 -1.1 1.4 -2 3.5 -2 4.7 0 1.2 0.9 3.3 2 4.7 1.1 1.4 2 3.3 2 4.1 0 0.9 1 2.6 2.2 3.9 2.1 2.2 2.8 2.3 16.6 2.3 12.9 0 14.7 -0.2 16.9 -2z m81.7 -72.6 c2.5 -1 1.9 -4.3 -0.9 -5 -2.7 -0.7 -5.5 0.9 -5.5 3.1 0 2.1 3.4 3 6.4 1.9z m-138.6 -26.1 c0.2 -1.2 -0.4 -2.3 -1.3 -2.7 -3.2 -1.2 -4.8 1.7 -2.3 4.2 1.7 1.7 3.2 1 3.6 -1.5z"/>
  <path d="M91 106.5 c0 -0.8 -0.7 -1.5 -1.5 -1.5 -1 0 -1.5 -1.1 -1.5 -3.5 0 -2.8 0.4 -3.5 2 -3.5 1.1 0 2 -0.4 2 -1 0 -1.7 6.7 -1.2 7.4 0.6 1.1 2.8 0.6 7.5 -0.8 9 -2 1.9 -7.6 1.9 -7.6 -0.1z m5 -4.5 c0 -2.7 -2.1 -3.6 -3.6 -1.5 -1 1.3 -1.1 2.2 -0.3 3.1 1.4 1.7 3.9 0.6 3.9 -1.6z"/>
 </g>
 <g fill="#ffffb3">
  <path d="M56.2 171.7 c-1.2 -1.3 -2.2 -3 -2.2 -3.9 0 -0.8 -0.9 -2.7 -2 -4.1 -1.4 -1.8 -2 -4 -2 -7.7 0 -3.7 0.6 -5.9 2 -7.7 1.2 -1.5 2 -4.1 2 -6.3 0 -2.1 0.7 -4.3 1.5 -5 0.8 -0.7 1.5 -2.3 1.5 -3.6 0 -1.8 -0.5 -2.4 -2.3 -2.4 -2.7 0 -12.7 10 -12.7 12.8 0 1 -0.9 2.7 -2 3.7 -1.1 1 -2 2.9 -2 4.2 0 2 -0.5 2.3 -3.8 2.3 -5 0 -8.2 -3.2 -8.2 -8.2 0 -1.9 -0.8 -4.6 -1.9 -5.9 -1.1 -1.4 -2 -4.5 -2.2 -7.4 -0.3 -4.1 0 -5.6 1.8 -7.9 1.3 -1.6 2.3 -3.5 2.3 -4.2 0 -1.8 0.9 -1.8 5.1 0.2 6.3 2.9 6.4 2.9 6.7 8 0.4 7.4 0.8 8.1 3.5 5.5 1.3 -1.1 3.5 -2.1 4.9 -2.1 2.3 0 2.6 -0.5 3.3 -4.7 0.6 -4.1 1.6 -5.6 7.1 -11 l6.4 -6.3 12.2 0 c11 0 12.6 0.2 17.3 2.6 4.9 2.3 5.3 2.9 5.9 6.8 0.4 2.4 0.4 6.2 0 8.4 -0.6 4.1 -0.8 4.2 -4.5 4.2 -4.4 0 -7.5 -2.4 -8.5 -6.5 -0.3 -1.4 -0.9 -2.5 -1.1 -2.5 -0.3 0 -2.9 2.5 -5.8 5.5 -4.4 4.5 -5.9 5.5 -8.7 5.5 -6.3 0 -7.8 0.9 -7.8 4.7 0 1.9 -0.4 4.2 -1 5.2 -0.8 1.5 0.1 2.8 4.8 7.3 8 7.7 8.8 7.8 18.7 2.9 8 -4 8.6 -4.1 18.1 -4.1 7.5 0 10.7 -0.4 13.8 -1.9 2.3 -1 6.6 -2.1 9.6 -2.4 3.9 -0.3 5.7 -1 6.5 -2.3 3.4 -6 8.7 -8.2 17 -6.9 l4.5 0.6 -2 2.6 c-1.1 1.4 -2 3.4 -2 4.3 0 2.2 -8.4 10 -10.7 10 -1 0 -4.5 2.7 -7.8 5.9 l-6 5.9 -10.2 0.5 c-7.5 0.4 -10.7 1 -11.9 2.1 -0.8 0.9 -2.4 1.6 -3.3 1.6 -1 0 -3 0.9 -4.4 2 -2.3 1.8 -4 2 -19.9 2 -16.9 0 -17.5 -0.1 -19.6 -2.3z"/>
  <path d="M118.6 133.4 c-0.3 -0.9 -0.6 -2.7 -0.6 -4 0 -1.4 -0.9 -4.2 -2 -6.4 -2.1 -4.1 -2.7 -11.5 -1 -12.5 0.6 -0.3 1 -2.4 1 -4.6 0 -5.1 1.1 -7.2 5.4 -9.8 2.8 -1.8 4.9 -2.1 13.4 -2.1 5.6 0 10.4 0.4 10.7 1 0.3 0.6 2.4 1 4.5 1 2.1 0 4.5 0.3 5.4 0.6 2.4 0.9 9.3 10.6 10.1 14.1 0.3 1.7 1.3 3.7 2.1 4.4 0.8 0.6 1.4 1.7 1.4 2.4 0 0.8 0.9 1 2.4 0.8 2.3 -0.5 2.5 -0.1 3 4.8 0.7 5.8 -0.3 11 -2.2 11.7 -2.3 0.7 -6.2 -4.9 -6.2 -8.9 0 -2.7 -0.7 -4.6 -2.5 -6.5 -1.5 -1.6 -2.5 -3.9 -2.5 -5.5 0 -2.7 -0.3 -2.9 -3.9 -2.9 -2.8 0 -4.4 0.6 -5.3 1.9 -1.2 1.6 -2 1.8 -4.9 1.2 -1.8 -0.5 -4.7 -1.6 -6.4 -2.5 -3.4 -1.8 -6.3 -2 -8.5 -0.6 -1.2 0.7 -1.2 1.1 0.3 2.8 1.5 1.6 1.7 3.4 1.5 9.8 l-0.3 7.9 -3.7 0.3 c-2.5 0.2 -3.8 0.8 -3.8 1.8 0 2 -6.6 1.9 -7.4 -0.2z"/>
  <path d="M103 129.8 c0 -1.3 -0.7 -3.6 -1.5 -5.2 -0.8 -1.5 -1.5 -4.6 -1.5 -6.8 l0 -3.9 4.8 0.3 4.7 0.3 0.3 8.8 0.3 8.7 -3.6 0 c-3 0 -3.5 -0.3 -3.5 -2.2z"/>
  <path d="M30 118.4 c0 -0.5 1.6 -2.2 3.5 -3.7 1.9 -1.5 3.5 -3.6 3.5 -4.5 0 -3.4 2.2 -4.2 10.7 -4.2 l8.3 0 0 4 c0 3.9 -0.1 4 -3.5 4 -2 0 -4.8 0.9 -6.3 2 -2.8 2 -16.2 4 -16.2 2.4z"/>
  <path d="M171 115.7 c0 -0.7 -1.1 -2.8 -2.5 -4.7 -2.1 -2.9 -2.5 -4.5 -2.5 -10.4 0 -5.9 0.2 -6.7 1.3 -5.2 0.9 1.3 2.3 1.7 5.2 1.4 3.5 -0.3 4 -0.6 4 -2.8 0 -2 -0.6 -2.6 -3 -2.8 -2.2 -0.3 -3.9 -1.6 -6 -4.5 -3.6 -5 -5.6 -5.6 -9.1 -2.8 -1.5 1.2 -3.8 2.1 -5.1 2.1 -1.3 0 -4.1 0.9 -6.3 2 -4.7 2.4 -9.7 2.6 -12.8 0.4 -1.9 -1.3 -2.2 -2.4 -2 -5.7 0.3 -3.8 0.6 -4.2 3.6 -4.8 4 -0.8 8 -4.3 9.8 -8.6 1.5 -3.6 4.9 -5.7 10.7 -6.7 2.8 -0.5 3.6 -1.1 2.9 -1.9 -2.3 -3.1 -4.3 -15.7 -2.4 -15.7 0.4 0 1.3 0.9 2 2 0.7 1.2 2.4 2.5 3.7 3 3.2 1.2 4.6 4.8 4.3 10.8 l-0.3 4.7 -4.9 0.7 c-2.7 0.4 -5.5 1.3 -6.3 2.1 -1.2 1.2 -0.9 2 2.4 5.5 4.7 5 8.4 5.6 10.9 1.7 0.9 -1.4 2.4 -2.5 3.4 -2.5 2.8 0 6 5.2 6 9.7 0 2.7 0.6 4.6 2 5.8 1.7 1.6 2 3.1 2 11.1 l0 9.4 -3.5 1.4 c-2.2 1 -3.7 2.4 -4.1 4 -0.6 2.6 -3.4 3.7 -3.4 1.3z"/>
  <path d="M27 107.5 c-0.7 -0.8 -2.1 -1.5 -3.2 -1.5 -2.4 0 -3.6 -3 -1.6 -4.4 2.8 -2 3.8 -5.4 3.8 -12.5 0 -6 -0.3 -7.4 -2.6 -10 -2.6 -3.1 -2.6 -3.2 -0.8 -5.8 2.7 -3.7 3.2 -4.6 3.8 -6.6 1 -3.1 4 -1.6 4.6 2.3 0.4 2.6 1 3.6 2.6 3.8 3.1 0.4 4.1 -2.8 1.5 -5 -2.8 -2.1 -2.8 -5.8 -0.1 -5.8 1.6 0 2 0.7 2 3 0 2.8 0.2 3 3.9 3 3.4 0 4.2 0.5 6 3.3 1.1 1.8 3.9 4.3 6.1 5.6 2.4 1.3 4.7 3.6 5.4 5.3 l1.3 2.9 3.1 -3.6 c1.8 -1.9 3.2 -4.2 3.2 -4.9 0 -2.5 3.6 -4.6 7.8 -4.6 l4.2 0 0 6 c0 3.2 -0.4 6.9 -0.9 8.2 -0.5 1.3 -1.2 3.4 -1.5 4.8 -0.3 1.4 -2.1 3.5 -4.1 4.8 -3.1 2 -4.7 2.2 -15.8 2.2 l-12.3 0 -6.1 -6.2 c-4.1 -4.2 -6.3 -7.3 -6.6 -9.3 -0.4 -3 -1.1 17.2 -0.7 23.3 0.2 3.4 -1 4.1 -3 1.7z"/>
  <path d="M97 98 l0 -4.1 5.8 0.3 5.7 0.3 0.3 3.8 0.3 3.7 -6 0 -6.1 0 0 -4z"/>
  <path d="M86.7 80.3 c-0.4 -0.3 -0.7 -2.4 -0.7 -4.5 l0 -3.8 4.3 0 c5.2 0 6.7 1.3 6.7 5.7 0 3.3 0 3.3 -4.8 3.3 -2.7 0 -5.2 -0.3 -5.5 -0.7z"/>
  <path d="M108.7 76 c-1.4 -1.1 -3.1 -2 -3.7 -2 -0.7 0 -4.5 -3.2 -8.6 -7.1 -4.9 -4.8 -8.4 -7.4 -10.6 -7.8 -4.5 -0.9 -7.8 -6 -7.8 -11.8 0 -7.4 -4.2 -13.3 -9.6 -13.3 -2.4 0 -4.5 1.1 -7.9 4 -2.5 2.2 -5.2 4 -5.9 4 -2.9 0 -6.6 4.1 -6.6 7.3 0 1.7 -0.7 5.1 -1.7 7.5 -1.6 4.2 -1.7 4.3 -5.7 4 -3.4 -0.3 -4.1 -0.6 -3.8 -2.3 0.1 -1.1 0.4 -6.2 0.5 -11.2 0.3 -9.3 0.3 -9.3 3.7 -11.8 1.9 -1.4 4.2 -2.5 5.2 -2.5 0.9 0 2.2 -0.9 2.8 -2 0.6 -1.1 1.6 -2 2.2 -2 0.6 0 1.6 -0.7 2.3 -1.6 0.8 -1.2 3.1 -1.7 7.8 -1.9 6 -0.3 7.1 -0.1 9.8 2.2 l3 2.6 4.3 -4.2 c4.1 -4 4.5 -4.2 9.7 -3.9 l5.4 0.3 0.3 10.1 0.3 10.1 4 3.9 4 3.9 2 -2.4 c1 -1.3 1.9 -3.2 1.9 -4.4 0 -1.1 0.8 -2.9 1.7 -4 1.1 -1.1 2 -4.2 2.3 -7.5 l0.5 -5.6 4 -0.4 c2.1 -0.2 5 -1.2 6.3 -2.3 3.6 -2.8 14.9 -2.7 18.5 0.1 1.4 1.1 3.2 2 4 2 2.7 0 10.5 8.3 11.1 11.8 0.5 3.1 0.5 3.2 -3.2 3.2 -2 -0.1 -4.8 -0.7 -6.2 -1.5 -1.4 -0.8 -4.7 -1.4 -7.4 -1.5 -3.1 0 -6.1 -0.7 -8.2 -2.1 -4 -2.4 -7.4 -1.3 -7.4 2.5 0 2.7 -1.7 3.6 -6.4 3.6 -6.3 0 -7.8 4.9 -3.4 11.2 1 1.4 1.8 3.9 1.9 5.5 0 1.5 0.4 3.7 0.8 4.8 0.8 1.9 0.8 1.9 2.2 -0.3 1.1 -1.7 2.3 -2.2 5.9 -2.2 7.9 0 9 0.7 9 5.4 0 5.2 -0.4 5.6 -7.1 8.9 -6.8 3.3 -12.6 3.5 -16.2 0.7z"/>
  <path d="M121.5 57 c-1.8 -3.5 -2 -11.1 -0.3 -12.8 1.9 -1.9 8.2 -1.4 10.6 0.8 1.7 1.6 2.2 3.2 2.2 7 0 6 -1.8 8 -7 8 -3.4 0 -4.2 -0.4 -5.5 -3z"/>
 </g>
 <g fill="#ffffc3">
  <path d="M68.5 159.1 c-1.6 -1 -5.2 -4.2 -8 -7 -4.9 -5 -4.9 -5.2 -3.6 -8.4 0.8 -1.7 1.6 -5.1 1.8 -7.4 0.5 -4.5 1.7 -5.3 8.1 -5.3 2.7 0 4.4 -1.1 9.2 -6 7.5 -7.6 10.3 -7.9 12.9 -1.2 1.2 2.8 4.7 6 5.6 5 0.4 -0.4 0.7 -4.7 0.6 -7.9 -0.1 -2.2 -1.1 -3.1 -5.4 -5.3 -4.6 -2.2 -6.7 -2.6 -14.5 -2.6 l-9.2 0 -6.5 6.4 c-3.7 3.6 -6.5 7.2 -6.5 8.3 0 2.3 -3.6 7.3 -5.2 7.3 -0.5 0 -2.3 1.1 -4 2.5 -5.5 4.7 -8.8 2.8 -8.8 -5.1 0 -5.5 -0.7 -6.6 -5.5 -8.1 -2.4 -0.8 -3 -1.5 -3 -3.8 0 -2.5 0.5 -3 4 -4 5.6 -1.4 6.5 -2.2 6.5 -5.5 0 -3.4 -2.6 -4.7 -5.1 -2.4 -1.6 1.4 -1.9 1.4 -3.6 -0.3 -1.7 -1.7 -1.9 -3.5 -1.8 -16.7 0.2 -15.7 0.6 -17.2 4.9 -15.7 1.3 0.5 2.2 1.9 2.4 3.7 0.2 2 2.3 4.9 6.5 9.2 l6.1 6.2 9.4 0 c9.3 0 10.4 -0.3 16.1 -4.6 0.2 -0.2 0.5 -1.4 0.6 -2.7 0.2 -1.4 0.8 -3.4 1.4 -4.5 1.6 -2.9 1.4 -8.2 -0.2 -8.2 -1.7 0 -4.3 2.8 -5.1 5.7 -0.8 2.5 -7 8.3 -8.9 8.3 -2 0 -3.4 -1.3 -4.2 -3.8 -0.3 -1.3 -2.8 -3.6 -5.3 -5.2 -2.6 -1.6 -5.5 -4.3 -6.5 -6 -1.8 -3 -2 -3.1 -3.7 -1.3 -1.2 1.2 -1.5 2.3 -0.9 3.4 1 2 0.2 3 -1.8 2.2 -1.1 -0.4 -1.3 -1.5 -0.8 -4.4 0.5 -3.1 0.2 -4.4 -1.4 -6.5 -2.8 -3.5 -2.6 -5.5 0.5 -8.9 1.9 -2 2.8 -2.5 3.7 -1.6 0.6 0.6 1.4 1.1 1.8 1.1 1.2 0 4 -8.7 3.3 -10.4 -0.9 -2.4 2.3 -6.6 6.4 -8.3 2 -0.8 5.4 -3.1 7.5 -4.9 3.4 -3.1 4.2 -3.4 10 -3.4 5.3 0 6.7 0.4 8.4 2.3 3.2 3.5 4.3 6.2 4.3 11 0 5.9 3.3 10.9 7.9 11.8 2.2 0.5 5.5 2.8 10 7.2 3.6 3.5 8 7.2 9.6 8 1.7 0.9 4 2.1 5.2 2.8 1.8 0.9 3.1 0.7 8 -1.7 8.4 -4.1 9.8 -6.8 3.8 -8 -2.9 -0.5 -3.8 -0.2 -5.8 2.1 -1.8 2.2 -2.9 2.7 -4.9 2.2 -2.6 -0.7 -3.8 -3 -3.8 -7.5 0 -1.3 -0.9 -3.7 -2.1 -5.3 -1.1 -1.7 -2.3 -5.2 -2.6 -8.2 -0.5 -4.9 -0.3 -5.5 2.1 -7.5 1.5 -1.1 3.4 -1.8 4.2 -1.5 0.8 0.3 2.5 0.2 3.9 -0.1 1.8 -0.5 2.5 -1.3 2.5 -3.1 0 -4.4 8.2 -6.2 13 -2.8 1.4 1 5.2 2.1 8.5 2.4 11 1.3 13.4 2.6 16.6 9.4 1.6 3.3 3.2 7.4 3.5 9.2 0.3 1.7 1.7 4.1 3 5.4 4 3.7 3.2 5.5 -2.8 6.3 -6.9 0.9 -10.5 3 -12.2 6.9 -1.8 4.3 -5.8 7.8 -9.7 8.6 -4.1 0.8 -4.7 2.5 -1.5 4.6 2.3 1.5 2.7 1.5 6.5 -0.4 2.2 -1.2 5.1 -2.1 6.4 -2.1 1.3 0 3.6 -1 5.1 -2.1 3.4 -2.6 10 -2.8 12.7 -0.3 2.9 2.6 6.1 8.2 5.4 9.4 -0.3 0.5 -1.4 1 -2.4 1 -2.9 0 -4.7 2.8 -3.3 5.1 0.7 1 1.2 3.4 1.2 5.2 0 2 1 4.7 2.5 6.7 2.7 3.6 3.3 9.7 1.5 14.4 -1.4 3.9 -4.8 3.4 -6.5 -0.8 -0.8 -1.9 -1.9 -3.7 -2.4 -4 -0.5 -0.4 -1.3 -2.1 -1.6 -3.9 -0.9 -3.8 -7.9 -13.4 -10.6 -14.2 -1 -0.4 -2.7 -0.4 -3.6 -0.1 -1 0.3 -3.1 -0.1 -4.7 -0.9 -4.4 -2.3 -15.1 -2 -19.2 0.6 -4.2 2.5 -5.4 4.7 -5.4 9.3 0 2 -0.5 4.4 -1.1 5.4 -0.9 1.4 -0.7 2.7 1 6 1.1 2.3 2.1 5.4 2.1 6.9 0 3.9 1.5 6.2 2.3 3.4 0.4 -1.7 1.2 -2.1 3.9 -1.9 3.3 0.3 3.3 0.3 3.6 -4.5 0.2 -3.6 -0.2 -5.4 -1.7 -7.4 -2.6 -3.2 -2.7 -6.9 -0.2 -8.3 3.3 -1.7 11.3 -1.2 15.4 1 2 1.1 4.6 2 5.8 2 1.5 0 1.9 0.5 1.5 1.8 -0.4 1 0.1 2.7 0.9 3.8 1 1.3 1.4 4.6 1.5 11.5 0 10.9 -0.9 12.6 -6.1 11.5 -4.2 -0.8 -9.4 1.6 -11.3 5.2 -1.6 3.1 -4 4.2 -9.6 4.2 -2 0 -5.3 0.9 -7.5 2 -3.1 1.6 -5.9 2 -13.8 2 -9.6 0 -10.2 0.1 -17.9 4 -9.1 4.5 -14.5 5.1 -19.3 2.1z m16.7 -7.1 c4.5 -2.2 8.8 -4 9.5 -4 0.8 0 1.3 -1.3 1.3 -3.7 0 -2.9 -0.3 -3.4 -1.2 -2.5 -0.7 0.7 -3.1 1.2 -5.5 1.2 -3.8 0 -4.3 -0.3 -4.9 -2.6 -0.4 -1.4 -0.4 -4.7 -0.1 -7.2 0.2 -2.6 0.2 -5.5 -0.2 -6.6 -0.7 -1.7 -0.9 -1.6 -3.2 1 -4.7 5.6 -8.9 8.4 -12.5 8.4 -3.7 0 -3.9 0.3 -4.9 6.4 -0.6 3.6 -0.4 4.1 4.4 8.7 2.8 2.7 6 4.9 7.1 4.9 1.2 0 5.8 -1.8 10.2 -4z m31.8 -6 c2.2 -1.1 5.9 -2 8.5 -2 4.1 0 4.8 -0.3 6.5 -3.3 2 -3.4 9.7 -7.7 13.7 -7.7 1.3 0 2.3 -0.8 2.7 -2.2 0.8 -3.2 0.7 -11.1 -0.2 -12.5 -1.2 -2 -10.1 -6.3 -12.8 -6.3 -2.4 0 -2.4 0.1 -1 2.2 1.1 1.6 1.6 4.6 1.6 10.1 0 7.9 0 8 -3.9 11.8 -3.5 3.5 -4.4 3.9 -8.9 3.9 -6.2 0 -7.2 -1.3 -7.2 -9.2 0 -3.5 -0.6 -6.3 -1.9 -8.2 l-1.9 -2.8 -0.3 9 c-0.3 6.8 -0.8 9.5 -2.1 10.9 -1 1.1 -1.8 3.4 -1.8 5.1 0 2.8 0.4 3.2 2.5 3.2 1.4 0 4.3 -0.9 6.5 -2z m-68.3 -22.4 c0.8 -1.7 2.5 -4.1 3.6 -5.3 1.8 -2.1 1.9 -2.3 0.3 -2.3 -1 0 -4.4 1.2 -7.7 2.8 -4.9 2.2 -5.9 3.1 -5.4 4.7 0.2 1.1 0.5 3.2 0.5 4.7 l0 2.7 3.5 -2.1 c2 -1.1 4.3 -3.4 5.2 -5.2z m58.3 -0.1 c0 -4.1 -0.4 -5.7 -1.5 -6.2 -2.5 -0.9 -2.9 0.4 -1.1 4.1 0.9 1.9 1.6 4.3 1.6 5.5 0 1.2 0.2 2.1 0.5 2.1 0.3 0 0.5 -2.5 0.5 -5.5z m5.9 -17.4 c0.1 -3.8 0.7 -5 4.1 -8.2 3.4 -3.3 4 -4.4 4 -8 0 -3.6 0.6 -4.8 4.3 -8.4 3 -3.1 5.4 -4.5 8.2 -5 6.7 -1.1 8.1 -2.1 10.8 -7.7 1.8 -4.1 3.4 -5.9 6 -7.1 1.9 -1 4 -1.7 4.6 -1.7 1.4 0 1.5 0.6 -1.7 -7.5 -3.6 -8.7 -8.1 -12.4 -15.2 -12.5 -2.5 0 -6.3 -0.9 -8.5 -2 l-3.9 -2 3.5 3.7 c1.9 2.1 3.7 4 4 4.3 3 2.6 3.7 9.5 1.4 14 -0.9 1.8 -1.1 3.1 -0.5 3.5 1.4 0.8 1.3 5.8 -0.2 9 -1.4 3.2 -13.5 9.5 -18 9.5 -4.8 0 -13.3 -4.9 -20.4 -11.7 -5.6 -5.5 -6.9 -6.3 -10.2 -6.3 -3.6 0 -3.9 -0.3 -6.5 -5.5 -1.8 -3.7 -2.7 -7.2 -2.7 -10.3 0 -3.7 -0.6 -5.3 -2.5 -7.5 -3.7 -3.9 -7.4 -3.6 -13 1.3 -2.5 2.2 -5.2 4 -5.9 4 -3.6 0 -4.9 4.2 -6.2 19.3 -0.6 6.2 -0.4 7 1.7 9.3 1.3 1.4 3.8 3.2 5.6 3.9 1.7 0.7 3.4 2.3 3.8 3.5 0.6 1.7 0.9 1.9 2.2 0.8 3 -2.4 3.5 -5.9 1.3 -8.3 -1.4 -1.5 -2 -3.5 -2 -6.8 l0 -4.7 4.5 0 c4 0 5 0.5 9.5 4.8 5.6 5.4 5.5 5.1 4.3 20 l-0.6 8.2 -5.9 3 c-5.5 2.8 -6.6 3 -17.1 3 -12.3 0 -13 -0.2 -19.9 -6.9 l-3.8 -3.5 0 7.2 0 7.2 3.8 0.1 c2 0 7.2 0 11.4 -0.1 9.3 -0.2 11.8 0.9 11.8 5.1 l0 3 2.6 -2 c2.3 -1.8 4 -2.1 13.8 -2.1 9.6 0 11.8 0.3 16 2.4 4 2 5.9 2.3 11.1 1.8 5.7 -0.4 6.5 -0.2 7.7 1.7 1.3 2.2 1.3 2.1 1.9 -0.6 0.4 -1.5 0.7 -4.8 0.8 -7.2z m-69.6 6.9 c1.4 -1.2 4 -2 6.1 -2 2 0 3.6 -0.4 3.6 -1 0 -0.5 -2.4 -1 -5.4 -1 -4.5 0 -5.8 0.4 -7 2.2 -2.9 4.2 -1.5 5.1 2.7 1.8z m120.7 -11 c0 -0.5 -1.3 -2.5 -3 -4.3 -2.2 -2.5 -3 -4.5 -3 -7.1 0 -3.5 0.1 -3.6 3.5 -3.6 3.7 0 4.7 -1.3 1.9 -2.4 -0.9 -0.4 -2.6 0 -3.8 0.7 -1.2 0.8 -3.7 1.8 -5.6 2.1 -4 0.8 -10 3.7 -10 4.8 0 0.5 2.2 0.8 4.8 0.8 4.4 0 5.2 0.4 9.7 5 5.3 5.3 5.5 5.5 5.5 4z m-46 -47.9 c-0.5 -1.1 -1 -3.3 -1 -4.9 0 -3.1 -2.2 -5.8 -4 -4.7 -1.6 1 -1.2 5.2 1 9.2 1.1 2.1 2 4.4 2 5.3 0 1 0.5 0.7 1.5 -0.8 1.2 -1.6 1.3 -2.7 0.5 -4.1z m11.4 1.3 c2.2 -2.2 2 -5 -0.6 -7.4 -2.4 -2.2 -3.6 -2.2 -5.2 0.3 -0.7 1.1 -0.6 2.6 0.7 5.1 1.9 4 2.8 4.4 5.1 2z"/>
  <path d="M88.7 107.3 c-0.4 -0.3 -0.7 -2.8 -0.7 -5.5 0 -3.9 0.5 -5.4 2.5 -7.3 2.1 -2.2 3.3 -2.5 9.4 -2.5 9.1 0 12.1 1.3 12.1 5.4 0 4.6 -1.2 5.8 -6.4 6.3 -3.2 0.4 -5 1.2 -5.7 2.4 -0.7 1.5 -2.1 1.9 -5.8 1.9 -2.6 0 -5.1 -0.3 -5.4 -0.7z m7.2 -3.7 c1.3 -1.6 0.4 -4.6 -1.4 -4.6 -0.7 0 -1.8 0.7 -2.5 1.5 -1 1.2 -1 1.8 0 3 1.5 1.9 2.4 1.9 3.9 0.1z m9.6 -5.6 c-0.7 -1.1 -5.5 -0.9 -5.5 0.2 0 0.4 1.4 0.8 3.1 0.8 1.7 0 2.8 -0.4 2.4 -1z"/>
  <path d="M85.6 81.8 c-1.9 -2.6 -2.1 -9.9 -0.4 -11.6 2.2 -2.2 8.6 -1.4 11.4 1.3 2.1 2.1 2.5 3.3 2.2 7.3 l-0.3 4.7 -5.7 0.3 c-4.9 0.3 -5.8 0 -7.2 -2z m7.4 -5.3 c-1.3 -1.6 -4 -2 -4 -0.7 0 1.4 1.2 2.2 3.3 2.2 1.6 0 1.7 -0.3 0.7 -1.5z"/>
 </g>
 <g fill="#ffffd6">
  <path d="M66.8 156 c-2.1 -1.7 -4.7 -4.4 -5.8 -6 -2 -2.8 -2 -3.3 -0.7 -9.7 l1.4 -6.8 4.1 -0.6 c4.1 -0.5 5.5 -1.5 12.7 -8.6 4.1 -4.1 7.2 -4.3 8.5 -0.5 0.6 1.5 1.5 3.5 2 4.5 0.8 1.3 0.6 2.4 -0.6 4.2 -2 3.1 -1.2 7.8 1.4 7.3 2 -0.4 6.2 -8.9 6.9 -14 1 -6.7 -0.1 -8.5 -7.1 -11.8 -5.3 -2.5 -7.5 -3 -14.3 -3 -6.6 0 -8.4 0.4 -10.9 2.3 -5.6 4.1 -11.3 10 -12.5 12.8 -1 2.6 -11.7 10.9 -14 10.9 -0.5 0 -0.9 -2.2 -0.9 -5 0 -5.1 -2.3 -9 -5.4 -9 -0.7 0 -1.9 -0.7 -2.6 -1.5 -1.1 -1.3 -0.8 -1.5 1.4 -1.5 1.5 0 5.9 -1.5 9.9 -3.4 4 -1.8 8.9 -3.7 10.9 -4 2.1 -0.4 4 -1.2 4.4 -1.8 1.9 -3.1 -8.2 -5.1 -14.2 -2.7 -2.1 0.7 -3.4 0.7 -5.2 -0.2 -1.8 -1 -2.7 -1 -4.2 -0.1 -1.2 0.7 -2.1 0.8 -2.5 0.2 -1 -1.5 -1.1 -25.3 -0.2 -26.7 0.5 -0.9 2.1 0.3 5 4 2.4 2.8 6.2 6.6 8.6 8.4 4 3.1 4.7 3.3 12.7 3.3 7.3 0 9.1 -0.4 14.1 -2.9 5.4 -2.8 5.8 -3.2 5.9 -6.8 0 -2.1 0.4 -6 0.9 -8.6 l0.8 -4.8 -5.2 -4.9 c-2.8 -2.8 -5.8 -5 -6.6 -5 -2.4 0 -1.7 3.2 1.5 6.9 2.8 3.3 2.8 3.4 1.2 7 -2.1 4.8 -6.1 9.1 -8.4 9.1 -1.1 0 -2.3 -1.3 -3.2 -3.5 -0.9 -2.2 -2.4 -3.7 -3.9 -4 -1.4 -0.4 -3.7 -1.9 -5.2 -3.5 -2.6 -2.8 -2.7 -3 -2.1 -12.7 0.9 -17.2 2.3 -22.3 6.2 -22.3 0.7 0 3.4 -1.8 5.9 -4 4.3 -3.7 5.1 -4 10.5 -4 5.2 0 6.2 0.4 8.5 2.7 1.9 2.2 2.5 3.8 2.5 7.5 0 3.1 0.9 6.6 2.7 10.3 2.6 5.2 2.9 5.5 6.5 5.5 3.3 0 4.6 0.8 10.2 6.3 3.6 3.4 9 7.5 11.9 9 l5.5 2.7 6.9 -3.4 c4.4 -2.2 7.3 -4.4 8.1 -6 1 -2.4 0.9 -2.7 -1.9 -4.2 l-3.1 -1.6 2.5 -2.6 c5.9 -6.4 5.7 -8.2 -2.2 -16.5 -5.6 -6 -6.1 -9.1 -1.3 -9.5 1.9 -0.2 5.1 0.5 7.6 1.7 2.3 1.2 6.1 2.1 8.4 2.1 4.9 0 11.8 3.8 13.2 7.3 0.5 1.2 2.3 5.4 3.9 9.4 3.7 8.5 3.8 9.3 1 9.3 -4.8 0 -9 3.2 -11.6 8.8 -2.7 5.6 -4.2 6.6 -10.6 7.7 -5.8 0.9 -14.3 9.3 -11.9 11.7 0.6 0.6 2 0 4 -1.6 3.3 -2.9 4.9 -3.1 8.6 -1.5 2 1 3.1 0.8 5.8 -0.8 1.9 -1.1 5.2 -2.3 7.3 -2.7 2.1 -0.4 4.8 -1.4 5.9 -2.2 1.1 -0.8 3.7 -1.4 5.8 -1.4 2.9 0 4.4 0.7 6.7 3.3 1.7 1.7 3.1 3.6 3.1 4 0 0.4 -1.4 1.4 -3.2 2.1 -2.4 1 -3.6 1.1 -4.9 0.3 -3.2 -2 -3.2 0.2 0 3.8 2.1 2.4 3.1 4.6 3.1 6.8 0 1.8 0.9 4.7 2 6.5 1.1 1.8 2 5 2 7.3 0 5.8 -2.6 4.9 -6.1 -2.1 -1.5 -3 -5.5 -8.2 -8.8 -11.5 -5.2 -5.1 -6.4 -5.8 -7.9 -4.8 -1.4 0.8 -2.6 0.7 -5.1 -0.3 -1.8 -0.8 -6.1 -1.4 -9.6 -1.4 -5.6 0 -6.7 0.4 -10.8 3.5 -5.4 4.1 -6.8 6.3 -6 9.3 0.3 1.2 0 3.5 -0.7 5.2 -1 2.5 -0.9 3.4 0.9 6.3 1.4 2.3 2.1 5.1 2.1 8.6 0 9.9 3.6 11.7 10.1 5.2 3.5 -3.4 3.9 -4.4 3.9 -8.7 0 -3.2 -0.7 -5.9 -2 -7.9 -1.1 -1.6 -2 -4 -2 -5.2 0 -2.4 0.8 -2.7 8.4 -2.3 3.9 0.2 12.4 4 13.8 6.3 1.1 1.8 1 16.1 -0.2 19.2 -0.7 1.9 -1.5 2.5 -2.6 2.1 -2.8 -1.1 -11.2 3.4 -13.4 7.1 -1.7 3 -2.4 3.3 -6.5 3.3 -2.6 0 -6.3 0.9 -8.5 2 -3.1 1.6 -5.9 2 -13.8 2 -9.4 0 -10.1 0.2 -18 4 -10.5 5.2 -16 5.4 -21.4 1z m36.6 -8.6 c0.9 -0.8 1.6 -3.2 1.6 -5.1 0 -2.1 0.8 -4.5 1.7 -5.6 2.5 -2.7 3.1 -15.8 0.9 -19.2 -1.8 -2.8 -4.7 -3.2 -6.6 -1 -0.9 1.1 -0.8 1.9 0.4 3.7 2.4 3.3 2.1 12.3 -0.4 15.5 -2.2 2.8 -2.6 8.2 -1 11.4 1.3 2.3 1.4 2.3 3.4 0.3z m-6.5 -44.3 c0.7 -1.2 2.5 -2 5.7 -2.4 8.7 -0.9 6.8 -5.6 -2.4 -5.7 -3.3 0 -4.9 0.6 -6.7 2.5 -2.4 2.3 -3.2 5.4 -1.8 6.8 1.3 1.3 4.2 0.7 5.2 -1.2z m-1.1 -24.3 c0.4 -2 -4.3 -7.1 -6 -6.6 -4.6 1.6 -2 9.2 3 8.6 1.6 -0.2 2.8 -1 3 -2z"/>
  <path d="M113 65 c-0.6 -1.1 -0.8 -2.5 -0.5 -3.1 0.4 -0.5 -0.3 -2.9 -1.5 -5.2 -2.2 -4.1 -3 -12.2 -1.6 -14.6 0.4 -0.6 2.5 -1.1 4.6 -1.1 4.4 0 7.1 2.8 6.9 7.1 -0.1 1.3 0.5 3.9 1.2 5.7 1.1 2.6 1.1 3.6 0.1 5 -0.7 0.9 -1.9 3.2 -2.7 5 -1.8 3.7 -4.9 4.3 -6.5 1.2z"/>
 </g>
</svg>