<?xml version="1.0" encoding="utf-8"?>
<!DOCTYPE svg PUBLIC "-//W3C//DTD SVG 20010904//EN" "http://www.w3.org/TR/2001/REC-SVG-20010904/DTD/svg10.dtd">
<svg version="1.0" xmlns="http://www.w3.org/2000/svg" width="200px" height="200px" viewBox="0 0 200 200" preserveAspectRatio="xMidYMid meet">
 <g fill="#ff6300">
  <path d="M56.5 174.7 c-1.4 -1.1 -3.9 -2 -5.6 -2.2 -1.6 -0.1 -3.7 -0.9 -4.7 -1.9 -1.1 -0.9 -3.5 -1.6 -5.8 -1.6 -3.1 0 -4.6 -0.7 -6.7 -2.8 -1.5 -1.5 -2.7 -3.3 -2.7 -3.9 0 -1.6 6.3 -11.3 7.4 -11.3 0.5 0 0.6 2.3 0.4 5 -0.5 4.9 -0.4 5 2.2 5 3.2 0 7 -3.7 8.5 -8.3 1 -3.1 1.2 -3.2 6.5 -3.2 l5.5 0 0.3 4.6 c0.2 3.2 -0.2 5 -1.3 5.9 -0.8 0.7 -1.5 2.3 -1.5 3.6 0 2.1 0.2 2.2 3 1.3 1.7 -0.6 3 -1.5 3 -2 0 -1.6 9.6 -1 11 0.6 1.6 2 9.8 1.9 12.4 0 2.7 -2 13.6 -2.1 13.6 -0.1 0 2.3 -4.2 4.3 -10.7 5.1 -3.3 0.4 -7.2 1.3 -8.7 2 -2 1.1 -3.1 1.1 -5.1 0.2 -1.3 -0.7 -2.5 -1.5 -2.5 -1.9 0 -1.4 -3.5 0.6 -7.2 4 -4.2 4.1 -7.5 4.6 -11.3 1.9z"/>
  <path d="M112.8 164.3 c-2.1 -0.2 -3.8 -1 -3.8 -1.6 0 -0.7 1.2 -3.8 2.7 -6.9 2.7 -5.7 2.9 -5.8 7 -5.8 2.3 0 4.4 0.4 4.7 0.9 0.3 0.5 3.2 -0.4 6.3 -2 3.1 -1.6 6.3 -2.9 7 -2.9 0.7 0 1.3 -0.8 1.3 -1.9 0 -1 0.7 -2.4 1.5 -3.1 0.9 -0.8 1.5 -3 1.5 -5.9 0 -8.1 0.6 -9.1 5.6 -9.1 4.3 0 4.4 -0.1 4.4 -3.3 0 -3.8 1.5 -5.7 4.6 -5.7 2 0 2.1 -0.4 1.6 -4.7 -0.6 -5.4 1.1 -7.3 6.5 -7.3 3.6 0 4.2 1 1.8 3 -0.9 0.8 -1.5 3 -1.5 5.6 0 3.3 -0.5 4.7 -2 5.6 -2.6 1.7 -2.5 3 0.3 6.5 1.3 1.5 2.7 4.2 3 6 0.6 2.9 0.1 3.7 -3.7 7.5 -2.5 2.4 -4.6 5.4 -4.8 6.8 -0.3 2.2 -0.9 2.6 -5.6 3 -3.6 0.4 -5.7 1.1 -6.3 2.3 -0.6 0.9 -2 1.7 -3.3 1.7 -1.3 0 -3.1 0.9 -4.1 2 -1 1.1 -2.8 2 -3.9 2 -1.2 0 -3.9 1.8 -6 4 -4.1 4.2 -4.7 4.3 -14.8 3.3z"/>
  <path d="M38.7 147.9 c-0.3 -1.2 -1 -1.8 -1.5 -1.5 -2.3 1.4 -2.3 -9.1 -0.1 -12 0.5 -0.6 0.6 -1.4 0.2 -1.7 -0.3 -0.4 0.1 -0.7 1 -0.7 2.7 0 4.7 4.1 4.7 9.6 0 2.9 -0.3 5.9 -0.6 6.8 -0.9 2.3 -3.1 2 -3.7 -0.5z"/>
  <path d="M46.1 123.3 c-0.1 -1.1 -3.8 -2.9 -5.3 -2.5 -1.3 0.3 -0.9 -1 0.9 -3 0.9 -1 1.7 -2.8 1.8 -4.1 0.1 -1.6 0.9 -2.3 2.8 -2.5 3.9 -0.5 5.1 -2.7 5.1 -9.8 0 -5.4 0.2 -6.4 1.7 -6.4 3.1 0 5.5 4.5 6.8 12.9 0.7 4.4 1.1 8.7 0.8 9.5 -0.4 1.1 -2.5 1.6 -6.9 1.8 -5.7 0.3 -6.3 0.5 -6.9 2.8 -0.4 1.4 -0.7 2 -0.8 1.3z"/>
  <path d="M160.4 99.9 c-2.8 -2.9 -2.9 -3.6 -3.4 -13.7 l-0.5 -10.7 -4.3 -0.6 c-2.3 -0.3 -4.8 -1.1 -5.4 -1.7 -0.7 -0.7 -2.2 -1.2 -3.3 -1.2 -3.3 0 -5.7 -3.3 -5.3 -7.2 0.3 -3.1 0.5 -3.3 5.1 -3.8 3.4 -0.4 5.5 -1.4 7.5 -3.3 l2.7 -2.7 -4.8 0 c-4 0 -5.4 -0.5 -7.7 -2.9 -1.9 -1.8 -3.3 -2.5 -4.2 -2 -4 2.6 -10.3 -0.2 -12.1 -5.3 -0.8 -2.4 -3.4 -2.3 -7.5 0.2 -2.5 1.5 -4.9 2 -9.9 1.9 -5.1 -0.1 -6.8 0.2 -7.5 1.5 -1.2 2.1 -8.7 2.2 -11.4 0.1 -1 -0.8 -3.8 -1.5 -6.1 -1.5 -4.2 0 -4.3 0 -4.3 3.5 0 3.1 -0.3 3.5 -2.5 3.5 -2.2 0 -2.5 0.4 -2.5 3.4 0 3 -0.4 3.5 -3 4.1 -1.6 0.4 -3.2 1.1 -3.5 1.6 -0.7 1 -7.9 1.1 -14.4 0.1 l-4.5 -0.7 3.5 -2.9 c1.8 -1.6 3.6 -4 3.9 -5.5 0.4 -1.9 1.2 -2.7 3.2 -2.9 1.5 -0.2 3.3 -1.1 4 -2 0.7 -0.9 2.3 -2.6 3.6 -3.6 2 -1.7 2.4 -1.8 3.9 -0.4 3.2 2.7 5.1 2.8 7.5 0.3 2 -2.1 3.2 -2.5 8.9 -2.5 5.3 0 6.9 -0.4 8.4 -2 1 -1.1 2.8 -2 4 -2 3.1 0 4.3 -1.8 4.7 -7 0.3 -4.4 0.4 -4.5 4.2 -4.8 2.8 -0.2 4.4 0.2 6 1.7 1.8 1.7 3.5 2 11.8 2 5.4 0 10.2 0.2 10.8 0.6 0.5 0.3 1 1.6 1 2.7 0 1.2 0.7 3 1.7 4 0.9 1 1.8 3 1.9 4.5 0.4 3.7 1.9 4.8 6.7 4.6 3.4 -0.1 5 0.6 8.5 3.4 3.9 3.2 5.5 6.3 3.2 6.3 -0.6 0 -1.5 1.2 -2.1 2.6 -1.3 3.5 1 7.1 4.8 7.6 2.2 0.2 2.9 0.9 3.1 3 0.2 1.5 1.3 3.5 2.5 4.3 1.9 1.3 2.1 2.3 1.9 8.7 -0.1 4 -0.5 10.1 -0.8 13.6 -0.6 5.5 -0.9 6.2 -2.8 6.2 -1.2 0 -3.5 -1.4 -5.2 -3.1z"/>
  <path d="M50.5 87.8 c-1.3 -2.9 -6 -3.6 -8.6 -1.2 -1.8 1.6 -2 1.6 -3.9 -0.1 -2.6 -2.4 -2.6 -2.7 1.5 -6.6 1.9 -1.9 3.5 -4.3 3.5 -5.5 0 -3 4.2 -8.9 6.5 -9.2 3.9 -0.5 4.4 1 4.7 12.8 0.2 9.5 0.1 11.5 -1.2 11.7 -0.8 0.2 -2 -0.7 -2.5 -1.9z"/>
 </g>
 <g fill="#ffa900">
  <path d="M55.7 174.2 c-3.5 -2.2 -4.1 -4 -2.1 -6.9 0.8 -1.4 1.7 -3.9 2 -5.5 0.2 -1.7 1.1 -3.9 2 -4.9 2.2 -2.4 1.1 -5.1 -1.8 -4.7 -1.6 0.2 -2.6 1.4 -3.4 3.6 -0.5 1.8 -2.2 4.5 -3.7 6 -2.3 2.3 -3.5 2.7 -8.8 2.7 -8 0 -8.5 -1.1 -4.3 -9.2 3.9 -7.6 5.2 -14.1 3.3 -17.4 -3.1 -5.5 -1.4 -7.5 4.5 -5.7 3 1 3.6 1.6 3.6 4 0 1.5 -0.4 3.6 -0.9 4.6 -0.6 0.9 -1.3 3.4 -1.6 5.4 -0.3 2.1 -1.2 4.4 -2 5.2 -0.8 0.8 -1.5 2.8 -1.5 4.5 0 2.9 0.1 3 2.5 1.9 1.7 -0.7 2.9 -2.5 3.7 -5.2 0.7 -2.3 1.7 -4.4 2.3 -4.8 1.8 -1.4 10 -0.8 12.3 0.8 2.9 2 3.2 10 0.5 12 -1 0.7 -1.5 1.6 -1.1 2 0.5 0.4 1.6 0 2.6 -0.9 2.4 -2.2 10.5 -2.3 12.2 -0.2 1.7 2.1 9.8 2 12.2 -0.2 1.2 -1 4.1 -1.8 7.7 -2.1 5.3 -0.4 6 -0.2 7.1 1.9 1.1 1.9 1 2.4 -0.5 3.5 -0.9 0.7 -3.1 1 -4.9 0.7 -2.1 -0.3 -4.5 0.2 -6.9 1.5 -4.7 2.5 -14.6 2.5 -17.4 -0.1 -2.1 -1.8 -5.3 -2.3 -5.3 -0.8 0 0.5 -1.5 1.5 -3.4 2.1 -2.6 0.8 -3.6 1.8 -4.1 4 -0.9 3.9 -1.5 4.2 -4.8 2.2z"/>
  <path d="M107 162.5 c0 -2.6 1.9 -7.5 3 -7.5 0.3 0 1.2 -1.6 1.9 -3.6 l1.3 -3.7 6.4 0.6 c3.5 0.2 6.7 0.1 7 -0.4 0.3 -0.5 1.4 -0.9 2.6 -0.9 1.1 0 3.8 -1.7 5.9 -3.9 3.6 -3.5 3.9 -4.3 3.9 -9.2 0 -7.3 1.7 -10.3 5.8 -10.7 2.7 -0.3 3.2 -0.7 3.2 -3 0 -1.9 0.9 -3.3 3 -4.7 1.6 -1.1 3 -2.7 3 -3.6 0 -2.4 3 -8 4.7 -8.6 1.1 -0.4 1 -0.8 -0.6 -1.9 -2.5 -1.8 -4.4 -10.6 -3.9 -18.2 l0.3 -5.7 -4.5 -0.3 c-2.9 -0.2 -4.8 -1 -5.7 -2.2 -0.7 -1 -2.8 -2.1 -4.7 -2.4 -2 -0.4 -3.8 -1.1 -4.2 -1.7 -0.3 -0.6 -0.3 -3.5 0.1 -6.5 l0.6 -5.4 4.7 0 c2.6 0 5.4 -0.5 6.2 -1 1.2 -0.8 0.9 -1 -1.2 -1 -1.4 0 -4 -1.1 -5.6 -2.5 -2.1 -1.7 -3.3 -2.2 -3.8 -1.4 -0.4 0.7 -2.5 1 -5.6 0.7 -4 -0.4 -5.5 -1.2 -7.9 -3.8 l-3 -3.3 -3.5 1.9 c-1.9 1 -3.4 2.2 -3.4 2.6 0 0.5 -1.8 0.8 -4 0.8 -2.9 0 -4 -0.4 -4 -1.5 0 -1.9 -3.4 -1.9 -5 0 -0.8 0.9 -3 1.5 -6 1.5 -3 0 -5.2 -0.6 -6 -1.5 -0.7 -0.8 -2.5 -1.5 -4.1 -1.5 -2.4 0 -2.9 0.4 -2.9 2.5 0 1.4 -0.9 3.4 -2 4.5 -1.1 1.1 -2 3.1 -2 4.5 0 2.2 -0.5 2.5 -3.2 2.5 -1.8 0 -4.8 0.9 -6.7 2.1 -2.3 1.4 -4.7 2 -7.1 1.7 l-3.6 -0.3 0.9 6 c0.6 4 0.5 8.3 -0.3 13.3 -1.1 7.1 -1.1 7.5 1 9.7 1.4 1.5 2.4 4.2 2.7 6.9 0.3 2.5 1 4.6 1.4 4.6 0.5 0 0.9 2.4 0.9 5.4 0 5.1 -0.2 5.5 -3.2 6.9 -1.8 0.8 -4.7 1.8 -6.5 2.2 -1.7 0.3 -3.4 1.3 -3.7 2.1 -0.3 0.8 -1.4 1.4 -2.5 1.4 -1.4 0 -1.9 -0.5 -1.5 -1.5 0.4 -0.8 0.1 -1.5 -0.5 -1.5 -1.5 0 -1.4 -5 0.2 -5.5 0.6 -0.2 3.7 -0.6 6.7 -0.8 3 -0.2 5.4 -0.5 5.4 -0.8 -0.1 -0.2 -0.5 -3 -0.9 -6.2 -0.5 -3.9 -1.5 -6.8 -3.2 -8.7 -2.2 -2.7 -2.4 -3.6 -2.1 -12.3 0.3 -8.2 0 -9.8 -1.6 -11.6 -1.9 -2 -1.9 -2.1 0 -4.2 1.6 -1.7 1.6 -2.2 0.4 -2.9 -0.8 -0.6 -2.1 -1 -2.9 -1 -1 0 -1.1 -0.3 -0.2 -1.3 0.6 -0.8 0.8 -1.7 0.4 -2 -0.3 -0.4 0.2 -1.6 1.3 -2.8 1.7 -1.9 2.6 -2 7.6 -1.5 4 0.4 6.5 0.1 8.5 -0.9 1.5 -0.8 3.4 -1.5 4.1 -1.5 1.5 0 1.5 -0.2 -0.2 -3.6 -1.1 -1.9 -1.2 -3.3 -0.5 -4.6 1.2 -2.2 1.3 -2.2 4.4 -0.2 2.4 1.5 2.5 1.5 2.5 -0.3 0 -5 10.4 -7.2 17 -3.6 3 1.7 3.1 1.7 4.6 -0.2 1.2 -1.6 2.7 -2 8.2 -2 4.2 -0.1 7.8 -0.7 9.8 -1.7 5.6 -3 12.1 -2.8 13.3 0.4 0.5 1.3 1.8 3.1 2.8 4.1 1.9 1.7 2.1 1.6 4.6 -0.3 1.4 -1.1 2.8 -2 3.1 -2 0.3 0 2.3 1.8 4.5 4 3.6 3.7 4.4 4 9.4 4 5.4 0 8.3 1.5 6.9 3.5 -0.4 0.6 -2.6 2.7 -5 4.8 -3.3 2.9 -5 3.7 -8 3.7 -2.1 0 -4.2 0.3 -4.5 0.7 -1.1 1 2.4 4.3 4.7 4.3 1.2 0 3 0.7 4 1.5 1.1 0.8 3.4 1.5 5.2 1.5 1.8 0 3.6 0.5 4 1.1 0.4 0.7 0.6 5.5 0.6 10.7 l-0.2 9.5 3.9 3.8 c2.1 2.2 4.2 4.6 4.5 5.5 0.7 1.8 -1.8 4.5 -5.7 6.2 -2.3 1 -2.7 1.6 -2.1 3.5 0.3 1.2 1.3 2.9 2 3.8 1.8 2 0 3.9 -3.7 3.9 -3.6 0 -5.3 2.2 -4 4.9 2.7 5.3 3.5 6.7 4.5 8.3 0.9 1.4 0.5 2.3 -1.6 4.4 -2.8 2.9 -5.8 2.7 -5.8 -0.3 0 -2.6 -3.7 -8.3 -5.4 -8.3 -1.6 0 -2.4 3.2 -2.5 9.4 0 2.2 -0.8 4.7 -1.8 5.8 -1.7 1.9 -1.7 2 0 2.9 2.2 1.3 2.3 4.9 0.1 4.9 -0.9 0 -2.2 -0.7 -2.8 -1.5 -1 -1.3 -1.8 -1.1 -6.3 1 -2.9 1.4 -5.5 3 -5.8 3.5 -1 1.6 -6.2 1.2 -6.9 -0.5 -1 -2.8 -3.1 -1.5 -5.6 3.7 -1.8 3.8 -3.2 5.4 -5.2 5.9 -2.5 0.6 -2.8 0.5 -2.8 -1.6z"/>
  <path d="M147 104.5 c0 -3.3 0.2 -3.5 3.5 -3.5 3.3 0 3.5 0.2 3.5 3.5 0 3.3 -0.2 3.5 -3.5 3.5 -3.3 0 -3.5 -0.2 -3.5 -3.5z"/>
 </g>
 <g fill="#ffb200">
  <path d="M57.8 163.7 c0.2 -2.9 1 -5.7 1.8 -6.3 2.1 -1.7 1.7 -4.2 -1.1 -6 -4 -2.6 -6.9 -1.2 -8.2 3.9 -0.9 3.4 -1.9 4.7 -4.1 5.6 -4 1.7 -9.8 1.1 -9.2 -0.9 0.2 -0.8 0.4 -3.1 0.5 -5 0 -1.9 0.9 -4.8 2 -6.3 1 -1.6 1.9 -4.4 2 -6.3 0.1 -1.8 0.8 -4.1 1.5 -4.9 0.8 -0.9 0.9 -1.5 0.4 -1.4 -1.8 0.3 -5.3 -1.3 -5.8 -2.7 -0.5 -1.3 0.6 -1.8 5.9 -2.6 2 -0.3 2.1 -0.9 2.6 -9.9 0.1 -2.1 0.6 -2.5 3.6 -2.6 1.8 -0.1 3.9 -0.6 4.6 -1.1 0.7 -0.6 1.7 -1.1 2.2 -1.2 2.7 -0.6 3.5 -1.4 3.5 -3.5 0 -1.3 -0.7 -2.5 -1.4 -2.8 -1 -0.4 -1.4 -1.9 -1.3 -4.8 0.1 -3.3 -0.4 -4.6 -2.5 -6.4 -2 -1.7 -2.6 -3.1 -2.5 -6.6 0 -2.4 0.3 -4.8 0.7 -5.4 0.4 -0.5 1 -2.8 1.3 -5 0.5 -2.9 0.2 -4.4 -1 -5.7 -1.3 -1.4 -1.4 -2.1 -0.5 -3 1.7 -1.7 1.5 -2.2 -1.4 -5.7 -1.4 -1.7 -2.3 -3.5 -1.9 -4.1 0.8 -1.3 8.8 -1.3 10.2 0.1 0.7 0.7 2.1 0.4 4.5 -1.1 2 -1.1 4.9 -2.2 6.4 -2.3 2.2 -0.1 2.9 -0.7 3 -2.3 0.1 -1.2 1.1 -3.1 2.3 -4.3 1.1 -1.1 2.1 -3.2 2.1 -4.6 0 -2.4 0.3 -2.5 5.9 -2.5 4 0 6.3 0.5 7.1 1.5 1.6 1.9 4.4 1.9 6 0 1.8 -2.1 12.5 -2.1 11.6 0 -0.5 1.5 0.9 2.2 1.6 0.8 0.4 -1.1 8.5 -6.3 9.7 -6.3 0.5 0 2.6 1.7 4.7 3.8 4.9 4.8 7 5.6 9.7 3.7 3 -2.1 3.9 -1.9 8.2 1.5 2.9 2.3 4.8 3 8.1 3 2.3 0 4.5 0.4 4.8 0.9 0.3 0.5 -1 2.3 -2.9 4 -3 2.6 -4.4 3.1 -8.5 3.1 -2.8 0 -5 0.4 -5 0.9 0 2.1 3.6 7.1 5.2 7.1 0.9 0 2.3 0.9 3 1.9 1 1.3 2.8 2.1 5.8 2.3 l4.5 0.3 0.1 9 c0.1 10.7 1.1 13.5 5.8 16.5 4.5 2.7 4.6 4.7 0.4 5.8 -3.4 0.8 -7.4 6.1 -5.5 7.3 1.1 0.8 -1.3 4.7 -2.7 4.5 -0.5 0 -1.4 0.8 -2 1.9 -0.6 1.1 -1.4 2.2 -1.8 2.6 -0.5 0.3 0.1 2.3 1.2 4.4 1.1 2.2 2 5 2 6.4 0 2.3 -0.4 2.1 -4.5 -2.4 -4.2 -4.6 -4.6 -4.9 -6.1 -3.3 -1.1 1.1 -1.9 4.2 -2.3 8.8 -0.6 6.7 -1 7.5 -4.4 10.6 -2 1.9 -4.5 3.4 -5.5 3.4 -1 0 -2.8 0.9 -4 2 -2.5 2.4 -5.5 2.6 -7.2 0.5 -2.2 -2.6 -4.8 -1.8 -6.1 2 -0.7 1.9 -1.6 3.5 -2 3.5 -0.4 0 -1.2 1.4 -1.9 3 -0.7 1.7 -2.2 3.2 -3.4 3.4 -4.3 0.8 -7 0.5 -8.1 -1.1 -1.3 -1.8 -6.6 -1.1 -8.6 1.3 -1.7 2 -16.2 2 -17.9 -0.1 -0.7 -0.8 -2 -1.5 -3 -1.5 -1 0 -2.3 0.7 -3 1.5 -0.7 0.8 -2.2 1.5 -3.4 1.5 -1.2 0 -3.1 0.7 -4.2 1.5 -2.1 1.4 -2.1 1.3 -1.6 -3.8z m24.3 -13.4 c2.3 -1.6 7.8 -4.8 12.3 -7.3 6.7 -3.8 8.4 -5.3 10.1 -8.7 1.7 -3.6 2.5 -4.2 5.1 -4.3 1.7 0 5.8 -0.3 9.2 -0.6 5.9 -0.6 6 -0.8 6.6 -4 0.4 -1.8 1.2 -3.5 1.9 -3.7 0.9 -0.4 0.9 -0.7 0 -1.8 -1.6 -1.7 -1.7 -9.1 -0.1 -10.7 0.7 -0.7 1.5 -3.3 1.8 -6 l0.5 -4.7 5.5 -0.3 c6 -0.3 8 1.1 8 5.5 0 2.3 2.2 6.4 4.8 9.2 1.2 1.2 1.5 1.2 2.3 0 1.3 -2.2 1.1 -2.7 -1.3 -3.1 -2 -0.3 -2.3 -1 -2.6 -6 -0.3 -5.5 -0.2 -5.6 2.7 -6.3 l3.1 -0.7 -1.5 -3.5 c-0.8 -1.9 -1.5 -4.4 -1.5 -5.5 0 -3.1 -4.8 -12.8 -6.4 -12.8 -0.8 0 -3.1 -0.9 -5 -2.1 -2.7 -1.6 -3.7 -3 -4.2 -5.7 -0.4 -2 -0.9 -3.1 -1.1 -2.4 -0.6 1.6 -8.5 1.6 -10.1 0 -1.6 -1.6 -1.5 -6.1 0.2 -10.3 1.4 -3.3 1.4 -3.4 -1.6 -4.4 -2.7 -1 -3.4 -0.8 -6.5 1.9 -1.9 1.7 -4.8 3.3 -6.4 3.7 -1.6 0.3 -2.9 0.8 -2.9 1.2 0 0.4 -1.7 1.5 -3.7 2.6 -5.5 2.9 -6.2 4.2 -6.3 11.8 l0 6.8 -4.7 -0.3 -4.8 -0.3 -0.3 -9.3 c-0.3 -10.2 -0.6 -10.6 -6.6 -7.3 -1.9 1.1 -5.9 2.5 -8.9 3.2 -5.1 1.2 -5.6 1.6 -6.6 5 -0.6 2 -1.1 5.7 -1.1 8.3 0 3.2 -0.5 4.8 -1.5 5.2 -0.8 0.4 -1.5 1.5 -1.5 2.7 0 1.1 -0.7 2.8 -1.6 3.8 -1.8 2 -1.2 3.7 2 4.9 1.9 0.7 2.4 1.8 2.9 6.5 0.3 3.1 1.1 6.2 1.7 7 0.6 0.7 1.3 3.5 1.7 6.2 l0.5 5 -3.9 0.6 c-2.2 0.4 -4.6 1.4 -5.3 2.2 -0.7 0.8 -2.3 1.5 -3.6 1.5 -2.3 0 -2.4 0.3 -2.4 7.4 0 4.1 -0.3 8.2 -0.6 9.1 -0.5 1.2 1 0.7 5.7 -1.7 5.2 -2.7 6.8 -4.2 8.4 -7.5 2.1 -4.4 5.2 -5.9 10.6 -5.1 2.1 0.3 2.4 0.9 2.7 4.7 0.2 2.7 -0.2 4.9 -1.1 6 -0.8 0.9 -1.7 4.4 -2 7.7 -0.4 4.9 -0.1 6.5 1.1 7.8 2 2 1.5 2.1 6.3 -1.1z"/>
  <path d="M93.4 101.7 c-0.3 -0.9 -0.4 -3 -0.2 -4.9 0.3 -3.1 0.5 -3.3 4.5 -3.6 3.8 -0.3 4.3 0 4.8 2.1 0.4 1.4 0.5 3.6 0.3 4.8 -0.2 2 -1 2.4 -4.6 2.7 -3 0.2 -4.4 -0.1 -4.8 -1.1z"/>
  <path d="M119.3 98.3 c-0.8 -0.3 -1.3 -2.3 -1.3 -4.9 l0 -4.5 5.8 0.3 c5.1 0.3 5.7 0.5 6 2.7 0.2 1.2 0.1 3.4 -0.2 4.7 -0.6 2.1 -1.2 2.4 -4.9 2.3 -2.3 0 -4.8 -0.3 -5.4 -0.6z"/>
  <path d="M118.4 77.6 c-0.3 -0.8 -0.4 -2.9 -0.2 -4.8 0.3 -3.2 0.4 -3.3 5.5 -3.6 4.8 -0.3 5.3 -0.1 5.9 2.1 0.3 1.4 0.4 3.6 0.2 4.8 -0.3 2.1 -0.9 2.4 -5.6 2.7 -3.9 0.2 -5.4 -0.1 -5.8 -1.2z"/>
 </g>
 <g fill="#fffaae">
  <path d="M73.1 154.4 c-1.6 -1.4 -3.4 -2.5 -3.8 -2.4 -1.6 0.2 -1.5 -3.4 0.2 -4.6 1.2 -0.9 1.7 -2.9 1.9 -6.8 0.1 -3.7 0.8 -6.2 2 -7.5 2.4 -2.7 1.4 -5.5 -1.6 -4.5 -1.3 0.3 -2.3 0.7 -2.3 0.8 0 0 -0.9 1.9 -2 4.1 -1.6 3.1 -3.5 4.7 -9.7 8 -4.2 2.2 -8.3 4.6 -9 5.3 -0.6 0.6 -2 1.2 -3 1.2 -2.4 0 -2.5 -5.6 -0.2 -8.9 1.1 -1.5 1.8 -5.2 2.1 -10.4 0.4 -7.9 1.3 -10 3.8 -9.1 0.6 0.3 1.8 -0.2 2.5 -1.1 0.7 -0.8 2.9 -1.8 5 -2.1 3.2 -0.5 3.7 -0.9 3.2 -2.8 -0.3 -1.1 -0.9 -2.6 -1.4 -3.3 -0.5 -0.6 -1.2 -3.7 -1.5 -6.8 -0.5 -4.6 -1 -5.8 -2.7 -6.5 -3.5 -1.3 -4.8 -3.6 -4.1 -6.9 0.3 -1.6 1.3 -3.5 2.1 -4.2 0.8 -0.6 1.4 -2.2 1.4 -3.4 0 -1.3 0.6 -2.5 1.4 -2.8 0.9 -0.4 1.5 -2.8 1.8 -7.1 0.5 -7.9 2.1 -9.9 9.3 -11.8 2.8 -0.7 5.2 -1.5 5.5 -1.8 2.3 -2.3 7.4 -4 10.4 -3.4 l3.5 0.6 0.3 9.1 c0.3 7.8 0.6 9.2 2.1 9.5 1.5 0.3 1.7 -0.5 1.7 -6.5 0.1 -7.6 0.8 -8.9 6.3 -11.8 2 -1.1 3.7 -2.2 3.7 -2.6 0 -0.4 1.3 -0.9 3 -1.2 1.6 -0.4 4.7 -2.2 6.9 -4.2 4.4 -4 7.4 -5 9.1 -3 0.6 0.7 2.2 1.6 3.5 1.9 3.9 1 5 4.1 2.6 7.3 -2.6 3.7 -3 6.3 -0.9 7.6 1.3 0.9 2 0.6 3.5 -1.1 2.8 -3.4 5.9 -2 6.7 2.9 0.5 3 1.3 4.2 3.9 5.6 3.2 1.7 3.8 1.9 5.7 2.2 1.3 0.1 5.9 10.2 6.4 13.9 0.2 1.6 1 4.4 2 6.2 2.7 5.5 2.2 7.7 -2 8.4 -3.1 0.6 -3.5 1 -3.2 3.4 0.2 1.9 1 2.8 2.5 3 4.1 0.6 4.7 2.7 2.3 7.8 -1.3 2.5 -2.9 4.8 -3.7 5.1 -2.6 1 -10.1 -8.6 -10.8 -13.9 -0.5 -3.9 -1.6 -5.1 -4.6 -4.6 -2 0.2 -2.3 0.8 -2.1 3 0.2 1.6 -0.7 4.6 -2 6.9 l-2.3 4.2 2.3 1.4 c2.2 1.5 3.1 5.3 1.2 5.3 -0.5 0 -1 0.7 -1 1.5 0 0.8 -0.4 1.5 -1 1.5 -0.5 0 -1.2 1.6 -1.6 3.5 -0.5 2.7 -1.1 3.5 -2.8 3.6 -5.1 0.1 -8 0.9 -8.8 2.4 -1.2 2 -3.8 1.9 -5.4 -0.2 -0.7 -1 -1.4 -1.6 -1.6 -1.3 -0.2 0.3 -1.2 2.3 -2.3 4.4 -1.6 3.2 -3.7 4.9 -10.1 8.5 -4.5 2.5 -10.3 6.1 -13 7.8 -5.9 3.9 -7.4 4 -11.3 0.7z m24.9 -34.6 c0 -0.4 1.4 -1.5 3.1 -2.3 1.7 -0.9 3.7 -3.1 4.5 -5.1 2.3 -5.4 6.6 -7.5 14.5 -7.2 l6.6 0.3 -1.6 -2.2 c-0.9 -1.2 -3.1 -2.8 -4.8 -3.7 -1.8 -0.9 -3.3 -2.2 -3.3 -3 0 -0.9 -1.7 -1.6 -4.8 -2 -7.2 -0.9 -9.2 -2.8 -9.2 -8.4 0 -4 0.5 -5.1 3.7 -8.4 2.8 -2.9 4.5 -3.8 7 -3.8 2.6 0 3.3 -0.4 3.3 -1.9 0 -1 0.9 -2.5 2 -3.2 1.6 -1.1 1.9 -1.9 1.2 -4.4 -0.8 -2.7 -1.2 -3 -4.2 -2.7 -7.3 0.8 -10.4 2.5 -12.7 7.2 -1.3 2.4 -3 4.8 -3.8 5.3 -1 0.5 -1.5 2.4 -1.5 6.1 0 5.8 -0.7 6.6 -6.1 6.6 -3 0 -6.9 -3 -6.9 -5.4 0 -1.6 -14.6 -9 -16 -8.1 -0.6 0.4 -1 4.4 -1 9.1 l0 8.4 6.5 0 c3.6 0 8.2 0.7 10.5 1.6 3.7 1.5 4 1.9 4 5.6 l0 3.9 -11.5 -0.3 -11.5 -0.3 0 2.6 c0 4.7 2 8.9 4.6 9.5 1.4 0.4 2.9 1.5 3.5 2.6 1 1.8 1.3 1.8 2.5 0.6 0.8 -0.8 2.3 -3 3.2 -4.9 1.5 -3 2.2 -3.4 6 -3.7 4.2 -0.3 4.2 -0.3 4.2 -4.2 0 -2.1 0.5 -4.2 1 -4.5 0.6 -0.3 1 -1.7 1 -3 0 -3.3 2.6 -5.5 6.4 -5.5 4.4 0 5.6 1.6 5.6 7.6 0 4.8 -0.3 5.5 -3.3 7.8 -1.9 1.5 -4.7 2.6 -6.3 2.6 -2.9 0 -2.9 0.1 -2.9 6 0 4.7 0.4 6.2 2 7.4 1.8 1.3 2.1 1.3 3.3 -0.1 0.6 -0.9 1.2 -2 1.2 -2.5z m1.4 -20.6 c0.2 -0.4 0.1 -1.4 -0.4 -2.2 -0.7 -1.1 -1.2 -1.2 -2.1 -0.3 -0.6 0.6 -0.8 1.6 -0.5 2.2 0.8 1.3 2.3 1.4 3 0.3z m26.9 -4.6 c0.7 -1.9 -0.1 -2.6 -3 -2.6 -2.4 0 -3.2 2.5 -1 3.3 2.2 1 3.5 0.7 4 -0.7z m4.5 -9.4 c-2.2 -4.9 -2.5 -5.2 -6 -5.2 -4.4 0 -4.6 0.5 -1.5 4.3 1.8 2.3 8.5 6.7 9.5 6.2 0.1 -0.1 -0.8 -2.5 -2 -5.3z m-4.5 -9.8 c1.1 -1.1 -0.5 -3.4 -2.3 -3.4 -2.2 0 -3.4 1.5 -2.5 3 0.7 1.1 3.8 1.4 4.8 0.4z"/>
 </g>
 <g fill="#ffffc9">
  <path d="M89.7 124.5 c-4 -3.9 -4.5 -5.9 -2.2 -8.5 1.9 -2 0.9 -5.2 -1.4 -4.8 -0.9 0.2 -2.4 1.9 -3.3 3.8 -2.1 4.3 -8.3 10.5 -9.6 9.6 -0.5 -0.3 -1.2 -1.9 -1.6 -3.6 -0.4 -2.2 -1.4 -3.4 -3.4 -4.1 -3.5 -1.2 -6.5 -7.3 -5.6 -11.5 0.3 -1.6 -0.1 -4.9 -1 -7.4 -1.6 -4.5 -1.6 -4.5 1 -6.6 2.4 -2 2.5 -2.4 2 -10.4 -0.6 -9 0.6 -12 4.5 -12 3 0 18.9 8.1 18.9 9.6 0 2.1 3.8 5.4 5.5 4.8 1.7 -0.7 2 -4.5 0.4 -6.1 -1.5 -1.5 -0.2 -5.1 2.1 -5.8 1.1 -0.3 2.8 -2.6 3.9 -4.9 2.2 -5.1 2.8 -5.5 10 -7.4 11.5 -2.9 11.8 -2.9 13 1.4 0.6 2 2.2 5 3.7 6.5 2.8 2.9 2.6 5 -0.5 4.2 -2.4 -0.6 -6.1 1.3 -6.1 3.2 0 2 4.3 2.9 6.8 1.6 3.2 -1.7 3.8 -1.4 5.6 3.2 0.9 2.3 3.6 7.6 6.1 11.8 4.8 8.1 6 12.4 3.5 12.4 -0.8 0 -1.6 -0.6 -1.6 -1.2 -0.1 -0.7 -0.2 -1.7 -0.3 -2.3 0 -0.5 -1.1 -1 -2.2 -1 -1.2 0 -3.7 -1.4 -5.7 -3.1 -2 -1.7 -5 -3.8 -6.8 -4.5 -4.5 -1.9 -8.5 -7.8 -7.7 -11.6 0.5 -2.5 0.3 -2.8 -1.9 -2.8 -2.8 0 -9.8 6.6 -9.8 9.3 0 2.2 3.9 4.7 7.6 4.8 4.6 0.2 6.4 0.9 6.4 2.4 0 0.8 1.5 2.2 3.3 3.1 4 2.1 6 4.9 6.9 9.4 0.8 4.6 -0.1 5.4 -4.5 3.5 -2 -0.8 -4.9 -1.5 -6.4 -1.5 -4.1 0 -9 3.4 -10.7 7.4 -0.8 1.9 -2.8 4.2 -4.4 5 -1.6 0.8 -3.5 2.9 -4.2 4.6 -1.8 4.3 -5.6 4.1 -10.3 -0.5z m6.6 -5.5 c0.3 -1.1 1.6 -2.4 2.9 -2.9 2.8 -1 4.3 -2.7 5.2 -5.8 0.6 -1.8 0.3 -2 -1.2 -1.6 -3.1 0.8 -10.6 8.9 -9.9 10.7 0.9 2.2 2.4 2 3 -0.4z m-17.3 -12 c1.3 -0.9 1.3 -1.1 0 -2 -0.8 -0.5 -3.4 -1 -5.6 -1 -3.3 0 -4.3 0.4 -4.7 2 -0.5 1.8 0 2 4.1 2 2.6 0 5.4 -0.5 6.2 -1z m18.7 -3.6 c3.5 -2.7 4.4 -6.3 1.9 -8.3 -2 -1.7 -4.8 1.3 -4 4.3 0.4 1.6 0 2.5 -1 2.9 -1.5 0.6 -2.3 3.7 -0.9 3.7 0.3 0 2.1 -1.1 4 -2.6z m-11.7 -5.3 c0 -1.6 -6 -3.4 -11.6 -3.5 -5.9 -0.2 -7.3 0.6 -5.4 2.9 1.4 1.7 17 2.2 17 0.6z m7 -8.2 c0 -0.5 -1.1 -0.9 -2.5 -0.9 -1.7 0 -4.3 -1.8 -8.1 -5.6 -3 -3.1 -5.7 -5.4 -5.8 -5.2 -0.1 0.1 -0.1 2.4 0.2 5.1 0.3 3.5 0.8 4.7 2.1 4.7 0.9 0 3.8 1.1 6.5 2.5 3.7 1.9 5.2 2.2 6.3 1.4 0.7 -0.6 1.3 -1.5 1.3 -2z m25.8 -22.7 c0.8 -2.2 -1.4 -3.5 -5.1 -2.8 -5.2 1 -6.9 2.6 -6.1 6.2 l0.6 3.1 5 -2.6 c2.8 -1.4 5.3 -3.2 5.6 -3.9z"/>
 </g>
 <g fill="#ffffd8">
  <path d="M91.5 123.6 c-3.8 -3.8 -3.2 -6.9 2.1 -12.6 2.6 -2.8 5.3 -5 6 -5 0.7 0 2.6 -1.2 4.3 -2.6 3.3 -2.8 3.6 -2.7 8.3 1.8 1.6 1.6 1.6 1.8 -1 3.8 -1.5 1.2 -3.4 3.6 -4.2 5.3 -0.8 1.7 -2.6 3.7 -4 4.4 -1.4 0.6 -3.2 2.5 -4.1 4 -2.1 3.7 -4.3 4 -7.4 0.9z"/>
  <path d="M65.9 111.9 c-0.7 -1.4 -0.8 -4.1 -0.4 -7.6 0.6 -4.6 0.9 -5.3 2.3 -4.7 0.9 0.4 3.7 0.9 6.2 1.1 8.6 0.7 9 1 9 5.1 0 4.5 -2.3 6.3 -7.2 5.6 -2.4 -0.4 -3.8 -0.1 -4.7 1 -1.8 2.2 -3.8 2 -5.2 -0.5z"/>
  <path d="M117 103.3 c0 -3.9 -4.4 -8.4 -10.8 -11 -6.6 -2.7 -9.2 -1.8 -12.1 4.1 -3 6.1 -4.7 7.9 -6.7 7.2 -1.6 -0.6 -1.6 -0.7 0.1 -1.9 2.8 -2.1 1.4 -4.9 -4.2 -7.7 -3.6 -1.9 -6.1 -2.5 -8.4 -2.2 -3.1 0.5 -3.2 0.4 -2.6 -2.4 0.3 -1.6 0.8 -3.6 1.2 -4.5 0.3 -0.8 -0.7 -3.4 -2.5 -6 -1.6 -2.4 -3 -5 -3 -5.6 0 -3.9 13.5 2 18.1 7.7 3.8 4.8 4.8 5.2 9.2 3.8 3.4 -1 3.8 -0.9 9 3.6 4.2 3.6 6.2 4.6 8.9 4.6 2.6 0 4.2 0.8 6.6 3.3 1.7 1.7 3.8 3.8 4.7 4.5 2.9 2.4 1.4 4.7 -3.3 5 -4 0.3 -4.2 0.2 -4.2 -2.5z"/>
  <path d="M132.9 94.4 c-1.3 -1.4 -4.1 -3.5 -6.2 -4.7 -3.4 -1.9 -3.8 -2.5 -3.3 -5.1 0.3 -1.6 1.1 -3.5 1.7 -4.3 2.5 -2.9 4.4 -1.3 9.2 7.7 4.1 7.7 4.5 9 2.9 9 -1 0 -2.9 -1.2 -4.3 -2.6z"/>
  <path d="M105 76.7 c0 -1.8 -0.7 -4.3 -1.6 -5.6 -3.4 -4.7 1.4 -9.1 11.8 -10.6 4.6 -0.7 4.7 -0.7 7.2 3.4 3.2 4.9 3.2 5.3 0.3 6.7 -7.2 3.6 -9.5 5 -12 7.1 -4 3.3 -5.7 3 -5.7 -1z"/>
 </g>
</svg>