<?xml version="1.0" encoding="utf-8"?>
<!DOCTYPE svg PUBLIC "-//W3C//DTD SVG 20010904//EN" "http://www.w3.org/TR/2001/REC-SVG-20010904/DTD/svg10.dtd">
<svg version="1.0" xmlns="http://www.w3.org/2000/svg" width="200px" height="200px" viewBox="0 0 200 200" preserveAspectRatio="xMidYMid meet">
 <g fill="#ff6300">
  <path d="M70.2 189.6 c0.2 -2.6 0.8 -3.2 3.2 -3.4 3.9 -0.5 7.6 0.6 7.6 2.2 0 1.6 -3.5 3.3 -7.8 3.9 -3.2 0.4 -3.3 0.2 -3 -2.7z"/>
  <path d="M106 185.9 c0 -1.5 0.7 -3 1.6 -3.3 2.4 -0.9 13.4 -0.7 13.4 0.2 0 0.5 -1.2 1.9 -2.6 3.3 -2 1.9 -3.7 2.4 -7.5 2.4 -4.6 0 -4.9 -0.1 -4.9 -2.6z"/>
  <path d="M21.5 178 c-3.4 -3.6 -3.2 -4.2 1.8 -3.8 3.9 0.3 4.2 0.5 4.5 3.3 0.2 2.5 -0.1 3.1 -1.8 3.1 -1.1 0 -3.2 -1.2 -4.5 -2.6z"/>
  <path d="M158.2 166.3 l0.3 -3.8 5.3 -0.3 c2.8 -0.2 5.2 0.1 5.2 0.6 0 1.3 -5.6 6.3 -6.2 5.6 -0.4 -0.3 -1.6 0 -2.8 0.6 -2 1.1 -2.1 1 -1.8 -2.7z"/>
  <path d="M171.3 159.3 c-1.5 -0.6 -1.7 -6.1 -0.3 -9.7 0.7 -2 1.6 -2.6 4.1 -2.6 2.4 0 2.9 0.3 2.2 1.3 -0.6 0.6 -1 2.7 -0.9 4.5 0.1 3.5 -2.9 7.3 -5.1 6.5z"/>
  <path d="M11.6 152.8 c-0.3 -1.3 -0.3 -4 0.1 -6 0.4 -2.8 1 -3.8 2.4 -3.8 1.6 0 1.9 0.8 1.9 6 0 5.2 -0.2 6 -1.9 6 -1.1 0 -2.1 -0.9 -2.5 -2.2z"/>
  <path d="M184.7 87.3 c-0.4 -0.3 -0.7 -1.7 -0.7 -3 0 -1.7 0.4 -2.2 1.3 -1.6 0.6 0.4 1.5 0.8 2 0.8 0.4 0 0.7 0.3 0.7 0.8 0 0.4 0 1.4 0 2.2 0 1.5 -2.1 2.1 -3.3 0.8z"/>
  <path d="M27.2 40.2 c1.1 -2.8 8.9 -8.2 12.6 -8.8 4 -0.6 4.2 -0.5 4.2 1.8 0 1.7 -0.8 2.9 -2.7 3.8 -1.6 0.7 -4 1.9 -5.5 2.6 -2.8 1.5 -9.2 1.9 -8.6 0.6z"/>
  <path d="M154.1 34.4 c-1.2 -0.9 -4.1 -3.6 -6.3 -6 -3.3 -3.6 -4.7 -4.4 -7.6 -4.4 -4.2 0 -10.2 -3.7 -10.2 -6.2 0 -1.5 -0.9 -1.8 -5.5 -1.8 -4.7 0 -5.5 -0.3 -5.5 -1.9 0 -1.4 1 -2 4.2 -2.5 3.6 -0.6 4.5 -0.3 6.8 1.9 2 1.9 3.4 2.5 5.4 2.1 1.4 -0.4 3.7 -0.8 5.1 -1.1 1.8 -0.4 3.1 0.1 4.7 2 1.2 1.4 3.1 2.5 4.2 2.5 2.7 0 7.6 4.9 7.6 7.6 0 1.3 0.8 2.9 1.8 3.6 0.9 0.7 2.6 2.3 3.6 3.6 l1.9 2.2 -3.9 0 c-2.2 0 -5 -0.7 -6.3 -1.6z"/>
  <path d="M78.3 17.8 c0.9 -1.4 2.3 -2.2 3.3 -2 2.5 0.5 2.8 0.8 2.1 2.7 -0.4 0.9 -1.9 1.5 -3.8 1.5 -3 0 -3.1 -0.1 -1.6 -2.2z"/>
  <path d="M101 15.2 c0 -1.7 3.7 -4.2 6.2 -4.2 5.4 0 8.8 1.2 8.8 3.1 0 1.7 -0.8 1.9 -7.5 1.9 -4.1 0 -7.5 -0.4 -7.5 -0.8z"/>
 </g>
 <g fill="#ff7100">
  <path d="M62.3 191.9 c-3.5 -2.2 -4.1 -4 -2 -5.7 0.6 -0.6 5.6 -1 11 -1.1 8.1 0 9.9 0.3 10.4 1.6 0.9 2.4 -2.4 4.5 -4.9 3.2 -1.6 -0.9 -2.4 -0.6 -3.9 1 -1.1 1.2 -2.6 2.1 -3.4 2.1 -0.7 0 -1.9 0.2 -2.7 0.5 -0.7 0.3 -2.8 -0.5 -4.5 -1.6z"/>
  <path d="M100 186.5 c0 -1.8 0.5 -2.5 1.8 -2.5 1.1 0 2.6 -0.8 3.6 -1.9 1 -1.1 3.7 -2.1 6.9 -2.4 2.9 -0.4 5.7 -1.3 6.3 -2.2 0.7 -0.9 2.7 -1.5 5.3 -1.5 2.8 0 4.7 -0.6 6.1 -2 1.6 -1.6 3.3 -2 8 -2 3.6 0 6 0.4 6 1.1 0 0.5 -0.4 0.7 -1 0.4 -0.5 -0.3 -1 0.1 -1 0.9 0 1.8 -0.8 2.3 -4.3 3 -1.5 0.2 -3.7 1.2 -4.9 2 -1.2 0.9 -3.7 1.6 -5.4 1.6 -1.7 0 -4.4 1 -5.9 2.2 -2 1.5 -3.9 2.1 -6.4 1.9 -2.5 -0.1 -4.4 0.4 -6 1.8 -1.4 1.2 -3.8 2.1 -5.8 2.1 -2.9 0 -3.3 -0.3 -3.3 -2.5z"/>
  <path d="M35.6 185.2 c-0.4 -0.3 -1.3 -0.7 -2 -0.8 -1.7 -0.2 -7.6 -4.3 -9.2 -6.3 -0.6 -0.8 -1.5 -1.1 -2.1 -0.8 -1.1 0.7 -6.3 -4.3 -6.6 -6.4 -0.2 -0.8 -1.3 -3.1 -2.6 -5.2 -2.3 -3.7 -2.3 -4.2 -1.1 -11 0.8 -5.2 0.9 -8 0.1 -9.9 -0.6 -1.6 -0.8 -2.8 -0.5 -2.8 0.4 0 0.1 -0.6 -0.5 -1.4 -0.8 -1 -0.9 -1.6 -0.1 -2.1 0.6 -0.3 0.8 -1.1 0.5 -1.6 -0.4 -0.5 0.1 -0.9 0.9 -0.9 0.9 0 1.6 0.6 1.6 1.3 0 0.8 0.9 2.2 2 3.2 1.6 1.5 2 3.1 2 8.6 0 3.7 -0.5 8 -1 9.4 -0.8 2 -0.7 3 0.5 4.1 0.8 0.9 1.5 2 1.5 2.7 0 1.6 5.1 6.7 6.8 6.7 0.8 0 3.6 1.8 6.2 4 2.6 2.2 5.3 4 5.9 4 1.6 0 1.4 4.7 -0.3 5.3 -0.8 0.3 -1.7 0.3 -2 -0.1z"/>
  <path d="M151.6 173.3 c-1.6 -1.7 0.6 -8.3 2.8 -8.3 0.4 0 1.9 -1.1 3.4 -2.5 1.5 -1.4 3.3 -2.5 4.1 -2.5 1.7 0 5.7 -4.2 6.6 -6.9 0.3 -1 1.2 -2.5 2 -3.1 0.8 -0.7 1.5 -2.5 1.5 -4.1 0 -2.5 0.4 -2.9 2.8 -2.9 2.3 0 2.7 0.4 2.7 2.5 -0.1 1.3 -1 3.4 -2 4.5 -1 1.1 -1.3 2 -0.7 2 0.7 0 1.2 0.5 1.2 1 0 0.6 -0.7 1 -1.5 1 -1.8 0 -2 1.7 -0.2 2.3 0.7 0.3 -0.4 2.1 -3.1 4.9 -3.4 3.5 -4.9 4.4 -6.7 4 -1.8 -0.3 -2.7 0.1 -3.2 1.4 -1.2 3.2 -8.3 8.1 -9.7 6.7z"/>
  <path d="M13 127.6 c0 -0.9 -0.4 -1.5 -0.9 -1.2 -1.2 0.8 -2.4 -7.8 -1.6 -11.4 0.4 -1.7 1.2 -3 1.9 -3 1.6 0 3 15 1.5 16.5 -0.6 0.5 -0.9 0.2 -0.9 -0.9z"/>
  <path d="M15.2 90.5 c-0.1 -2.9 0.2 -3.5 1.8 -3.5 1.6 0 2 0.7 2 3.5 0 2.7 -0.4 3.5 -1.8 3.5 -1.4 0 -1.9 -0.8 -2 -3.5z"/>
  <path d="M181.2 88.8 c-1.4 -1.4 -1.6 -8.4 -0.3 -9.2 1.3 -0.9 7.1 5.2 7.1 7.4 0 2.8 -4.6 4 -6.8 1.8z"/>
  <path d="M15 68.5 c-1.6 -1.9 -0.6 -5.7 2 -7.3 1.9 -1.1 2 -1 2 2.2 0 6.1 -1.5 8.1 -4 5.1z"/>
  <path d="M173.7 65.3 c-0.9 -0.8 -0.9 -5 -0.1 -8 0.8 -2.9 2.5 -2.9 5.2 0 l2.2 2.3 -2 2.2 c-1.1 1.2 -2 2.6 -2 3.2 0 1.1 -2.3 1.4 -3.3 0.3z"/>
  <path d="M19.3 55.3 c0.4 -0.3 0.2 -1.2 -0.4 -2 -0.9 -1 -0.8 -1.3 0 -1.3 0.7 0 0.9 -0.4 0.6 -1 -0.3 -0.5 0.1 -1 0.9 -1 1.1 0 1.6 0.9 1.6 3 0 2.1 -0.5 3 -1.7 3 -0.9 0 -1.3 -0.3 -1 -0.7z"/>
  <path d="M23 42.5 c0 -2.1 0.9 -3 2.3 -2.4 0.1 0.1 2.3 -1 5 -2.4 l4.7 -2.5 0 2.9 c0 2.3 -0.6 3.2 -2.7 3.9 -1.6 0.6 -3.6 1.5 -4.5 2 -3 1.7 -4.8 1.2 -4.8 -1.5z"/>
  <path d="M157.5 38.6 c-2.8 -1.3 -6.6 -3.8 -8.4 -5.6 -6.2 -5.7 -8.3 -7 -11.6 -7 -2.3 0 -4.5 -1.1 -7.8 -4 l-4.5 -4 -14.6 0 c-12.3 0 -14.6 -0.2 -14.6 -1.5 0 -0.8 0.4 -1.5 0.9 -1.5 0.5 0 2.2 -0.5 3.8 -1.1 2.3 -0.9 9.9 -1.7 17.3 -2 6 -0.2 11.8 1.7 16.3 5.3 3.7 2.9 5.8 3.8 8.6 3.8 3.2 0 4.5 0.7 8.6 5.1 2.7 2.9 6.3 5.7 8 6.4 3.7 1.6 6.2 4.4 6.2 6.8 0 2.3 -2.2 2.1 -8.2 -0.7z"/>
  <path d="M65.3 23.3 c-2.5 -0.5 -2.7 -1.1 -1.5 -3 0.5 -0.9 2.9 -1.2 7 -0.9 4.6 0.2 6.5 -0.1 7.1 -1.1 0.8 -1.4 6.7 -3.2 10.9 -3.3 1.4 0 2.2 0.6 2.2 1.8 0 2 -2.4 3.7 -6.8 4.7 -1.8 0.3 -3.2 1.1 -3.2 1.6 0 0.9 -11.4 1 -15.7 0.2z"/>
 </g>
 <g fill="#ffaa00">
  <path d="M43.3 189.5 c-0.7 -0.8 -1.3 -1.9 -1.3 -2.4 0 -1.2 -3.7 -2.4 -5 -1.6 -0.5 0.3 -1 -0.2 -1 -1.1 0 -1 -0.3 -1.4 -0.6 -1.1 -0.4 0.3 -3 -1.4 -5.9 -3.8 -2.9 -2.5 -5.9 -4.5 -6.7 -4.5 -1.6 0 -6.8 -5.1 -6.8 -6.6 0 -0.6 -1.1 -2.4 -2.5 -4 -2.9 -3.4 -3.2 -5.9 -0.9 -7.2 2.6 -1.4 3.2 -10.7 0.8 -13.3 -2.2 -2.5 -2.9 -8.9 -0.9 -8.9 0.7 0 1.5 -0.6 1.8 -1.2 0.8 -2.2 3.5 2.2 4.6 7.5 1.5 6.8 1.4 15.4 -0.2 16.9 -1.1 1 -1.2 1.5 -0.1 2.5 0.7 0.7 1.5 3.1 1.9 5.3 0.6 3.8 0.9 4 4.2 4 2.7 0 4.3 0.9 7.4 4 2.5 2.5 4.9 4 6.4 4 1.3 0 3 0.7 3.7 1.5 0.7 0.9 1.9 2.2 2.6 3 1.3 1.5 1.7 8.5 0.5 8.5 -0.5 -0.1 -1.4 -0.7 -2 -1.5z"/>
  <path d="M58.8 189.6 c-2.1 -1.5 -2.3 -3.9 -0.5 -5.4 0.6 -0.6 5.8 -1.3 11.5 -1.7 9.1 -0.7 10.5 -0.6 12.2 1 2.3 2.1 2.9 8.5 0.7 6.6 -0.8 -0.6 -1.7 -0.8 -2 -0.4 -0.4 0.3 -1.2 0.2 -1.9 -0.4 -1.5 -1.1 -3.5 -1 -6.2 0.2 -1.1 0.5 -3.1 0.4 -4.9 -0.3 -2.5 -1 -3.4 -0.9 -4.7 0.3 -2 1.8 -2 1.8 -4.2 0.1z"/>
  <path d="M92.3 187.4 c-1.2 -3.3 0.2 -4.9 4.9 -5.4 2.6 -0.3 5.5 -1.3 6.6 -2.3 1 -0.9 3.2 -1.7 4.8 -1.7 1.6 0 4.4 -0.9 6.2 -2 1.8 -1.1 4.5 -2 6 -2 1.5 0 4.1 -0.8 5.7 -1.9 1.7 -1 5.2 -2.1 7.8 -2.5 2.5 -0.4 4.9 -1.1 5.2 -1.7 0.4 -0.5 2.5 -0.9 4.9 -0.9 3.6 0 4.7 -0.6 8.6 -4.5 2.4 -2.4 5.6 -4.7 7.1 -5 3.6 -0.8 4.2 -1.7 7.6 -10.1 3.5 -8.7 7.3 -13.4 10.7 -13.4 2.2 0 2.5 0.4 2.2 3.4 -0.1 1.8 -0.9 4.1 -1.7 4.9 -3.5 4 -3.9 4.5 -2.7 4.9 0.6 0.2 -0.2 2.2 -2 4.8 -1.8 2.3 -3.2 4.7 -3.2 5.1 0 1.4 -4.7 5.9 -6.1 5.9 -0.8 0 -2.6 1.1 -4.1 2.5 -1.5 1.4 -3.1 2.5 -3.5 2.5 -0.5 0 -1.7 1.4 -2.6 3 -1.5 2.5 -2.1 2.8 -3.7 2 -1.3 -0.7 -2.1 -0.7 -2.5 0 -0.4 0.6 -2 0.9 -3.6 0.6 -1.9 -0.3 -2.9 0 -2.9 0.8 0 0.8 -1.2 1.1 -3.4 0.8 -2.5 -0.3 -4 0.2 -5.5 1.7 -1.2 1.2 -3 2.1 -4 2.1 -1.1 0 -2.1 0.6 -2.4 1.3 -0.3 0.9 -0.9 0.9 -2.3 0.1 -1.4 -0.9 -2.1 -0.8 -2.9 0.3 -0.5 0.7 -3.3 1.6 -6.2 2 -3.2 0.3 -5.9 1.3 -6.9 2.4 -1 1.1 -2.5 1.9 -3.6 1.9 -1 0 -1.8 0.4 -1.8 0.9 0 1.5 -10.1 1 -10.7 -0.5z"/>
  <path d="M31 150 c0 -3.9 0.1 -4 3.5 -4 3.4 0 3.5 0.1 3.5 4 0 3.9 -0.1 4 -3.5 4 -3.4 0 -3.5 -0.1 -3.5 -4z"/>
  <path d="M35.7 143.3 c-0.4 -0.3 -0.7 -2.4 -0.7 -4.5 0 -3.8 0 -3.8 4 -3.8 l4 0 0 4.5 c0 4.4 0 4.5 -3.3 4.5 -1.9 0 -3.7 -0.3 -4 -0.7z"/>
  <path d="M13 127.5 c0 -0.8 -0.5 -1.5 -1.1 -1.5 -1 0 -1.2 -17.4 -0.2 -21.2 0.6 -2.4 3 -2.3 4.3 0.3 2.3 4.2 1 23.9 -1.6 23.9 -0.8 0 -1.4 -0.7 -1.4 -1.5z"/>
  <path d="M180.3 119.3 c-0.9 -0.3 -1.3 -2.6 -1.3 -6.4 l0 -5.9 3.1 0 c2.4 0 3 0.4 2.5 1.5 -0.3 0.9 0 2.5 0.7 3.5 0.9 1.6 0.9 2.4 -0.1 4 -0.7 1.2 -1 2.5 -0.7 3 0.6 1 -2.1 1.2 -4.2 0.3z"/>
  <path d="M15.2 89 c-0.1 -5.3 0.1 -7.9 0.8 -7.5 0.6 0.3 1.3 -0.1 1.6 -0.9 1.5 -4 2.5 -0.9 2.2 7.2 -0.3 7.9 -0.5 8.7 -2.3 9 -1.9 0.3 -2.1 -0.3 -2.3 -7.8z"/>
  <path d="M155.7 91.3 c-0.4 -0.3 -0.7 -2.4 -0.7 -4.5 0 -3.7 0.1 -3.8 3.8 -3.8 4.7 0 6.2 1.4 6.2 5.7 0 3.2 -0.1 3.3 -4.3 3.3 -2.4 0 -4.7 -0.3 -5 -0.7z"/>
  <path d="M179.2 90.8 c-0.7 -0.7 -1.2 -3.6 -1.2 -6.5 0 -3.9 -0.4 -5.3 -1.4 -5.3 -0.8 0 -1.7 -0.7 -2 -1.6 -0.9 -2.4 -0.7 -7.4 0.3 -7.4 1.3 0 7 5.8 6.3 6.4 -0.3 0.3 0.1 1.3 0.9 2.2 0.7 0.9 1.3 2.7 1.4 4.1 0 2.2 1.1 3.4 4.3 5 0.2 0 -0.5 1.1 -1.5 2.2 -1.9 2.3 -5.3 2.7 -7.1 0.9z"/>
  <path d="M14.7 68.4 c-0.7 -0.7 1.1 -5.2 3.1 -7.6 2 -2.4 4.2 0 4.2 4.6 0 3.4 -0.2 3.6 -3.3 3.6 -1.9 0 -3.6 -0.3 -4 -0.6z"/>
  <path d="M170.7 66.4 c-0.4 -0.4 -0.7 -2.5 -0.7 -4.7 0 -3.2 -0.7 -4.8 -4 -8.3 -2.7 -2.9 -4 -5.3 -4 -7.1 0 -2.1 -0.7 -3.1 -2.7 -4 -1.5 -0.7 -3.3 -1.3 -4 -1.3 -0.7 0 -4.4 -2.9 -8.2 -6.5 -3.8 -3.7 -7.7 -6.5 -8.9 -6.5 -3.3 0 -7.5 -1.9 -10.5 -4.8 l-2.8 -2.7 -18.1 0.2 c-14.5 0.2 -18.5 0.6 -19.8 1.8 -0.9 0.8 -2.5 1.5 -3.6 1.5 -1.1 0 -2.9 0.7 -4 1.5 -2.3 1.8 -6.8 1.9 -9.7 0.3 -1.2 -0.7 -3.4 -1.1 -4.9 -0.9 -3.3 0.3 -3.6 -1.1 -0.7 -4 1.3 -1.3 2.7 -1.8 3.7 -1.4 3 1.2 10.2 1.7 10.2 0.6 0 -0.5 1.5 -1.3 3.3 -1.6 1.7 -0.4 4.1 -1.4 5.2 -2.1 1.4 -1 5.5 -1.4 14.9 -1.4 10.6 0 13.3 -0.3 14.8 -1.7 1.7 -1.5 1.9 -1.5 3.6 0 1 1 3.3 1.7 5.1 1.7 2.4 0 4.5 1.1 7.8 4 3.3 2.9 5.5 4 7.8 4 3.3 0 5.4 1.3 11.6 7 1.8 1.8 5.6 4.3 8.3 5.5 4.4 2 5 2.7 5.2 5.6 0.2 2 1.1 4.1 2.3 5.1 1.2 0.9 2.1 1.9 2.1 2.2 0 0.3 2.1 2.6 4.8 5.1 2.6 2.5 4.1 4.5 3.5 4.5 -0.7 0 -1.2 0.3 -1.2 0.8 0.1 0.4 0 1.2 -0.1 1.7 -0.1 0.6 -0.3 2.1 -0.3 3.5 -0.2 1.9 -0.8 2.6 -2.7 2.8 -1.4 0.2 -2.9 0 -3.3 -0.4z"/>
  <path d="M19.3 52 c-0.1 -3.6 0.3 -5.3 1.5 -6.3 0.9 -0.7 2.2 -2.1 2.8 -3.2 0.6 -1 2.4 -2.3 4 -2.8 1.6 -0.5 3.8 -1.8 5 -2.8 2.9 -2.7 4.4 -2.3 4.4 1.1 0 1.7 -0.4 3 -1 3 -0.5 0 -1 0.7 -1 1.5 0 0.9 -0.9 1.5 -2.5 1.5 -1.3 0 -3.6 0.5 -5 1.2 -2 0.9 -2.5 1.8 -2.5 4.9 0 5.2 -0.8 6.9 -3.4 6.9 -2 0 -2.2 -0.6 -2.3 -5z"/>
  <path d="M103 47.8 c0 -1.8 0.5 -5 1.1 -7 0.9 -3.6 1.2 -3.8 4.9 -3.8 3.7 0 4 0.2 4 2.7 0 1.5 -0.8 4.7 -1.7 7 -1.6 3.8 -2.2 4.3 -5 4.3 -3.1 0 -3.3 -0.2 -3.3 -3.2z"/>
  <path d="M54 28.5 c0.6 -0.8 0.8 -2 0.4 -2.7 -0.6 -1 -0.4 -1 0.9 0 0.9 0.8 2.1 1.1 2.7 0.7 0.6 -0.3 1 0.3 1 1.4 0 1.7 -0.6 2.1 -3.1 2.1 -2.6 0 -3 -0.2 -1.9 -1.5z"/>
 </g>
 <g fill="#ffb100">
  <path d="M46.3 191.8 c-1.3 -0.6 -2.6 -2 -2.9 -3.1 -0.4 -1.2 -1.2 -2.7 -1.8 -3.4 -0.6 -0.7 -1.7 -1.9 -2.4 -2.8 -0.7 -0.8 -2.4 -1.5 -3.7 -1.5 -1.5 0 -3.9 -1.5 -6.5 -4.1 -3.1 -3.1 -4.6 -4 -6.7 -3.7 -2.1 0.2 -3 -0.3 -4 -2.2 -0.7 -1.4 -1.3 -3.2 -1.3 -4.1 0 -0.9 -0.9 -2.6 -2 -3.9 -2.5 -2.9 -2.5 -4.1 0.1 -7.1 1.8 -2.1 2 -3.2 1.5 -7.9 -0.4 -3 -1.5 -7.2 -2.6 -9.2 -1.1 -2.1 -1.6 -3.8 -1.1 -3.8 0.5 0 0.9 -4.2 0.9 -9.2 -0.1 -5.1 -0.1 -10.9 0 -12.8 0.1 -1.9 -0.5 -4.5 -1.3 -5.7 -1.3 -1.9 -1.2 -2.4 0.5 -4.6 2.1 -2.7 2.8 -5.3 3.8 -15.9 0.7 -6.5 2.3 -10 3.9 -8.4 0.5 0.4 0.8 5.5 0.8 11.2 0 9.8 0.1 10.4 2 10.4 4.1 0 6.5 2.8 6.5 7.5 0 4 -0.2 4.4 -2.7 4.7 -1.9 0.2 -3.2 1.2 -4.2 3.3 -0.8 1.7 -1.8 3.8 -2.3 4.7 -0.4 1 -0.8 2.5 -0.8 3.3 0 0.8 -0.4 1.5 -1 1.5 -1.6 0 -1.2 3.3 1 7.8 1.1 2.2 2 5.9 2 8.2 0 2.2 0.4 4 0.9 4 0.5 0 1.2 1.2 1.5 2.6 0.5 2 1 2.3 2 1.5 0.8 -0.6 1.6 -2.4 1.9 -4 0.3 -1.6 1.2 -3.5 2 -4.2 0.7 -0.8 1.6 -2.6 2 -4 0.3 -1.3 2.6 -4.6 5 -7.2 3.3 -3.6 5 -4.7 7.2 -4.7 6 0.1 8.2 5 5.3 11.7 -1.4 3 -1.5 3.3 -5.3 8 -2.3 2.8 -2.6 4.2 -2.7 11.8 -0.1 6.4 0.2 8.9 1.2 9.5 0.8 0.5 1.9 2.8 2.5 5.2 0.9 3.9 1.3 4.3 5 5.1 4.9 1.1 28.6 0.1 29.5 -1.2 0.3 -0.6 2.2 -1.7 4.2 -2.5 2 -0.9 3.9 -2 4.3 -2.6 0.8 -1.3 7.2 -1.3 8 0.1 0.5 0.7 1.5 0.5 3.1 -0.5 1.3 -0.9 4.1 -1.6 6.2 -1.6 2.1 0 5.5 -0.9 7.7 -2 2.2 -1.1 5.4 -2 7.2 -2 1.8 0 3.3 -0.4 3.3 -0.9 0 -0.5 1.7 -1.6 3.8 -2.4 4.6 -1.9 12.2 -8.6 12.2 -11 0 -0.9 0.4 -1.7 0.9 -1.7 2.8 0 4.2 -13.8 1.6 -16.4 -0.9 -0.8 -1.5 -3.3 -1.5 -5.9 0 -4.8 1.1 -5.7 7.1 -5.7 3 0 6.9 3.3 6.9 5.9 0 1 0.7 2.4 1.5 3.1 0.8 0.7 1.5 2.1 1.5 3 0 1 0.4 2 0.8 2.2 0.4 0.2 1.5 2.5 2.3 5.2 l1.6 4.8 2.5 -5.3 c1.4 -3 2.9 -8 3.3 -11.2 0.6 -5.5 0.9 -6 4.1 -7.3 l3.4 -1.4 0 -7.1 c0 -4.6 -0.6 -8.1 -1.7 -10.2 -0.9 -1.8 -1.9 -5 -2.2 -7.2 -0.6 -3.6 -0.9 -4 -3.1 -3.7 -1.4 0.2 -3.2 1 -4.1 1.8 -2.1 1.9 -7.9 1.8 -10.7 -0.2 -1.6 -1.1 -2.2 -2.5 -2.2 -5.3 0 -3.4 0.4 -4.1 3.4 -5.5 1.9 -0.9 4.5 -1.6 5.9 -1.6 3.3 0 4.5 -1.7 4.7 -6.5 0.3 -4.4 -2.3 -11.5 -4.3 -11.5 -2.6 0 -3.8 -1.9 -4.8 -7.8 -1.3 -7.2 -3.1 -9.8 -12.4 -18.1 l-7 -6.2 -9.5 0.3 -9.5 0.3 -0.7 6 c-1.1 9.7 -2 12.9 -4.2 15.2 -2.7 2.9 -7.4 3 -12.6 0.3 -3.7 -1.9 -4 -2.3 -4 -6.4 0 -2.7 0.6 -4.8 1.5 -5.6 1.2 -1 1.5 -2.9 1.3 -7.4 l-0.3 -6.1 -3.4 -0.3 c-2.3 -0.2 -4.3 0.3 -6.2 1.7 -3.4 2.6 -6.6 2.6 -13 0.4 -3.5 -1.3 -4.9 -2.3 -4.9 -3.6 0 -1.2 0.5 -1.7 1.3 -1.4 0.7 0.3 2.1 -0.1 3.2 -0.9 1 -0.8 2.8 -1.4 3.9 -1.4 1.1 0 2.8 -0.8 3.9 -1.8 1.6 -1.4 4 -1.7 14.9 -1.8 8.5 -0.1 13.8 -0.6 15.4 -1.4 1.8 -1 3 -1.1 4.6 -0.2 1.3 0.6 3.9 1.3 5.9 1.6 2 0.4 4.5 1.6 5.5 2.8 2.2 2.4 7.4 4.8 10.5 4.8 1.3 0 4.9 2.6 9 6.5 3.8 3.6 7.6 6.5 8.4 6.5 1.7 0 5.6 2 6.8 3.5 0.4 0.6 0.5 1.8 0.3 2.9 -0.3 1.2 1.1 3.5 4 6.6 4.2 4.4 4.5 5.1 3.8 8.5 -0.5 3.1 -0.4 3.7 1.3 4.1 1.4 0.4 2 1.5 2.1 3.7 0.1 1.8 0.4 4.1 0.6 5.2 0.3 1.1 0.5 2.3 0.5 2.8 0.1 0.4 0.7 0.7 1.4 0.7 0.7 0 1.8 0.9 2.5 2 0.8 1.3 0.8 2 0.1 2 -0.6 0 -0.9 1.6 -0.7 3.8 0.2 2.7 0.9 4 2.5 4.7 1.7 0.7 2.1 1.5 1.7 2.9 -0.4 1.1 -0.6 5.5 -0.6 9.8 0.1 6.1 -0.2 8 -1.3 8.4 -1.8 0.7 -2 6.1 -0.3 6.6 0.7 0.3 1.3 2.8 1.4 6 0.2 4.5 -0.2 6 -1.7 7.4 -1 0.9 -1.9 2.6 -1.9 3.6 0 1.1 -1.6 3.7 -3.6 5.8 -2.1 2.2 -4.9 7 -6.6 11.1 -3.5 8.8 -4.1 9.6 -7.7 10.4 -1.5 0.3 -4.7 2.6 -7.1 5 -3.9 3.9 -5 4.5 -8.6 4.5 -2.4 0 -4.5 0.4 -4.9 0.9 -0.3 0.6 -2.7 1.3 -5.2 1.7 -2.6 0.4 -6.1 1.5 -7.8 2.5 -1.6 1.1 -4.2 1.9 -5.7 1.9 -1.5 0 -4.2 0.9 -6 2 -1.8 1.1 -4.6 2 -6.2 2 -1.6 0 -3.8 0.8 -4.8 1.7 -1.1 1 -4 2 -6.6 2.3 -3.7 0.4 -4.6 0.9 -4.4 2.2 0.2 1.3 -0.5 1.6 -2.6 1.6 -1.6 -0.1 -3.4 0.2 -4.1 0.6 -3.1 1.9 -5.6 1.5 -8.8 -1.6 -2.8 -2.7 -3.6 -3 -7 -2.4 -2.1 0.4 -5.5 0.7 -7.5 0.6 -2.7 0 -4.1 0.5 -4.9 1.8 -0.7 1.2 -2 1.7 -3.3 1.5 -1.3 -0.3 -2.9 0.4 -4 1.6 -2.1 2.3 -3.9 2.5 -7.3 0.9z m114.4 -104.5 c-0.9 -0.9 -1.9 -1.4 -2.3 -1.1 -1 1 0.6 2.8 2.4 2.8 1.5 0 1.5 -0.1 -0.1 -1.7z m-51.3 -47.3 c-0.7 -0.6 -2.4 2.2 -2.3 4 0 0.9 0.6 0.5 1.4 -1 0.7 -1.4 1.1 -2.7 0.9 -3z"/>
  <path d="M161.7 113.3 c-1.2 -1.1 -0.8 -6.8 0.5 -8.1 1.3 -1.3 6.6 -1.6 9.2 -0.6 1.1 0.4 1.6 1.9 1.6 5 l0 4.4 -5.3 0 c-3 0 -5.7 -0.3 -6 -0.7z"/>
  <path d="M81.6 105.5 c-0.3 -0.9 -0.6 -3.2 -0.6 -5 0 -3.6 1.2 -4.5 6.3 -4.5 4.9 0 5.9 1.1 5.5 6.1 l-0.3 4.4 -5.1 0.3 c-4 0.2 -5.3 -0.1 -5.8 -1.3z"/>
  <path d="M15.3 70.5 c0.4 -0.8 0.2 -1.7 -0.4 -2.1 -1.4 -0.8 1.1 -3.6 2.8 -3 0.7 0.3 1.3 0.1 1.3 -0.3 0 -0.5 -0.6 -1.1 -1.2 -1.4 -1 -0.3 -0.9 -1.2 0.4 -3.4 1 -1.7 1.5 -3.3 1.2 -3.6 -0.3 -0.3 0.2 -1.6 1.1 -3 0.8 -1.4 1.5 -2.9 1.4 -3.3 -0.9 -5 2.4 -9.4 7.1 -9.4 2 0 3 -0.5 3 -1.5 0 -0.8 0.4 -1.5 1 -1.5 0.5 0 0.9 -0.5 0.7 -1.2 -0.1 -0.6 0.7 -1.4 1.8 -1.6 1.1 -0.2 2.5 -0.9 3 -1.5 0.6 -0.7 1.6 -1.3 2.3 -1.5 1.8 -0.3 1.6 7.4 -0.3 8.2 -0.8 0.3 -1.5 1.6 -1.5 2.8 0 1.3 -0.7 3.3 -1.5 4.5 -1 1.4 -1.2 2.4 -0.5 2.8 0.5 0.3 1 2.5 1 4.8 0 5.3 -4.1 9.7 -9 9.7 -2.6 0 -3.3 -0.5 -4.1 -3 -1.5 -4.2 -2.5 -3 -3.3 4 -0.7 5.9 -0.8 6 -3.8 6 -2.2 0 -2.9 -0.4 -2.5 -1.5z"/>
  <path d="M62 24.1 c0 -0.5 1.3 -1.9 2.9 -3 2.5 -1.8 3 -1.9 4.7 -0.6 1.9 1.5 1.9 1.5 0 3 -2.2 1.6 -7.6 2.1 -7.6 0.6z"/>
 </g>
 <g fill="#fffcb0">
  <path d="M46.7 179.4 c-2 -0.4 -3.1 -1.5 -4.2 -4.1 -0.8 -1.9 -1.2 -3.9 -0.9 -4.4 0.3 -0.5 -0.2 -1.2 -1 -1.5 -1 -0.4 -1.6 -1.8 -1.6 -3.5 0 -1.7 -0.9 -3.6 -2 -4.6 -2.5 -2.2 -2.6 -4.9 -0.2 -6.2 1.4 -0.7 1.9 -2.3 2.1 -5.7 0.1 -3.2 0.8 -5.5 2.1 -6.9 1.1 -1.2 1.7 -2.5 1.3 -2.8 -0.3 -0.4 -0.1 -0.7 0.6 -0.7 0.7 0 0.9 -0.4 0.6 -1 -0.3 -0.5 0.1 -1 0.9 -1 1.4 0 1.8 -1.1 1.5 -3.6 0 -0.4 0.5 -1 1.3 -1.5 1 -0.6 0.9 -1.1 -0.7 -2.3 -1.9 -1.4 -2.3 -1.1 -6.2 3.1 -2.3 2.5 -4 5 -3.7 5.4 0.3 0.5 0.1 0.9 -0.5 0.9 -0.6 0 -0.8 0.7 -0.5 1.5 0.4 0.8 -0.1 1.7 -1 2.1 -0.9 0.3 -1.3 1 -1 1.5 0.3 0.5 0 0.9 -0.6 0.9 -0.6 0 -0.8 0.5 -0.5 1 0.3 0.6 0.1 1 -0.4 1 -0.6 0 -1 0.4 -0.8 0.9 0.1 0.6 -0.7 2.4 -1.8 4.1 -2.6 4.1 -6.4 3.8 -7.8 -0.5 -0.6 -1.6 -1.4 -3.3 -1.9 -3.6 -0.5 -0.3 -1 -2.6 -1.2 -5.1 -0.1 -2.4 -1.2 -6.4 -2.4 -8.7 -1.7 -3.2 -2.1 -5.1 -1.6 -8.1 0.4 -2.2 1 -4 1.5 -4 0.5 0 0.9 -0.9 0.9 -1.9 0 -1.1 0.5 -2.3 1 -2.6 0.6 -0.3 1 -1.4 1 -2.4 0 -2.9 4 -7.3 6.1 -6.8 2.3 0.6 2.5 -1.5 0.3 -3.4 -0.9 -0.7 -3.4 -1.5 -5.7 -1.8 -4.7 -0.7 -6.2 -3.5 -3.1 -5.8 1.5 -1.1 1.8 -3 2 -11.6 0.1 -9.1 -0.1 -10.4 -2 -12.5 -2.1 -2.3 -2.1 -2.4 -0.2 -3.8 1.3 -0.9 2 -2.7 2.1 -5.1 0.2 -5.3 1.4 -9.1 3.2 -9.7 2.3 -0.9 5 1.1 6.2 4.5 l1.1 3.1 2.9 -2.7 c3.2 -3.1 3.3 -3.8 0.7 -7.7 -1.7 -2.6 -1.7 -2.8 0.3 -4.9 1.1 -1.2 1.8 -2.6 1.5 -3.1 -0.3 -0.4 0 -0.8 0.6 -0.8 0.7 0 0.8 -0.6 0 -1.9 -1.4 -2.7 -1.3 -2.8 1.5 -3.5 1.4 -0.4 2.5 -1.2 2.4 -1.9 -0.3 -2.5 0.1 -3.8 1.1 -3.2 0.5 0.3 1 0.1 1 -0.6 0 -0.7 1 -0.9 2.5 -0.7 1.4 0.3 2.8 0.1 3.1 -0.4 0.3 -0.4 0.9 -0.6 1.4 -0.3 1.1 0.7 13.1 -5.4 14.2 -7.1 0.4 -0.6 2.1 -1.7 3.8 -2.4 2.7 -1.1 3.3 -1 5 0.5 1.1 1 2.8 1.9 3.8 2 0.9 0.1 3.4 0.9 5.6 1.8 3.6 1.6 3.9 1.6 6.3 -0.3 2 -1.5 4.1 -2 8.9 -2 3.4 0 6.5 0.4 6.8 0.9 0.4 0.5 0.7 4.6 0.7 9.1 0.1 6.1 -0.3 8.6 -1.5 9.9 -2.4 2.7 -2 3.9 2.5 6.1 l4.1 2.1 2.5 -2.5 c1.3 -1.4 2.2 -3 1.8 -3.5 -0.3 -0.6 0 -2.1 0.7 -3.3 0.7 -1.3 1.5 -5 1.8 -8.3 l0.5 -6 12.4 -0.3 12.3 -0.3 4.2 3.5 c12.1 10 14.2 13.1 16 23.8 0.5 2.9 1.3 3.8 3.6 4.7 1.7 0.5 3 1.6 3 2.4 0 0.8 0.9 2.6 2 4 2.1 2.7 2.6 6.2 1.1 7.2 -0.6 0.3 -0.4 2 0.5 4 1.2 3 1.2 3.5 0 3.5 -0.7 0 -1.9 0.7 -2.6 1.5 -0.7 0.8 -2.4 1.5 -3.7 1.5 -2.9 0 -9.3 2.8 -9.3 4.1 0 0.5 1.1 1.6 2.5 2.5 2.4 1.5 2.7 1.5 4.4 0 0.9 -0.9 2.4 -1.6 3.2 -1.6 0.8 0 1.9 -0.4 2.5 -1 0.5 -0.5 2.2 -0.6 3.9 -0.2 2.5 0.7 3.1 1.5 3.6 4.8 0.3 2.1 1.3 5.3 2.2 7.1 1.3 2.4 1.7 5.7 1.7 13.2 l0 10.1 -3.3 1.3 c-1.9 0.9 -3.3 2.2 -3.4 3.3 -0.4 5.6 -1.6 10.9 -2.9 12.9 -0.8 1.2 -1.1 2.5 -0.7 2.8 0.3 0.4 0.2 0.7 -0.4 0.7 -0.6 0 -1.3 0.9 -1.6 2 -0.4 1.5 -1.4 2 -3.9 2 -3.3 0 -3.5 -0.2 -4.8 -5 -0.7 -2.7 -1.7 -5 -2.2 -5 -0.4 0 -0.8 -0.7 -0.8 -1.6 0 -0.9 -0.9 -2.7 -2 -4.1 -1.1 -1.4 -1.7 -2.9 -1.4 -3.4 0.3 -0.5 0 -0.9 -0.7 -0.9 -0.7 0 -0.9 -0.3 -0.6 -0.7 1.1 -1 -2.5 -3.1 -4.5 -2.5 -2.2 0.5 -2.3 2.8 -0.3 4.8 3 3.1 1.6 22.4 -1.6 22.4 -0.6 0 -0.7 0.5 -0.4 1 0.9 1.5 -8.1 9.8 -12.6 11.6 -2.1 0.9 -3.9 2 -3.9 2.5 0 0.5 -1.5 0.9 -3.3 0.9 -1.8 0 -5 0.9 -7.2 2 -2.2 1.1 -5.6 2 -7.7 2 -2.1 0 -5.2 0.9 -7 2 -4 2.4 -6.1 2.5 -7.8 0.5 -1.1 -1.3 -1.5 -1.4 -2.9 -0.1 -0.9 0.7 -2.6 1.7 -3.8 2 -1.3 0.4 -3 1.4 -3.8 2.3 -1.3 1.2 -4.8 1.6 -17.8 1.8 -8.9 0.2 -17.4 0.1 -19 -0.1z m31.6 -27.4 l6.3 0 -0.4 -5.9 c-0.4 -5 -0.1 -6.2 1.7 -8 2.3 -2.3 2.9 -8.4 1.1 -11.1 -0.8 -1.2 -1 -0.9 -1 1.3 0 1.5 -0.8 3.5 -1.9 4.6 -1 1 -2.1 3 -2.5 4.5 -0.6 2.3 -1.1 2.6 -4.7 2.6 l-4 0 0.2 -5.7 c0.2 -5.7 -2 -13.3 -3.8 -13.3 -0.5 0 -2.6 1.8 -4.8 4 -2.1 2.2 -5.3 4.4 -7 5 -3.1 1 -3.2 1.3 -3.9 8.3 l-0.7 7.2 5.5 5.3 5.5 5.3 4 -2.1 c2.8 -1.4 5.9 -2 10.4 -2z m40.1 -1.5 c0.8 -0.8 1.7 -2.3 2 -3.3 0.3 -0.9 3.3 -3 6.5 -4.6 4.7 -2.3 6.8 -2.8 10 -2.3 l4.1 0.5 0 -5.5 c0 -6.2 -0.8 -7.3 -7.6 -10.9 -4.9 -2.6 -7.5 -3 -10.3 -1.4 -1.6 0.8 -1.8 1.9 -1.3 8 0.5 7 0.4 7.2 -2.9 10.6 -2.9 3 -3.9 3.4 -8.5 3.4 -5.8 0 -6.4 -0.6 -6.4 -7.3 0 -2.3 -0.9 -5.9 -2 -8 -1.1 -2 -2 -5.1 -2 -6.8 0 -4.3 4.6 -13.3 8.3 -16.5 2.9 -2.5 3.3 -2.5 15.1 -2 21.3 0.8 21.7 0.9 28 7.6 4.8 5 5.6 6.4 5.6 9.7 0 2.2 0.7 4.8 1.5 5.9 1.4 1.7 1.5 1.3 1.1 -5.6 -0.2 -4.1 -0.7 -8.7 -1.1 -10.2 -1 -3.9 0.1 -7.5 2.6 -8.3 l2.1 -0.7 -2.3 -2.4 c-2 -2.1 -3.2 -2.4 -9.2 -2.4 -5.4 0 -7.8 0.5 -10.4 2.1 -2.6 1.7 -4.5 2 -7.9 1.6 -6.2 -0.7 -8.6 -3 -8.2 -8.1 0.3 -3.5 0.7 -4.2 3.3 -4.9 7.9 -2.4 14.4 -6.1 15.6 -8.9 1.1 -2.7 1.5 -2.8 7.5 -2.8 6.1 0 6.4 -0.1 6.4 -2.4 0 -1.4 -1.3 -3.8 -3.1 -5.6 -3 -3 -3.1 -3.4 -2.6 -9.1 0.4 -3.2 0.3 -5.9 -0.2 -5.9 -0.4 0 -2.8 -1.6 -5.2 -3.5 -7.2 -5.6 -13.9 -8.8 -15.5 -7.4 -2.4 1.9 -1.7 4.9 1 4.9 4.4 0 5.6 2.4 5.6 11.4 0 7.8 -0.1 8.4 -3 11.1 -2.4 2.3 -3 3.7 -3 6.9 0 2.7 -0.7 4.7 -2.2 6.3 -1.9 2 -3.1 2.3 -10.3 2.3 -9.6 0 -12.3 -1.5 -15.6 -8.4 -2.2 -4.8 -9.7 -12.5 -14.9 -15.3 -2.1 -1.2 -4.6 -3.9 -6.3 -6.9 -2.5 -4.4 -2.7 -5.7 -2.4 -12.2 0.5 -8.3 -0.2 -9.2 -7 -9.2 -5.4 0 -24.1 9.3 -24.7 12.3 -1.1 5.4 -1.8 9.6 -2.3 14.4 -0.4 4.8 -0.2 5.5 2.3 7.8 1.5 1.4 3.9 3.1 5.2 3.8 1.4 0.7 3 2.1 3.6 3.2 0.6 1.1 1.2 2.2 1.4 2.4 0.5 0.9 5.2 -4.3 5.2 -5.8 0 -0.9 0.9 -2.7 2 -4.1 1.1 -1.4 2 -3.5 2 -4.7 0 -2 0.5 -2.3 3.8 -2.3 5.4 0 6.2 1.3 6.2 9.7 0 5.8 -0.5 8.3 -2.6 12.6 -2.3 4.6 -3.5 5.8 -8.1 8.1 -4.8 2.3 -6.4 2.6 -16.9 2.6 l-11.5 0 -4.9 -4.6 c-2.7 -2.5 -5.4 -6.1 -6 -8 -1.9 -5.7 -3 -3.8 -3 5 l0 8.5 4.3 0.3 c3.2 0.2 4.4 0.8 5.2 2.6 0.8 1.8 1.8 2.2 6 2.2 6.6 0 7.7 0.8 7.3 5.6 l-0.3 3.9 -8.7 0.5 c-6.5 0.4 -9.2 0.9 -10.5 2.3 -1.6 1.6 -1.6 1.9 0 4.6 0.9 1.6 1.7 4.8 1.7 7.1 0 2.3 0.3 4 0.8 3.8 6.8 -3.3 8.3 -4.4 9.3 -7.6 1.3 -4 5.9 -9.5 11.3 -13.4 3.6 -2.6 4.5 -2.8 13.6 -2.8 9.1 0 9.8 0.2 13.6 3 2.2 1.6 4.8 4.4 5.8 6.2 1.7 3.1 2.1 3.3 6.4 2.9 6.4 -0.5 7.2 0.9 7.2 13 0 8.5 -0.3 10 -1.9 11.1 -1.3 0.9 -2 2.9 -2.2 6.6 l-0.4 5.2 11.7 0 c9 0 12 -0.3 13.2 -1.5z m51.6 -40.9 c0 -0.8 -0.7 -1.7 -1.6 -2 -1.9 -0.7 -4.7 1.2 -3.8 2.5 0.9 1.5 5.4 1 5.4 -0.5z m-46.5 -43.6 c-1.2 -5.1 -1.7 -13 -0.8 -13 0.5 0 1.8 -0.7 2.9 -1.5 1.7 -1.3 1.4 -1.4 -4.2 -1.5 l-6.1 0 -0.6 3.7 c-0.5 2.7 -0.1 4.5 1.3 6.9 1.1 1.7 2 4.5 2 6.1 0 3.8 0.6 4.3 3.6 2.9 2 -0.9 2.4 -1.6 1.9 -3.6z"/>
  <path d="M83.5 106.2 c-2.8 -0.7 -3 -1.1 -3.3 -5.5 -0.3 -4.2 -0.1 -4.7 1.7 -4.7 1.2 0 2.1 -0.5 2.1 -1.1 0 -0.7 1.5 -0.9 4.3 -0.5 2.3 0.3 6.5 0.8 9.2 1.2 2.8 0.3 5.6 1.1 6.3 1.6 1.9 1.6 1.5 7.6 -0.5 8.2 -3.4 0.9 -16.8 1.4 -19.8 0.8z m6.2 -3.8 c0.5 -1.4 -1.1 -3.4 -2.7 -3.4 -1.6 0 -3 1.9 -2.4 3.3 0.8 2.2 4.3 2.2 5.1 0.1z"/>
  <path d="M85.5 80.4 c-1.1 -1.1 -1.5 -3 -1.3 -5.8 l0.3 -4.1 4.5 0 4.5 0 0.3 5.8 0.3 5.7 -3.5 0 c-1.9 0 -4.2 -0.7 -5.1 -1.6z"/>
 </g>
 <g fill="#ffffcb">
  <path d="M54.7 153 c-5.7 -5.7 -5.9 -6.1 -5.3 -9.7 0.4 -2.1 1 -6.4 1.3 -9.5 0.5 -5.4 0.8 -5.8 3.7 -6.8 1.8 -0.6 5 -2.9 7.2 -5.1 7.5 -7.8 9.6 -7.4 14.5 2.6 1.7 3.6 3.5 6.5 4 6.5 1.5 0 2.9 -3.8 2.9 -8.1 0 -5.1 -2.7 -9.7 -7.8 -13.3 -3.2 -2.2 -4.9 -2.6 -10.4 -2.6 -5.6 0 -7.1 0.4 -10.4 2.8 -5.3 3.9 -10 9.3 -11.3 13.4 -0.9 2.5 -2.7 4.2 -7.7 7.1 -3.5 2.1 -6.9 3.5 -7.4 3.2 -0.6 -0.3 -1 -3 -1 -6 0 -4.2 -0.5 -6 -2.5 -8.3 -3.4 -4 -3.2 -5.4 1.5 -10.1 3.5 -3.6 4.3 -3.9 6.6 -3.1 3.4 1.3 11.1 1.3 12 -0.1 1.1 -1.8 -1.7 -2.9 -7.3 -2.9 -3.8 0 -5.3 -0.4 -5.3 -1.4 0 -0.7 -0.7 -1.9 -1.5 -2.6 -1.3 -1 -1.9 -1 -3.5 0.5 -1.1 1 -2.6 1.5 -3.5 1.2 -1.2 -0.5 -1.5 -2.7 -1.5 -11.5 0 -21.9 1.8 -24.8 7.7 -13 1.9 3.6 5.4 8.5 7.8 10.7 l4.5 4.1 8.5 0 c7.1 0 9.3 -0.4 13.8 -2.6 4.6 -2.3 5.8 -3.5 8.1 -8.1 2.8 -5.7 3.5 -13 1.4 -15.1 -1.8 -1.8 -2.8 -1.4 -2.8 1.1 0 1.2 -0.9 3.3 -2 4.7 -1.1 1.4 -2 3.2 -2 4.1 0 2.3 -6.5 8.1 -8.6 7.7 -0.9 -0.1 -2.5 -1.6 -3.4 -3.3 -0.9 -1.6 -2.8 -3.5 -4.1 -4.2 -1.4 -0.7 -3.8 -2.4 -5.3 -3.8 -2.7 -2.5 -2.7 -2.8 -2.3 -10.8 0.4 -7.4 0.8 -10.5 2.3 -17.4 0.3 -1.5 3.1 -3.5 10.6 -7.2 8.7 -4.3 11.3 -5.1 16.3 -5.3 11 -0.2 13.5 2 11.4 10.4 -1.3 4.8 -1.2 5.2 1.6 10.6 2 3.7 4.2 6.2 6.5 7.5 5.1 2.8 12.7 10.5 14.9 15.3 2.9 6.1 6.3 8.4 12.6 8.4 4.1 0 5.6 -0.5 7.3 -2.3 2.6 -2.7 2.8 -5.9 0.7 -7.7 -1.3 -1.1 -2.2 -0.9 -5 0.6 -4.6 2.4 -6.8 1.1 -7.6 -4.4 -0.3 -2.2 -1.1 -4.7 -1.8 -5.6 -1.7 -2.1 -3.2 -9.8 -2.1 -11.1 0.4 -0.5 1 -2.1 1.2 -3.5 0.3 -2.4 0.5 -2.5 7.6 -2.1 l7.2 0.3 0 -2.9 c0 -1.6 0.5 -3.4 1.2 -4.1 3 -3 12.4 0 20.8 6.7 1.9 1.5 4.6 3.3 5.9 4 2 1.1 2.3 1.8 1.8 4.9 -0.3 2.1 -0.8 4.5 -1.2 5.4 -0.5 1.2 0.2 2.7 2.3 4.8 2.5 2.4 3.1 4 3.4 8.3 l0.3 5.2 -6.6 0.3 c-6.2 0.3 -6.8 0.5 -7.8 3.1 -1.2 2.8 -10.3 8.1 -13.9 8.1 -1 0 -2.7 0.6 -3.7 1.4 -1.7 1.2 -1.7 1.6 -0.5 3.1 2.7 3.2 5.9 3.7 9.5 1.5 2.6 -1.6 5.3 -2.1 12.8 -2.3 10.4 -0.2 12.2 0.6 15.3 6.5 1.3 2.6 1.3 2.8 -1.3 4.5 -3.7 2.3 -4.3 3.4 -3.2 5.4 0.5 1 0.9 6 0.9 11.3 0 7.6 -0.3 9.8 -1.7 11.2 -1.6 1.5 -1.9 1.5 -4.5 -1.5 -2.1 -2.3 -2.8 -4.2 -2.8 -7.2 0 -3.5 -0.7 -4.8 -5.6 -9.9 -6.2 -6.5 -6.5 -6.6 -25 -7.6 -8.7 -0.5 -9.2 -0.4 -12.1 2 -1.7 1.4 -4.2 5 -5.7 8 l-2.7 5.5 2.1 3.8 c1.1 2.1 2 5.7 2 8 0 5.6 0.8 7.3 3.4 7.3 2.8 0 8.6 -5.9 8.6 -8.8 0 -1.3 -0.7 -3.6 -1.5 -5.3 -1.7 -3.3 -0.9 -6.1 2.5 -7.9 3.5 -1.9 11.6 -1.2 16.4 1.4 7.4 3.9 7.6 4.4 7.6 14.6 0 10.2 -0.7 11.2 -5.9 8.6 -2.8 -1.5 -3.3 -1.5 -8.5 1.2 -3.1 1.5 -5.9 3.5 -6.2 4.4 -1.5 4.6 -2.3 4.8 -26 4.8 -20.5 0 -22.8 0.2 -26.4 2 -6.8 3.5 -9.5 2.8 -16.3 -4z m13 -0.5 c1.3 -0.9 5.1 -1.8 8.5 -2.2 l6.3 -0.5 -0.3 -3.7 c-0.4 -3.6 -0.4 -3.6 -4.7 -3.3 -3.8 0.3 -4.6 0 -6 -2.2 -1.4 -2.1 -1.6 -3.8 -1.1 -8.4 0.5 -4 0.3 -6.3 -0.6 -7.5 -1.2 -1.6 -1.6 -1.5 -5.3 2.3 -2.1 2.2 -4.5 4 -5.1 4 -2.4 0 -4.4 4.4 -4.4 9.4 0 4.4 0.4 5.3 4.4 9.2 4.8 4.9 5.2 5 8.3 2.9z m49.1 -3.1 c1.2 -0.8 2.2 -1.8 2.2 -2.2 0 -0.4 -3.2 -0.6 -7.1 -0.4 -8.2 0.5 -8.8 0 -8.9 -6.8 -0.1 -2.5 -0.7 -5.8 -1.4 -7.5 l-1.3 -3 -0.7 5.5 c-0.5 3 -1.4 6.5 -2.2 7.7 -0.8 1.2 -1.4 3.6 -1.4 5.3 l0 3 9.3 0 c6.8 0 9.9 -0.4 11.5 -1.6z m-26 -3.7 c0.2 -1.5 -0.1 -3.4 -0.6 -4.3 -0.9 -1.5 -1.1 -1.5 -2.2 0.5 -1.4 2.7 -0.5 7.4 1.3 6.8 0.7 -0.2 1.3 -1.5 1.5 -3z m37.7 -5.8 c0.5 -0.5 2.8 -0.9 5.1 -0.9 4.5 0 5.4 -1 5.4 -5.8 0 -3.4 -0.9 -4.8 -4 -6.2 -1.4 -0.6 -3.7 -1.8 -5.3 -2.6 -5.2 -2.9 -6.4 -1.4 -6.3 7.5 0.1 6.6 -0.2 8.2 -1.9 10.1 l-2 2.2 4 -1.6 c2.2 -1 4.4 -2.1 5 -2.7z m-34.7 -3.1 c1.7 -1.7 1.6 -13.9 -0.2 -16.3 -1.9 -2.6 -5.1 -1.3 -4.1 1.8 0.5 1.2 1 5.2 1.2 9 0.5 6.8 0.9 7.7 3.1 5.5z m-15.4 -1.4 c0.9 -2.2 0.8 -2.4 -0.9 -2.4 -0.8 0 -1.5 0.9 -1.5 2 0 2.4 1.5 2.7 2.4 0.4z m-38.2 -18.9 l3.3 -5 -7 0 c-7.7 0 -9.1 0.9 -7 4.2 0.8 1.2 1.5 3.8 1.5 5.8 l0 3.5 2.9 -1.8 c1.6 -1 4.5 -4 6.3 -6.7z m61.1 -2.2 c0.8 -1.6 1.8 -3.9 2.2 -5.2 l0.7 -2.4 -10.6 0.7 c-6.5 0.5 -10.6 0.4 -10.6 -0.2 0 -0.5 -0.9 -1.2 -2 -1.5 -1.6 -0.4 -2 -1.4 -2 -5 0 -6 2.9 -8.1 10.3 -7.3 17.3 1.8 17.7 2 17.7 7.6 l0 3.7 4 -1.9 c2.7 -1.4 4 -2.7 4 -4 0 -1.2 2.2 -4.3 4.9 -6.9 l4.8 -4.9 -7.6 0 c-9.2 0 -10.9 -1 -14.4 -8.2 -1.4 -2.9 -4.1 -6.9 -6.1 -8.8 l-3.7 -3.5 3 5.5 c3.8 6.8 4.1 12.3 0.9 15.7 -1.7 1.8 -3.2 2.3 -7.4 2.3 l-5.2 0 -0.6 -4.7 c-0.3 -2.7 -0.8 -7 -1.2 -9.6 -0.8 -6 1.2 -8.7 6.3 -8.7 4.1 0 3.6 -1.4 -1.2 -3.5 -2.8 -1.1 -4.1 -2.7 -6.6 -8.1 -2.8 -5.8 -3.1 -7.4 -2.6 -12.5 0.3 -3.3 0.1 -6.2 -0.4 -6.5 -2.9 -1.8 -8.9 -0.3 -17.9 4.2 l-9.5 4.9 -0.8 5 c-2 12.3 -2 14.5 -0.1 16.7 1.1 1.1 3.6 2.9 5.7 3.9 2.5 1.3 3.7 2.6 3.7 4 0 1.8 0.2 1.9 1.5 0.9 0.8 -0.7 1.5 -1.8 1.5 -2.4 0 -0.6 0.6 -2.3 1.4 -3.7 0.8 -1.6 1 -3.2 0.5 -4 -1.5 -2.5 -1.1 -9.6 0.7 -10.3 4 -1.5 8.3 -0.6 11.3 2.5 3 2.9 3.1 3.4 3.1 11.9 0 12.4 -2.7 18.5 -10 22.3 -4.9 2.5 -6 2.7 -18.5 2.7 l-13.4 0 -5 -5.1 -5.1 -5.2 0 4.7 c0 4.4 0.1 4.6 2.8 4.6 1.7 0 3.8 1 5.2 2.5 2 2.1 3.3 2.5 8 2.5 5.9 0 8 1.1 8 4.3 0 1.7 0.2 1.8 1.7 0.6 1.2 -1 4.6 -1.4 12.5 -1.2 10.3 0.1 10.9 0.2 14.1 3 1.8 1.5 4.4 4.3 5.8 6 2.1 2.8 3 3.2 7.1 3.3 2.6 0 5 0.5 5.3 1 1.1 1.7 2.4 1.1 3.8 -1.7z m49.9 -8.3 c-0.2 -2.3 0.1 -4.7 0.8 -5.5 1.1 -1.3 0.8 -1.5 -1.5 -1.5 -1.5 0 -4.3 0.7 -6.2 1.7 l-3.5 1.6 2.9 1.2 c1.5 0.7 3.9 2.4 5.2 3.9 1.4 1.4 2.5 2.6 2.6 2.6 0 0 -0.1 -1.8 -0.3 -4z m-56.2 -3.1 c1.4 0 3.6 -0.2 4.8 -0.5 2 -0.4 2.2 -0.7 1.1 -2 -0.9 -1.1 -2.2 -1.4 -4.2 -1 -1.7 0.4 -4.1 -0.1 -6 -1 -2.1 -1.2 -3.2 -1.3 -3.5 -0.5 -0.2 0.6 -1.2 1.1 -2.2 1.1 -1.9 0 -2.1 1.5 -0.6 3.9 0.6 0.9 1.9 1.1 4.5 0.6 2 -0.4 4.7 -0.7 6.1 -0.6z m41.1 -18.6 c3.2 -1.5 5.9 -3.2 5.9 -3.9 0 -2.8 3.6 -5.5 8.3 -6.2 l4.9 -0.7 -2.4 -3 c-1.8 -2.3 -2.3 -4.3 -2.4 -8.7 -0.1 -5.5 -0.3 -5.9 -4.5 -9.6 -2.4 -2.1 -5.7 -4.3 -7.4 -5.1 -2.9 -1.2 -2.9 -1.2 -1.2 0.6 1.3 1.6 1.7 3.8 1.7 11.3 0 8.4 -0.2 9.6 -2.5 12.6 -1.5 2 -2.5 4.6 -2.5 6.7 0 2.2 -0.8 4.3 -2.5 6.1 -3 3.2 -2.7 3.2 4.6 -0.1z m-45.9 -10.5 c-1.1 -1.1 -3.2 -0.3 -3.2 1.2 0 0.5 0.8 1.6 1.8 2.6 1.6 1.7 1.7 1.7 2 -0.5 0.2 -1.3 -0.1 -2.8 -0.6 -3.3z m42 -6.5 c2.4 -2.3 2.8 -3.5 2.8 -7.9 0 -3.5 -0.5 -5.8 -1.6 -6.9 -1.5 -1.4 -1.8 -1.4 -3.8 0.8 -1.2 1.3 -2.8 2.6 -3.5 2.8 -1 0.4 -1.1 1.3 -0.3 4.4 0.6 2.2 1.4 5.2 1.7 6.8 0.7 3.4 1.2 3.4 4.7 0z m-11.7 -5.2 c-1 -2.2 -1.6 -5.3 -1.3 -7 0.4 -2.4 0.1 -3.1 -1.3 -3.1 -2.7 0 -3.1 2.8 -0.9 7 1.1 2.2 2 5.4 2 7.2 0 3 0.1 3.1 1.7 1.6 1.5 -1.6 1.5 -2 -0.2 -5.7z"/>
  <path d="M35.6 62.5 c-0.7 -1.9 0.3 -4.7 1.5 -3.9 0.5 0.3 0.9 1.4 0.9 2.4 0 2.4 -1.6 3.4 -2.4 1.5z"/>
 </g>
 <g fill="#ffffd6">
  <path d="M60.4 156.1 c-1.7 -1 -4.5 -3.6 -6.2 -5.7 -3.1 -3.7 -3.2 -4 -2.6 -10.9 0.6 -7 2.4 -11.5 4.6 -11.5 0.6 0 3.5 -2.2 6.4 -5 2.9 -2.8 5.6 -5 6.1 -5 1.9 0.1 3.5 2 5.2 6.6 1.7 4.4 1.7 5.2 0.4 7.7 -1.3 2.5 -1.3 3.1 0.2 5.3 0.8 1.3 1.9 2.4 2.4 2.4 1.2 0 4.1 -3.5 4.1 -4.9 0 -0.6 0.6 -2.2 1.4 -3.4 0.8 -1.2 1.7 -4.7 2.1 -7.8 0.6 -5.1 0.5 -5.8 -2.2 -8.9 -6 -7.3 -8.3 -8.7 -14.9 -9.3 -3.4 -0.3 -7.3 -0.3 -8.6 0.1 -3.6 1 -12.6 8.9 -15.9 14 -2.7 4.2 -12.5 11.6 -14.1 10.6 -0.5 -0.3 -0.8 -2.6 -0.8 -5.2 0 -2.6 -0.7 -5.6 -1.5 -6.6 -1.8 -2.4 -2 -8 -0.3 -9.4 0.7 -0.5 4.9 -0.9 9.3 -0.9 8.7 0 12.5 -0.8 12.5 -2.7 0 -2.4 -2.5 -3.6 -7.9 -3.6 -4.6 0 -5.9 -0.4 -8.3 -2.7 -2.2 -2.1 -3.1 -2.4 -4 -1.5 -3.1 3.1 -3.8 1.4 -3.8 -9 0 -15.6 1.5 -18.5 5.1 -10.4 1.1 2.5 4 6.5 6.5 9 l4.6 4.6 10.3 0 c9.2 0 10.9 -0.3 15.5 -2.7 4.4 -2.3 5.6 -3.5 7.6 -8.1 1.6 -3.7 2.4 -7.3 2.4 -11.2 0 -5.2 -0.3 -6.2 -3.1 -8.9 -3.3 -3.4 -3.7 -3.5 -5.9 -2.1 -1.3 0.8 -1.3 1.4 0.4 4.5 1.9 3.5 1.9 3.6 -0.2 7.9 -1.2 2.4 -2.2 4.8 -2.2 5.5 0 0.6 -1.4 2 -3.2 3.1 -3.5 2.1 -5.8 1.3 -5.8 -2.1 0 -1.1 -1.4 -2.6 -3.7 -3.8 -6.8 -3.4 -7.5 -4.9 -7 -13.8 0.3 -4.3 0.9 -10 1.4 -12.8 l0.8 -5 8 -4.2 c10.4 -5.4 14.6 -6.6 20.7 -5.8 6.1 0.9 7.3 2.7 5.7 8.9 -1 4.1 -0.9 5 2 11.1 2.5 5.1 3.9 6.9 6.4 8 5.4 2.2 12.7 9.4 15.4 15.2 3.4 7.2 5.3 8.3 13.6 8.3 6.1 0 7.1 -0.3 9.3 -2.7 1.7 -1.8 2.4 -3.6 2.2 -5.8 -0.1 -2.1 0.7 -4.3 2.5 -6.7 2.3 -2.9 2.7 -4.5 2.7 -9.8 0 -5.7 -0.3 -6.7 -3.5 -10.6 -4 -4.8 -4.4 -7 -1.4 -7.9 2.7 -0.9 11.9 3.7 18.2 9 4.7 3.9 4.7 4.1 4.5 9.5 -0.2 4.3 0.3 6.2 2 8.5 1.2 1.7 2.5 4.5 2.8 6.3 0.6 3.1 0.6 3.2 -2.9 3.2 -5.3 0 -8.8 1.7 -10 4.9 -1.2 3.2 -10.4 8.1 -15.2 8.1 -3.4 0 -12.5 8.6 -12.5 11.8 0 1.5 -1 2.6 -3.2 3.6 -3.9 1.7 -8.8 6.1 -8.8 8 0 0.7 -1.1 3 -2.5 5 l-2.5 3.7 2.5 5.3 c1.4 2.9 2.5 7.1 2.5 9.4 0 6.1 0.7 7.2 4.7 7.2 2.4 0 4.1 -0.8 6 -2.7 4.5 -4.9 4.9 -8.1 1.8 -15.5 -0.4 -1 0.1 -2.4 1.4 -3.7 2.5 -2.5 9.3 -2.8 13.1 -0.6 1.4 0.8 3.6 1.9 5 2.5 3.4 1.6 4 2.7 4 9 0 8.7 -0.6 9.9 -4.5 9.3 -4.3 -0.7 -14.3 4 -15.5 7.3 -1.4 3.7 -4.2 4.4 -16.7 4.3 -11.7 0 -16.8 -0.8 -14.5 -2.3 0.6 -0.3 1.4 -2.8 1.8 -5.4 0.4 -2.6 1.4 -5.8 2.2 -7 2.1 -3.2 2.3 -17.2 0.3 -19.6 -1.7 -2 -7.9 -2.2 -8.7 -0.2 -0.3 0.7 0.4 2.9 1.5 4.7 2.8 4.5 2.6 8.1 -0.5 14.7 -2.4 5.2 -2.5 5.6 -1.1 9.8 l1.4 4.4 -3.1 0.1 c-7.5 0.2 -11.4 1 -15.1 2.9 -4.8 2.5 -5.2 2.5 -9.1 0.1z m43.1 -53.2 c1.9 -1.9 -1.1 -4.4 -6.1 -5.1 -2.7 -0.3 -6.1 -0.9 -7.5 -1.3 -2.9 -0.8 -7.9 1.8 -7.9 4 0 2.9 4.2 4.2 12.4 3.7 4.5 -0.2 8.5 -0.8 9.1 -1.3z m-9.5 -18.4 l2.3 -2.5 -2.3 -5 c-3.3 -7 -4.6 -7.9 -7.3 -5.2 -2 2.1 -2 2.3 -0.4 5.7 1 2.2 1.4 4.6 1.1 6.5 -0.6 2.7 -0.4 3 1.8 3 1.3 0 3.5 -1.1 4.8 -2.5z"/>
  <path d="M157.2 129.8 c-0.7 -0.7 -1.2 -3 -1.2 -5.2 0 -3.6 -0.7 -4.6 -7.4 -11.4 -6.6 -6.6 -7.6 -7.3 -9.5 -6.2 -1.2 0.6 -2.7 0.8 -3.4 0.3 -0.6 -0.4 -3.8 -1 -7 -1.4 -3.2 -0.4 -6.1 -1 -6.5 -1.4 -0.4 -0.4 0.6 -1.8 2.1 -3.1 2.5 -2.1 3.5 -2.4 7.6 -1.8 3.7 0.5 5.5 0.1 9 -1.6 3.7 -2 5.2 -2.2 11.8 -1.7 6.8 0.5 8 0.9 10.7 3.7 2.6 2.6 2.9 3.2 1.6 4.1 -0.8 0.5 -2.6 0.7 -4 0.4 -7.6 -1.8 -8.8 -0.1 -3.6 5.1 4.1 4.1 5.1 8.1 4.1 15.9 -0.6 5.5 -1.9 6.7 -4.3 4.3z"/>
  <path d="M116.7 72.3 c-0.4 -0.3 -0.7 -1.9 -0.7 -3.5 0 -1.6 -0.9 -4.6 -2 -6.8 -2.2 -4.2 -2.6 -9.1 -1 -11.9 1.2 -2.4 10.4 -2.2 12.8 0.3 1.6 1.6 1.5 1.9 -1 3.7 l-2.7 2 2 4.4 c2.2 5.1 1.8 8.8 -1.4 11 -2.3 1.6 -4.9 1.9 -6 0.8z"/>
 </g>
</svg>