<?xml version="1.0" encoding="utf-8"?>
<!DOCTYPE svg PUBLIC "-//W3C//DTD SVG 20010904//EN" "http://www.w3.org/TR/2001/REC-SVG-20010904/DTD/svg10.dtd">
<svg version="1.0" xmlns="http://www.w3.org/2000/svg" width="200px" height="200px" viewBox="0 0 200 200" preserveAspectRatio="xMidYMid meet">
 <g fill="#ff6300">
  <path d="M53.3 188.3 c-2.6 -0.3 -3.3 -0.9 -3.3 -2.6 0 -1.9 0.9 -2.4 5.3 -3.5 6.4 -1.5 11.7 -1.6 11.7 -0.2 0 0.6 2.3 1 5 1 5.5 0 6.7 1.7 2.5 3.7 -1.9 0.8 -3.1 0.8 -5 0 -1.4 -0.7 -2.5 -1.5 -2.5 -1.9 0 -1.2 -3.9 0.4 -5.6 2.3 -0.9 1 -2.4 1.8 -3.3 1.7 -0.9 0 -3.1 -0.3 -4.8 -0.5z"/>
  <path d="M38.3 182.8 c-0.9 -1 -2.6 -1.8 -3.8 -1.8 -1.4 0 -4 -1.9 -6.9 -5.1 -4 -4.4 -4.6 -5.6 -4.6 -9.5 0 -3.7 0.3 -4.4 2 -4.4 1.6 0 2 0.7 2 3.3 0 3.5 0.4 4.3 3.8 7.1 2.2 1.9 2.3 1.9 3.8 -0.2 1.2 -1.7 2.5 -2.2 6 -2.2 4.2 0 4.4 0.1 4.4 2.9 0 1.5 0.3 4.8 0.6 7.3 l0.6 4.5 -3.1 -0.1 c-1.8 0 -3.9 -0.9 -4.8 -1.8z"/>
  <path d="M78 183 c0 -1.6 0.7 -2 3.5 -2 2.8 0 3.5 0.4 3.5 2 0 1.6 -0.7 2 -3.5 2 -2.8 0 -3.5 -0.4 -3.5 -2z"/>
  <path d="M86 181.8 c0 -2.7 0.1 -2.8 5.5 -2.8 3.9 0 5.5 0.4 5.5 1.3 0 1.7 -3.5 3.4 -7.7 4 -3 0.3 -3.3 0.1 -3.3 -2.5z"/>
  <path d="M117 178.3 c0 -2.9 0.2 -2.9 9.5 -3.8 l8 -0.7 -3.3 3.5 c-3.1 3.2 -3.8 3.4 -8.8 3.3 -4.8 -0.1 -5.4 -0.3 -5.4 -2.3z"/>
  <path d="M141 170.5 c0 -2.2 0.4 -2.5 3.5 -2.5 4.3 0 4.4 1 0.6 3.3 -3.8 2.2 -4.1 2.2 -4.1 -0.8z"/>
  <path d="M149.7 168.3 c-1.7 -1.6 -0.3 -4.2 5 -8.8 5.4 -4.7 5.5 -5 3.2 -5.5 -2.1 -0.5 -2.4 -1.2 -2.7 -5.8 l-0.3 -5.2 5.1 0 5.2 0 -0.4 5.5 c-0.3 5.1 -0.2 5.5 2 5.5 2.7 0 2.8 1 0.5 3.2 -1 1 -3.1 3.1 -4.7 4.7 -1.6 1.6 -3.4 2.7 -4 2.5 -0.6 -0.2 -2.7 0.7 -4.6 2.1 -3.9 2.9 -3.5 2.7 -4.3 1.8z"/>
  <path d="M22 155.6 c0 -0.7 -0.6 -1.9 -1.4 -2.5 -0.8 -0.7 -1.3 -3.2 -1.3 -6.6 0 -4.5 0.3 -5.5 1.6 -5.5 3.1 0 4.1 2.3 4.1 9.2 0 5.4 -0.3 6.8 -1.5 6.8 -0.8 0 -1.5 -0.6 -1.5 -1.4z"/>
  <path d="M172.8 146.9 c-2.1 -2.2 -2.5 -10.8 -0.6 -12.7 1.9 -1.9 4.8 -1.5 4.8 0.6 0 1.1 0.9 2.7 2 3.7 2.7 2.5 2.5 4.6 -0.8 7.8 -3.3 3.1 -3.2 3.1 -5.4 0.6z"/>
  <path d="M23.5 115.1 c0.1 -1.7 0.6 -3.6 1.2 -4.3 0.5 -0.7 1.3 -2.1 1.6 -3 0.4 -1 1.3 -1.8 2.2 -1.8 1.3 0 1.5 1 1.3 5.8 -0.3 5.6 -0.4 5.7 -3.4 6 -3 0.3 -3.2 0.1 -2.9 -2.7z"/>
  <path d="M26.4 79.5 c-0.4 -0.8 -0.9 -1.3 -1.4 -1 -1 0.6 -3 -4.2 -2.4 -5.9 0.3 -0.8 1.2 -1.7 2 -2 0.8 -0.3 1.4 -1.2 1.4 -2.1 0 -0.8 0.6 -1.5 1.4 -1.5 1.5 0 3.3 11 2.1 12.9 -0.9 1.6 -2.5 1.3 -3.1 -0.4z"/>
  <path d="M183 74.8 c0 -5.9 0.1 -6 1.8 -4.5 1 1 2.4 1.7 3 1.7 1.7 0 1.5 3.5 -0.3 5 -0.8 0.7 -1.5 1.9 -1.5 2.6 0 0.8 -0.7 1.4 -1.5 1.4 -1.2 0 -1.5 -1.4 -1.5 -6.2z"/>
  <path d="M168.3 68.8 c-3 -1 -3.3 -1.4 -3.3 -5.3 0 -4 0.2 -4.3 3.3 -4.9 1.7 -0.3 4.4 -0.9 6 -1.2 2.3 -0.5 2.7 -0.3 2.7 1.4 0 1.2 0.9 2.8 2.1 3.6 1.2 0.8 1.8 1.9 1.5 2.5 -0.4 0.5 -0.2 1.3 0.4 1.6 0.8 0.5 0.7 1.1 -0.1 2.1 -1.3 1.6 -7.8 1.7 -12.6 0.2z"/>
  <path d="M35.5 45.8 c0.2 -2.5 4.8 -6.8 7.4 -6.8 1 0 2.4 -0.6 3 -1.4 0.7 -0.8 2.4 -1.7 3.9 -2.1 3.9 -0.9 8.1 -5.3 8.8 -9.2 0.7 -3.8 4.4 -4.9 4.4 -1.3 0 1.1 -0.4 2 -1 2 -0.5 0 -1 2.1 -1 4.8 0 5.2 -3 9.2 -6.9 9.2 -1.2 0 -2.9 0.9 -3.8 2 -1.2 1.3 -3 2 -5.4 2 -2 0 -4.2 0.7 -4.9 1.5 -1.9 2.3 -4.7 1.9 -4.5 -0.7z"/>
  <path d="M161.7 44.3 c-0.4 -0.3 -0.7 -1.7 -0.7 -3 0 -2.1 0.4 -2.3 3.3 -2 3.3 0.3 8.7 3.3 8.7 4.8 0 1 -10.3 1.2 -11.3 0.2z"/>
  <path d="M91.4 28.3 c-0.3 -1 -1 -2.8 -1.5 -4.1 -1.4 -3.5 -1.1 -5.2 0.9 -5.2 1.1 0 2.7 -0.9 3.8 -2.1 1.5 -1.7 2.6 -2 5.6 -1.5 3.2 0.5 4.1 0.2 6 -1.9 1.8 -2.1 3 -2.5 7.8 -2.5 4.4 0 6.1 0.5 7.4 1.9 1.6 1.7 3.2 2 13.7 2 6.6 0 12.4 0.3 12.9 0.6 0.6 0.3 1 1.7 1 2.9 0 2.7 1.6 4.3 4.8 4.8 2.9 0.4 3.1 2 0.3 3.3 -1.1 0.5 -2.1 1.3 -2.1 1.7 0 0.5 -1.8 0.8 -4 0.8 -3.3 0 -4.8 -0.7 -8.4 -4 l-4.3 -4 -14.9 0 c-8.2 0 -15.6 0.5 -16.4 1 -0.8 0.5 -2 2.4 -2.6 4.2 -0.9 2.9 -1.5 3.3 -5.2 3.6 -3.4 0.3 -4.3 -0.1 -4.8 -1.5z"/>
  <path d="M67 26 c0 -2.7 0.3 -3 2.3 -2.5 1.6 0.4 2.9 -0.1 4.7 -1.9 3 -3.3 4 -3.3 4 0.2 0 6.2 -0.8 7.2 -6.1 7.2 -4.8 0 -4.9 -0.1 -4.9 -3z"/>
 </g>
 <g fill="#ff7700">
  <path d="M48.6 186.5 c-0.8 -0.8 -2.1 -1.5 -3 -1.5 -2.2 0 -3.6 -3.2 -3.6 -7.9 0 -4.8 -1.6 -5.3 -4.8 -1.6 -3.1 3.5 -6.2 3.2 -10.5 -1.3 -2.7 -2.7 -3.6 -4.5 -3.5 -6.7 0.3 -6.3 -1.5 -21.1 -2.7 -22.5 -0.7 -0.8 -1.5 -2.4 -1.7 -3.5 -0.2 -1.6 0.2 -1.9 2.2 -1.7 4.4 0.6 6 3.6 6 11.7 0 5.4 0.4 7.6 1.6 8.6 1 0.8 1.4 2.6 1.3 5.6 -0.4 6.5 1.2 7.3 6.1 2.9 3.7 -3.3 4.6 -3.7 8.8 -3.4 l4.7 0.3 0.3 4.4 c0.2 2.9 -0.2 4.9 -1.3 6.1 -1.3 1.4 -1.4 2.2 -0.4 4.3 1 2.3 1.4 2.4 3.8 1.4 1.4 -0.6 3.3 -1.7 4.2 -2.4 2.2 -1.8 10.3 -1.7 11.9 0.2 0.7 0.8 2.5 1.5 4 1.5 1.5 0 3.3 -0.7 4 -1.5 1.8 -2.2 22 -2.2 22 -0.1 0 2 -1.9 3 -5.3 2.8 -1.5 -0.1 -3.5 0.5 -4.4 1.3 -1.1 1.1 -3 1.5 -6.4 1.2 -2.7 -0.2 -4.9 0.1 -4.9 0.5 0 0.4 -2.2 0.8 -5 0.8 -2.7 0 -5 -0.4 -5 -0.8 0 -0.4 -1.2 -0.7 -2.7 -0.7 -4.8 0.2 -11.3 1.7 -11.3 2.6 0 1.4 -2.7 1 -4.4 -0.6z"/>
  <path d="M110 179 c0 -1.3 0.7 -2 2 -2 1.1 0 3.4 -0.9 5.2 -2 1.8 -1.1 4.6 -2 6.1 -2 1.5 0 3.8 -0.6 5 -1.4 1.2 -0.8 3.8 -1.7 5.7 -2.1 9.3 -1.8 23.9 -12 21.2 -14.7 -0.7 -0.7 -1.2 -3.8 -1.2 -7 l0 -5.8 5.9 0 c6.1 0 7.1 0.7 7.1 5.1 0 1.7 0.3 1.8 2 0.9 1.6 -0.9 1.8 -1.5 1 -3 -0.5 -1 -1 -3.4 -1 -5.2 0 -4.5 4 -12.7 6.3 -12.8 1.4 0 1.7 -0.9 1.7 -5.5 0 -4.6 0.3 -5.5 1.8 -5.5 2.9 0 3 7.6 0.1 10.1 -1.7 1.5 -2.2 2.9 -2.1 5.8 0.2 2.4 -0.3 4.3 -1.3 5.1 -1.9 1.6 -2 5.6 0 6.4 0.8 0.3 1.5 1.3 1.5 2.2 0 2.2 -9 11.3 -11.3 11.4 -1 0 -4.7 2.5 -8.1 5.6 -3.5 3.1 -6.7 5.7 -7.2 5.7 -0.5 0 -2.6 1.1 -4.6 2.3 -2.1 1.3 -5 2.4 -6.6 2.4 -1.5 0 -4.3 1.1 -6.2 2.5 -2.3 1.7 -4.7 2.5 -7.6 2.5 -2.5 0 -4.7 0.6 -5.4 1.5 -0.8 0.9 -3 1.5 -5.6 1.5 -3.7 0 -4.4 -0.3 -4.4 -2z m51.8 -30.8 c0.3 -1.7 -0.2 -2.2 -1.7 -2.2 -1.4 0 -2.1 0.6 -2.1 1.8 0 3.8 3.3 4.1 3.8 0.4z"/>
  <path d="M23.8 130.1 c-1.9 -1.9 -2.6 -11.1 -0.8 -11.1 0.5 0 0.7 -0.6 0.4 -1.4 -0.3 -0.8 0.4 -1.9 1.6 -2.6 1.6 -0.9 2.1 -2 1.9 -4.3 -0.1 -1.8 -0.1 -8 0 -13.9 0.1 -10.1 0.2 -10.8 2.1 -10.8 1.9 0 2 0.7 2 10.3 0 5.9 0.5 10.8 1.1 11.4 0.5 0.5 0.9 3.2 0.7 5.9 -0.3 4.2 -0.6 4.9 -2.8 5.4 -2.3 0.5 -2.5 1.1 -2.8 6.8 -0.2 3.4 -0.6 6.2 -1 6.1 -0.4 0 -1.5 -0.8 -2.4 -1.8z"/>
  <path d="M181 91.5 l0 -17.5 -2.7 0 c-1.4 0 -5.5 -1.4 -9 -3.1 l-6.4 -3.1 0.3 -4.7 c0.3 -4.6 0.3 -4.6 4.8 -5.7 4.5 -1.1 4.5 -1.1 4.8 -5.7 l0.3 -4.7 -4.9 0 c-5.4 0 -9.2 -2.8 -9.2 -6.9 0 -1.9 0.4 -2.1 2.3 -1.5 1.2 0.3 2.6 1.3 3 2 0.4 0.8 2.2 1.4 4 1.4 2.3 0 4.1 1 6.5 3.4 3.2 3.4 3.3 3.6 2.5 9.3 l-0.8 5.8 -4.2 0.9 c-5.4 1.2 -5.5 2.9 -0.2 4.5 3.8 1.2 4.3 1.1 6.7 -1.1 1.8 -1.6 2.3 -1.8 1.9 -0.7 -0.3 1.1 0.6 2.7 2.4 4.5 l3 2.9 -0.5 16.9 c-0.3 9.3 -0.8 17.1 -1 17.4 -0.3 0.2 -0.2 1 0.1 1.8 0.3 0.9 -0.2 1.4 -1.6 1.4 -2.1 0 -2.1 -0.4 -2.1 -17.5z"/>
  <path d="M26.6 79.8 c-0.6 -1.9 -0.6 -4.3 0 -12.6 0.5 -5.8 1.1 -7.9 3.1 -10.2 1.4 -1.7 2.9 -3 3.4 -3 1.5 0 1 8.6 -0.6 10 -1 0.8 -1.5 3.6 -1.7 8.8 -0.3 6.4 -0.6 7.7 -2.1 8 -0.9 0.2 -1.9 -0.2 -2.1 -1z"/>
  <path d="M35.7 46.3 c1.2 -3.4 2.6 -4.3 6.2 -4.3 2.4 0 4.2 -0.7 5.4 -2 0.9 -1.1 2.6 -2 3.8 -2 3 0 6.9 -4 6.9 -7.2 0 -1.5 0.4 -3.8 1 -5.2 0.8 -2.3 1.5 -2.6 5.5 -2.6 3.1 0 4.7 0.5 5.1 1.5 1.1 2.7 4.1 1.7 5 -1.7 l1 -3.3 8.4 0 8.5 0 1.1 3.5 c1.4 4.3 3.4 4.5 4.8 0.5 1.4 -3.7 5.8 -8.5 7.9 -8.5 0.8 0 1.7 0.7 2.1 1.5 0.3 0.9 1.8 1.5 3.5 1.5 1.6 0 3.1 -0.6 3.5 -1.5 0.7 -1.9 4.2 -1.9 5 0 0.4 1.2 2.4 1.5 9.2 1.5 l8.7 0 4.3 4 c4.8 4.4 5.9 4.7 8.5 2.4 1.9 -1.7 4.9 -1.3 4.9 0.7 0 0.6 -0.9 1.3 -2 1.6 -1.2 0.3 -2 1.4 -2 2.5 0 1.8 -0.5 2 -4.5 1.6 -3.3 -0.4 -5.5 -1.5 -8.5 -4.2 -3.8 -3.4 -4.3 -3.6 -11.8 -3.7 -21.2 -0.4 -22.5 -0.3 -23.2 1.2 -4.3 9.3 -4.4 9.4 -8.4 9.7 -4.7 0.4 -5.8 -0.6 -6.5 -6 l-0.6 -4.3 -4.4 0 c-4.1 0 -4.4 0.2 -5.5 3.5 -1 3.3 -1.4 3.5 -5.7 3.8 -3.4 0.2 -5.1 -0.2 -6.4 -1.4 -1.4 -1.5 -1.8 -1.5 -2.6 -0.3 -0.5 0.8 -0.9 2.9 -0.9 4.7 0 1.8 -0.6 3.9 -1.2 4.5 -2.1 2 -9.4 5.7 -11.2 5.7 -0.9 0 -1.6 0.5 -1.6 1 0 0.6 -1.5 1 -3.4 1 -1.9 0 -3.8 0.5 -4.1 1 -0.3 0.6 -1.9 1 -3.5 1 -2.4 0 -2.8 -0.3 -2.3 -1.7z"/>
 </g>
 <g fill="#ff9c00">
  <path d="M46.3 184.4 c-3.2 -3.5 -3.4 -8.5 -0.6 -11.6 1.8 -2 1.1 -4.8 -1.1 -4.8 -0.8 0 -3.6 1.8 -6.1 4 -5.4 4.7 -7.3 4.9 -11.4 1.4 -3 -2.5 -3 -2.6 -1.5 -5.6 1.4 -2.7 1.4 -3.1 0 -4.7 -1.1 -1.3 -1.6 -3.8 -1.6 -8.9 0 -6.6 -0.3 -7.4 -3.1 -10.7 -1.7 -1.9 -2.9 -3.5 -2.8 -3.6 7.2 -1.6 9.9 1.6 9.9 11.6 0 5.2 0.4 7.6 1.5 8.5 1 0.8 1.5 3 1.5 6.1 0 2.7 0.3 4.9 0.6 4.9 0.4 0 2.4 -1.6 4.5 -3.5 3.1 -2.7 4.8 -3.5 7.8 -3.5 6.3 0 7.1 0.7 7.1 5.8 0 2.8 -0.6 5.2 -1.6 6.3 -2.4 2.7 -1.1 5.3 2.4 4.4 1.5 -0.3 3.4 -1.3 4.3 -2.1 2.1 -1.9 10.3 -1.8 11.9 0.1 1.6 2 6.4 1.9 8 0 0.9 -1.1 3.1 -1.6 6.4 -1.6 2.8 0 7.3 -0.1 10 -0.2 3.7 -0.2 5.1 0.2 6 1.6 1.5 2.3 -0.8 3.8 -4.7 3 -1.5 -0.3 -3.9 0 -5.3 0.7 -2 1.1 -2.8 1.1 -4.9 0 -2.2 -1.2 -2.7 -1.1 -4.4 0.5 -2.7 2.4 -11.3 2.5 -13.9 0.2 -2 -1.9 -4.8 -2.2 -5.6 -0.8 -0.7 1.1 -8.8 5.1 -10.2 5.1 -0.5 0 -1.9 -1.2 -3.1 -2.6z"/>
  <path d="M107 178.4 c0 -2.2 0.4 -2.4 4.5 -2.4 3.2 0 5.1 -0.6 6.5 -2 1.2 -1.2 3.3 -2 5.3 -2 1.7 0 4.6 -0.9 6.2 -2 1.7 -1.1 4.2 -2 5.6 -2 3.7 0 13.8 -5.2 17.2 -8.8 2.8 -2.9 2.8 -3.1 1.2 -5.6 -2 -3.1 -1.6 -11.3 0.6 -12.7 2.4 -1.5 10.6 -1 12.3 0.7 1.5 1.4 1.6 1.2 1.6 -2 0 -2 0.9 -5.3 2 -7.3 1.1 -2.1 2 -4.6 2 -5.6 0 -1 0.7 -2 1.5 -2.3 0.8 -0.4 1.5 -1.7 1.5 -3.1 0 -3.2 1.7 -6.3 3.5 -6.3 1.3 0 1.5 -3 1.5 -19.5 l0 -19.5 -2.5 0 c-2.6 0 -10 -3.3 -10.7 -4.7 -0.1 -0.5 -1.6 -1.6 -3.3 -2.5 -2.3 -1.3 -3.1 -2.5 -3.3 -5.1 -0.3 -2.9 0.2 -3.8 2.7 -5.6 1.6 -1.2 4.3 -2.1 6 -2.1 2.9 0 3.1 -0.2 3.1 -4 l0 -4 -4.3 0 c-3.3 0 -5 -0.6 -7.5 -2.9 -1.7 -1.7 -3.2 -3.7 -3.2 -4.5 0 -0.9 -0.7 -1.6 -1.5 -1.6 -1 0 -1.5 -1 -1.5 -3 0 -1.6 0.3 -3 0.6 -3 1 0 3.4 2.8 3.4 3.9 0 0.6 0.6 1.1 1.3 1.1 0.7 0 2.6 1.3 4.2 3 2.1 2.2 3.8 3 6.3 3 5.1 0 6.3 1.9 6 9.1 l-0.3 6.2 -4.5 1.1 c-6.7 1.6 -6.4 3.7 1 7.4 l6.1 3 1 -2.6 c1 -2.5 1 -2.5 2.9 -0.6 1.7 1.7 1.9 4 2.1 23.4 0.3 20.2 0.2 21.6 -1.6 23.8 -2.1 2.4 -2.2 2.6 -2.4 7 0 1.6 -1 3.9 -2.1 5.2 -1.1 1.3 -2 3 -2 3.8 0 0.8 -1 3.1 -2.2 5 -2.1 3.4 -2.1 3.6 -0.5 6.4 0.9 1.6 1.7 3.7 1.7 4.6 0 1.9 -6.7 8.2 -8.7 8.2 -1.4 0 -3.4 -3.9 -2.6 -5.3 1.2 -2 -1 -4.7 -3.8 -4.7 -2.5 0 -2.9 0.4 -2.9 2.8 0 1.5 0.7 3.6 1.5 4.6 2.3 3 1.8 5.2 -1.9 9.4 -3.7 4 -13.8 9.6 -19.6 10.7 -1.9 0.4 -4.5 1.3 -5.7 2.1 -1.2 0.8 -3.5 1.4 -5 1.4 -1.5 0 -4.3 0.9 -6.1 2 -1.9 1.2 -5.6 2.2 -8.3 2.4 -4.6 0.3 -4.9 0.2 -4.9 -2z"/>
  <path d="M24.5 129.7 c-0.4 -1.7 -0.5 -5.5 -0.3 -8.2 0.3 -4.4 0.6 -5 2.6 -5.3 2.9 -0.4 3.8 -2.6 2.4 -5.5 -0.6 -1.2 -1.3 -7.7 -1.5 -14.4 -0.4 -11.2 -0.3 -12.3 1.3 -12.3 2.2 0 3 2.8 3 10.9 0 3.5 0.7 9.4 1.6 13.1 2.1 8.4 1.4 11.8 -2.4 12.2 -2.6 0.3 -2.7 0.6 -3 6.6 -0.2 4.5 -0.7 6.2 -1.7 6.2 -0.8 0 -1.7 -1.4 -2 -3.3z"/>
  <path d="M27 80.5 c-1 -1.2 -1 -1.9 -0.2 -2.7 0.7 -0.7 1.2 -4.3 1.2 -8.4 0 -5.3 0.4 -7.5 1.6 -8.5 0.8 -0.7 1.3 -2 1.1 -2.9 -0.5 -2.1 1.8 -5.4 3.2 -4.5 1.7 1 1.4 10.2 -0.4 10.9 -1.1 0.4 -1.5 2.3 -1.5 7.9 0 8.7 -1.9 11.9 -5 8.2z"/>
  <path d="M34 49.1 c0 -0.4 1.2 -2 2.6 -3.5 2.4 -2.3 4.9 -3.2 7.8 -2.7 0.5 0.1 1.5 -0.8 2.3 -1.9 1 -1.4 2.2 -2 3.5 -1.7 1.3 0.4 2.8 -0.3 4.3 -1.9 1.2 -1.3 3 -2.4 3.9 -2.4 1.2 0 1.6 -1 1.6 -3.9 0 -5.2 2.8 -8.8 5.7 -7.2 1.6 0.8 2.3 0.8 2.6 -0.2 0.3 -0.6 0.6 -0.2 0.6 1 0.1 2.2 3.2 4 5.1 2.8 0.5 -0.3 1.3 -2 1.8 -3.8 l0.8 -3.2 7.5 0 7.4 0 0.6 4.3 c1 7.8 4.5 7.9 7.2 0.1 1.2 -3.5 4.9 -8.9 6.1 -8.9 0.4 0 2 1 3.6 2.2 l3 2.2 3 -2.3 3.1 -2.2 2.6 2 c2.1 1.7 4 2.1 9.9 2.1 7 0 7.6 0.2 11.1 3.3 5.1 4.5 6.7 4.9 9.5 2.7 1.7 -1.3 2.9 -1.6 3.9 -0.9 1.1 0.7 1 1 -0.8 1.5 -1.6 0.4 -2.3 1.4 -2.3 3 0 2.2 -0.4 2.4 -4.4 2.4 -3.8 0 -5.2 -0.6 -9.1 -4 -4.4 -3.8 -4.9 -4 -11.4 -4 -3.7 0 -7.2 -0.5 -7.9 -1.2 -0.8 -0.8 -1.5 -0.8 -2.7 0.2 -1 0.8 -3.1 1.1 -6.4 0.7 l-4.9 -0.6 -1.6 4.3 c-2.4 6.3 -4.4 7.8 -10.2 7.4 l-4.9 -0.3 -0.5 -5 c-0.5 -4.9 -0.6 -5 -4.2 -5.3 -3.5 -0.3 -3.6 -0.2 -4.3 3.7 l-0.7 4.1 -5.3 0 c-3.4 0 -5.9 -0.5 -6.8 -1.5 -1.8 -1.8 -2.7 -1 -2.7 2.7 0 2.1 -0.5 2.8 -2 2.8 -1.5 0 -2 0.7 -2 2.5 0 1.8 -0.5 2.5 -2 2.5 -1.1 0 -2 0.5 -2 1 0 0.6 -0.9 1 -2 1 -1.1 0 -2 0.4 -2 0.9 0 0.5 -1.8 1.1 -4 1.5 -2.2 0.3 -4.9 1.5 -6 2.6 -2 2 -8 2.8 -8 1.1z"/>
 </g>
 <g fill="#ffa800">
  <path d="M46.7 184.2 c-2.1 -2.4 -2.2 -9.5 -0.2 -11.2 2.8 -2.4 1.3 -6 -2.5 -6 -0.5 0 -3 1.8 -5.5 4 -5.2 4.5 -7.9 5 -11.1 1.9 -2.1 -2 -2.1 -2.2 -0.6 -4.9 1.5 -2.6 1.5 -3 -0.1 -4.8 -1.3 -1.4 -1.7 -3.6 -1.7 -9 0 -6.5 -0.3 -7.4 -3 -10.5 -1.6 -1.9 -3 -3.6 -3 -3.8 0 -0.2 1.5 -0.4 3.3 -0.4 5.7 0 6.5 1.4 6.9 12.2 0.2 6.6 0.7 9.8 1.6 10.1 0.7 0.2 1.2 2.1 1.2 4.5 l0 4.1 3.3 -3.2 c2.9 -2.8 4 -3.2 8.6 -3.2 3.2 0 5.8 0.6 6.7 1.4 1.9 1.9 1.8 7.6 -0.2 10.4 -0.8 1.2 -1.4 2.9 -1.2 3.7 0.2 1.1 1.3 0.9 5.1 -1 5.5 -2.8 10.4 -3.2 13.3 -1 2.5 1.9 5.9 1.9 8.8 0 1.3 -0.9 4.1 -1.5 6.2 -1.5 2.2 0.1 5.7 -0.2 8 -0.6 4.8 -0.7 8.4 0.8 8.4 3.6 0 2.4 -2.1 3.1 -4.1 1.3 -1.4 -1.2 -2.1 -1.2 -5.3 0.3 -3.1 1.5 -3.9 1.6 -6.1 0.4 -2.1 -1.1 -2.7 -1.1 -4.3 0.3 -2.4 2.2 -12.4 2.4 -14.2 0.2 -1.4 -1.7 -4.6 -2 -5.4 -0.6 -0.7 1.1 -8.8 5.1 -10.3 5.1 -0.5 0 -1.7 -0.8 -2.6 -1.8z"/>
  <path d="M106 178.7 c0 -2.7 1.6 -3.7 6.3 -3.7 1.7 0 3.8 -0.7 4.8 -1.6 1 -0.9 3.7 -1.8 6.1 -2.1 2.4 -0.3 5 -1.2 5.9 -2 0.9 -0.8 3.4 -1.6 5.5 -2 5.3 -0.7 13.5 -4.8 16.9 -8.3 2.6 -2.7 2.6 -3 1.1 -5.1 -2.3 -3.3 -2.1 -10.4 0.4 -12.9 2.2 -2.2 9.7 -2.8 13.1 -1 1.7 1 1.9 0.7 1.9 -3.5 0 -3.2 0.4 -4.5 1.4 -4.5 0.9 0 1.7 -1.5 2.1 -3.9 0.4 -2.2 1.3 -4.2 2.1 -4.5 0.9 -0.4 1.4 -2.1 1.4 -5.3 0 -3.8 0.4 -5.1 2 -6.1 1.9 -1.2 2 -2.1 1.8 -18.5 l-0.3 -17.2 -2.5 -0.3 c-3.6 -0.4 -7 -2.3 -7 -3.9 0 -0.7 -0.7 -1.3 -1.5 -1.3 -0.8 0 -1.5 -0.6 -1.5 -1.4 0 -0.9 -1.5 -1.5 -4.5 -1.8 -4.1 -0.3 -4.4 -0.1 -4.7 2.2 -0.3 2.3 -0.7 2.5 -4.8 2.5 -4.5 0 -4.5 0 -4.8 -3.7 l-0.3 -3.8 5 0 c4.6 0 5.1 -0.2 5.1 -2.2 0 -2.6 5.2 -6.1 10.8 -7.3 2.7 -0.6 3.2 -1.1 3.2 -3.6 0 -2.6 -0.3 -2.9 -3.3 -2.9 -3.2 0 -10.7 -4.2 -10.7 -6 0 -0.6 -1.1 -2 -2.5 -3.2 -1.5 -1.3 -2.5 -3.2 -2.5 -4.7 0 -2.5 -0.2 -2.6 -4.5 -2.3 -3.9 0.4 -4.9 0 -8.7 -3.2 -5 -4.4 -4.9 -4.3 -20.5 -5.3 l-12.2 -0.8 -1.6 4.1 c-2.1 5.6 -5.4 8.4 -10.6 9.1 -5.2 0.7 -6.9 -1.1 -6.9 -7.4 0 -4.1 -0.1 -4.3 -2.9 -4.3 -2.9 0 -4.1 1.4 -4.1 5 0 1.2 -1 2 -3.1 2.4 -4.6 0.9 -8.7 0.7 -9.4 -0.4 -1.3 -2.1 -2.5 -0.9 -2.5 2.5 0 2.8 -0.4 3.5 -1.9 3.5 -1.1 0 -2.6 0.7 -3.5 1.5 -0.8 0.8 -2.4 1.5 -3.5 1.5 -1.2 0 -2.1 0.6 -2.1 1.5 0 0.8 -0.6 1.5 -1.4 1.5 -0.7 0 -1.9 0.7 -2.6 1.5 -0.7 0.8 -2.3 1.5 -3.5 1.5 -3.4 0 -5.5 1 -5.5 2.6 0 0.7 -0.8 1.8 -1.9 2.3 -1.3 0.7 -2 2.5 -2.3 6.2 -0.3 3.2 -1.2 5.7 -2.2 6.4 -1.2 1 -1.6 3 -1.6 9.4 0 6.8 -0.3 8.1 -1.6 8.1 -1.4 0 -1.4 0.3 -0.4 1.5 0.7 0.9 1.4 5.4 1.7 10.8 0.5 12.6 1.1 15.7 2.8 15.7 1.1 0 1.5 1.2 1.5 4.3 0 5 -1.3 6.7 -5.2 6.7 -2.7 0 -2.8 0.2 -2.8 5 0 4.4 -0.3 5 -2 5 -1.9 0 -2.1 -0.5 -1.8 -6.7 0.3 -6.4 0.5 -6.8 2.8 -7.2 3.3 -0.4 4.1 -1.8 2.8 -5 -0.5 -1.4 -1.4 -7.5 -2 -13.6 -0.5 -6 -1.1 -12.4 -1.2 -14.1 -0.2 -1.7 -0.6 -3.6 -0.9 -4.1 -0.4 -0.6 0 -1.6 0.8 -2.3 1.1 -0.9 1.5 -3.3 1.5 -8.7 0 -5.6 0.4 -7.5 1.5 -7.9 1.1 -0.5 1.4 -1.8 1.1 -5.2 -0.3 -3.7 0.1 -5.1 1.8 -6.9 1.1 -1.3 2.4 -2.3 2.9 -2.3 0.4 0 1.6 -0.9 2.7 -2 1.1 -1.1 3 -2 4.3 -2 1.3 0 2.7 -0.3 3.1 -0.7 0.4 -0.5 1.1 -0.8 1.4 -0.9 1.6 -0.2 4.8 -1.8 6.6 -3.3 1 -0.9 2.1 -1.6 2.5 -1.6 0.3 0 0.5 -0.3 0.4 -0.7 -0.2 -0.5 0.4 -0.8 1.2 -0.8 0.8 0 1.7 -1.2 2 -2.8 1.8 -8.6 3.3 -9.7 7.9 -5.7 1.6 1.4 3.9 2.5 5.2 2.5 1.8 0 2.3 -0.7 2.9 -4 l0.7 -4.1 6.6 0.3 6.7 0.3 0.5 5 c0.4 3.8 0.9 5.1 2.3 5.3 2.6 0.5 4.7 -1.6 7.3 -7.3 3.7 -8.1 3.7 -8.1 7.7 -5.6 3.4 2.1 3.6 2.1 6.6 0.4 3 -1.7 3.2 -1.7 6.2 0 2 1.1 5.2 1.7 9.4 1.7 6 0 6.7 0.2 11 4 5.1 4.5 6.1 4.7 9.3 2.4 1.2 -0.8 2.8 -1.3 3.5 -1.1 0.7 0.3 0.5 0.6 -0.5 0.6 -2.6 0.1 -2.2 3 1 6.3 10 10.7 11.3 11.7 15.5 12 l4.2 0.3 0.3 6.8 c0.3 6.9 0.1 7.2 -4.1 6.8 -0.9 -0.1 -3.1 0.8 -4.8 2 l-3.1 2.2 2.3 1.8 c1.3 1 3 1.9 3.7 1.9 0.6 0 1.2 0.4 1.2 1 0 0.5 1.8 1.9 3.9 3 3.6 1.8 4.1 1.8 5.5 0.4 0.9 -0.8 1.6 -2.3 1.6 -3.2 0 -1.2 0.3 -1.3 1.1 -0.5 0.8 0.8 1.1 7.4 1 20.7 -0.2 13.2 0.1 19.6 0.8 19.6 2 0 1.1 2.7 -2.3 7.9 -2.1 3.1 -3.2 5.8 -2.9 7 0.3 1.2 -0.3 2.6 -1.6 3.7 -1.2 1 -2.1 2.5 -2.1 3.3 0 0.7 -1 3.3 -2.2 5.7 -2 4 -2 4.4 -0.5 6.8 2.4 3.6 2.1 4.8 -1.7 8.5 -3.9 3.8 -5.6 3.4 -5.6 -1.4 0 -3.6 -2.1 -6.5 -4.8 -6.5 -4.4 0.1 -6 4.3 -3.2 8.5 1.1 1.7 2 3.8 2 4.7 0 4.7 -14.2 14.8 -20.9 14.8 -1.4 0 -3.9 0.9 -5.6 2 -1.6 1.1 -4.4 2 -6.1 2 -1.7 0 -4.2 0.8 -5.5 1.9 -1.3 1 -4.4 2.1 -6.9 2.3 -2.5 0.3 -5.3 0.8 -6.2 1.2 -1.5 0.7 -1.8 0.3 -1.8 -1.7z"/>
  <path d="M56 140.5 l0 -4.5 4 0 4 0 0 4.5 0 4.5 -4 0 -4 0 0 -4.5z"/>
  <path d="M148.2 112.8 c0.3 -4.2 0.4 -4.3 4.1 -4.6 l3.7 -0.3 0 4.5 0 4.6 -4.1 0 -4 0 0.3 -4.2z"/>
  <path d="M35.4 71.6 c-0.3 -0.8 -0.4 -2.7 -0.2 -4.3 0.3 -3 2.8 -4 7.5 -2.8 2.1 0.5 2.4 1.1 2.1 4.3 -0.3 3.6 -0.4 3.7 -4.6 4 -3 0.2 -4.4 -0.1 -4.8 -1.2z"/>
 </g>
 <g fill="#ffb101">
  <path d="M46 182.4 c-1.4 -3.5 -1.3 -4.4 1 -8.8 4.1 -7.4 -2.5 -9.2 -9.6 -2.6 -4.8 4.4 -5.9 4.7 -9.2 2.4 -2.1 -1.5 -2.2 -1.7 -0.6 -4.3 1.5 -2.5 1.5 -3 0.1 -5.2 -1.1 -1.6 -1.7 -5.2 -1.8 -10.7 -0.3 -8.2 -0.3 -8.4 -3.8 -11.3 -2 -1.7 -2.8 -2.7 -1.9 -2.4 0.9 0.4 2.6 0.1 3.7 -0.5 1.8 -0.9 2.1 -1.9 1.9 -5.8 -0.1 -2.6 -0.1 -7.1 0 -9.9 0.2 -5.1 0.3 -5.3 3.1 -5.3 2.9 0 4.3 -1.2 4.7 -3.7 0.1 -0.7 -0.4 -1.3 -1.2 -1.3 -1.8 0 -1.5 1.3 -2.4 -11.5 -0.8 -10.8 -1.1 -12.5 -2.3 -15.5 -1 -2.3 -0.2 -7.5 1.1 -7.3 0.9 0.2 1.2 -2.2 1.2 -8.2 0 -5.2 0.4 -8.5 1 -8.5 1.7 0 2.8 -4.3 1.8 -7 -0.8 -2.1 -0.5 -2.9 2.1 -5.1 1.7 -1.4 3.1 -3 3.1 -3.7 0 -1.2 3.4 -2.6 6.8 -2.7 2.8 -0.1 3.2 4 0.3 4.8 -1.5 0.4 -2 1.6 -2.3 6.3 -0.3 5.1 -0.1 6.2 1.9 8.1 2.5 2.4 3.1 8.1 1.1 10.1 -0.7 0.7 -3.4 1.2 -6 1.2 -4.4 0 -4.8 0.2 -4.8 2.4 0 1.3 -0.7 3.9 -1.5 5.9 -1.3 3.1 -1.3 3.6 0 4.1 0.8 0.3 1.5 1.1 1.5 1.8 0 0.7 0.9 1.9 2 2.6 2.5 1.5 2.8 9.1 0.5 14.5 -1.4 3.5 -1.4 3.5 1.4 4.5 1.9 0.7 3.2 0.7 3.9 0 0.5 -0.5 3.1 -0.8 5.8 -0.6 l4.9 0.3 0 4.5 c0 4.5 0 4.5 -3.7 4.8 -2.1 0.2 -3.8 0.8 -3.8 1.3 0 0.5 -1 1.4 -2.2 2 -1.3 0.5 -3.9 1.9 -5.8 2.9 -1.9 1.1 -4.3 1.9 -5.2 2 -2.5 0 -2.4 5.9 0.2 10.5 2.1 3.7 2.6 9 1.1 11.4 -0.7 1.1 -0.3 1.8 1.5 2.8 3.3 1.7 6.6 -0.4 9.1 -5.7 1.3 -2.8 2.6 -4.1 4.6 -4.6 2 -0.4 3.2 -1.5 3.9 -3.4 0.5 -1.6 1.8 -4.6 2.9 -6.6 1 -2.1 1.9 -4.4 1.9 -5.1 0 -0.7 0.8 -1.3 1.8 -1.3 1 0 2.7 -0.7 3.8 -1.5 2 -1.5 7 -2 9.8 -0.9 1.2 0.4 1.6 2 1.6 5.4 0 4.6 -0.2 4.9 -3.7 6.7 -3 1.5 -3.9 2.5 -4.5 5.7 -0.5 2.1 -2.4 6.1 -4.4 8.8 -3.4 4.5 -3.5 5 -2 6.7 0.9 1 1.6 3.5 1.6 5.8 0 6 2 7.3 11.6 7.3 6 0 9.1 -0.5 12.2 -2 2.2 -1.1 4.9 -2 6 -2 2 0 9.8 -3.5 12.2 -5.5 0.8 -0.7 5.2 -1.5 9.7 -1.8 4.7 -0.4 9.3 -1.3 10.6 -2.1 1.2 -0.9 3.8 -4.3 5.7 -7.6 l3.5 -6.1 4.5 0.4 4.5 0.4 -0.4 -4.4 c-0.2 -2.9 0.2 -5 1.1 -6.1 4.2 -4.9 6.7 -14.2 3.8 -14.2 -0.4 0 -1 -1.9 -1.3 -4.2 -0.3 -2.3 -1.3 -4.7 -2.1 -5.4 -1.1 -0.8 -1.6 -2.7 -1.6 -6.3 l0 -5.1 5.5 0 c5.1 0 5.6 0.2 6.5 2.8 0.6 1.5 1.5 3.4 2 4.2 0.6 0.8 1.5 2.6 2 4 0.6 1.4 1.5 3.2 2 4 0.6 0.8 1.5 2.6 2 3.9 0.6 1.3 2.5 4.2 4.3 6.4 3.1 4 3.2 4 3.8 1.6 0.3 -1.3 0.2 -3.2 -0.3 -4.2 -0.5 -1 -0.8 -4.3 -0.6 -7.5 0.3 -5.7 0.3 -5.7 4.1 -6.6 4.3 -1.1 4.4 -1.7 1.7 -7.4 -1.1 -2.2 -2 -4.9 -2 -6 0 -1 -0.9 -3.7 -2 -6 -1.1 -2.2 -2 -4.9 -2 -6 0 -3.2 -2.3 -6.9 -5.2 -8.1 -2.4 -1.1 -3.2 -1 -5.3 0.3 -2.8 1.8 -10.6 2.1 -12.2 0.5 -0.6 -0.6 -2.6 -1.4 -4.5 -1.8 -3.1 -0.7 -3.3 -0.9 -3.3 -5.1 l0 -4.5 7 -0.6 c8.6 -0.7 12.8 -2.6 12 -5.4 -0.2 -1.1 -0.5 -2.6 -0.5 -3.2 0 -0.8 -1.4 -1.3 -3.6 -1.3 -1.9 0 -5.3 -1 -7.4 -2.2 -3.3 -1.9 -4 -2.8 -4 -5.4 0 -6 -1.1 -9.4 -3.1 -9.4 -1.1 0 -1.9 -0.4 -1.9 -0.8 0 -1.6 -7.8 -4.5 -10.4 -3.8 -1.5 0.3 -3.8 0.9 -5.3 1.2 -4.9 1 -13 5.2 -15.6 8 -1.9 2 -2.6 4 -2.9 8.3 -0.3 3.8 -1.3 7.1 -3.2 10.4 -2.6 4.3 -3.1 4.7 -6.7 4.7 -3.5 0 -4 -0.4 -5.9 -4.1 -1.6 -3 -2.1 -5.8 -2 -10.7 0.3 -11.6 0.2 -12.2 -1.9 -12.2 -1 0 -2.4 0.7 -3.1 1.5 -1.8 2.2 -10.6 2 -11.8 -0.2 -0.9 -1.4 -1.1 -1.4 -2.1 0.5 -0.7 1.2 -2 2.2 -3.1 2.2 -1 0 -2 0.5 -2.2 1.1 -0.5 1.4 -9.8 2.5 -9.8 1.1 0 -0.5 1.6 -1.7 3.5 -2.6 1.9 -0.9 3.5 -2.1 3.5 -2.6 0 -0.6 0.9 -1 2.1 -1 1.1 0 1.8 -0.4 1.4 -0.9 -1 -1.7 0.7 -9 2.3 -9.6 0.9 -0.3 2.7 0.6 4.5 2.5 1.7 1.7 3.6 2.9 4.4 2.5 0.8 -0.3 2.1 -0.5 2.9 -0.5 0.8 0 1.4 -0.9 1.4 -2.1 0 -4.3 1.5 -5.5 7.2 -5.3 l5.3 0.2 0.5 4.9 c0.6 5.8 1.5 7.4 3.8 6.6 3.2 -1.1 5.5 -3.8 7.9 -9.2 2.2 -4.9 2.6 -5.3 5.1 -4.6 6 1.5 9.2 1.7 9.2 0.6 0 -1.5 2.2 -1.4 5.6 0.4 1.6 0.8 5.4 1.5 8.5 1.5 4.6 0 6.3 0.5 9.7 2.9 2.2 1.6 4.3 3.5 4.7 4.1 0.4 0.6 2 0.8 3.8 0.5 3 -0.4 3.6 0 8.2 6.1 5.7 7.4 9.8 10.4 14.4 10.4 l3.1 0 0 5.9 c0 5.9 0 5.9 -3.2 6.6 -4 0.9 -11.1 4.9 -10.1 5.8 0.3 0.4 1.5 0.7 2.6 0.7 1.1 0 4.3 1.8 7.1 3.9 2.8 2.2 6.5 4.1 8.1 4.3 l3 0.3 0.5 17.5 c0.3 9.6 0.9 18.1 1.3 18.8 0.5 0.8 -0.2 2.2 -2 4.1 -2.1 2.1 -2.9 3.9 -3.1 7.2 -0.2 2.4 -0.9 4.9 -1.7 5.4 -0.7 0.6 -1.6 2.8 -2 4.8 -0.5 2.3 -1.3 3.7 -2.2 3.7 -1.2 0 -1.4 0.9 -1.1 3.8 0.3 2 0.8 4.4 1.2 5.4 0.5 1.1 -0.2 2.7 -2.3 5 l-3 3.3 -1 -2.8 c-0.6 -1.6 -1.1 -3.5 -1.1 -4.2 0 -2 -3.8 -3.8 -6.6 -3.1 -1.4 0.4 -3 1.8 -3.6 3.2 -1 2 -0.8 2.9 1 5.4 1.2 1.6 2.2 3.8 2.2 4.9 0 5 -11.4 13.1 -20.4 14.4 -2.1 0.4 -4.6 1.2 -5.5 2 -0.9 0.8 -3.5 1.7 -5.9 2 -2.4 0.3 -5.1 1.2 -6.1 2.1 -1 0.9 -3.3 1.6 -5.2 1.6 -1.9 0 -4.4 0.7 -5.5 1.5 -1.2 0.8 -3.9 1.3 -6.3 1.2 -2.3 -0.2 -4.7 0 -5.3 0.4 -0.6 0.4 -1.9 -0.2 -2.9 -1.2 -1.8 -1.8 -2.1 -1.8 -5.8 -0.3 -2.9 1.1 -4.5 1.3 -5.9 0.5 -1.4 -0.8 -2.4 -0.6 -3.8 0.4 -2.6 1.9 -11.8 1.9 -14.8 0 -2.1 -1.4 -2.8 -1.3 -8.4 1.5 -7.4 3.7 -9 3.7 -10.2 0.4z m15 -41.9 c0 -0.8 -0.4 -1.5 -1 -1.5 -0.5 0 -1 0.7 -1 1.5 0 0.8 0.5 1.5 1 1.5 0.6 0 1 -0.7 1 -1.5z m-19.4 -71.7 c0.4 -0.7 0.3 -0.8 -0.4 -0.4 -0.7 0.4 -1.2 0.2 -1.2 -0.4 0 -0.6 -0.5 -0.8 -1 -0.5 -1.1 0.7 -0.4 2.5 1 2.5 0.5 0 1.2 -0.5 1.6 -1.2z m111.9 0.2 c0.3 -0.5 -0.3 -1 -1.5 -1 -1.2 0 -1.8 0.5 -1.5 1 0.3 0.6 1 1 1.5 1 0.5 0 1.2 -0.4 1.5 -1z"/>
  <path d="M82 106.6 c0 -5 0.8 -5.6 7.6 -5.6 3.6 0 4.4 -0.3 4.4 -1.8 0 -3.3 3.4 -5.4 8.1 -5 4.2 0.3 4.4 0.5 4.7 3.7 0.6 6.4 -0.4 8.1 -4.7 8.1 -3.3 0 -4 0.4 -4.3 2.3 -0.3 2 -0.9 2.2 -8 2.5 l-7.8 0.3 0 -4.5z"/>
 </g>
 <g fill="#fffaab">
  <path d="M60.9 170.2 c-1.6 -1.2 -3.2 -2.2 -3.6 -2 -0.4 0.2 -0.9 -0.7 -1.1 -2 -0.2 -1.3 0.3 -2.5 1.2 -2.8 2 -0.8 2 -2.3 0 -4.5 -2.7 -3 -2 -7.3 1.9 -12.7 2 -2.7 4 -6.7 4.5 -8.8 0.6 -3.2 1.5 -4.2 4.5 -5.7 2.2 -1.1 3.7 -2.6 3.7 -3.7 0 -2.7 -2.7 -3.2 -6.2 -1 -1.7 1 -3.5 1.7 -4 1.4 -0.4 -0.3 -0.8 0.1 -0.8 0.8 0 0.8 -0.9 3.1 -1.9 5.2 -1.1 2 -2.4 5 -2.9 6.6 -0.7 1.9 -2 3 -3.9 3.5 -2 0.4 -3.4 1.8 -4.8 4.7 -1.3 2.7 -3.4 4.8 -5.9 6.1 l-3.8 2 -4.7 -2.4 c-5.2 -2.8 -6.2 -5.2 -3.2 -8 2.5 -2.4 2.6 -3.2 0.6 -4.9 -0.9 -0.7 -1.3 -1.5 -1 -1.8 0.3 -0.3 0 -1.1 -0.6 -1.8 -0.6 -0.8 -1.1 -4.4 -1.1 -8.1 0 -5.4 0.3 -6.7 1.5 -6.5 2.1 0.3 13.7 -5.2 13.7 -6.6 0 -0.7 -1.5 -1.6 -7.8 -4.6 -4.1 -1.9 -5 -4.1 -2.7 -6.6 1 -1.1 1.5 -2 1.1 -2 -0.4 0 0 -1 0.8 -2.2 2.1 -3 2 -6.4 -0.2 -8 -1 -0.7 -2.1 -2.1 -2.5 -3.1 -0.4 -1 -1.1 -1.6 -1.6 -1.3 -1.7 1.1 -2 -5.2 -0.4 -8.5 1.6 -3.1 1.9 -4.8 2.2 -10.1 0.1 -3.2 3 -3.9 5.1 -1.3 1.6 1.9 4.4 1.9 5.9 0.1 1 -1.2 0.8 -1.9 -0.8 -3.5 -1.2 -1.2 -2.8 -2.1 -3.6 -2.1 -2.6 0 -2.8 -2.7 -0.4 -5.9 1.8 -2.4 2.1 -3.8 1.6 -7.3 l-0.6 -4.3 9.2 -4.5 c5.1 -2.5 9.4 -4.8 9.5 -5.2 0.2 -0.5 1.2 -0.8 2.2 -0.8 2.5 0 4 -2.9 4 -7.4 0 -2 0.2 -3.6 0.4 -3.6 1.6 0 3.6 1.5 3.6 2.6 0 2.2 4.2 7.4 5.9 7.4 0.8 0 2.2 -0.7 3.1 -1.5 1.7 -1.5 3.6 -1.9 8.6 -1.7 l3.1 0.2 -0.2 9.8 c-0.2 7.9 0.1 10.4 1.7 13.5 1 2.1 2.4 3.7 3 3.5 2.4 -0.8 6.8 -11 6.8 -15.7 0 -3.6 0.6 -5.2 2.6 -7.4 2.7 -3 11.7 -7.7 14.5 -7.7 2.3 0 6.9 -1.9 9.2 -3.8 1.5 -1.3 1.9 -1.3 3.8 0.4 1.2 1 2.3 1.8 2.5 1.7 0.7 -0.5 7.4 3.1 7.4 3.9 0 0.4 0.9 0.8 2 0.8 1.1 0 2.1 0.5 2.1 1 0.1 0.6 0.2 1.6 0.3 2.3 0 0.6 0.8 1.2 1.6 1.2 2.2 0 2.4 3.4 0.4 5.6 -0.9 1 -1.5 2.1 -1.3 2.2 3.2 2.6 8.4 4.7 11.2 4.7 3.1 0 3.5 0.3 4.1 3.3 0.5 2.5 1.4 3.5 3.7 4.4 4 1.5 3.3 3.5 -1.4 4.5 -2.1 0.4 -4.9 1.6 -6.4 2.5 -1.7 1.1 -4.7 1.7 -8.7 1.8 -4.7 0 -6.1 0.3 -6.1 1.5 0 0.8 1.3 1.7 3 2 1.7 0.4 4 1.3 5.2 2.1 2 1.2 2.6 1.1 5.2 -0.4 7.4 -4.4 17.1 -0.1 17.1 7.5 0 1.1 0.9 3.8 2 6 1.1 2.3 2 5 2 6.1 0 1 1.2 4.2 2.6 7 3.5 7.1 2.8 11 -2.2 12.3 -3.2 0.8 -3.7 1.3 -3.9 4.2 -0.2 2 0.5 4.2 1.6 5.6 2.2 2.8 2.4 4 0.6 5.8 -0.6 0.7 -1.7 2.7 -2.2 4.3 -0.6 1.7 -1.8 3 -2.7 3 -1.8 0 -10.8 -10.9 -10.8 -13 0 -0.7 -0.6 -1.8 -1.4 -2.4 -0.8 -0.7 -1.7 -2.4 -2.1 -3.9 -0.4 -1.5 -1.2 -3.4 -1.9 -4.2 -0.8 -0.8 -1.8 -2.8 -2.3 -4.5 -0.7 -2.3 -1.6 -3 -3.6 -3.1 -2.1 -0.1 -2.7 0.4 -2.7 1.9 0 1.1 0.7 2.5 1.6 3.1 0.8 0.7 1.8 3.1 2.1 5.4 0.3 2.3 0.9 4.2 1.4 4.2 0.4 0 1.3 1.5 1.9 3.4 1 3.1 0.8 4.1 -2 9.8 -1.6 3.5 -3.6 7.1 -4.3 8.1 -1 1.5 -0.9 2 0.6 2.8 2.4 1.4 2.1 4.1 -0.6 6.7 -2.8 2.6 -4.4 2.8 -6.9 0.5 -1 -0.9 -2 -1.4 -2.1 -1.2 -0.2 0.2 -2 3.1 -4 6.5 -3.8 6.3 -5.9 7.9 -11.9 8.9 -2 0.3 -3.9 1.2 -4.2 2 -0.8 2.1 -4.3 1.9 -5.5 -0.2 -0.8 -1.5 -1.3 -1.6 -2.8 -0.6 -3.6 2.5 -11.7 6.3 -13.5 6.3 -1 0 -3.7 0.9 -6.1 2 -3.3 1.5 -6.8 2.1 -14.7 2.3 -9.6 0.3 -10.5 0.1 -13.1 -2.1z m26.2 -21.3 c1.1 -0.5 2.4 -2.1 2.9 -3.4 1 -2.6 17.2 -11.5 21 -11.5 1.2 0 3.9 -0.9 6.2 -2.1 3.3 -1.7 5.4 -2 10.5 -1.7 5.3 0.3 6.3 0.1 6.3 -1.2 0 -2.7 2.2 -4 6.6 -4 5.8 0 7.4 -2.1 4.6 -6 -1.3 -1.7 -2.2 -4.4 -2.2 -6.4 0 -1.9 -0.4 -3.7 -0.9 -4.1 -0.5 -0.3 -1.2 -1.9 -1.6 -3.5 -0.6 -2.7 -1.1 -3 -4.4 -3 -2.3 0 -4.8 -0.8 -6.4 -2 -1.4 -1.1 -3.2 -2 -4 -2 -3.1 0 -2.8 2.1 0.8 6.1 3 3.3 3.6 4.7 3.3 7.7 -0.3 3.4 -0.6 3.7 -3.5 4 -1.8 0.2 -4.3 -0.4 -5.5 -1.2 -1.2 -0.9 -3.2 -1.6 -4.4 -1.6 -1.3 0 -3.2 -1.2 -4.4 -2.7 -1.8 -2.3 -2.1 -3.6 -1.6 -7.3 0.4 -2.5 0.9 -6.7 1.2 -9.3 0.8 -6.8 3 -8 13.1 -7.3 15.9 1.1 18.1 1.6 20.8 4.8 1.4 1.6 2.5 3.4 2.5 3.9 0 0.5 1.3 0.9 2.9 0.9 3.2 0 6.1 2.2 6.1 4.7 0 0.8 0.9 2.6 2 4 1.1 1.4 2 3.3 2 4.3 0 0.9 1 2.5 2.2 3.6 2.1 1.9 2.1 1.9 1.4 -0.1 -0.5 -1.1 -1.1 -3.1 -1.6 -4.5 -0.4 -1.4 -1.7 -4.1 -2.9 -6 -1.1 -1.9 -2.1 -4.9 -2.1 -6.7 0 -2.7 -0.4 -3.2 -2.7 -3.5 -2.5 -0.3 -2.8 -0.7 -3.1 -4.7 -0.2 -2.4 0.2 -4.9 0.7 -5.4 1.8 -1.8 1.3 -2.5 -2.5 -3.7 -3.2 -1.1 -3.9 -1 -6.5 0.9 -3.4 2.6 -12 4.3 -18.7 3.9 -4.6 -0.3 -4.7 -0.3 -5 -4 -0.3 -3.3 0.1 -4 3.2 -6 1.9 -1.3 5.9 -4.5 9 -7.2 4.4 -3.8 6.5 -5 10 -5.3 l4.4 -0.5 -2.1 -5.9 c-1.8 -5.2 -2.6 -6.1 -7.1 -8.5 -4.5 -2.3 -6.3 -2.7 -15.5 -2.8 -10.7 -0.1 -13.1 0.6 -13.1 4.1 0 0.8 -1.8 3.7 -4.1 6.4 -3.8 4.6 -4 5.1 -2.9 8.3 0.6 1.8 1.9 4.1 2.9 5 1.7 1.5 1.9 1.5 2.5 0.1 0.4 -1.2 1.7 -1.5 4.8 -1.3 4.1 0.3 4.3 0.4 4.6 3.9 0.5 6 -1.9 7.9 -11 8.6 -7.3 0.5 -8.2 0.4 -14.1 -2.5 -6.5 -3.3 -17.7 -13.7 -17.7 -16.5 0 -2.3 -4.9 -7.6 -8.4 -9.1 -3 -1.3 -3.2 -1.2 -7.8 3.2 -4.5 4.3 -4.7 4.7 -4.1 8.8 0.8 6.3 -0.2 9.4 -3.2 9.4 -1.4 0 -2.5 0.4 -2.5 0.9 0 0.5 -0.3 1.6 -0.6 2.5 -0.4 1.2 0 1.6 1.5 1.6 1.6 0 2.1 0.6 2.1 2.5 0 2 0.5 2.5 2.5 2.5 1.3 0 3.3 1 4.5 2.2 1.2 1.3 3.7 2.4 6.2 2.7 3.1 0.4 4.6 1.2 5.4 2.8 l1.1 2.3 2.1 -2.3 c1.3 -1.4 2.2 -3.6 2.2 -5.5 0 -3 0.2 -3.2 3.4 -3.2 3.2 0 3.4 0.2 4.1 4.3 0.3 2.3 0.7 6.7 0.8 9.7 0.3 7.4 -1 8 -18.2 8 l-13.4 0 -4.8 -4.9 c-2.7 -2.6 -4.9 -5.7 -4.9 -6.8 0 -1.1 -0.6 -2.6 -1.4 -3.2 -1.1 -1 -1.1 -0.4 0.1 3.1 1 2.8 1.3 6.4 1 10.6 -0.5 7.2 -0.1 7.7 6.1 7.3 6.3 -0.4 9.4 1.9 9 6.7 -0.3 3.6 -1.8 5 -7.2 6.7 -1.5 0.4 -1.7 0.8 -0.8 1.7 0.7 0.7 1.3 4.4 1.3 8.3 0.1 3.8 0.4 5.9 0.6 4.5 0.3 -1.4 1.3 -3.4 2.3 -4.5 1 -1.1 2.1 -3 2.5 -4.2 0.4 -1.6 1.4 -2.3 3.3 -2.3 3.1 0 11.4 -8.3 14.7 -14.6 1.3 -2.4 2.9 -4 4.3 -4.2 1.2 -0.2 2.2 -1 2.2 -1.7 0 -2.2 4.1 -4.5 8.1 -4.5 3.1 0 4 -0.6 6.8 -4.5 2.7 -3.7 3.8 -4.5 6.4 -4.5 1.8 0 3.7 0.4 4.4 0.8 1.6 1 2.7 7.5 1.9 11.6 -0.5 2.7 -1.2 3.5 -3.5 3.9 -1.9 0.4 -3.4 1.6 -4.3 3.4 -0.7 1.5 -2.2 3.2 -3.3 3.8 -1.1 0.5 -4 3.1 -6.3 5.7 -2.7 2.9 -5.8 5.1 -8.5 6 -3.4 1.1 -4.2 1.9 -4.7 4.3 -0.4 1.7 -1.3 4 -2 5.2 -1.2 1.9 -1.1 2.7 1.5 7.5 1.6 2.9 3.3 5.6 3.9 6 1.6 1.1 4.4 1 6.7 -0.3z m-36.6 -34.9 c0 -2.3 -4.9 -2 -5.3 0.3 -0.3 1.5 0.2 1.8 2.5 1.5 1.7 -0.2 2.8 -0.9 2.8 -1.8z m44 -8 c0 -0.8 -1.1 -1.6 -2.4 -1.8 -3.5 -0.5 -7.1 0.7 -7.1 2.4 0 1.2 1 1.4 4.8 1.2 3.4 -0.2 4.7 -0.7 4.7 -1.8z m9 -5 c1.3 -4 -1.9 -5.4 -4.9 -2.1 -2.2 2.4 -1.3 4.1 1.9 4.1 1.5 0 2.6 -0.7 3 -2z"/>
 </g>
 <g fill="#ffffc3">
  <path d="M77.4 152.2 c-1.8 -1.2 -6.1 -9.8 -6.8 -13.7 -0.6 -2.8 -0.3 -4.2 1 -5.6 0.9 -1 1.9 -3.3 2.3 -5.1 0.6 -2.8 1.3 -3.5 4.9 -4.6 2.7 -0.9 5.7 -3.1 8.6 -6.3 2.4 -2.7 4.8 -4.9 5.3 -4.9 1.3 0 4.9 -4 3.7 -4 -1.8 -0.1 3.9 -4 5.7 -4 1.9 0 2.4 -1.4 2 -6 -0.4 -4.2 -2.4 -4.2 -5.8 -0.2 l-3.2 3.7 -0.1 -5.1 c0 -5.8 1.2 -7.4 5.5 -7.4 3.5 0 5.5 1.5 5.5 4.2 0 1 0.5 1.8 1 1.8 0.6 0 1 1.5 1.1 3.3 0.1 6.6 1.8 -0.6 1.8 -8.1 0.1 -4 0.6 -8.2 1.1 -9.3 1 -1.8 0.7 -1.9 -6.9 -1.9 -6.7 0 -8.8 -0.4 -13.8 -2.9 -6 -3 -17.3 -13.7 -17.3 -16.4 0 -2.4 -4.7 -7.4 -7.9 -8.5 -2.6 -0.9 -3.2 -0.7 -6.6 2.8 l-3.8 3.8 0.5 9.1 c0.3 6.6 0.9 9.5 2.1 10.9 0.9 1 1.7 2.3 1.7 2.9 0 1.9 3.6 4.3 6.5 4.3 1.6 0 3.6 0.7 4.6 1.6 1.7 1.5 1.8 1.3 2.4 -2.3 0.3 -2.1 0.7 -4.5 0.8 -5.3 0.3 -1.8 6.5 -2.6 8.1 -1 1.2 1.2 3.5 9.2 4.3 15.3 0.3 2.5 0 4.5 -1.1 6.2 -1.6 2.4 -1.5 2.5 0.4 2.5 2.6 0 2.6 1.2 0 2.8 -1.1 0.7 -2 1.9 -2 2.6 0 0.8 -1 1.6 -2.2 1.8 -1.4 0.2 -3 1.7 -4.2 4.1 -1.1 2 -4.1 6.1 -6.7 9 l-4.8 5.2 -0.1 -3.5 c0 -2 0.7 -4.6 1.6 -5.8 1.9 -2.7 1 -4.2 -1.4 -2.4 -1.8 1.3 -3.1 1.9 -9.9 4.7 -3.9 1.6 -4.3 2.1 -4.3 5.2 l0 3.5 3.1 -2.6 c3.9 -3.3 9.9 -3.7 9.9 -0.6 0 1.5 -0.7 2 -2.4 2 -1.7 0 -2.7 0.7 -3.1 2.3 -0.4 1.2 -1.5 3.1 -2.5 4.2 -1 1.1 -2 3.1 -2.2 4.5 -0.2 2 -0.9 2.5 -3.3 2.5 l-3 0 -0.3 -7 c-0.3 -7.7 -1.1 -9.2 -5 -9.7 -3.1 -0.4 -4.5 -3.8 -1.5 -3.8 1 0 2.7 -0.7 3.7 -1.5 1.1 -0.8 2.7 -1.5 3.7 -1.5 0.9 0 2.7 -0.8 4 -1.9 l2.3 -1.8 -2.7 -1.7 c-2.8 -1.9 -6.4 -1.4 -8.3 1.1 -0.8 1.2 -1.5 0.8 -3.8 -2.2 -2.7 -3.4 -2.7 -3.9 -1.7 -8.2 1.3 -5 0.7 -9.5 -1.6 -13.1 -2.1 -3.3 -1.3 -6.5 1.9 -7.6 2.2 -0.8 3.2 -0.6 4.8 0.9 1.1 1 2 2.7 2 3.8 0 1.1 2.2 4.2 4.9 6.9 l5 5 11.5 -0.4 c14.2 -0.4 15.7 -1.3 13.6 -7.9 -0.9 -2.6 -1.6 -3.6 -1.9 -2.7 -0.9 2.2 -6.9 8.8 -8.1 8.8 -0.5 0 -1.8 -1.7 -2.7 -3.7 -1.6 -3.3 -2.4 -3.9 -6.1 -4.4 -2.5 -0.3 -5 -1.4 -6.2 -2.7 -1.2 -1.2 -3.2 -2.2 -4.5 -2.2 -2 0 -2.5 -0.5 -2.5 -2.6 0 -2.3 -0.3 -2.5 -3 -1.9 -2.9 0.6 -3 0.5 -3 -2.9 0 -2 0.4 -3.6 1 -3.6 0.5 0 1.2 -1.1 1.6 -2.5 0.4 -1.8 1.3 -2.5 2.9 -2.5 3.1 0 4.2 -3.3 2.1 -6.5 -0.9 -1.3 -1.6 -3 -1.6 -3.7 0 -1.6 12.1 -13.8 13.6 -13.8 4.9 0 15.4 8 15.4 11.7 0 2.7 11.1 13.2 17.3 16.3 9.1 4.5 15.2 4 9.5 -0.8 -3.7 -3.1 -5.8 -7.8 -5.8 -12.8 0 -2.7 0.9 -4.8 3.8 -8.3 2.2 -2.5 4.2 -5.8 4.5 -7.3 0.9 -3.4 5.1 -4.9 10.4 -3.8 2.1 0.5 7 0.7 10.8 0.4 6.5 -0.4 7.4 -0.2 12.9 2.9 3.3 1.8 6 4 6.2 4.8 0.7 4.1 3.7 10.6 5.7 12.1 2.9 2.2 2.1 2.8 -5.3 3.8 -5.3 0.8 -6.9 1.5 -11.7 5.7 -3 2.6 -7.1 5.9 -9 7.1 -2.5 1.7 -3.2 2.7 -2.5 3.4 1.7 1.7 13.6 -0.6 16.8 -3.1 5.1 -4 13.2 -2.5 19.6 3.7 4.3 4.1 4.4 4.8 2.3 8.8 -2 4 -1.9 5.8 0.9 11.3 5.7 11 6.5 13.3 5.4 15.7 -1.6 3.5 -4.8 3.8 -8 0.7 -1.6 -1.5 -2.8 -3.4 -2.8 -4.4 0 -0.9 -0.9 -2.8 -2 -4.2 -1.1 -1.4 -2 -3.2 -2 -4 0 -2.5 -2.9 -4.7 -6.1 -4.7 -1.6 0 -2.9 -0.4 -2.9 -0.9 0 -0.5 -1.2 -2.4 -2.7 -4.1 -2.3 -2.8 -3.1 -3.1 -6 -2.5 -2.2 0.4 -4 0.1 -5.5 -1 -2.9 -2 -10.7 -1.9 -13.7 0.1 -1.9 1.4 -2.2 2.2 -1.6 5 0.4 2.3 0.1 4.1 -1.1 5.9 -1.6 2.5 -1.6 2.7 0.3 5.3 1.1 1.5 3.4 2.9 5.1 3.3 1.8 0.4 3.8 1.2 4.6 1.8 0.9 0.8 1.6 0.8 2 0.2 0.4 -0.5 -1.1 -3 -3.3 -5.5 -5 -5.8 -5.9 -8.5 -3.5 -10.3 2.8 -2.1 10.2 -1.6 13.2 0.8 2.1 1.6 3.5 1.9 6.9 1.4 4.1 -0.6 4.2 -0.6 4.1 2.5 -0.1 1.7 0.4 3.6 1 4.2 0.7 0.7 1.2 2.7 1.2 4.6 0 1.9 0.9 4.5 2 5.9 2.6 3.3 2.7 9.4 0.2 11.7 -1.3 1.1 -2.8 1.4 -5 1 -3.8 -0.8 -5.7 0.6 -6.6 4.6 -0.6 3.3 -2.9 3.9 -6 1.5 -2.7 -2 -5.9 -1.9 -10.6 0.5 -2.2 1.1 -4.8 2 -6 2 -3.8 0 -20 8.9 -21 11.5 -0.5 1.3 -1.8 2.9 -2.9 3.4 -2.2 1.2 -11.1 1.4 -12.7 0.3z m10.6 -6.8 c1.2 -2.4 3.6 -4.1 11 -7.8 5.3 -2.5 10.4 -4.6 11.5 -4.6 1.1 0 3.7 -0.9 5.8 -2 2.5 -1.4 5.6 -2 9.7 -2 5.6 0 6 -0.2 6 -2.3 0 -2.6 4.4 -4.7 9.8 -4.7 3.5 0 3.8 -0.6 1.7 -3.4 -0.8 -1.1 -1.5 -4.1 -1.5 -6.8 0 -6.1 -2.1 -8.8 -7 -8.8 -2 0 -4.5 -0.7 -5.6 -1.5 -3.7 -2.8 -4.8 -1.6 -1.5 1.9 3 3.1 3.2 3.7 2.9 9.2 l-0.3 5.9 -4.1 0.3 c-3.2 0.2 -5.1 -0.3 -8 -2.3 l-3.9 -2.7 -0.6 4.4 c-0.3 2.4 -1.3 6 -2.2 8.1 l-1.6 3.7 -8.5 0 -8.6 0 0 -5.1 0 -5.1 -4 3.6 c-2.2 1.9 -5 3.8 -6.2 4.1 -1.3 0.4 -3.5 2.6 -5 5.1 l-2.7 4.4 2.4 4.7 c1.4 2.5 3 5.2 3.7 6 1.8 2.2 5.2 1.1 6.8 -2.3z m21.9 -31.4 l3.2 0 -1.8 -2.5 c-1.3 -1.7 -2.8 -2.4 -5 -2.5 -3.2 0 -3.3 0.1 -3.3 4.2 0 3.9 0.1 4 1.8 2.5 1 -1 3.3 -1.7 5.1 -1.7z m-53.4 -7 c1.7 -1.9 2.9 -2.1 11 -1.9 5.4 0.2 9.9 -0.2 11 -0.9 1.6 -0.9 -1.3 -1.1 -13 -1.2 l-14.9 0 -3.8 -3.7 -3.8 -3.7 0 6.1 0 6.2 3.8 0.4 c2 0.2 4.6 0.4 5.8 0.5 1.1 0.1 2.9 -0.7 3.9 -1.8z m99.5 -9.9 c0 -0.5 -1.2 -2.3 -2.6 -4.1 -2.3 -2.7 -2.6 -3.8 -2.2 -8.1 0.5 -4.5 0.3 -5 -1.8 -5.5 -1.4 -0.4 -3.6 0.2 -5.6 1.4 -1.8 1.1 -5.5 2.3 -8.2 2.7 -5.9 0.8 -4.4 2.5 2.3 2.5 3.9 0 4.8 0.5 9.2 5 2.7 2.8 5.5 5 6.4 5 0.8 0 1.5 0.5 1.5 1 0 0.6 0.2 1 0.5 1 0.3 0 0.5 -0.4 0.5 -0.9z m5 -10.5 c0 -2.9 -2.8 -4.2 -4.8 -2.2 -2 2 -0.8 4.6 2.3 4.6 2 0 2.5 -0.5 2.5 -2.4z m-48.6 -14.8 c1.5 -2.1 1.3 -3.8 -0.4 -3.8 -0.5 0 -1.6 1.4 -2.5 3 -1.3 2.6 -1.4 3 -0.1 3 0.8 0 2.2 -1 3 -2.2z m15.8 -4.4 c5.1 -4.8 10.1 -7.4 14.2 -7.4 l2.5 0 -2.4 -5.2 c-1.8 -4.1 -3.5 -5.9 -7.1 -8.1 -4.5 -2.7 -4.9 -2.7 -9.5 -1.6 -3.9 1 -5.6 1 -8.9 -0.1 -2.2 -0.7 -4.3 -1 -4.8 -0.5 -0.4 0.4 -0.1 1 0.7 1.3 0.8 0.3 2.5 1.5 3.8 2.8 1.8 1.9 2.3 3.4 2.3 7.8 0 4 -0.4 5.7 -1.6 6.4 -1.1 0.6 -1.3 1.1 -0.5 1.6 0.6 0.4 1.1 2.7 1.1 5.1 0 4.4 0 4.4 2.7 3.4 1.5 -0.5 4.9 -3 7.5 -5.5z m-22.2 -9.9 c-0.1 -3.7 -0.2 -3.9 -1.5 -2.1 -1.5 2 -2 6.7 -0.8 7.9 1.2 1.2 2.3 -1.6 2.3 -5.8z"/>
 </g>
 <g fill="#ffffd2">
  <path d="M78.2 150.7 c-2.7 -3.2 -6.2 -11 -6.2 -13.7 0 -3.9 4.9 -11.7 7.9 -12.5 1.3 -0.3 4.7 -2.9 7.7 -5.7 4.9 -4.6 5.6 -5 8.9 -4.4 3.2 0.6 3.5 0.5 3.5 -1.8 0 -1.4 -0.4 -2.8 -1 -3.1 -1.8 -1.1 -1.1 -4.3 1 -5 1.2 -0.4 2.8 -0.1 3.6 0.6 2.1 1.7 2.3 1 1.3 -4.5 -1.1 -5.9 -3.5 -9.2 -5.5 -7.5 -0.8 0.6 -1.1 1.5 -0.8 2 0.3 0.5 -0.4 2.5 -1.6 4.4 -1.8 2.9 -2.8 3.5 -5.5 3.5 -3.6 0 -8.5 1.8 -8.5 3.1 0 0.4 -1.4 1.2 -3 1.8 -1.7 0.5 -3.4 2.1 -3.9 3.5 -0.6 1.3 -2.6 4.6 -4.5 7.3 -2 2.6 -4.2 5.7 -4.9 6.7 -0.8 1.1 -2.7 2.1 -4.6 2.2 -3.8 0.2 -6.4 2.4 -9.3 7.6 -1.2 2.1 -2.5 3.8 -2.9 3.8 -1.2 0 -1.9 -3 -1.9 -8 0 -3.9 -0.5 -5.2 -2.4 -6.8 -3.5 -2.7 -3 -3.1 9.9 -7.9 2.2 -0.8 4.7 -2.1 5.6 -2.9 0.8 -0.8 3.4 -1.4 5.6 -1.4 4.6 0 5.8 -0.8 4.2 -2.7 -1.9 -2.1 -9.3 -1.7 -11.5 0.8 -1.7 1.9 -2.6 2 -7.6 1.5 -4.3 -0.4 -6.1 -0.2 -7.2 0.9 -3.6 3.6 -4.2 2 -5.1 -13 -0.3 -5.5 -0.6 -11.1 -0.8 -12.5 -0.2 -2.1 0.2 -2.5 2.3 -2.5 2 0 2.6 0.6 2.8 2.7 0.2 1.5 2.4 5 4.9 7.8 l4.5 5 12.8 0 c12.8 0 12.9 0 15 -2.7 1.2 -1.6 1.8 -3.3 1.4 -4.2 -0.4 -0.9 -1.2 -3.7 -1.8 -6.3 -1.2 -5.3 -3.2 -8.1 -4 -5.7 -0.2 0.8 -0.7 3.1 -1 5.3 -0.5 4 -3 7.6 -5.2 7.6 -0.7 0 -1.9 -1.2 -2.6 -2.8 -1 -2 -2.2 -2.8 -4.8 -3 -3.5 -0.4 -7 -2.6 -7 -4.5 0 -0.6 -0.8 -1.9 -1.7 -2.9 -1.2 -1.3 -1.8 -4.3 -2.1 -10.6 -0.2 -4.8 -0.8 -9.1 -1.3 -9.7 -1.9 -1.9 -0.7 -4.2 4.6 -9.5 l5.4 -5.3 4.2 1.3 c5.5 1.9 9.5 5.3 10.8 9.3 1.5 4.4 11.4 13.9 17.9 17.1 3.9 1.9 6.9 2.6 11.2 2.6 5.1 0 6.1 -0.3 7.9 -2.6 2.6 -3.3 2.6 -4.6 0.3 -6.7 -2.7 -2.4 -4.9 -2.1 -5.6 0.8 -0.8 3.1 -2.9 3.2 -5.6 0.3 -1.5 -1.7 -2 -3.5 -2 -8.1 0 -5.3 0.3 -6.2 3.1 -8.8 1.7 -1.6 3.5 -2.9 4 -2.9 0.5 0 0.9 -1.1 0.9 -2.4 0 -5.1 5.6 -7.1 11 -4.2 2.1 1.2 3 1.2 5.9 0 4.8 -2 6.5 -1.8 12.5 1.6 4.9 2.8 5.8 3.9 9 10.6 2 4.2 3.3 8 3 8.5 -0.3 0.5 -1.9 0.9 -3.5 0.9 -4.6 0 -9.2 2.3 -15.3 7.9 -3.1 2.8 -6.3 5.1 -7 5.1 -1.6 0 -10.6 8.2 -10.6 9.7 0 0.5 0.6 1.5 1.2 2.1 1 1 1 1.7 0 3.3 -0.8 1.2 -1 3.3 -0.6 5.3 0.3 2 0.1 3.6 -0.5 4 -2.1 1.3 -1.1 5.7 1.8 8.4 4.1 3.9 10.2 7.4 11.7 6.8 2.7 -1 1.5 -5.8 -2.6 -10.2 -4.4 -4.8 -4.9 -6.8 -2.1 -8.4 2.9 -1.5 5.2 -1.2 9.4 1 2 1.1 5.3 2 7.2 2 2.8 0 3.7 0.5 5 3 0.8 1.6 1.5 4.6 1.5 6.7 0 2.1 0.9 5.1 2 6.8 3.5 5.3 1.7 10.4 -3.2 9.1 -1.3 -0.3 -3.8 0 -5.6 0.6 -2.6 1 -3.2 1.7 -2.8 3.3 0.9 3.5 -0.8 5.1 -3.9 3.7 -3.8 -1.7 -8 -1.5 -12.2 0.8 -2.1 1.1 -4.7 2 -5.8 2 -1.1 0 -6.2 2.1 -11.5 4.6 -7.4 3.7 -9.8 5.4 -11 7.8 -1.4 2.8 -2 3.1 -6.6 3.4 -3.4 0.2 -5.5 -0.2 -6.2 -1.1z m22.3 -24.7 c0.9 -1.4 -1.3 -5 -3 -5 -1 0 -1.5 1 -1.5 3 0 2.3 0.5 3 1.9 3 1.1 0 2.3 -0.4 2.6 -1z m8.5 -3.6 c1.1 -2.5 2 -4.8 2 -5 0 -1.1 -1.9 -0.1 -4.7 2.5 -2.3 2.1 -3 3.5 -2.6 5 0.9 3.5 3.2 2.4 5.3 -2.5z m5.1 -62.4 c3.3 -1.8 2 -7.8 -2.3 -10.1 -1.9 -1 -2 -0.9 -1.5 1.1 0.3 1.2 0.1 3.3 -0.5 4.6 -0.8 1.7 -0.8 2.7 0.2 3.9 1.5 1.8 1.6 1.8 4.1 0.5z"/>
  <path d="M159 112.3 c-0.6 -1.6 -1.4 -3.5 -2 -4.3 -0.5 -0.8 -1.6 -3 -2.4 -4.8 -0.9 -1.8 -2.7 -3.7 -4.3 -4.3 -1.5 -0.5 -4.4 -2.9 -6.4 -5.2 -3.1 -3.5 -4.3 -4.2 -8 -4.4 -12.4 -0.8 -18.5 -1.5 -19.2 -2.2 -0.5 -0.5 0.2 -2 1.5 -3.5 1.9 -2.2 2.7 -2.6 4.7 -1.8 1.6 0.6 3.6 0.4 6 -0.4 2 -0.7 4.7 -1.3 6.1 -1.4 1.4 0 3.9 -0.9 5.5 -2 4.4 -2.9 11.6 -2.7 15.2 0.4 l2.8 2.4 -2.2 2.4 c-2.7 2.9 -2.9 4.1 -0.8 5.8 1.9 1.6 8.1 14.3 8.9 18.3 0.3 1.5 0.9 3.8 1.2 5.2 0.6 2.3 0.3 2.5 -2.5 2.5 -2.5 0 -3.3 -0.5 -4.1 -2.7z"/>
  <path d="M45.1 76.2 c-0.6 -1.1 -0.6 -2.4 -0.1 -3.2 1 -1.7 1.5 -1.3 2.4 1.7 0.9 2.7 -1 4 -2.3 1.5z"/>
 </g>
</svg>