<?xml version="1.0" encoding="utf-8"?>
<!DOCTYPE svg PUBLIC "-//W3C//DTD SVG 20010904//EN" "http://www.w3.org/TR/2001/REC-SVG-20010904/DTD/svg10.dtd">
<svg version="1.0" xmlns="http://www.w3.org/2000/svg" width="200px" height="200px" viewBox="0 0 200 200" preserveAspectRatio="xMidYMid meet">
 <g fill="#ffffd5">
  <path d="M107.5 147.9 c-2.6 -1.6 -4.9 -1.9 -17.3 -1.9 -12.3 0 -14.8 -0.3 -18.2 -2 -2.2 -1.1 -4.9 -2 -6 -2 -2.6 0 -23.1 -10.4 -25.3 -12.8 -3 -3.4 -8.7 -14.4 -8.7 -17 0 -1.5 -1 -4.3 -2.2 -6.2 -1.8 -3 -2.1 -5.1 -2.2 -14.5 -0.1 -9.5 0.2 -11.7 2.2 -15.7 1.2 -2.6 2.2 -5.9 2.2 -7.4 0 -2 2 -4.7 8.3 -11.1 7.7 -7.9 8.6 -8.5 14.7 -9.9 4.2 -1 8.8 -1.4 13 -1 4.6 0.4 7.2 0.1 9 -0.9 3.3 -1.9 16.7 -1.9 20 0 1.8 1 4.3 1.2 9.2 0.8 6 -0.5 7.2 -0.3 13.4 2.6 8.4 3.9 10.4 5.7 10.4 9 0 3.2 0.7 4.1 4.3 6.4 1.5 1 3.1 2.6 3.4 3.5 0.3 0.9 2.1 3.5 3.8 5.7 1.8 2.2 4.4 6.3 5.9 9.2 2.5 5.1 2.6 5.8 2.6 22.7 0 14.5 -0.3 17.7 -1.6 19 -0.8 0.9 -2.1 1.6 -2.7 1.6 -1.8 0 -7.7 5.7 -7.7 7.4 0 2.2 -2.9 4.6 -5.6 4.6 -4.5 0 -8.4 2.9 -10.4 7.6 -1.9 4.4 -2 4.4 -6.7 4.3 -2.9 0 -6 -0.8 -7.8 -2z"/>
 </g>
 <g fill="#fffeb0">
  <path d="M53.6 169.2 c-0.3 -0.5 -2.4 -1.5 -4.7 -2.2 -3.1 -1 -4.4 -2.1 -5.2 -4.3 -0.6 -1.9 -2.2 -3.4 -4.3 -4.3 -1.9 -0.8 -3.4 -2.1 -3.4 -2.9 0 -0.9 -1.4 -3.9 -3 -6.8 -1.7 -3 -3 -5.9 -3 -6.6 0 -0.7 -0.7 -1.9 -1.5 -2.8 -0.9 -0.8 -1.9 -2.8 -2.2 -4.4 -0.3 -1.6 -0.9 -2.9 -1.4 -2.9 -0.5 0 -0.9 -4.9 -0.9 -10.9 0 -10.3 -0.5 -12.5 -3.5 -17.1 -1.2 -1.9 -1.4 -9 -0.3 -9 1.6 0 3.8 -6.9 3.8 -12 0 -3.7 0.5 -5.5 2.1 -7.1 1.5 -1.5 1.8 -2.4 0.9 -3.3 -1.3 -1.7 -0.4 -4.4 2.8 -7.8 1.3 -1.4 2.2 -3.1 1.8 -3.6 -0.3 -0.5 2.9 -4.3 7 -8.5 7.6 -7.7 18 -14.1 22 -13.7 3.7 0.4 4.9 0 5.9 -2.2 0.7 -1.7 1.8 -2.3 4.3 -2.3 3.4 0 5.4 -1.8 4.5 -4.2 -0.9 -2.3 2.8 -2.7 6.4 -0.7 3.3 1.7 3.6 1.7 6.5 0.1 4.2 -2.4 13.8 -2.3 18 0.3 2 1.2 5.1 2 7.9 2 2.5 0 5.9 0.6 7.5 1.4 1.6 0.8 4.1 1.9 5.7 2.5 1.5 0.6 2.7 1.7 2.7 2.5 0 0.8 0.9 3.1 1.9 5.3 1.1 2.1 2.2 5.4 2.6 7.4 0.6 3.9 2.2 4.9 7.8 4.9 2 0 3 0.6 3.4 2 0.3 1.1 0.9 2 1.4 2 0.5 0 0.9 0.6 0.9 1.4 0 0.8 1.4 1.9 3 2.5 1.7 0.5 3 1.7 3 2.5 0 0.9 0.5 1.6 1 1.6 0.6 0 1 0.6 1 1.4 0 0.8 1.4 1.9 3 2.5 1.7 0.5 3 1.6 3 2.4 0 0.7 1.8 4.9 4 9.3 3.7 7.4 4 8.4 4 16.7 l0 8.8 -3 1 c-1.6 0.6 -3 1.7 -3 2.5 0 0.8 -0.4 1.4 -1 1.4 -0.6 0 -1 3.8 -1 9.4 0 5.2 -0.4 9.8 -1 10.1 -0.5 0.3 -1.4 2.4 -2 4.5 -0.6 2.2 -1.5 4 -2 4 -0.6 0 -1 0.9 -1 2 0 1.1 -0.4 2 -1 2 -0.5 0 -1 0.7 -1 1.6 0 0.8 -1.3 2 -3 2.5 -1.6 0.6 -3 1.7 -3 2.5 0 0.8 -1.6 3.2 -3.6 5.4 -3.3 3.7 -4 4 -8.8 4 -3.3 0 -6.2 0.7 -8.4 2 -1.8 1.1 -4.4 2 -5.8 2 -1.4 0 -3.7 0.9 -5.1 2 -2.3 1.8 -4.2 1.9 -32.3 2 -16.4 0 -30.1 -0.3 -30.4 -0.8z m65.4 -26.6 c2 -4.7 5.9 -7.6 10.4 -7.6 2.7 0 5.6 -2.4 5.6 -4.6 0 -1.7 5.9 -7.4 7.7 -7.4 0.6 0 1.9 -0.7 2.7 -1.6 1.3 -1.3 1.6 -4.2 1.6 -16 0 -13.7 -0.1 -14.8 -2.6 -19.7 -1.5 -2.9 -4.1 -7 -5.9 -9.2 -1.7 -2.2 -3.5 -4.8 -3.8 -5.7 -0.3 -0.9 -1.9 -2.5 -3.4 -3.5 -3.6 -2.3 -4.3 -3.2 -4.3 -6.4 0 -3.3 -2 -5.1 -10.3 -8.9 -6.4 -3.1 -6.9 -3.1 -11.7 -1.9 -4.6 1.2 -5.4 1.1 -9.5 -0.9 -5.8 -2.8 -11.2 -2.8 -17 0 -4.1 2 -4.9 2.1 -9.3 1 -3.9 -1.1 -5.9 -1 -11.2 0.2 -6.1 1.4 -7 2 -14.7 9.9 -6.3 6.4 -8.3 9.1 -8.3 11.1 0 1.5 -1 4.8 -2.2 7.4 -3 6.5 -3 19.2 0.1 24.3 1.2 1.9 2.1 4.6 2.1 6.1 0 2.6 5.7 13.6 8.7 17 2.2 2.4 22.7 12.8 25.3 12.8 1.1 0 3.8 0.9 6 2 3.4 1.7 5.9 2 18.2 2 12.4 0 14.7 0.3 17.3 1.9 4.8 3.1 6.3 2.6 8.5 -2.3z"/>
 </g>
 <g fill="#ffb101">
  <path d="M58 185.2 c-0.8 -0.3 -2.8 -1.5 -4.5 -2.7 -1.6 -1.1 -4.3 -2.2 -6 -2.4 -1.6 -0.1 -4.1 -1.1 -5.5 -2.2 -1.4 -1 -4.4 -2.9 -6.8 -4 -5.2 -2.6 -6.7 -5.4 -7.6 -14 -0.4 -3.6 -1.3 -7.8 -2.1 -9.3 -0.8 -1.4 -1.5 -5.1 -1.6 -8.2 -0.1 -3 -0.6 -5.7 -1.1 -6 -0.5 -0.3 -0.4 -1.2 0.3 -2 0.9 -1.1 0.8 -1.5 -0.4 -2 -1.2 -0.4 -1.3 -1.2 -0.4 -3.9 0.9 -3.1 0.8 -3.7 -1.6 -5.9 -2.9 -2.7 -3.1 -4 -1.8 -9.9 0.6 -2.6 0.5 -3.9 -0.3 -4.5 -1.5 -0.9 -1.7 -4.5 -0.4 -5.3 0.6 -0.4 1.3 -4.2 1.5 -8.5 0.3 -4.9 1 -8.5 1.9 -9.5 0.8 -0.8 1.4 -2.7 1.4 -4.2 0 -1.6 0.8 -3 2.1 -3.7 2 -1.1 2 -0.9 1.8 7.9 -0.1 8.1 -0.4 9.4 -2.6 11.7 -2 2.2 -2.2 2.9 -1.1 4.3 3.3 4.1 3.8 6.4 3.8 17.1 0 6 0.4 11 0.9 11 0.5 0 1.1 1.3 1.4 2.9 0.3 1.6 1.2 3.5 2 4.2 0.7 0.8 1.7 2.6 2 4.1 0.4 1.5 1.4 3.4 2.3 4.2 0.8 0.9 1.3 1.6 0.9 1.6 -0.3 0 0.1 1 0.9 2.2 0.9 1.2 1.6 3 1.6 4 0 1.1 1.3 2.3 3.4 3.2 2.2 0.9 3.7 2.4 4.4 4.5 0.6 1.7 1.6 3.1 2.2 3.1 0.6 0 3 0.9 5.2 2 3.8 1.8 6.2 2 25.3 2 17.7 0 21.4 -0.3 23.3 -1.6 2.1 -1.5 2.5 -1.5 4.2 0.1 2 1.8 5 1.4 7 -1 0.7 -0.8 2.5 -1.5 4.1 -1.5 1.6 0 4.3 -0.9 6.1 -2 2.2 -1.3 5.1 -2 8.4 -2 4.4 0 5.4 -0.4 8.2 -3.3 1.8 -1.8 2.9 -3.6 2.6 -4 -0.4 -0.4 -0.2 -0.7 0.4 -0.7 0.6 0 0.9 -0.6 0.6 -1.4 -0.4 -1 0.5 -1.6 2.7 -2.1 1.9 -0.4 3.3 -1.5 3.6 -2.6 0.3 -1 1 -1.9 1.5 -1.9 0.5 0 0.7 -0.4 0.3 -0.9 -0.3 -0.5 0.2 -1.6 1 -2.5 0.9 -0.9 1.8 -2.5 2 -3.7 0.2 -1.2 1.1 -3.2 2 -4.5 1.1 -1.7 1.5 -4.9 1.5 -11.4 0 -5.1 0.4 -9 1 -9 0.5 0 0.7 -0.6 0.4 -1.3 -0.3 -0.9 0.7 -1.7 2.8 -2.3 3.2 -0.9 3.3 -1.2 3.6 -6.7 0.3 -5.1 -0.2 -6.8 -3.7 -14 -2.3 -4.4 -4.1 -8.7 -4.1 -9.4 0 -0.7 -1.6 -1.9 -3.6 -2.8 -1.9 -0.8 -3.3 -1.9 -2.9 -2.5 0.3 -0.5 0.2 -1 -0.3 -1 -0.5 0 -1.2 -0.9 -1.5 -1.9 -0.3 -1.1 -1.7 -2.2 -3.6 -2.6 -2.2 -0.5 -3.1 -1.1 -2.7 -2.1 0.3 -0.8 0.2 -1.4 -0.3 -1.4 -0.5 0 -1.1 -0.9 -1.4 -2 -0.4 -1.4 -1.4 -2 -3.4 -2 -5.6 0 -7.2 -1 -7.8 -4.9 -0.4 -2 -1.5 -5.3 -2.6 -7.4 -1 -2.2 -1.9 -4.5 -1.9 -5.3 0 -0.8 -1.2 -1.9 -2.7 -2.5 -1.6 -0.6 -4.1 -1.7 -5.7 -2.5 -1.6 -0.8 -5 -1.4 -7.5 -1.4 -2.8 0 -5.9 -0.8 -7.9 -2 -4.1 -2.5 -9 -2.5 -12.2 0 -1.4 1.1 -3.6 2 -4.9 2 -2.5 0 -11.1 -3.9 -11.1 -5 0 -0.3 3 -2.8 6.7 -5.4 6 -4.4 7.1 -4.8 12.4 -4.9 4.6 0 6.3 -0.5 7.8 -2.1 1.6 -1.7 3.1 -2.1 8 -2 5.6 0.1 6.3 0.3 10.5 4.2 2.5 2.3 5.2 4.2 5.9 4.2 0.7 0 3.1 1.5 5.3 3.4 2.2 1.9 5.6 4.1 7.6 4.9 4.2 1.8 6.2 4.9 5.5 8.6 -0.5 2.3 1.2 4.3 14.4 17.4 8.3 8.1 15.4 14.7 15.8 14.7 0.5 0 1.2 0.7 1.5 1.5 0.3 0.9 1.3 1.5 2.1 1.3 1.3 -0.2 1.7 1.2 2.1 8.2 0.4 6.7 0.9 8.9 2.5 10.6 2.5 2.7 2.8 7.8 0.5 10.3 -0.9 1 -1.9 3.1 -2.2 4.7 -0.2 1.6 -1.4 3.7 -2.6 4.7 -1.7 1.4 -2.1 2.8 -1.9 6.2 0.1 3.5 -0.2 4.6 -2 5.9 -1.5 1 -2 2.1 -1.6 3.5 0.3 1.2 0.2 2.3 -0.2 2.5 -0.4 0.3 -0.8 2.2 -0.9 4.3 -0.2 2.1 -1.2 4.7 -2.2 5.9 -1.1 1.1 -2 2.8 -2 3.6 0 0.9 -1.3 2.9 -2.8 4.5 -8 8 -13.3 14.6 -12.8 15.9 0.3 0.9 -0.1 1.4 -1.4 1.4 -1.1 0 -4.2 2 -7 4.5 -3.9 3.5 -5.9 4.5 -8.5 4.5 -2.1 0 -4.4 0.9 -6.3 2.5 -2.5 2.1 -4 2.5 -9.5 2.5 -3.6 0 -6.9 0.5 -7.2 1 -0.3 0.6 -1.3 1 -2.2 1 -0.9 0 -1.3 -0.3 -0.9 -0.7 1.3 -1.3 -4.8 -3 -7.4 -2.1 -4.2 1.6 -6.1 1.8 -8 0.6 -1.4 -0.9 -2.2 -0.7 -4.1 1 -3 2.8 -9.4 2.9 -12.9 0.2 -3.2 -2.5 -5.2 -2.5 -7.5 0 -1.1 1.2 -2.9 1.9 -5 1.8 -1.7 -0.1 -3.6 0.1 -4.1 0.4 -0.5 0.3 -1.6 0.3 -2.4 0z"/>
  <path d="M27.2 72.8 c-2 -2 -1.4 -4.2 1.8 -7.3 1.7 -1.6 2.8 -3.5 2.6 -4.1 -0.3 -0.7 4.2 -5.9 9.8 -11.5 l10.4 -10.2 6.6 -0.3 c5.2 -0.2 6.6 0 6.6 1.2 0 0.8 -0.8 1.4 -1.8 1.4 -1.6 0 -9.3 3.6 -16.1 7.5 -3.1 1.8 -9.1 7.4 -9.1 8.5 0 0.6 -1.3 2.8 -3 4.8 -1.6 2 -3.6 5.4 -4.5 7.5 -1.7 4.2 -1.7 4.1 -3.3 2.5z"/>
  <path d="M66 37.8 c0 -2.3 1.5 -3.7 3.7 -3.5 1.2 0 2 0.4 1.7 0.8 -0.2 0.4 0.2 0.9 0.8 1.2 1.8 0.6 0.8 1.4 -2.9 2.2 -2.4 0.5 -3.3 0.3 -3.3 -0.7z"/>
 </g>
 <g fill="#ff6400">
  <path d="M79.4 184.5 c-1.7 -1.3 -1.8 -1.5 -0.3 -3 1.3 -1.3 2 -1.4 4.3 -0.4 2 1 2.9 1 3.8 0.1 1.6 -1.6 3.8 -1.5 3.8 0.1 0 2.9 -8.7 5.4 -11.6 3.2z"/>
  <path d="M53.5 182.5 c-1.6 -1.3 -2.6 -2.7 -2.3 -3.1 0.8 -0.8 6.8 3.3 6.8 4.7 0 1.5 -1.3 1 -4.5 -1.6z"/>
  <path d="M110.7 184.3 c-0.9 -0.2 -1.5 -0.9 -1.2 -1.4 0.4 -0.5 0 -0.9 -0.7 -0.9 -0.9 0 -0.8 -0.4 0.2 -1.4 1 -0.9 4.7 -1.5 11.2 -1.8 l9.8 -0.4 -3.2 3.3 c-2.9 3 -3.7 3.3 -8.7 3.2 -3.1 -0.1 -6.4 -0.3 -7.4 -0.6z"/>
  <path d="M42.3 178.8 c-0.9 -1 -2.6 -1.8 -3.8 -1.8 -1.3 0 -4 -1.9 -6.6 -4.5 -4 -4.1 -4.4 -4.9 -4.4 -9.4 0 -5.8 1.4 -5.4 4.4 1.4 1.3 3 2.9 4.6 5.7 6 4 1.8 12.4 8.2 12.4 9.4 0 1.4 -6.3 0.5 -7.7 -1.1z"/>
  <path d="M135 176 c0 -0.5 0.7 -1 1.6 -1 3.1 0 17.4 -14.3 18.8 -18.8 0.4 -1.2 3 -4.5 5.7 -7.4 2.8 -2.9 6 -7.4 7.1 -10 1.1 -2.7 2.6 -4.8 3.2 -4.8 1.9 0 1 5.9 -1.4 8.5 -1.2 1.3 -2 3.1 -1.7 3.9 0.4 0.9 -2.3 4.3 -7.5 9.5 -4.8 4.7 -8.2 8.9 -8.3 10.2 -0.1 1.5 -0.9 2.3 -2.3 2.4 -1.1 0.1 -4.1 2 -6.6 4.3 -4.2 3.9 -8.6 5.5 -8.6 3.2z"/>
  <path d="M26.2 152 c-0.1 -0.9 -0.8 -2.2 -1.4 -2.9 -1.8 -1.7 -1.7 -11 0 -10.4 1.7 0.7 2.4 4.1 1.9 9.9 -0.2 2.7 -0.4 4.2 -0.5 3.4z"/>
  <path d="M180 109 c-1.3 -0.9 -1.3 -1 0 -1 1.3 0 1.3 -0.1 0 -1 -1.3 -0.8 -1.2 -1 0.4 -1 1.1 0 1.6 -0.3 1.3 -0.6 -0.8 -0.9 1.1 -4.4 2.3 -4.4 1.6 0 1.2 2 -1 4.7 -1.1 1.4 -1.7 2.9 -1.4 3.4 0.7 1.1 0.3 1.1 -1.6 -0.1z"/>
  <path d="M19.7 97.3 c-0.2 -0.5 -0.2 -2.9 0.1 -5.4 0.4 -4.5 0.5 -4.6 2.8 -3.5 2.7 1.3 2.9 1.9 1 3.5 -0.7 0.6 -1.1 2.2 -0.8 3.6 0.3 1.8 0 2.5 -1.1 2.5 -0.9 0 -1.8 -0.3 -2 -0.7z"/>
  <path d="M176.2 77.8 c-1.9 -1.9 -1.4 -2.7 1.3 -2.4 1.4 0.2 2.5 0.6 2.5 0.9 0 0.4 0 1.2 0 1.7 0 1.4 -2.3 1.3 -3.8 -0.2z"/>
  <path d="M152.4 54 c-8.1 -8.3 -10.4 -11 -9.1 -11 0.3 0 4.9 4.5 10.4 10 5.4 5.5 9.3 10 8.7 10 -0.6 0 -5.1 -4.1 -10 -9z"/>
  <path d="M34.6 56.6 c0.2 -0.6 1.3 -1.7 2.3 -2.3 1.6 -1 1.8 -0.9 1.4 0.7 -0.3 1 -1.3 2 -2.3 2.3 -1.1 0.3 -1.7 0 -1.4 -0.7z"/>
  <path d="M42.1 49.3 c4.5 -5.5 10.1 -9.6 13.4 -9.8 1.9 -0.1 3.5 0.2 3.5 0.7 0 0.4 -1.1 0.8 -2.5 0.8 -1.4 0 -2.5 0.5 -2.5 1 0 0.6 -0.9 1 -2 1 -1.2 0 -3.8 1.8 -6 4 -3.9 4 -6.5 5.5 -3.9 2.3z"/>
  <path d="M141 39 c-1.2 -1.6 -3.2 -3.3 -4.6 -3.6 -1.4 -0.4 -4.6 -2.4 -7.2 -4.5 -2.5 -2.2 -5.3 -3.9 -6 -3.9 -0.7 0 -3.8 -2.4 -6.9 -5.2 -5.2 -5 -5.4 -5.3 -3.2 -5.9 1.6 -0.4 3.1 0 4.5 1.2 1.6 1.5 3.5 1.9 9.7 1.7 7.3 -0.1 8 0.1 10.7 2.7 1.7 1.6 3 3.8 3 4.9 0 1.1 0.9 2.9 1.9 4 1.8 2 2.4 4.6 2.2 9.4 -0.1 3 -1.6 2.8 -4.1 -0.8z"/>
  <path d="M66.6 35.5 c0.3 -0.8 1.6 -1.4 2.9 -1.3 3 0.3 2.1 2.8 -1.1 2.8 -1.7 0 -2.2 -0.4 -1.8 -1.5z"/>
  <path d="M75 30.1 c0 -2.1 5.3 -7.1 7.4 -7.1 1.3 0 3.1 -1 4.2 -2.1 1.6 -1.8 2.6 -2 7.5 -1.5 5 0.5 5.9 0.3 7.8 -1.8 1.5 -1.6 2.9 -2.2 4.6 -1.8 2.6 0.4 2.5 2.2 -0.1 2.2 -0.8 0 -2.4 0.9 -3.6 2 -1.3 1.2 -4.2 2.2 -7.9 2.6 -4.8 0.5 -6.4 1.3 -10 4.5 -2.9 2.6 -5.3 3.9 -7.1 3.9 -1.5 0 -2.8 -0.4 -2.8 -0.9z"/>
 </g>
</svg>